<?xml version="1.0" encoding="utf-8" standalone="no"?>
<!DOCTYPE svg PUBLIC "-//W3C//DTD SVG 1.1//EN"
  "http://www.w3.org/Graphics/SVG/1.1/DTD/svg11.dtd">
<svg xmlns:xlink="http://www.w3.org/1999/xlink" width="720pt" height="432pt" viewBox="0 0 720 432" xmlns="http://www.w3.org/2000/svg" version="1.1">
 <metadata>
  <rdf:RDF xmlns:dc="http://purl.org/dc/elements/1.1/" xmlns:cc="http://creativecommons.org/ns#" xmlns:rdf="http://www.w3.org/1999/02/22-rdf-syntax-ns#">
   <cc:Work>
    <dc:type rdf:resource="http://purl.org/dc/dcmitype/StillImage"/>
    <dc:date>2025-05-28T17:46:05.461003</dc:date>
    <dc:format>image/svg+xml</dc:format>
    <dc:creator>
     <cc:Agent>
      <dc:title>Matplotlib v3.10.0, https://matplotlib.org/</dc:title>
     </cc:Agent>
    </dc:creator>
   </cc:Work>
  </rdf:RDF>
 </metadata>
 <defs>
  <style type="text/css">*{stroke-linejoin: round; stroke-linecap: butt}</style>
 </defs>
 <g id="figure_1">
  <g id="patch_1">
   <path d="M 0 432 
L 720 432 
L 720 0 
L 0 0 
z
" style="fill: #ffffff"/>
  </g>
  <g id="axes_1">
   <g id="patch_2">
    <path d="M 59.10774 270.423053 
L 705.411549 270.423053 
L 705.411549 21.884302 
L 59.10774 21.884302 
z
" style="fill: #ffffff"/>
   </g>
   <g id="matplotlib.axis_1">
    <g id="xtick_1">
     <g id="line2d_1">
      <defs>
       <path id="ma0ad663691" d="M 0 0 
L 0 9 
" style="stroke: #262626; stroke-width: 1.875"/>
      </defs>
      <g>
       <use xlink:href="#ma0ad663691" x="88.485186" y="270.423053" style="fill: #262626; stroke: #262626; stroke-width: 1.875"/>
      </g>
     </g>
     <g id="text_1">
      <!-- 0 -->
      <g style="fill: #262626" transform="translate(83.897412 294.733444) scale(0.165 -0.165)">
       <defs>
        <path id="ArialMT-30" d="M 266 2259 
Q 266 3072 433 3567 
Q 600 4063 929 4331 
Q 1259 4600 1759 4600 
Q 2128 4600 2406 4451 
Q 2684 4303 2865 4023 
Q 3047 3744 3150 3342 
Q 3253 2941 3253 2259 
Q 3253 1453 3087 958 
Q 2922 463 2592 192 
Q 2263 -78 1759 -78 
Q 1097 -78 719 397 
Q 266 969 266 2259 
z
M 844 2259 
Q 844 1131 1108 757 
Q 1372 384 1759 384 
Q 2147 384 2411 759 
Q 2675 1134 2675 2259 
Q 2675 3391 2411 3762 
Q 2147 4134 1753 4134 
Q 1366 4134 1134 3806 
Q 844 3388 844 2259 
z
" transform="scale(0.015625)"/>
       </defs>
       <use xlink:href="#ArialMT-30"/>
      </g>
     </g>
    </g>
    <g id="xtick_2">
     <g id="line2d_2">
      <g>
       <use xlink:href="#ma0ad663691" x="164.444968" y="270.423053" style="fill: #262626; stroke: #262626; stroke-width: 1.875"/>
      </g>
     </g>
     <g id="text_2">
      <!-- 50 -->
      <g style="fill: #262626" transform="translate(155.269421 294.733444) scale(0.165 -0.165)">
       <defs>
        <path id="ArialMT-35" d="M 266 1200 
L 856 1250 
Q 922 819 1161 601 
Q 1400 384 1738 384 
Q 2144 384 2425 690 
Q 2706 997 2706 1503 
Q 2706 1984 2436 2262 
Q 2166 2541 1728 2541 
Q 1456 2541 1237 2417 
Q 1019 2294 894 2097 
L 366 2166 
L 809 4519 
L 3088 4519 
L 3088 3981 
L 1259 3981 
L 1013 2750 
Q 1425 3038 1878 3038 
Q 2478 3038 2890 2622 
Q 3303 2206 3303 1553 
Q 3303 931 2941 478 
Q 2500 -78 1738 -78 
Q 1113 -78 717 272 
Q 322 622 266 1200 
z
" transform="scale(0.015625)"/>
       </defs>
       <use xlink:href="#ArialMT-35"/>
       <use xlink:href="#ArialMT-30" transform="translate(55.615234 0)"/>
      </g>
     </g>
    </g>
    <g id="xtick_3">
     <g id="line2d_3">
      <g>
       <use xlink:href="#ma0ad663691" x="240.404751" y="270.423053" style="fill: #262626; stroke: #262626; stroke-width: 1.875"/>
      </g>
     </g>
     <g id="text_3">
      <!-- 100 -->
      <g style="fill: #262626" transform="translate(226.64143 294.733444) scale(0.165 -0.165)">
       <defs>
        <path id="ArialMT-31" d="M 2384 0 
L 1822 0 
L 1822 3584 
Q 1619 3391 1289 3197 
Q 959 3003 697 2906 
L 697 3450 
Q 1169 3672 1522 3987 
Q 1875 4303 2022 4600 
L 2384 4600 
L 2384 0 
z
" transform="scale(0.015625)"/>
       </defs>
       <use xlink:href="#ArialMT-31"/>
       <use xlink:href="#ArialMT-30" transform="translate(55.615234 0)"/>
       <use xlink:href="#ArialMT-30" transform="translate(111.230469 0)"/>
      </g>
     </g>
    </g>
    <g id="xtick_4">
     <g id="line2d_4">
      <g>
       <use xlink:href="#ma0ad663691" x="316.364533" y="270.423053" style="fill: #262626; stroke: #262626; stroke-width: 1.875"/>
      </g>
     </g>
     <g id="text_4">
      <!-- 150 -->
      <g style="fill: #262626" transform="translate(302.601213 294.733444) scale(0.165 -0.165)">
       <use xlink:href="#ArialMT-31"/>
       <use xlink:href="#ArialMT-35" transform="translate(55.615234 0)"/>
       <use xlink:href="#ArialMT-30" transform="translate(111.230469 0)"/>
      </g>
     </g>
    </g>
    <g id="xtick_5">
     <g id="line2d_5">
      <g>
       <use xlink:href="#ma0ad663691" x="392.324316" y="270.423053" style="fill: #262626; stroke: #262626; stroke-width: 1.875"/>
      </g>
     </g>
     <g id="text_5">
      <!-- 200 -->
      <g style="fill: #262626" transform="translate(378.560995 294.733444) scale(0.165 -0.165)">
       <defs>
        <path id="ArialMT-32" d="M 3222 541 
L 3222 0 
L 194 0 
Q 188 203 259 391 
Q 375 700 629 1000 
Q 884 1300 1366 1694 
Q 2113 2306 2375 2664 
Q 2638 3022 2638 3341 
Q 2638 3675 2398 3904 
Q 2159 4134 1775 4134 
Q 1369 4134 1125 3890 
Q 881 3647 878 3216 
L 300 3275 
Q 359 3922 746 4261 
Q 1134 4600 1788 4600 
Q 2447 4600 2831 4234 
Q 3216 3869 3216 3328 
Q 3216 3053 3103 2787 
Q 2991 2522 2730 2228 
Q 2469 1934 1863 1422 
Q 1356 997 1212 845 
Q 1069 694 975 541 
L 3222 541 
z
" transform="scale(0.015625)"/>
       </defs>
       <use xlink:href="#ArialMT-32"/>
       <use xlink:href="#ArialMT-30" transform="translate(55.615234 0)"/>
       <use xlink:href="#ArialMT-30" transform="translate(111.230469 0)"/>
      </g>
     </g>
    </g>
    <g id="xtick_6">
     <g id="line2d_6">
      <g>
       <use xlink:href="#ma0ad663691" x="468.284098" y="270.423053" style="fill: #262626; stroke: #262626; stroke-width: 1.875"/>
      </g>
     </g>
     <g id="text_6">
      <!-- 250 -->
      <g style="fill: #262626" transform="translate(454.520778 294.733444) scale(0.165 -0.165)">
       <use xlink:href="#ArialMT-32"/>
       <use xlink:href="#ArialMT-35" transform="translate(55.615234 0)"/>
       <use xlink:href="#ArialMT-30" transform="translate(111.230469 0)"/>
      </g>
     </g>
    </g>
    <g id="xtick_7">
     <g id="line2d_7">
      <g>
       <use xlink:href="#ma0ad663691" x="544.243881" y="270.423053" style="fill: #262626; stroke: #262626; stroke-width: 1.875"/>
      </g>
     </g>
     <g id="text_7">
      <!-- 300 -->
      <g style="fill: #262626" transform="translate(530.48056 294.733444) scale(0.165 -0.165)">
       <defs>
        <path id="ArialMT-33" d="M 269 1209 
L 831 1284 
Q 928 806 1161 595 
Q 1394 384 1728 384 
Q 2125 384 2398 659 
Q 2672 934 2672 1341 
Q 2672 1728 2419 1979 
Q 2166 2231 1775 2231 
Q 1616 2231 1378 2169 
L 1441 2663 
Q 1497 2656 1531 2656 
Q 1891 2656 2178 2843 
Q 2466 3031 2466 3422 
Q 2466 3731 2256 3934 
Q 2047 4138 1716 4138 
Q 1388 4138 1169 3931 
Q 950 3725 888 3313 
L 325 3413 
Q 428 3978 793 4289 
Q 1159 4600 1703 4600 
Q 2078 4600 2393 4439 
Q 2709 4278 2876 4000 
Q 3044 3722 3044 3409 
Q 3044 3113 2884 2869 
Q 2725 2625 2413 2481 
Q 2819 2388 3044 2092 
Q 3269 1797 3269 1353 
Q 3269 753 2831 336 
Q 2394 -81 1725 -81 
Q 1122 -81 723 278 
Q 325 638 269 1209 
z
" transform="scale(0.015625)"/>
       </defs>
       <use xlink:href="#ArialMT-33"/>
       <use xlink:href="#ArialMT-30" transform="translate(55.615234 0)"/>
       <use xlink:href="#ArialMT-30" transform="translate(111.230469 0)"/>
      </g>
     </g>
    </g>
    <g id="xtick_8">
     <g id="line2d_8">
      <g>
       <use xlink:href="#ma0ad663691" x="620.203663" y="270.423053" style="fill: #262626; stroke: #262626; stroke-width: 1.875"/>
      </g>
     </g>
     <g id="text_8">
      <!-- 350 -->
      <g style="fill: #262626" transform="translate(606.440343 294.733444) scale(0.165 -0.165)">
       <use xlink:href="#ArialMT-33"/>
       <use xlink:href="#ArialMT-35" transform="translate(55.615234 0)"/>
       <use xlink:href="#ArialMT-30" transform="translate(111.230469 0)"/>
      </g>
     </g>
    </g>
    <g id="xtick_9">
     <g id="line2d_9">
      <g>
       <use xlink:href="#ma0ad663691" x="696.163446" y="270.423053" style="fill: #262626; stroke: #262626; stroke-width: 1.875"/>
      </g>
     </g>
     <g id="text_9">
      <!-- 400 -->
      <g style="fill: #262626" transform="translate(682.400125 294.733444) scale(0.165 -0.165)">
       <defs>
        <path id="ArialMT-34" d="M 2069 0 
L 2069 1097 
L 81 1097 
L 81 1613 
L 2172 4581 
L 2631 4581 
L 2631 1613 
L 3250 1613 
L 3250 1097 
L 2631 1097 
L 2631 0 
L 2069 0 
z
M 2069 1613 
L 2069 3678 
L 634 1613 
L 2069 1613 
z
" transform="scale(0.015625)"/>
       </defs>
       <use xlink:href="#ArialMT-34"/>
       <use xlink:href="#ArialMT-30" transform="translate(55.615234 0)"/>
       <use xlink:href="#ArialMT-30" transform="translate(111.230469 0)"/>
      </g>
     </g>
    </g>
    <g id="text_10">
     <!-- Time (min) -->
     <g style="fill: #262626" transform="translate(339.603863 315.116256) scale(0.18 -0.18)">
      <defs>
       <path id="ArialMT-54" d="M 1659 0 
L 1659 4041 
L 150 4041 
L 150 4581 
L 3781 4581 
L 3781 4041 
L 2266 4041 
L 2266 0 
L 1659 0 
z
" transform="scale(0.015625)"/>
       <path id="ArialMT-69" d="M 425 3934 
L 425 4581 
L 988 4581 
L 988 3934 
L 425 3934 
z
M 425 0 
L 425 3319 
L 988 3319 
L 988 0 
L 425 0 
z
" transform="scale(0.015625)"/>
       <path id="ArialMT-6d" d="M 422 0 
L 422 3319 
L 925 3319 
L 925 2853 
Q 1081 3097 1340 3245 
Q 1600 3394 1931 3394 
Q 2300 3394 2536 3241 
Q 2772 3088 2869 2813 
Q 3263 3394 3894 3394 
Q 4388 3394 4653 3120 
Q 4919 2847 4919 2278 
L 4919 0 
L 4359 0 
L 4359 2091 
Q 4359 2428 4304 2576 
Q 4250 2725 4106 2815 
Q 3963 2906 3769 2906 
Q 3419 2906 3187 2673 
Q 2956 2441 2956 1928 
L 2956 0 
L 2394 0 
L 2394 2156 
Q 2394 2531 2256 2718 
Q 2119 2906 1806 2906 
Q 1569 2906 1367 2781 
Q 1166 2656 1075 2415 
Q 984 2175 984 1722 
L 984 0 
L 422 0 
z
" transform="scale(0.015625)"/>
       <path id="ArialMT-65" d="M 2694 1069 
L 3275 997 
Q 3138 488 2766 206 
Q 2394 -75 1816 -75 
Q 1088 -75 661 373 
Q 234 822 234 1631 
Q 234 2469 665 2931 
Q 1097 3394 1784 3394 
Q 2450 3394 2872 2941 
Q 3294 2488 3294 1666 
Q 3294 1616 3291 1516 
L 816 1516 
Q 847 969 1125 678 
Q 1403 388 1819 388 
Q 2128 388 2347 550 
Q 2566 713 2694 1069 
z
M 847 1978 
L 2700 1978 
Q 2663 2397 2488 2606 
Q 2219 2931 1791 2931 
Q 1403 2931 1139 2672 
Q 875 2413 847 1978 
z
" transform="scale(0.015625)"/>
       <path id="ArialMT-20" transform="scale(0.015625)"/>
       <path id="ArialMT-28" d="M 1497 -1347 
Q 1031 -759 709 28 
Q 388 816 388 1659 
Q 388 2403 628 3084 
Q 909 3875 1497 4659 
L 1900 4659 
Q 1522 4009 1400 3731 
Q 1209 3300 1100 2831 
Q 966 2247 966 1656 
Q 966 153 1900 -1347 
L 1497 -1347 
z
" transform="scale(0.015625)"/>
       <path id="ArialMT-6e" d="M 422 0 
L 422 3319 
L 928 3319 
L 928 2847 
Q 1294 3394 1984 3394 
Q 2284 3394 2536 3286 
Q 2788 3178 2913 3003 
Q 3038 2828 3088 2588 
Q 3119 2431 3119 2041 
L 3119 0 
L 2556 0 
L 2556 2019 
Q 2556 2363 2490 2533 
Q 2425 2703 2258 2804 
Q 2091 2906 1866 2906 
Q 1506 2906 1245 2678 
Q 984 2450 984 1813 
L 984 0 
L 422 0 
z
" transform="scale(0.015625)"/>
       <path id="ArialMT-29" d="M 791 -1347 
L 388 -1347 
Q 1322 153 1322 1656 
Q 1322 2244 1188 2822 
Q 1081 3291 891 3722 
Q 769 4003 388 4659 
L 791 4659 
Q 1378 3875 1659 3084 
Q 1900 2403 1900 1659 
Q 1900 816 1576 28 
Q 1253 -759 791 -1347 
z
" transform="scale(0.015625)"/>
      </defs>
      <use xlink:href="#ArialMT-54"/>
      <use xlink:href="#ArialMT-69" transform="translate(57.333984 0)"/>
      <use xlink:href="#ArialMT-6d" transform="translate(79.550781 0)"/>
      <use xlink:href="#ArialMT-65" transform="translate(162.851562 0)"/>
      <use xlink:href="#ArialMT-20" transform="translate(218.466797 0)"/>
      <use xlink:href="#ArialMT-28" transform="translate(246.25 0)"/>
      <use xlink:href="#ArialMT-6d" transform="translate(279.550781 0)"/>
      <use xlink:href="#ArialMT-69" transform="translate(362.851562 0)"/>
      <use xlink:href="#ArialMT-6e" transform="translate(385.068359 0)"/>
      <use xlink:href="#ArialMT-29" transform="translate(440.683594 0)"/>
     </g>
    </g>
   </g>
   <g id="matplotlib.axis_2">
    <g id="ytick_1">
     <g id="line2d_10">
      <defs>
       <path id="m6b5bf75b50" d="M 0 0 
L -9 0 
" style="stroke: #262626; stroke-width: 1.875"/>
      </defs>
      <g>
       <use xlink:href="#m6b5bf75b50" x="59.10774" y="259.125837" style="fill: #262626; stroke: #262626; stroke-width: 1.875"/>
      </g>
     </g>
     <g id="text_11">
      <!-- 0.0 -->
      <g style="fill: #262626" transform="translate(23.67274 265.031033) scale(0.165 -0.165)">
       <defs>
        <path id="ArialMT-2e" d="M 581 0 
L 581 641 
L 1222 641 
L 1222 0 
L 581 0 
z
" transform="scale(0.015625)"/>
       </defs>
       <use xlink:href="#ArialMT-30"/>
       <use xlink:href="#ArialMT-2e" transform="translate(55.615234 0)"/>
       <use xlink:href="#ArialMT-30" transform="translate(83.398438 0)"/>
      </g>
     </g>
    </g>
    <g id="ytick_2">
     <g id="line2d_11">
      <g>
       <use xlink:href="#m6b5bf75b50" x="59.10774" y="217.842261" style="fill: #262626; stroke: #262626; stroke-width: 1.875"/>
      </g>
     </g>
     <g id="text_12">
      <!-- 0.2 -->
      <g style="fill: #262626" transform="translate(23.67274 223.747457) scale(0.165 -0.165)">
       <use xlink:href="#ArialMT-30"/>
       <use xlink:href="#ArialMT-2e" transform="translate(55.615234 0)"/>
       <use xlink:href="#ArialMT-32" transform="translate(83.398438 0)"/>
      </g>
     </g>
    </g>
    <g id="ytick_3">
     <g id="line2d_12">
      <g>
       <use xlink:href="#m6b5bf75b50" x="59.10774" y="176.558685" style="fill: #262626; stroke: #262626; stroke-width: 1.875"/>
      </g>
     </g>
     <g id="text_13">
      <!-- 0.4 -->
      <g style="fill: #262626" transform="translate(23.67274 182.463881) scale(0.165 -0.165)">
       <use xlink:href="#ArialMT-30"/>
       <use xlink:href="#ArialMT-2e" transform="translate(55.615234 0)"/>
       <use xlink:href="#ArialMT-34" transform="translate(83.398438 0)"/>
      </g>
     </g>
    </g>
    <g id="ytick_4">
     <g id="line2d_13">
      <g>
       <use xlink:href="#m6b5bf75b50" x="59.10774" y="135.275109" style="fill: #262626; stroke: #262626; stroke-width: 1.875"/>
      </g>
     </g>
     <g id="text_14">
      <!-- 0.6 -->
      <g style="fill: #262626" transform="translate(23.67274 141.180305) scale(0.165 -0.165)">
       <defs>
        <path id="ArialMT-36" d="M 3184 3459 
L 2625 3416 
Q 2550 3747 2413 3897 
Q 2184 4138 1850 4138 
Q 1581 4138 1378 3988 
Q 1113 3794 959 3422 
Q 806 3050 800 2363 
Q 1003 2672 1297 2822 
Q 1591 2972 1913 2972 
Q 2475 2972 2870 2558 
Q 3266 2144 3266 1488 
Q 3266 1056 3080 686 
Q 2894 316 2569 119 
Q 2244 -78 1831 -78 
Q 1128 -78 684 439 
Q 241 956 241 2144 
Q 241 3472 731 4075 
Q 1159 4600 1884 4600 
Q 2425 4600 2770 4297 
Q 3116 3994 3184 3459 
z
M 888 1484 
Q 888 1194 1011 928 
Q 1134 663 1356 523 
Q 1578 384 1822 384 
Q 2178 384 2434 671 
Q 2691 959 2691 1453 
Q 2691 1928 2437 2201 
Q 2184 2475 1800 2475 
Q 1419 2475 1153 2201 
Q 888 1928 888 1484 
z
" transform="scale(0.015625)"/>
       </defs>
       <use xlink:href="#ArialMT-30"/>
       <use xlink:href="#ArialMT-2e" transform="translate(55.615234 0)"/>
       <use xlink:href="#ArialMT-36" transform="translate(83.398438 0)"/>
      </g>
     </g>
    </g>
    <g id="ytick_5">
     <g id="line2d_14">
      <g>
       <use xlink:href="#m6b5bf75b50" x="59.10774" y="93.991534" style="fill: #262626; stroke: #262626; stroke-width: 1.875"/>
      </g>
     </g>
     <g id="text_15">
      <!-- 0.8 -->
      <g style="fill: #262626" transform="translate(23.67274 99.896729) scale(0.165 -0.165)">
       <defs>
        <path id="ArialMT-38" d="M 1131 2484 
Q 781 2613 612 2850 
Q 444 3088 444 3419 
Q 444 3919 803 4259 
Q 1163 4600 1759 4600 
Q 2359 4600 2725 4251 
Q 3091 3903 3091 3403 
Q 3091 3084 2923 2848 
Q 2756 2613 2416 2484 
Q 2838 2347 3058 2040 
Q 3278 1734 3278 1309 
Q 3278 722 2862 322 
Q 2447 -78 1769 -78 
Q 1091 -78 675 323 
Q 259 725 259 1325 
Q 259 1772 486 2073 
Q 713 2375 1131 2484 
z
M 1019 3438 
Q 1019 3113 1228 2906 
Q 1438 2700 1772 2700 
Q 2097 2700 2305 2904 
Q 2513 3109 2513 3406 
Q 2513 3716 2298 3927 
Q 2084 4138 1766 4138 
Q 1444 4138 1231 3931 
Q 1019 3725 1019 3438 
z
M 838 1322 
Q 838 1081 952 856 
Q 1066 631 1291 507 
Q 1516 384 1775 384 
Q 2178 384 2440 643 
Q 2703 903 2703 1303 
Q 2703 1709 2433 1975 
Q 2163 2241 1756 2241 
Q 1359 2241 1098 1978 
Q 838 1716 838 1322 
z
" transform="scale(0.015625)"/>
       </defs>
       <use xlink:href="#ArialMT-30"/>
       <use xlink:href="#ArialMT-2e" transform="translate(55.615234 0)"/>
       <use xlink:href="#ArialMT-38" transform="translate(83.398438 0)"/>
      </g>
     </g>
    </g>
    <g id="ytick_6">
     <g id="line2d_15">
      <g>
       <use xlink:href="#m6b5bf75b50" x="59.10774" y="52.707958" style="fill: #262626; stroke: #262626; stroke-width: 1.875"/>
      </g>
     </g>
     <g id="text_16">
      <!-- 1.0 -->
      <g style="fill: #262626" transform="translate(23.67274 58.613153) scale(0.165 -0.165)">
       <use xlink:href="#ArialMT-31"/>
       <use xlink:href="#ArialMT-2e" transform="translate(55.615234 0)"/>
       <use xlink:href="#ArialMT-30" transform="translate(83.398438 0)"/>
      </g>
     </g>
    </g>
    <g id="text_17">
     <!-- y value -->
     <g style="fill: #262626" transform="translate(15.884303 174.668209) rotate(-90) scale(0.18 -0.18)">
      <defs>
       <path id="ArialMT-79" d="M 397 -1278 
L 334 -750 
Q 519 -800 656 -800 
Q 844 -800 956 -737 
Q 1069 -675 1141 -563 
Q 1194 -478 1313 -144 
Q 1328 -97 1363 -6 
L 103 3319 
L 709 3319 
L 1400 1397 
Q 1534 1031 1641 628 
Q 1738 1016 1872 1384 
L 2581 3319 
L 3144 3319 
L 1881 -56 
Q 1678 -603 1566 -809 
Q 1416 -1088 1222 -1217 
Q 1028 -1347 759 -1347 
Q 597 -1347 397 -1278 
z
" transform="scale(0.015625)"/>
       <path id="ArialMT-76" d="M 1344 0 
L 81 3319 
L 675 3319 
L 1388 1331 
Q 1503 1009 1600 663 
Q 1675 925 1809 1294 
L 2547 3319 
L 3125 3319 
L 1869 0 
L 1344 0 
z
" transform="scale(0.015625)"/>
       <path id="ArialMT-61" d="M 2588 409 
Q 2275 144 1986 34 
Q 1697 -75 1366 -75 
Q 819 -75 525 192 
Q 231 459 231 875 
Q 231 1119 342 1320 
Q 453 1522 633 1644 
Q 813 1766 1038 1828 
Q 1203 1872 1538 1913 
Q 2219 1994 2541 2106 
Q 2544 2222 2544 2253 
Q 2544 2597 2384 2738 
Q 2169 2928 1744 2928 
Q 1347 2928 1158 2789 
Q 969 2650 878 2297 
L 328 2372 
Q 403 2725 575 2942 
Q 747 3159 1072 3276 
Q 1397 3394 1825 3394 
Q 2250 3394 2515 3294 
Q 2781 3194 2906 3042 
Q 3031 2891 3081 2659 
Q 3109 2516 3109 2141 
L 3109 1391 
Q 3109 606 3145 398 
Q 3181 191 3288 0 
L 2700 0 
Q 2613 175 2588 409 
z
M 2541 1666 
Q 2234 1541 1622 1453 
Q 1275 1403 1131 1340 
Q 988 1278 909 1158 
Q 831 1038 831 891 
Q 831 666 1001 516 
Q 1172 366 1500 366 
Q 1825 366 2078 508 
Q 2331 650 2450 897 
Q 2541 1088 2541 1459 
L 2541 1666 
z
" transform="scale(0.015625)"/>
       <path id="ArialMT-6c" d="M 409 0 
L 409 4581 
L 972 4581 
L 972 0 
L 409 0 
z
" transform="scale(0.015625)"/>
       <path id="ArialMT-75" d="M 2597 0 
L 2597 488 
Q 2209 -75 1544 -75 
Q 1250 -75 995 37 
Q 741 150 617 320 
Q 494 491 444 738 
Q 409 903 409 1263 
L 409 3319 
L 972 3319 
L 972 1478 
Q 972 1038 1006 884 
Q 1059 663 1231 536 
Q 1403 409 1656 409 
Q 1909 409 2131 539 
Q 2353 669 2445 892 
Q 2538 1116 2538 1541 
L 2538 3319 
L 3100 3319 
L 3100 0 
L 2597 0 
z
" transform="scale(0.015625)"/>
      </defs>
      <use xlink:href="#ArialMT-79"/>
      <use xlink:href="#ArialMT-20" transform="translate(50 0)"/>
      <use xlink:href="#ArialMT-76" transform="translate(77.783203 0)"/>
      <use xlink:href="#ArialMT-61" transform="translate(127.783203 0)"/>
      <use xlink:href="#ArialMT-6c" transform="translate(183.398438 0)"/>
      <use xlink:href="#ArialMT-75" transform="translate(205.615234 0)"/>
      <use xlink:href="#ArialMT-65" transform="translate(261.230469 0)"/>
     </g>
    </g>
   </g>
   <g id="FillBetweenPolyCollection_1"/>
   <g id="FillBetweenPolyCollection_2"/>
   <g id="FillBetweenPolyCollection_3"/>
   <g id="FillBetweenPolyCollection_4"/>
   <g id="line2d_16">
    <path d="M 88.485186 155.916897 
L 91.143778 111.972668 
L 92.662974 90.129043 
L 93.802371 76.393042 
L 94.941767 65.474214 
L 95.701365 59.955652 
L 96.460963 55.950456 
L 97.220561 53.521791 
L 97.60036 52.911617 
L 97.980159 52.707958 
L 98.359958 52.911617 
L 98.739756 53.521791 
L 99.119555 54.536072 
L 99.879153 57.759363 
L 100.638751 62.530657 
L 101.398349 68.774707 
L 102.537746 80.680818 
L 103.677142 95.252205 
L 105.196338 117.923153 
L 107.85493 162.39744 
L 110.133724 199.861127 
L 111.65292 221.704752 
L 112.792316 235.440752 
L 113.931713 246.359581 
L 114.691311 251.878143 
L 115.450909 255.883339 
L 116.210506 258.312004 
L 116.590305 258.922178 
L 116.970104 259.125837 
L 117.349903 258.922178 
L 117.729702 258.312004 
L 118.109501 257.297723 
L 118.869099 254.074432 
L 119.628697 249.303138 
L 120.388295 243.059088 
L 121.527691 231.152977 
L 122.667088 216.58159 
L 124.186284 193.910642 
L 126.844876 149.436354 
L 129.123669 111.972668 
L 130.642865 90.129043 
L 131.782262 76.393042 
L 132.921659 65.474214 
L 133.681256 59.955652 
L 134.440854 55.950456 
L 135.200452 53.521791 
L 135.580251 52.911617 
L 135.96005 52.707958 
L 136.339849 52.911617 
L 136.719648 53.521791 
L 137.099447 54.536072 
L 137.859044 57.759363 
L 138.618642 62.530657 
L 139.37824 68.774707 
L 140.517637 80.680818 
L 141.657034 95.252205 
L 143.176229 117.923153 
L 145.834822 162.39744 
L 148.113615 199.861127 
L 149.632811 221.704752 
L 150.772207 235.440752 
L 151.911604 246.359581 
L 152.671202 251.878143 
L 153.4308 255.883339 
L 154.190398 258.312004 
L 154.570197 258.922178 
L 154.949996 259.125837 
L 155.329794 258.922178 
L 155.709593 258.312004 
L 156.089392 257.297723 
L 156.84899 254.074432 
L 157.608588 249.303138 
L 158.368186 243.059088 
L 159.507582 231.152977 
L 160.646979 216.58159 
L 162.166175 193.910642 
L 164.824767 149.436354 
L 167.103561 111.972668 
L 168.622756 90.129043 
L 169.762153 76.393042 
L 170.90155 65.474214 
L 171.661148 59.955652 
L 172.420745 55.950456 
L 173.180343 53.521791 
L 173.560142 52.911617 
L 173.939941 52.707958 
L 174.31974 52.911617 
L 174.699539 53.521791 
L 175.079338 54.536072 
L 175.838936 57.759363 
L 176.598534 62.530657 
L 177.358131 68.774707 
L 178.497528 80.680818 
L 179.636925 95.252205 
L 181.15612 117.923153 
L 183.814713 162.39744 
L 186.093506 199.861127 
L 187.612702 221.704752 
L 188.752099 235.440752 
L 189.891495 246.359581 
L 190.651093 251.878143 
L 191.410691 255.883339 
L 192.170289 258.312004 
L 192.550088 258.922178 
L 192.929887 259.125837 
L 193.309686 258.922178 
L 193.689485 258.312004 
L 194.069283 257.297723 
L 194.828881 254.074432 
L 195.588479 249.303138 
L 196.348077 243.059088 
L 197.487474 231.152977 
L 198.62687 216.58159 
L 200.146066 193.910642 
L 202.804658 149.436354 
L 205.083452 111.972668 
L 206.602648 90.129043 
L 207.742044 76.393042 
L 208.881441 65.474214 
L 209.641039 59.955652 
L 210.400637 55.950456 
L 211.160235 53.521791 
L 211.540033 52.911617 
L 211.919832 52.707958 
L 212.299631 52.911617 
L 212.67943 53.521791 
L 213.059229 54.536072 
L 213.818827 57.759363 
L 214.578425 62.530657 
L 215.338023 68.774707 
L 216.477419 80.680818 
L 217.616816 95.252205 
L 219.136012 117.923153 
L 221.794604 162.39744 
L 224.073398 199.861127 
L 225.592593 221.704752 
L 226.73199 235.440752 
L 227.871387 246.359581 
L 228.630985 251.878143 
L 229.390582 255.883339 
L 230.15018 258.312004 
L 230.529979 258.922178 
L 230.909778 259.125837 
L 231.289577 258.922178 
L 231.669376 258.312004 
L 232.049175 257.297723 
L 232.808773 254.074432 
L 233.56837 249.303138 
L 234.327968 243.059088 
L 235.467365 231.152977 
L 236.606762 216.58159 
L 238.125957 193.910642 
L 240.78455 149.436354 
L 243.063343 111.972668 
L 244.582539 90.129043 
L 245.721936 76.393042 
L 246.861332 65.474214 
L 247.62093 59.955652 
L 248.380528 55.950456 
L 249.140126 53.521791 
L 249.519925 52.911617 
L 249.899724 52.707958 
L 250.279523 52.911617 
L 250.659321 53.521791 
L 251.03912 54.536072 
L 251.798718 57.759363 
L 252.558316 62.530657 
L 253.317914 68.774707 
L 254.457311 80.680818 
L 255.596707 95.252205 
L 257.115903 117.923153 
L 259.774495 162.39744 
L 262.053289 199.861127 
L 263.572484 221.704752 
L 264.711881 235.440752 
L 265.851278 246.359581 
L 266.610876 251.878143 
L 267.370474 255.883339 
L 268.130071 258.312004 
L 268.50987 258.922178 
L 268.889669 259.125837 
L 269.269468 258.922178 
L 269.649267 258.312004 
L 270.029066 257.297723 
L 270.788664 254.074432 
L 271.548262 249.303138 
L 272.307859 243.059088 
L 273.447256 231.152977 
L 274.586653 216.58159 
L 276.105849 193.910642 
L 278.764441 149.436354 
L 281.043234 111.972668 
L 282.56243 90.129043 
L 283.701827 76.393042 
L 284.841224 65.474214 
L 285.600821 59.955652 
L 286.360419 55.950456 
L 287.120017 53.521791 
L 287.499816 52.911617 
L 287.879615 52.707958 
L 288.259414 52.911617 
L 288.639213 53.521791 
L 289.019012 54.536072 
L 289.778609 57.759363 
L 290.538207 62.530657 
L 291.297805 68.774707 
L 292.437202 80.680818 
L 293.576599 95.252205 
L 295.095794 117.923153 
L 297.754387 162.39744 
L 300.03318 199.861127 
L 301.552376 221.704752 
L 302.691772 235.440752 
L 303.831169 246.359581 
L 304.590767 251.878143 
L 305.350365 255.883339 
L 306.109963 258.312004 
L 306.489762 258.922178 
L 306.86956 259.125837 
L 307.249359 258.922178 
L 307.629158 258.312004 
L 308.008957 257.297723 
L 308.768555 254.074432 
L 309.528153 249.303138 
L 310.287751 243.059088 
L 311.427147 231.152977 
L 312.566544 216.58159 
L 314.08574 193.910642 
L 316.744332 149.436354 
L 319.023126 111.972668 
L 320.542321 90.129043 
L 321.681718 76.393042 
L 322.821115 65.474214 
L 323.580713 59.955652 
L 324.34031 55.950456 
L 325.099908 53.521791 
L 325.479707 52.911617 
L 325.859506 52.707958 
L 326.239305 52.911617 
L 326.619104 53.521791 
L 326.998903 54.536072 
L 327.758501 57.759363 
L 328.518098 62.530657 
L 329.277696 68.774707 
L 330.417093 80.680818 
L 331.55649 95.252205 
L 333.075685 117.923153 
L 335.734278 162.39744 
L 338.013071 199.861127 
L 339.532267 221.704752 
L 340.671664 235.440752 
L 341.81106 246.359581 
L 342.570658 251.878143 
L 343.330256 255.883339 
L 344.089854 258.312004 
L 344.469653 258.922178 
L 344.849452 259.125837 
L 345.229251 258.922178 
L 345.609049 258.312004 
L 345.988848 257.297723 
L 346.748446 254.074432 
L 347.508044 249.303138 
L 348.267642 243.059088 
L 349.407039 231.152977 
L 350.546435 216.58159 
L 352.065631 193.910642 
L 354.724223 149.436354 
L 357.003017 111.972668 
L 358.522213 90.129043 
L 359.661609 76.393042 
L 360.801006 65.474214 
L 361.560604 59.955652 
L 362.320202 55.950456 
L 363.079799 53.521791 
L 363.459598 52.911617 
L 363.839397 52.707958 
L 364.219196 52.911617 
L 364.598995 53.521791 
L 364.978794 54.536072 
L 365.738392 57.759363 
L 366.49799 62.530657 
L 367.257588 68.774707 
L 368.396984 80.680818 
L 369.536381 95.252205 
L 371.055577 117.923153 
L 373.714169 162.39744 
L 375.992962 199.861127 
L 377.512158 221.704752 
L 378.651555 235.440752 
L 379.790952 246.359581 
L 380.550549 251.878143 
L 381.310147 255.883339 
L 382.069745 258.312004 
L 382.449544 258.922178 
L 382.829343 259.125837 
L 383.209142 258.922178 
L 383.588941 258.312004 
L 383.96874 257.297723 
L 384.728337 254.074432 
L 385.487935 249.303138 
L 386.247533 243.059088 
L 387.38693 231.152977 
L 388.526327 216.58159 
L 390.045522 193.910642 
L 392.704115 149.436354 
L 394.982908 111.972668 
L 396.502104 90.129043 
L 397.6415 76.393042 
L 398.780897 65.474214 
L 399.540495 59.955652 
L 400.300093 55.950456 
L 401.059691 53.521791 
L 401.43949 52.911617 
L 401.819289 52.707958 
L 402.199087 52.911617 
L 402.578886 53.521791 
L 402.958685 54.536072 
L 403.718283 57.759363 
L 404.477881 62.530657 
L 405.237479 68.774707 
L 406.376875 80.680818 
L 407.516272 95.252205 
L 409.035468 117.923153 
L 411.69406 162.39744 
L 413.972854 199.861127 
L 415.492049 221.704752 
L 416.631446 235.440752 
L 417.770843 246.359581 
L 418.530441 251.878143 
L 419.290038 255.883339 
L 420.049636 258.312004 
L 420.429435 258.922178 
L 420.809234 259.125837 
L 421.189033 258.922178 
L 421.568832 258.312004 
L 421.948631 257.297723 
L 422.708229 254.074432 
L 423.467827 249.303138 
L 424.227424 243.059088 
L 425.366821 231.152977 
L 426.506218 216.58159 
L 428.025413 193.910642 
L 430.684006 149.436354 
L 432.962799 111.972668 
L 434.481995 90.129043 
L 435.621392 76.393042 
L 436.760788 65.474214 
L 437.520386 59.955652 
L 438.279984 55.950456 
L 439.039582 53.521791 
L 439.419381 52.911617 
L 439.79918 52.707958 
L 440.178979 52.911617 
L 440.558778 53.521791 
L 440.938576 54.536072 
L 441.698174 57.759363 
L 442.457772 62.530657 
L 443.21737 68.774707 
L 444.356767 80.680818 
L 445.496163 95.252205 
L 447.015359 117.923153 
L 449.673951 162.39744 
L 451.952745 199.861127 
L 453.471941 221.704752 
L 454.611337 235.440752 
L 455.750734 246.359581 
L 456.510332 251.878143 
L 457.26993 255.883339 
L 458.029528 258.312004 
L 458.409326 258.922178 
L 458.789125 259.125837 
L 459.168924 258.922178 
L 459.548723 258.312004 
L 459.928522 257.297723 
L 460.68812 254.074432 
L 461.447718 249.303138 
L 462.207316 243.059088 
L 463.346712 231.152977 
L 464.486109 216.58159 
L 466.005305 193.910642 
L 468.663897 149.436354 
L 470.942691 111.972668 
L 472.461886 90.129043 
L 473.601283 76.393042 
L 474.74068 65.474214 
L 475.500278 59.955652 
L 476.259875 55.950456 
L 477.019473 53.521791 
L 477.399272 52.911617 
L 477.779071 52.707958 
L 478.15887 52.911617 
L 478.538669 53.521791 
L 478.918468 54.536072 
L 479.678066 57.759363 
L 480.437663 62.530657 
L 481.197261 68.774707 
L 482.336658 80.680818 
L 483.476055 95.252205 
L 484.99525 117.923153 
L 487.653843 162.39744 
L 489.932636 199.861127 
L 491.451832 221.704752 
L 492.591229 235.440752 
L 493.730625 246.359581 
L 494.490223 251.878143 
L 495.249821 255.883339 
L 496.009419 258.312004 
L 496.389218 258.922178 
L 496.769017 259.125837 
L 497.148816 258.922178 
L 497.528614 258.312004 
L 497.908413 257.297723 
L 498.668011 254.074432 
L 499.427609 249.303138 
L 500.187207 243.059088 
L 501.326604 231.152977 
L 502.466 216.58159 
L 503.985196 193.910642 
L 506.643788 149.436354 
L 508.922582 111.972668 
L 510.441777 90.129043 
L 511.581174 76.393042 
L 512.720571 65.474214 
L 513.480169 59.955652 
L 514.239767 55.950456 
L 514.999364 53.521791 
L 515.379163 52.911617 
L 515.758962 52.707958 
L 516.138761 52.911617 
L 516.51856 53.521791 
L 516.898359 54.536072 
L 517.657957 57.759363 
L 518.417555 62.530657 
L 519.177152 68.774707 
L 520.316549 80.680818 
L 521.455946 95.252205 
L 522.975142 117.923153 
L 525.633734 162.39744 
L 527.912527 199.861127 
L 529.431723 221.704752 
L 530.57112 235.440752 
L 531.710517 246.359581 
L 532.470114 251.878143 
L 533.229712 255.883339 
L 533.98931 258.312004 
L 534.369109 258.922178 
L 534.748908 259.125837 
L 535.128707 258.922178 
L 535.508506 258.312004 
L 535.888305 257.297723 
L 536.647902 254.074432 
L 537.4075 249.303138 
L 538.167098 243.059088 
L 539.306495 231.152977 
L 540.445892 216.58159 
L 541.965087 193.910642 
L 544.62368 149.436354 
L 546.902473 111.972668 
L 548.421669 90.129043 
L 549.561065 76.393042 
L 550.700462 65.474214 
L 551.46006 59.955652 
L 552.219658 55.950456 
L 552.979256 53.521791 
L 553.359055 52.911617 
L 553.738853 52.707958 
L 554.118652 52.911617 
L 554.498451 53.521791 
L 554.87825 54.536072 
L 555.637848 57.759363 
L 556.397446 62.530657 
L 557.157044 68.774707 
L 558.29644 80.680818 
L 559.435837 95.252205 
L 560.955033 117.923153 
L 563.613625 162.39744 
L 565.892419 199.861127 
L 567.411614 221.704752 
L 568.551011 235.440752 
L 569.690408 246.359581 
L 570.450006 251.878143 
L 571.209603 255.883339 
L 571.969201 258.312004 
L 572.349 258.922178 
L 572.728799 259.125837 
L 573.108598 258.922178 
L 573.488397 258.312004 
L 573.868196 257.297723 
L 574.627794 254.074432 
L 575.387391 249.303138 
L 576.146989 243.059088 
L 577.286386 231.152977 
L 578.425783 216.58159 
L 579.944978 193.910642 
L 582.603571 149.436354 
L 584.882364 111.972668 
L 586.40156 90.129043 
L 587.540957 76.393042 
L 588.680353 65.474214 
L 589.439951 59.955652 
L 590.199549 55.950456 
L 590.959147 53.521791 
L 591.338946 52.911617 
L 591.718745 52.707958 
L 592.098544 52.911617 
L 592.478342 53.521791 
L 592.858141 54.536072 
L 593.617739 57.759363 
L 594.377337 62.530657 
L 595.136935 68.774707 
L 596.276332 80.680818 
L 597.415728 95.252205 
L 598.934924 117.923153 
L 601.593516 162.39744 
L 603.87231 199.861127 
L 605.391506 221.704752 
L 606.530902 235.440752 
L 607.670299 246.359581 
L 608.429897 251.878143 
L 609.189495 255.883339 
L 609.949092 258.312004 
L 610.328891 258.922178 
L 610.70869 259.125837 
L 611.088489 258.922178 
L 611.468288 258.312004 
L 611.848087 257.297723 
L 612.607685 254.074432 
L 613.367283 249.303138 
L 614.126881 243.059088 
L 615.266277 231.152977 
L 616.405674 216.58159 
L 617.92487 193.910642 
L 620.583462 149.436354 
L 622.862255 111.972668 
L 624.381451 90.129043 
L 625.520848 76.393042 
L 626.660245 65.474214 
L 627.419842 59.955652 
L 628.17944 55.950456 
L 628.939038 53.521791 
L 629.318837 52.911617 
L 629.698636 52.707958 
L 630.078435 52.911617 
L 630.458234 53.521791 
L 630.838033 54.536072 
L 631.59763 57.759363 
L 632.357228 62.530657 
L 633.116826 68.774707 
L 634.256223 80.680818 
L 635.39562 95.252205 
L 636.914815 117.923153 
L 639.573408 162.39744 
L 641.852201 199.861127 
L 643.371397 221.704752 
L 644.510793 235.440752 
L 645.65019 246.359581 
L 646.409788 251.878143 
L 647.169386 255.883339 
L 647.928984 258.312004 
L 648.308783 258.922178 
L 648.688582 259.125837 
L 649.06838 258.922178 
L 649.448179 258.312004 
L 649.827978 257.297723 
L 650.587576 254.074432 
L 651.347174 249.303138 
L 652.106772 243.059088 
L 653.246168 231.152977 
L 654.385565 216.58159 
L 655.904761 193.910642 
L 658.563353 149.436354 
L 660.842147 111.972668 
L 662.361342 90.129043 
L 663.500739 76.393042 
L 664.640136 65.474214 
L 665.399734 59.955652 
L 666.159331 55.950456 
L 666.918929 53.521791 
L 667.298728 52.911617 
L 667.678527 52.707958 
L 668.058326 52.911617 
L 668.438125 53.521791 
L 668.817924 54.536072 
L 669.577522 57.759363 
L 670.33712 62.530657 
L 671.096717 68.774707 
L 672.236114 80.680818 
L 673.375511 95.252205 
L 674.894706 117.923153 
L 676.034103 136.577471 
L 676.034103 136.577471 
" clip-path="url(#pe4d7f1d63a)" style="fill: none; stroke: #000000; stroke-width: 2.25; stroke-linecap: round"/>
   </g>
   <g id="line2d_17">
    <path d="M 95.321566 58.842453 
L 102.157947 100.702671 
L 108.994327 179.387946 
L 115.830708 253.125506 
L 122.667088 213.167992 
L 129.503468 126.469733 
L 136.339849 64.926181 
L 143.176229 106.589537 
L 150.01261 220.518516 
L 156.84899 247.284383 
L 163.685371 172.65301 
L 170.521751 74.400797 
L 177.358131 39.708429 
L 184.194512 169.593864 
L 191.030892 244.216393 
L 197.867273 221.743105 
L 204.703653 115.183636 
L 211.540033 44.20815 
L 218.376414 102.796624 
L 225.212794 211.022253 
L 232.049175 227.315032 
L 238.885555 181.295205 
L 245.721936 80.510523 
L 252.558316 64.327881 
L 259.394696 158.760111 
L 266.231077 252.044994 
L 273.067457 233.787989 
L 279.903838 142.767294 
L 286.740218 56.600839 
L 293.576599 99.257676 
L 300.412979 206.933942 
L 307.249359 241.811613 
L 314.08574 198.105408 
L 320.92212 99.352938 
L 327.758501 67.577137 
L 334.594881 144.319616 
L 341.431261 229.887784 
L 348.267642 237.359829 
L 355.104022 157.243455 
L 361.940403 60.181423 
L 368.776783 93.940746 
L 375.613164 200.760692 
L 382.449544 249.378241 
L 389.285924 198.946136 
L 396.122305 94.758966 
L 402.958685 74.343196 
L 409.795066 136.327257 
L 416.631446 222.207502 
L 423.467827 239.050701 
L 430.304207 164.865306 
L 437.140587 77.814914 
" clip-path="url(#pe4d7f1d63a)" style="fill: none; stroke: #4c72b0; stroke-width: 2.25; stroke-linecap: round"/>
    <defs>
     <path id="m4ad7832508" d="M 0 4.5 
C 1.193414 4.5 2.338109 4.025852 3.181981 3.181981 
C 4.025852 2.338109 4.5 1.193414 4.5 0 
C 4.5 -1.193414 4.025852 -2.338109 3.181981 -3.181981 
C 2.338109 -4.025852 1.193414 -4.5 0 -4.5 
C -1.193414 -4.5 -2.338109 -4.025852 -3.181981 -3.181981 
C -4.025852 -2.338109 -4.5 -1.193414 -4.5 0 
C -4.5 1.193414 -4.025852 2.338109 -3.181981 3.181981 
C -2.338109 4.025852 -1.193414 4.5 0 4.5 
z
" style="stroke: #ffffff; stroke-width: 0.75"/>
    </defs>
    <g clip-path="url(#pe4d7f1d63a)">
     <use xlink:href="#m4ad7832508" x="95.321566" y="58.842453" style="fill: #4c72b0; stroke: #ffffff; stroke-width: 0.75"/>
     <use xlink:href="#m4ad7832508" x="102.157947" y="100.702671" style="fill: #4c72b0; stroke: #ffffff; stroke-width: 0.75"/>
     <use xlink:href="#m4ad7832508" x="108.994327" y="179.387946" style="fill: #4c72b0; stroke: #ffffff; stroke-width: 0.75"/>
     <use xlink:href="#m4ad7832508" x="115.830708" y="253.125506" style="fill: #4c72b0; stroke: #ffffff; stroke-width: 0.75"/>
     <use xlink:href="#m4ad7832508" x="122.667088" y="213.167992" style="fill: #4c72b0; stroke: #ffffff; stroke-width: 0.75"/>
     <use xlink:href="#m4ad7832508" x="129.503468" y="126.469733" style="fill: #4c72b0; stroke: #ffffff; stroke-width: 0.75"/>
     <use xlink:href="#m4ad7832508" x="136.339849" y="64.926181" style="fill: #4c72b0; stroke: #ffffff; stroke-width: 0.75"/>
     <use xlink:href="#m4ad7832508" x="143.176229" y="106.589537" style="fill: #4c72b0; stroke: #ffffff; stroke-width: 0.75"/>
     <use xlink:href="#m4ad7832508" x="150.01261" y="220.518516" style="fill: #4c72b0; stroke: #ffffff; stroke-width: 0.75"/>
     <use xlink:href="#m4ad7832508" x="156.84899" y="247.284383" style="fill: #4c72b0; stroke: #ffffff; stroke-width: 0.75"/>
     <use xlink:href="#m4ad7832508" x="163.685371" y="172.65301" style="fill: #4c72b0; stroke: #ffffff; stroke-width: 0.75"/>
     <use xlink:href="#m4ad7832508" x="170.521751" y="74.400797" style="fill: #4c72b0; stroke: #ffffff; stroke-width: 0.75"/>
     <use xlink:href="#m4ad7832508" x="177.358131" y="39.708429" style="fill: #4c72b0; stroke: #ffffff; stroke-width: 0.75"/>
     <use xlink:href="#m4ad7832508" x="184.194512" y="169.593864" style="fill: #4c72b0; stroke: #ffffff; stroke-width: 0.75"/>
     <use xlink:href="#m4ad7832508" x="191.030892" y="244.216393" style="fill: #4c72b0; stroke: #ffffff; stroke-width: 0.75"/>
     <use xlink:href="#m4ad7832508" x="197.867273" y="221.743105" style="fill: #4c72b0; stroke: #ffffff; stroke-width: 0.75"/>
     <use xlink:href="#m4ad7832508" x="204.703653" y="115.183636" style="fill: #4c72b0; stroke: #ffffff; stroke-width: 0.75"/>
     <use xlink:href="#m4ad7832508" x="211.540033" y="44.20815" style="fill: #4c72b0; stroke: #ffffff; stroke-width: 0.75"/>
     <use xlink:href="#m4ad7832508" x="218.376414" y="102.796624" style="fill: #4c72b0; stroke: #ffffff; stroke-width: 0.75"/>
     <use xlink:href="#m4ad7832508" x="225.212794" y="211.022253" style="fill: #4c72b0; stroke: #ffffff; stroke-width: 0.75"/>
     <use xlink:href="#m4ad7832508" x="232.049175" y="227.315032" style="fill: #4c72b0; stroke: #ffffff; stroke-width: 0.75"/>
     <use xlink:href="#m4ad7832508" x="238.885555" y="181.295205" style="fill: #4c72b0; stroke: #ffffff; stroke-width: 0.75"/>
     <use xlink:href="#m4ad7832508" x="245.721936" y="80.510523" style="fill: #4c72b0; stroke: #ffffff; stroke-width: 0.75"/>
     <use xlink:href="#m4ad7832508" x="252.558316" y="64.327881" style="fill: #4c72b0; stroke: #ffffff; stroke-width: 0.75"/>
     <use xlink:href="#m4ad7832508" x="259.394696" y="158.760111" style="fill: #4c72b0; stroke: #ffffff; stroke-width: 0.75"/>
     <use xlink:href="#m4ad7832508" x="266.231077" y="252.044994" style="fill: #4c72b0; stroke: #ffffff; stroke-width: 0.75"/>
     <use xlink:href="#m4ad7832508" x="273.067457" y="233.787989" style="fill: #4c72b0; stroke: #ffffff; stroke-width: 0.75"/>
     <use xlink:href="#m4ad7832508" x="279.903838" y="142.767294" style="fill: #4c72b0; stroke: #ffffff; stroke-width: 0.75"/>
     <use xlink:href="#m4ad7832508" x="286.740218" y="56.600839" style="fill: #4c72b0; stroke: #ffffff; stroke-width: 0.75"/>
     <use xlink:href="#m4ad7832508" x="293.576599" y="99.257676" style="fill: #4c72b0; stroke: #ffffff; stroke-width: 0.75"/>
     <use xlink:href="#m4ad7832508" x="300.412979" y="206.933942" style="fill: #4c72b0; stroke: #ffffff; stroke-width: 0.75"/>
     <use xlink:href="#m4ad7832508" x="307.249359" y="241.811613" style="fill: #4c72b0; stroke: #ffffff; stroke-width: 0.75"/>
     <use xlink:href="#m4ad7832508" x="314.08574" y="198.105408" style="fill: #4c72b0; stroke: #ffffff; stroke-width: 0.75"/>
     <use xlink:href="#m4ad7832508" x="320.92212" y="99.352938" style="fill: #4c72b0; stroke: #ffffff; stroke-width: 0.75"/>
     <use xlink:href="#m4ad7832508" x="327.758501" y="67.577137" style="fill: #4c72b0; stroke: #ffffff; stroke-width: 0.75"/>
     <use xlink:href="#m4ad7832508" x="334.594881" y="144.319616" style="fill: #4c72b0; stroke: #ffffff; stroke-width: 0.75"/>
     <use xlink:href="#m4ad7832508" x="341.431261" y="229.887784" style="fill: #4c72b0; stroke: #ffffff; stroke-width: 0.75"/>
     <use xlink:href="#m4ad7832508" x="348.267642" y="237.359829" style="fill: #4c72b0; stroke: #ffffff; stroke-width: 0.75"/>
     <use xlink:href="#m4ad7832508" x="355.104022" y="157.243455" style="fill: #4c72b0; stroke: #ffffff; stroke-width: 0.75"/>
     <use xlink:href="#m4ad7832508" x="361.940403" y="60.181423" style="fill: #4c72b0; stroke: #ffffff; stroke-width: 0.75"/>
     <use xlink:href="#m4ad7832508" x="368.776783" y="93.940746" style="fill: #4c72b0; stroke: #ffffff; stroke-width: 0.75"/>
     <use xlink:href="#m4ad7832508" x="375.613164" y="200.760692" style="fill: #4c72b0; stroke: #ffffff; stroke-width: 0.75"/>
     <use xlink:href="#m4ad7832508" x="382.449544" y="249.378241" style="fill: #4c72b0; stroke: #ffffff; stroke-width: 0.75"/>
     <use xlink:href="#m4ad7832508" x="389.285924" y="198.946136" style="fill: #4c72b0; stroke: #ffffff; stroke-width: 0.75"/>
     <use xlink:href="#m4ad7832508" x="396.122305" y="94.758966" style="fill: #4c72b0; stroke: #ffffff; stroke-width: 0.75"/>
     <use xlink:href="#m4ad7832508" x="402.958685" y="74.343196" style="fill: #4c72b0; stroke: #ffffff; stroke-width: 0.75"/>
     <use xlink:href="#m4ad7832508" x="409.795066" y="136.327257" style="fill: #4c72b0; stroke: #ffffff; stroke-width: 0.75"/>
     <use xlink:href="#m4ad7832508" x="416.631446" y="222.207502" style="fill: #4c72b0; stroke: #ffffff; stroke-width: 0.75"/>
     <use xlink:href="#m4ad7832508" x="423.467827" y="239.050701" style="fill: #4c72b0; stroke: #ffffff; stroke-width: 0.75"/>
     <use xlink:href="#m4ad7832508" x="430.304207" y="164.865306" style="fill: #4c72b0; stroke: #ffffff; stroke-width: 0.75"/>
     <use xlink:href="#m4ad7832508" x="437.140587" y="77.814914" style="fill: #4c72b0; stroke: #ffffff; stroke-width: 0.75"/>
    </g>
   </g>
   <g id="line2d_18">
    <path d="M 443.976968 51.317093 
L 450.813348 190.223749 
L 457.649729 245.489454 
L 464.486109 161.401525 
L 471.322489 106.909885 
L 478.15887 117.275438 
L 484.99525 101.453922 
L 491.831631 182.711348 
L 498.668011 129.338567 
L 505.504392 119.56832 
L 512.340772 39.113443 
L 519.177152 33.181518 
L 526.013533 170.175914 
L 532.849913 215.250507 
L 539.686294 154.820473 
L 546.522674 90.008415 
L 553.359055 58.20704 
" clip-path="url(#pe4d7f1d63a)" style="fill: none; stroke: #dd8452; stroke-width: 2.25; stroke-linecap: round"/>
    <defs>
     <path id="m359c773d54" d="M -2.25 4.5 
L 0 2.25 
L 2.25 4.5 
L 4.5 2.25 
L 2.25 0 
L 4.5 -2.25 
L 2.25 -4.5 
L 0 -2.25 
L -2.25 -4.5 
L -4.5 -2.25 
L -2.25 0 
L -4.5 2.25 
z
" style="stroke: #ffffff; stroke-width: 0.75; stroke-linejoin: miter"/>
    </defs>
    <g clip-path="url(#pe4d7f1d63a)">
     <use xlink:href="#m359c773d54" x="443.976968" y="51.317093" style="fill: #dd8452; stroke: #ffffff; stroke-width: 0.75; stroke-linejoin: miter"/>
     <use xlink:href="#m359c773d54" x="450.813348" y="190.223749" style="fill: #dd8452; stroke: #ffffff; stroke-width: 0.75; stroke-linejoin: miter"/>
     <use xlink:href="#m359c773d54" x="457.649729" y="245.489454" style="fill: #dd8452; stroke: #ffffff; stroke-width: 0.75; stroke-linejoin: miter"/>
     <use xlink:href="#m359c773d54" x="464.486109" y="161.401525" style="fill: #dd8452; stroke: #ffffff; stroke-width: 0.75; stroke-linejoin: miter"/>
     <use xlink:href="#m359c773d54" x="471.322489" y="106.909885" style="fill: #dd8452; stroke: #ffffff; stroke-width: 0.75; stroke-linejoin: miter"/>
     <use xlink:href="#m359c773d54" x="478.15887" y="117.275438" style="fill: #dd8452; stroke: #ffffff; stroke-width: 0.75; stroke-linejoin: miter"/>
     <use xlink:href="#m359c773d54" x="484.99525" y="101.453922" style="fill: #dd8452; stroke: #ffffff; stroke-width: 0.75; stroke-linejoin: miter"/>
     <use xlink:href="#m359c773d54" x="491.831631" y="182.711348" style="fill: #dd8452; stroke: #ffffff; stroke-width: 0.75; stroke-linejoin: miter"/>
     <use xlink:href="#m359c773d54" x="498.668011" y="129.338567" style="fill: #dd8452; stroke: #ffffff; stroke-width: 0.75; stroke-linejoin: miter"/>
     <use xlink:href="#m359c773d54" x="505.504392" y="119.56832" style="fill: #dd8452; stroke: #ffffff; stroke-width: 0.75; stroke-linejoin: miter"/>
     <use xlink:href="#m359c773d54" x="512.340772" y="39.113443" style="fill: #dd8452; stroke: #ffffff; stroke-width: 0.75; stroke-linejoin: miter"/>
     <use xlink:href="#m359c773d54" x="519.177152" y="33.181518" style="fill: #dd8452; stroke: #ffffff; stroke-width: 0.75; stroke-linejoin: miter"/>
     <use xlink:href="#m359c773d54" x="526.013533" y="170.175914" style="fill: #dd8452; stroke: #ffffff; stroke-width: 0.75; stroke-linejoin: miter"/>
     <use xlink:href="#m359c773d54" x="532.849913" y="215.250507" style="fill: #dd8452; stroke: #ffffff; stroke-width: 0.75; stroke-linejoin: miter"/>
     <use xlink:href="#m359c773d54" x="539.686294" y="154.820473" style="fill: #dd8452; stroke: #ffffff; stroke-width: 0.75; stroke-linejoin: miter"/>
     <use xlink:href="#m359c773d54" x="546.522674" y="90.008415" style="fill: #dd8452; stroke: #ffffff; stroke-width: 0.75; stroke-linejoin: miter"/>
     <use xlink:href="#m359c773d54" x="553.359055" y="58.20704" style="fill: #dd8452; stroke: #ffffff; stroke-width: 0.75; stroke-linejoin: miter"/>
    </g>
   </g>
   <g id="line2d_19">
    <path d="M 560.195435 137.767763 
L 567.031815 194.259417 
L 573.868196 151.855615 
L 580.704576 182.208667 
L 587.540957 68.788105 
L 594.377337 97.483244 
L 601.213717 194.707729 
L 608.050098 186.722621 
L 614.886478 103.243568 
L 621.722859 108.297631 
L 628.559239 41.155728 
L 635.39562 158.898192 
L 642.232 207.201361 
L 649.06838 167.914141 
L 655.904761 49.525178 
L 662.741141 41.627535 
L 669.577522 66.91261 
" clip-path="url(#pe4d7f1d63a)" style="fill: none; stroke: #55a868; stroke-width: 2.25; stroke-linecap: round"/>
    <defs>
     <path id="m2a9a936ca3" d="M -3.181981 -3.181981 
L -3.181981 3.181981 
L 3.181981 3.181981 
L 3.181981 -3.181981 
z
" style="stroke: #ffffff; stroke-width: 0.75; stroke-linejoin: miter"/>
    </defs>
    <g clip-path="url(#pe4d7f1d63a)">
     <use xlink:href="#m2a9a936ca3" x="560.195435" y="137.767763" style="fill: #55a868; stroke: #ffffff; stroke-width: 0.75; stroke-linejoin: miter"/>
     <use xlink:href="#m2a9a936ca3" x="567.031815" y="194.259417" style="fill: #55a868; stroke: #ffffff; stroke-width: 0.75; stroke-linejoin: miter"/>
     <use xlink:href="#m2a9a936ca3" x="573.868196" y="151.855615" style="fill: #55a868; stroke: #ffffff; stroke-width: 0.75; stroke-linejoin: miter"/>
     <use xlink:href="#m2a9a936ca3" x="580.704576" y="182.208667" style="fill: #55a868; stroke: #ffffff; stroke-width: 0.75; stroke-linejoin: miter"/>
     <use xlink:href="#m2a9a936ca3" x="587.540957" y="68.788105" style="fill: #55a868; stroke: #ffffff; stroke-width: 0.75; stroke-linejoin: miter"/>
     <use xlink:href="#m2a9a936ca3" x="594.377337" y="97.483244" style="fill: #55a868; stroke: #ffffff; stroke-width: 0.75; stroke-linejoin: miter"/>
     <use xlink:href="#m2a9a936ca3" x="601.213717" y="194.707729" style="fill: #55a868; stroke: #ffffff; stroke-width: 0.75; stroke-linejoin: miter"/>
     <use xlink:href="#m2a9a936ca3" x="608.050098" y="186.722621" style="fill: #55a868; stroke: #ffffff; stroke-width: 0.75; stroke-linejoin: miter"/>
     <use xlink:href="#m2a9a936ca3" x="614.886478" y="103.243568" style="fill: #55a868; stroke: #ffffff; stroke-width: 0.75; stroke-linejoin: miter"/>
     <use xlink:href="#m2a9a936ca3" x="621.722859" y="108.297631" style="fill: #55a868; stroke: #ffffff; stroke-width: 0.75; stroke-linejoin: miter"/>
     <use xlink:href="#m2a9a936ca3" x="628.559239" y="41.155728" style="fill: #55a868; stroke: #ffffff; stroke-width: 0.75; stroke-linejoin: miter"/>
     <use xlink:href="#m2a9a936ca3" x="635.39562" y="158.898192" style="fill: #55a868; stroke: #ffffff; stroke-width: 0.75; stroke-linejoin: miter"/>
     <use xlink:href="#m2a9a936ca3" x="642.232" y="207.201361" style="fill: #55a868; stroke: #ffffff; stroke-width: 0.75; stroke-linejoin: miter"/>
     <use xlink:href="#m2a9a936ca3" x="649.06838" y="167.914141" style="fill: #55a868; stroke: #ffffff; stroke-width: 0.75; stroke-linejoin: miter"/>
     <use xlink:href="#m2a9a936ca3" x="655.904761" y="49.525178" style="fill: #55a868; stroke: #ffffff; stroke-width: 0.75; stroke-linejoin: miter"/>
     <use xlink:href="#m2a9a936ca3" x="662.741141" y="41.627535" style="fill: #55a868; stroke: #ffffff; stroke-width: 0.75; stroke-linejoin: miter"/>
     <use xlink:href="#m2a9a936ca3" x="669.577522" y="66.91261" style="fill: #55a868; stroke: #ffffff; stroke-width: 0.75; stroke-linejoin: miter"/>
    </g>
   </g>
   <g id="line2d_20"/>
   <g id="line2d_21"/>
   <g id="line2d_22"/>
   <g id="patch_3">
    <path d="M 59.10774 270.423053 
L 59.10774 21.884302 
" style="fill: none; stroke: #262626; stroke-width: 1.875; stroke-linejoin: miter; stroke-linecap: square"/>
   </g>
   <g id="patch_4">
    <path d="M 59.10774 270.423053 
L 705.411549 270.423053 
" style="fill: none; stroke: #262626; stroke-width: 1.875; stroke-linejoin: miter; stroke-linecap: square"/>
   </g>
   <g id="text_18">
    <!-- mins ahead = 4.5 -->
    <g style="fill: #262626" transform="translate(312.966676 15.884302) scale(0.18 -0.18)">
     <defs>
      <path id="ArialMT-73" d="M 197 991 
L 753 1078 
Q 800 744 1014 566 
Q 1228 388 1613 388 
Q 2000 388 2187 545 
Q 2375 703 2375 916 
Q 2375 1106 2209 1216 
Q 2094 1291 1634 1406 
Q 1016 1563 777 1677 
Q 538 1791 414 1992 
Q 291 2194 291 2438 
Q 291 2659 392 2848 
Q 494 3038 669 3163 
Q 800 3259 1026 3326 
Q 1253 3394 1513 3394 
Q 1903 3394 2198 3281 
Q 2494 3169 2634 2976 
Q 2775 2784 2828 2463 
L 2278 2388 
Q 2241 2644 2061 2787 
Q 1881 2931 1553 2931 
Q 1166 2931 1000 2803 
Q 834 2675 834 2503 
Q 834 2394 903 2306 
Q 972 2216 1119 2156 
Q 1203 2125 1616 2013 
Q 2213 1853 2448 1751 
Q 2684 1650 2818 1456 
Q 2953 1263 2953 975 
Q 2953 694 2789 445 
Q 2625 197 2315 61 
Q 2006 -75 1616 -75 
Q 969 -75 630 194 
Q 291 463 197 991 
z
" transform="scale(0.015625)"/>
      <path id="ArialMT-68" d="M 422 0 
L 422 4581 
L 984 4581 
L 984 2938 
Q 1378 3394 1978 3394 
Q 2347 3394 2619 3248 
Q 2891 3103 3008 2847 
Q 3125 2591 3125 2103 
L 3125 0 
L 2563 0 
L 2563 2103 
Q 2563 2525 2380 2717 
Q 2197 2909 1863 2909 
Q 1613 2909 1392 2779 
Q 1172 2650 1078 2428 
Q 984 2206 984 1816 
L 984 0 
L 422 0 
z
" transform="scale(0.015625)"/>
      <path id="ArialMT-64" d="M 2575 0 
L 2575 419 
Q 2259 -75 1647 -75 
Q 1250 -75 917 144 
Q 584 363 401 755 
Q 219 1147 219 1656 
Q 219 2153 384 2558 
Q 550 2963 881 3178 
Q 1213 3394 1622 3394 
Q 1922 3394 2156 3267 
Q 2391 3141 2538 2938 
L 2538 4581 
L 3097 4581 
L 3097 0 
L 2575 0 
z
M 797 1656 
Q 797 1019 1065 703 
Q 1334 388 1700 388 
Q 2069 388 2326 689 
Q 2584 991 2584 1609 
Q 2584 2291 2321 2609 
Q 2059 2928 1675 2928 
Q 1300 2928 1048 2622 
Q 797 2316 797 1656 
z
" transform="scale(0.015625)"/>
      <path id="ArialMT-3d" d="M 3381 2694 
L 356 2694 
L 356 3219 
L 3381 3219 
L 3381 2694 
z
M 3381 1303 
L 356 1303 
L 356 1828 
L 3381 1828 
L 3381 1303 
z
" transform="scale(0.015625)"/>
     </defs>
     <use xlink:href="#ArialMT-6d"/>
     <use xlink:href="#ArialMT-69" transform="translate(83.300781 0)"/>
     <use xlink:href="#ArialMT-6e" transform="translate(105.517578 0)"/>
     <use xlink:href="#ArialMT-73" transform="translate(161.132812 0)"/>
     <use xlink:href="#ArialMT-20" transform="translate(211.132812 0)"/>
     <use xlink:href="#ArialMT-61" transform="translate(238.916016 0)"/>
     <use xlink:href="#ArialMT-68" transform="translate(294.53125 0)"/>
     <use xlink:href="#ArialMT-65" transform="translate(350.146484 0)"/>
     <use xlink:href="#ArialMT-61" transform="translate(405.761719 0)"/>
     <use xlink:href="#ArialMT-64" transform="translate(461.376953 0)"/>
     <use xlink:href="#ArialMT-20" transform="translate(516.992188 0)"/>
     <use xlink:href="#ArialMT-3d" transform="translate(544.775391 0)"/>
     <use xlink:href="#ArialMT-20" transform="translate(603.173828 0)"/>
     <use xlink:href="#ArialMT-34" transform="translate(630.957031 0)"/>
     <use xlink:href="#ArialMT-2e" transform="translate(686.572266 0)"/>
     <use xlink:href="#ArialMT-35" transform="translate(714.355469 0)"/>
    </g>
   </g>
   <g id="legend_1">
    <g id="patch_5">
     <path d="M 571.351627 195.994108 
L 693.861549 195.994108 
Q 697.161549 195.994108 697.161549 192.694108 
L 697.161549 99.613248 
Q 697.161549 96.313248 693.861549 96.313248 
L 571.351627 96.313248 
Q 568.051627 96.313248 568.051627 99.613248 
L 568.051627 192.694108 
Q 568.051627 195.994108 571.351627 195.994108 
z
" style="fill: #ffffff; opacity: 0.8; stroke: #cccccc; stroke-width: 1.5; stroke-linejoin: miter"/>
    </g>
    <g id="text_19">
     <!-- dataset -->
     <g style="fill: #262626" transform="translate(603.086588 115.797311) scale(0.18 -0.18)">
      <defs>
       <path id="ArialMT-74" d="M 1650 503 
L 1731 6 
Q 1494 -44 1306 -44 
Q 1000 -44 831 53 
Q 663 150 594 308 
Q 525 466 525 972 
L 525 2881 
L 113 2881 
L 113 3319 
L 525 3319 
L 525 4141 
L 1084 4478 
L 1084 3319 
L 1650 3319 
L 1650 2881 
L 1084 2881 
L 1084 941 
Q 1084 700 1114 631 
Q 1144 563 1211 522 
Q 1278 481 1403 481 
Q 1497 481 1650 503 
z
" transform="scale(0.015625)"/>
      </defs>
      <use xlink:href="#ArialMT-64"/>
      <use xlink:href="#ArialMT-61" transform="translate(55.615234 0)"/>
      <use xlink:href="#ArialMT-74" transform="translate(111.230469 0)"/>
      <use xlink:href="#ArialMT-61" transform="translate(139.013672 0)"/>
      <use xlink:href="#ArialMT-73" transform="translate(194.628906 0)"/>
      <use xlink:href="#ArialMT-65" transform="translate(244.628906 0)"/>
      <use xlink:href="#ArialMT-74" transform="translate(300.244141 0)"/>
     </g>
    </g>
    <g id="line2d_23">
     <path d="M 574.651627 133.660201 
L 591.151627 133.660201 
L 607.651627 133.660201 
" style="fill: none; stroke: #4c72b0; stroke-width: 2.25; stroke-linecap: round"/>
     <g>
      <use xlink:href="#m4ad7832508" x="591.151627" y="133.660201" style="fill: #4c72b0; stroke: #ffffff; stroke-width: 0.75"/>
     </g>
    </g>
    <g id="text_20">
     <!-- train -->
     <g style="fill: #262626" transform="translate(620.851627 139.435201) scale(0.165 -0.165)">
      <defs>
       <path id="ArialMT-72" d="M 416 0 
L 416 3319 
L 922 3319 
L 922 2816 
Q 1116 3169 1280 3281 
Q 1444 3394 1641 3394 
Q 1925 3394 2219 3213 
L 2025 2691 
Q 1819 2813 1613 2813 
Q 1428 2813 1281 2702 
Q 1134 2591 1072 2394 
Q 978 2094 978 1738 
L 978 0 
L 416 0 
z
" transform="scale(0.015625)"/>
      </defs>
      <use xlink:href="#ArialMT-74"/>
      <use xlink:href="#ArialMT-72" transform="translate(27.783203 0)"/>
      <use xlink:href="#ArialMT-61" transform="translate(61.083984 0)"/>
      <use xlink:href="#ArialMT-69" transform="translate(116.699219 0)"/>
      <use xlink:href="#ArialMT-6e" transform="translate(138.916016 0)"/>
     </g>
    </g>
    <g id="line2d_24">
     <path d="M 574.651627 156.999967 
L 591.151627 156.999967 
L 607.651627 156.999967 
" style="fill: none; stroke: #dd8452; stroke-width: 2.25; stroke-linecap: round"/>
     <g>
      <use xlink:href="#m359c773d54" x="591.151627" y="156.999967" style="fill: #dd8452; stroke: #ffffff; stroke-width: 0.75; stroke-linejoin: miter"/>
     </g>
    </g>
    <g id="text_21">
     <!-- validation -->
     <g style="fill: #262626" transform="translate(620.851627 162.774967) scale(0.165 -0.165)">
      <defs>
       <path id="ArialMT-6f" d="M 213 1659 
Q 213 2581 725 3025 
Q 1153 3394 1769 3394 
Q 2453 3394 2887 2945 
Q 3322 2497 3322 1706 
Q 3322 1066 3130 698 
Q 2938 331 2570 128 
Q 2203 -75 1769 -75 
Q 1072 -75 642 372 
Q 213 819 213 1659 
z
M 791 1659 
Q 791 1022 1069 705 
Q 1347 388 1769 388 
Q 2188 388 2466 706 
Q 2744 1025 2744 1678 
Q 2744 2294 2464 2611 
Q 2184 2928 1769 2928 
Q 1347 2928 1069 2612 
Q 791 2297 791 1659 
z
" transform="scale(0.015625)"/>
      </defs>
      <use xlink:href="#ArialMT-76"/>
      <use xlink:href="#ArialMT-61" transform="translate(50 0)"/>
      <use xlink:href="#ArialMT-6c" transform="translate(105.615234 0)"/>
      <use xlink:href="#ArialMT-69" transform="translate(127.832031 0)"/>
      <use xlink:href="#ArialMT-64" transform="translate(150.048828 0)"/>
      <use xlink:href="#ArialMT-61" transform="translate(205.664062 0)"/>
      <use xlink:href="#ArialMT-74" transform="translate(261.279297 0)"/>
      <use xlink:href="#ArialMT-69" transform="translate(289.0625 0)"/>
      <use xlink:href="#ArialMT-6f" transform="translate(311.279297 0)"/>
      <use xlink:href="#ArialMT-6e" transform="translate(366.894531 0)"/>
     </g>
    </g>
    <g id="line2d_25">
     <path d="M 574.651627 180.339733 
L 591.151627 180.339733 
L 607.651627 180.339733 
" style="fill: none; stroke: #55a868; stroke-width: 2.25; stroke-linecap: round"/>
     <g>
      <use xlink:href="#m2a9a936ca3" x="591.151627" y="180.339733" style="fill: #55a868; stroke: #ffffff; stroke-width: 0.75; stroke-linejoin: miter"/>
     </g>
    </g>
    <g id="text_22">
     <!-- test -->
     <g style="fill: #262626" transform="translate(620.851627 186.114733) scale(0.165 -0.165)">
      <use xlink:href="#ArialMT-74"/>
      <use xlink:href="#ArialMT-65" transform="translate(27.783203 0)"/>
      <use xlink:href="#ArialMT-73" transform="translate(83.398438 0)"/>
      <use xlink:href="#ArialMT-74" transform="translate(133.398438 0)"/>
     </g>
    </g>
   </g>
  </g>
  <g id="axes_2">
   <g id="patch_6">
    <path d="M 59.10774 380.518119 
L 705.411549 380.518119 
L 705.411549 330.810369 
L 59.10774 330.810369 
z
" style="fill: #ffffff"/>
   </g>
   <g id="matplotlib.axis_3">
    <g id="xtick_10">
     <g id="line2d_26">
      <g>
       <use xlink:href="#ma0ad663691" x="81.490556" y="380.518119" style="fill: #262626; stroke: #262626; stroke-width: 1.875"/>
      </g>
     </g>
     <g id="text_23">
      <!-- 0 -->
      <g style="fill: #262626" transform="translate(76.902782 404.82851) scale(0.165 -0.165)">
       <use xlink:href="#ArialMT-30"/>
      </g>
     </g>
    </g>
    <g id="xtick_11">
     <g id="line2d_27">
      <g>
       <use xlink:href="#ma0ad663691" x="159.208667" y="380.518119" style="fill: #262626; stroke: #262626; stroke-width: 1.875"/>
      </g>
     </g>
     <g id="text_24">
      <!-- 50 -->
      <g style="fill: #262626" transform="translate(150.03312 404.82851) scale(0.165 -0.165)">
       <use xlink:href="#ArialMT-35"/>
       <use xlink:href="#ArialMT-30" transform="translate(55.615234 0)"/>
      </g>
     </g>
    </g>
    <g id="xtick_12">
     <g id="line2d_28">
      <g>
       <use xlink:href="#ma0ad663691" x="236.926777" y="380.518119" style="fill: #262626; stroke: #262626; stroke-width: 1.875"/>
      </g>
     </g>
     <g id="text_25">
      <!-- 100 -->
      <g style="fill: #262626" transform="translate(223.163457 404.82851) scale(0.165 -0.165)">
       <use xlink:href="#ArialMT-31"/>
       <use xlink:href="#ArialMT-30" transform="translate(55.615234 0)"/>
       <use xlink:href="#ArialMT-30" transform="translate(111.230469 0)"/>
      </g>
     </g>
    </g>
    <g id="xtick_13">
     <g id="line2d_29">
      <g>
       <use xlink:href="#ma0ad663691" x="314.644888" y="380.518119" style="fill: #262626; stroke: #262626; stroke-width: 1.875"/>
      </g>
     </g>
     <g id="text_26">
      <!-- 150 -->
      <g style="fill: #262626" transform="translate(300.881568 404.82851) scale(0.165 -0.165)">
       <use xlink:href="#ArialMT-31"/>
       <use xlink:href="#ArialMT-35" transform="translate(55.615234 0)"/>
       <use xlink:href="#ArialMT-30" transform="translate(111.230469 0)"/>
      </g>
     </g>
    </g>
    <g id="xtick_14">
     <g id="line2d_30">
      <g>
       <use xlink:href="#ma0ad663691" x="392.362999" y="380.518119" style="fill: #262626; stroke: #262626; stroke-width: 1.875"/>
      </g>
     </g>
     <g id="text_27">
      <!-- 200 -->
      <g style="fill: #262626" transform="translate(378.599679 404.82851) scale(0.165 -0.165)">
       <use xlink:href="#ArialMT-32"/>
       <use xlink:href="#ArialMT-30" transform="translate(55.615234 0)"/>
       <use xlink:href="#ArialMT-30" transform="translate(111.230469 0)"/>
      </g>
     </g>
    </g>
    <g id="xtick_15">
     <g id="line2d_31">
      <g>
       <use xlink:href="#ma0ad663691" x="470.08111" y="380.518119" style="fill: #262626; stroke: #262626; stroke-width: 1.875"/>
      </g>
     </g>
     <g id="text_28">
      <!-- 250 -->
      <g style="fill: #262626" transform="translate(456.317789 404.82851) scale(0.165 -0.165)">
       <use xlink:href="#ArialMT-32"/>
       <use xlink:href="#ArialMT-35" transform="translate(55.615234 0)"/>
       <use xlink:href="#ArialMT-30" transform="translate(111.230469 0)"/>
      </g>
     </g>
    </g>
    <g id="xtick_16">
     <g id="line2d_32">
      <g>
       <use xlink:href="#ma0ad663691" x="547.79922" y="380.518119" style="fill: #262626; stroke: #262626; stroke-width: 1.875"/>
      </g>
     </g>
     <g id="text_29">
      <!-- 300 -->
      <g style="fill: #262626" transform="translate(534.0359 404.82851) scale(0.165 -0.165)">
       <use xlink:href="#ArialMT-33"/>
       <use xlink:href="#ArialMT-30" transform="translate(55.615234 0)"/>
       <use xlink:href="#ArialMT-30" transform="translate(111.230469 0)"/>
      </g>
     </g>
    </g>
    <g id="xtick_17">
     <g id="line2d_33">
      <g>
       <use xlink:href="#ma0ad663691" x="625.517331" y="380.518119" style="fill: #262626; stroke: #262626; stroke-width: 1.875"/>
      </g>
     </g>
     <g id="text_30">
      <!-- 350 -->
      <g style="fill: #262626" transform="translate(611.754011 404.82851) scale(0.165 -0.165)">
       <use xlink:href="#ArialMT-33"/>
       <use xlink:href="#ArialMT-35" transform="translate(55.615234 0)"/>
       <use xlink:href="#ArialMT-30" transform="translate(111.230469 0)"/>
      </g>
     </g>
    </g>
    <g id="xtick_18">
     <g id="line2d_34">
      <g>
       <use xlink:href="#ma0ad663691" x="703.235442" y="380.518119" style="fill: #262626; stroke: #262626; stroke-width: 1.875"/>
      </g>
     </g>
     <g id="text_31">
      <!-- 400 -->
      <g style="fill: #262626" transform="translate(689.472122 404.82851) scale(0.165 -0.165)">
       <use xlink:href="#ArialMT-34"/>
       <use xlink:href="#ArialMT-30" transform="translate(55.615234 0)"/>
       <use xlink:href="#ArialMT-30" transform="translate(111.230469 0)"/>
      </g>
     </g>
    </g>
    <g id="text_32">
     <!-- predict time (min) -->
     <g style="fill: #262626" transform="translate(312.75152 425.211322) scale(0.18 -0.18)">
      <defs>
       <path id="ArialMT-70" d="M 422 -1272 
L 422 3319 
L 934 3319 
L 934 2888 
Q 1116 3141 1344 3267 
Q 1572 3394 1897 3394 
Q 2322 3394 2647 3175 
Q 2972 2956 3137 2557 
Q 3303 2159 3303 1684 
Q 3303 1175 3120 767 
Q 2938 359 2589 142 
Q 2241 -75 1856 -75 
Q 1575 -75 1351 44 
Q 1128 163 984 344 
L 984 -1272 
L 422 -1272 
z
M 931 1641 
Q 931 1000 1190 694 
Q 1450 388 1819 388 
Q 2194 388 2461 705 
Q 2728 1022 2728 1688 
Q 2728 2322 2467 2637 
Q 2206 2953 1844 2953 
Q 1484 2953 1207 2617 
Q 931 2281 931 1641 
z
" transform="scale(0.015625)"/>
       <path id="ArialMT-63" d="M 2588 1216 
L 3141 1144 
Q 3050 572 2676 248 
Q 2303 -75 1759 -75 
Q 1078 -75 664 370 
Q 250 816 250 1647 
Q 250 2184 428 2587 
Q 606 2991 970 3192 
Q 1334 3394 1763 3394 
Q 2303 3394 2647 3120 
Q 2991 2847 3088 2344 
L 2541 2259 
Q 2463 2594 2264 2762 
Q 2066 2931 1784 2931 
Q 1359 2931 1093 2626 
Q 828 2322 828 1663 
Q 828 994 1084 691 
Q 1341 388 1753 388 
Q 2084 388 2306 591 
Q 2528 794 2588 1216 
z
" transform="scale(0.015625)"/>
      </defs>
      <use xlink:href="#ArialMT-70"/>
      <use xlink:href="#ArialMT-72" transform="translate(55.615234 0)"/>
      <use xlink:href="#ArialMT-65" transform="translate(88.916016 0)"/>
      <use xlink:href="#ArialMT-64" transform="translate(144.53125 0)"/>
      <use xlink:href="#ArialMT-69" transform="translate(200.146484 0)"/>
      <use xlink:href="#ArialMT-63" transform="translate(222.363281 0)"/>
      <use xlink:href="#ArialMT-74" transform="translate(272.363281 0)"/>
      <use xlink:href="#ArialMT-20" transform="translate(300.146484 0)"/>
      <use xlink:href="#ArialMT-74" transform="translate(327.929688 0)"/>
      <use xlink:href="#ArialMT-69" transform="translate(355.712891 0)"/>
      <use xlink:href="#ArialMT-6d" transform="translate(377.929688 0)"/>
      <use xlink:href="#ArialMT-65" transform="translate(461.230469 0)"/>
      <use xlink:href="#ArialMT-20" transform="translate(516.845703 0)"/>
      <use xlink:href="#ArialMT-28" transform="translate(544.628906 0)"/>
      <use xlink:href="#ArialMT-6d" transform="translate(577.929688 0)"/>
      <use xlink:href="#ArialMT-69" transform="translate(661.230469 0)"/>
      <use xlink:href="#ArialMT-6e" transform="translate(683.447266 0)"/>
      <use xlink:href="#ArialMT-29" transform="translate(739.0625 0)"/>
     </g>
    </g>
   </g>
   <g id="matplotlib.axis_4">
    <g id="ytick_7">
     <g id="line2d_35">
      <g>
       <use xlink:href="#m6b5bf75b50" x="59.10774" y="380.518119" style="fill: #262626; stroke: #262626; stroke-width: 1.875"/>
      </g>
     </g>
     <g id="text_33">
      <!-- 0 -->
      <g style="fill: #262626" transform="translate(37.432193 386.423315) scale(0.165 -0.165)">
       <use xlink:href="#ArialMT-30"/>
      </g>
     </g>
    </g>
    <g id="ytick_8">
     <g id="line2d_36">
      <g>
       <use xlink:href="#m6b5bf75b50" x="59.10774" y="330.810369" style="fill: #262626; stroke: #262626; stroke-width: 1.875"/>
      </g>
     </g>
     <g id="text_34">
      <!-- 1 -->
      <g style="fill: #262626" transform="translate(37.432193 336.715565) scale(0.165 -0.165)">
       <use xlink:href="#ArialMT-31"/>
      </g>
     </g>
    </g>
    <g id="text_35">
     <!-- Error -->
     <g style="fill: #262626" transform="translate(29.854693 375.662526) rotate(-90) scale(0.18 -0.18)">
      <defs>
       <path id="ArialMT-45" d="M 506 0 
L 506 4581 
L 3819 4581 
L 3819 4041 
L 1113 4041 
L 1113 2638 
L 3647 2638 
L 3647 2100 
L 1113 2100 
L 1113 541 
L 3925 541 
L 3925 0 
L 506 0 
z
" transform="scale(0.015625)"/>
      </defs>
      <use xlink:href="#ArialMT-45"/>
      <use xlink:href="#ArialMT-72" transform="translate(66.699219 0)"/>
      <use xlink:href="#ArialMT-72" transform="translate(100 0)"/>
      <use xlink:href="#ArialMT-6f" transform="translate(133.300781 0)"/>
      <use xlink:href="#ArialMT-72" transform="translate(188.916016 0)"/>
     </g>
    </g>
   </g>
   <g id="FillBetweenPolyCollection_5"/>
   <g id="FillBetweenPolyCollection_6"/>
   <g id="FillBetweenPolyCollection_7"/>
   <g id="line2d_37">
    <path d="M 59.10774 355.664244 
L 705.411549 355.664244 
" clip-path="url(#p040759bc71)" style="fill: none; stroke-dasharray: 3.7,1.6; stroke-dashoffset: 0; stroke: #808080"/>
   </g>
   <g id="line2d_38">
    <path d="M 88.485186 379.629958 
L 95.479816 374.664087 
L 102.474446 379.989305 
L 109.469076 379.513402 
L 116.463706 379.696086 
L 123.458336 375.635883 
L 130.452966 377.624877 
L 137.447596 377.788857 
L 144.442226 379.061268 
L 151.436856 378.882999 
L 158.431486 379.602892 
L 165.426116 379.163294 
L 172.420745 373.518632 
L 179.415375 380.339568 
L 186.410005 378.144193 
L 193.404635 379.356163 
L 200.399265 379.858413 
L 207.393895 378.422227 
L 214.388525 379.699605 
L 221.383155 379.179368 
L 228.377785 373.29795 
L 235.372415 380.448594 
L 242.367045 379.526584 
L 249.361675 380.085327 
L 256.356305 379.833442 
L 263.350935 379.85785 
L 270.345565 380.120115 
L 277.340195 377.503785 
L 284.334825 380.0209 
L 291.329455 379.553557 
L 298.324085 380.206086 
L 305.318715 376.397703 
L 312.313345 379.507973 
L 319.307975 377.12571 
L 326.302605 378.153889 
L 333.297235 380.195859 
L 340.291865 377.346321 
L 347.286495 379.145674 
L 354.281125 377.083653 
L 361.275755 379.93486 
L 368.270385 378.429026 
L 375.265015 378.86855 
L 382.259645 378.219832 
L 389.254275 378.906599 
L 396.248904 380.399342 
L 403.243534 375.748341 
L 410.238164 379.054618 
L 417.232794 377.331404 
L 424.227424 378.049217 
L 431.222054 378.363242 
L 438.216684 376.837498 
" clip-path="url(#p040759bc71)" style="fill: none; stroke: #4c72b0; stroke-width: 2.25; stroke-linecap: round"/>
   </g>
   <g id="line2d_39">
    <path d="M 445.211314 374.479548 
L 452.205944 378.437551 
L 459.200574 377.674555 
L 466.195204 367.230138 
L 473.189834 380.346114 
L 480.184464 365.018586 
L 487.179094 376.552143 
L 494.173724 369.956877 
L 501.168354 350.480318 
L 508.162984 368.649956 
L 515.157614 373.375353 
L 522.152244 371.946879 
L 529.146874 380.199404 
L 536.141504 371.168881 
L 543.136134 363.24044 
L 550.130764 373.795936 
L 557.125394 379.242922 
" clip-path="url(#p040759bc71)" style="fill: none; stroke: #dd8452; stroke-width: 2.25; stroke-linecap: round"/>
   </g>
   <g id="line2d_40">
    <path d="M 564.120024 372.91519 
L 571.114654 375.142689 
L 578.109284 355.126472 
L 585.103914 380.367673 
L 592.098544 378.686765 
L 599.093174 372.101143 
L 606.087804 371.17685 
L 613.082433 365.448026 
L 620.077063 348.683548 
L 627.071693 375.231771 
L 634.066323 377.295982 
L 641.060953 365.191449 
L 648.055583 380.141689 
L 655.050213 358.602359 
L 662.044843 345.748474 
L 669.039473 370.009602 
L 676.034103 378.313914 
" clip-path="url(#p040759bc71)" style="fill: none; stroke: #55a868; stroke-width: 2.25; stroke-linecap: round"/>
   </g>
   <g id="patch_7">
    <path d="M 59.10774 380.518119 
L 59.10774 330.810369 
" style="fill: none; stroke: #262626; stroke-width: 1.875; stroke-linejoin: miter; stroke-linecap: square"/>
   </g>
   <g id="patch_8">
    <path d="M 59.10774 380.518119 
L 705.411549 380.518119 
" style="fill: none; stroke: #262626; stroke-width: 1.875; stroke-linejoin: miter; stroke-linecap: square"/>
   </g>
  </g>
 </g>
 <defs>
  <clipPath id="pe4d7f1d63a">
   <rect x="59.10774" y="21.884302" width="646.303809" height="248.538751"/>
  </clipPath>
  <clipPath id="p040759bc71">
   <rect x="59.10774" y="330.810369" width="646.303809" height="49.70775"/>
  </clipPath>
 </defs>
</svg>
