<?xml version="1.0" encoding="utf-8" standalone="no"?>
<!DOCTYPE svg PUBLIC "-//W3C//DTD SVG 1.1//EN"
  "http://www.w3.org/Graphics/SVG/1.1/DTD/svg11.dtd">
<svg xmlns:xlink="http://www.w3.org/1999/xlink" width="720pt" height="432pt" viewBox="0 0 720 432" xmlns="http://www.w3.org/2000/svg" version="1.1">
 <metadata>
  <rdf:RDF xmlns:dc="http://purl.org/dc/elements/1.1/" xmlns:cc="http://creativecommons.org/ns#" xmlns:rdf="http://www.w3.org/1999/02/22-rdf-syntax-ns#">
   <cc:Work>
    <dc:type rdf:resource="http://purl.org/dc/dcmitype/StillImage"/>
    <dc:date>2025-05-28T17:46:06.402553</dc:date>
    <dc:format>image/svg+xml</dc:format>
    <dc:creator>
     <cc:Agent>
      <dc:title>Matplotlib v3.10.0, https://matplotlib.org/</dc:title>
     </cc:Agent>
    </dc:creator>
   </cc:Work>
  </rdf:RDF>
 </metadata>
 <defs>
  <style type="text/css">*{stroke-linejoin: round; stroke-linecap: butt}</style>
 </defs>
 <g id="figure_1">
  <g id="patch_1">
   <path d="M 0 432 
L 720 432 
L 720 0 
L 0 0 
z
" style="fill: #ffffff"/>
  </g>
  <g id="axes_1">
   <g id="patch_2">
    <path d="M 59.10774 270.423053 
L 704.747065 270.423053 
L 704.747065 21.884302 
L 59.10774 21.884302 
z
" style="fill: #ffffff"/>
   </g>
   <g id="matplotlib.axis_1">
    <g id="xtick_1">
     <g id="line2d_1">
      <defs>
       <path id="md623976f73" d="M 0 0 
L 0 9 
" style="stroke: #262626; stroke-width: 1.875"/>
      </defs>
      <g>
       <use xlink:href="#md623976f73" x="88.454982" y="270.423053" style="fill: #262626; stroke: #262626; stroke-width: 1.875"/>
      </g>
     </g>
     <g id="text_1">
      <!-- 0 -->
      <g style="fill: #262626" transform="translate(83.867209 294.733444) scale(0.165 -0.165)">
       <defs>
        <path id="ArialMT-30" d="M 266 2259 
Q 266 3072 433 3567 
Q 600 4063 929 4331 
Q 1259 4600 1759 4600 
Q 2128 4600 2406 4451 
Q 2684 4303 2865 4023 
Q 3047 3744 3150 3342 
Q 3253 2941 3253 2259 
Q 3253 1453 3087 958 
Q 2922 463 2592 192 
Q 2263 -78 1759 -78 
Q 1097 -78 719 397 
Q 266 969 266 2259 
z
M 844 2259 
Q 844 1131 1108 757 
Q 1372 384 1759 384 
Q 2147 384 2411 759 
Q 2675 1134 2675 2259 
Q 2675 3391 2411 3762 
Q 2147 4134 1753 4134 
Q 1366 4134 1134 3806 
Q 844 3388 844 2259 
z
" transform="scale(0.015625)"/>
       </defs>
       <use xlink:href="#ArialMT-30"/>
      </g>
     </g>
    </g>
    <g id="xtick_2">
     <g id="line2d_2">
      <g>
       <use xlink:href="#md623976f73" x="164.336668" y="270.423053" style="fill: #262626; stroke: #262626; stroke-width: 1.875"/>
      </g>
     </g>
     <g id="text_2">
      <!-- 50 -->
      <g style="fill: #262626" transform="translate(155.161121 294.733444) scale(0.165 -0.165)">
       <defs>
        <path id="ArialMT-35" d="M 266 1200 
L 856 1250 
Q 922 819 1161 601 
Q 1400 384 1738 384 
Q 2144 384 2425 690 
Q 2706 997 2706 1503 
Q 2706 1984 2436 2262 
Q 2166 2541 1728 2541 
Q 1456 2541 1237 2417 
Q 1019 2294 894 2097 
L 366 2166 
L 809 4519 
L 3088 4519 
L 3088 3981 
L 1259 3981 
L 1013 2750 
Q 1425 3038 1878 3038 
Q 2478 3038 2890 2622 
Q 3303 2206 3303 1553 
Q 3303 931 2941 478 
Q 2500 -78 1738 -78 
Q 1113 -78 717 272 
Q 322 622 266 1200 
z
" transform="scale(0.015625)"/>
       </defs>
       <use xlink:href="#ArialMT-35"/>
       <use xlink:href="#ArialMT-30" transform="translate(55.615234 0)"/>
      </g>
     </g>
    </g>
    <g id="xtick_3">
     <g id="line2d_3">
      <g>
       <use xlink:href="#md623976f73" x="240.218354" y="270.423053" style="fill: #262626; stroke: #262626; stroke-width: 1.875"/>
      </g>
     </g>
     <g id="text_3">
      <!-- 100 -->
      <g style="fill: #262626" transform="translate(226.455034 294.733444) scale(0.165 -0.165)">
       <defs>
        <path id="ArialMT-31" d="M 2384 0 
L 1822 0 
L 1822 3584 
Q 1619 3391 1289 3197 
Q 959 3003 697 2906 
L 697 3450 
Q 1169 3672 1522 3987 
Q 1875 4303 2022 4600 
L 2384 4600 
L 2384 0 
z
" transform="scale(0.015625)"/>
       </defs>
       <use xlink:href="#ArialMT-31"/>
       <use xlink:href="#ArialMT-30" transform="translate(55.615234 0)"/>
       <use xlink:href="#ArialMT-30" transform="translate(111.230469 0)"/>
      </g>
     </g>
    </g>
    <g id="xtick_4">
     <g id="line2d_4">
      <g>
       <use xlink:href="#md623976f73" x="316.10004" y="270.423053" style="fill: #262626; stroke: #262626; stroke-width: 1.875"/>
      </g>
     </g>
     <g id="text_4">
      <!-- 150 -->
      <g style="fill: #262626" transform="translate(302.33672 294.733444) scale(0.165 -0.165)">
       <use xlink:href="#ArialMT-31"/>
       <use xlink:href="#ArialMT-35" transform="translate(55.615234 0)"/>
       <use xlink:href="#ArialMT-30" transform="translate(111.230469 0)"/>
      </g>
     </g>
    </g>
    <g id="xtick_5">
     <g id="line2d_5">
      <g>
       <use xlink:href="#md623976f73" x="391.981726" y="270.423053" style="fill: #262626; stroke: #262626; stroke-width: 1.875"/>
      </g>
     </g>
     <g id="text_5">
      <!-- 200 -->
      <g style="fill: #262626" transform="translate(378.218406 294.733444) scale(0.165 -0.165)">
       <defs>
        <path id="ArialMT-32" d="M 3222 541 
L 3222 0 
L 194 0 
Q 188 203 259 391 
Q 375 700 629 1000 
Q 884 1300 1366 1694 
Q 2113 2306 2375 2664 
Q 2638 3022 2638 3341 
Q 2638 3675 2398 3904 
Q 2159 4134 1775 4134 
Q 1369 4134 1125 3890 
Q 881 3647 878 3216 
L 300 3275 
Q 359 3922 746 4261 
Q 1134 4600 1788 4600 
Q 2447 4600 2831 4234 
Q 3216 3869 3216 3328 
Q 3216 3053 3103 2787 
Q 2991 2522 2730 2228 
Q 2469 1934 1863 1422 
Q 1356 997 1212 845 
Q 1069 694 975 541 
L 3222 541 
z
" transform="scale(0.015625)"/>
       </defs>
       <use xlink:href="#ArialMT-32"/>
       <use xlink:href="#ArialMT-30" transform="translate(55.615234 0)"/>
       <use xlink:href="#ArialMT-30" transform="translate(111.230469 0)"/>
      </g>
     </g>
    </g>
    <g id="xtick_6">
     <g id="line2d_6">
      <g>
       <use xlink:href="#md623976f73" x="467.863412" y="270.423053" style="fill: #262626; stroke: #262626; stroke-width: 1.875"/>
      </g>
     </g>
     <g id="text_6">
      <!-- 250 -->
      <g style="fill: #262626" transform="translate(454.100092 294.733444) scale(0.165 -0.165)">
       <use xlink:href="#ArialMT-32"/>
       <use xlink:href="#ArialMT-35" transform="translate(55.615234 0)"/>
       <use xlink:href="#ArialMT-30" transform="translate(111.230469 0)"/>
      </g>
     </g>
    </g>
    <g id="xtick_7">
     <g id="line2d_7">
      <g>
       <use xlink:href="#md623976f73" x="543.745098" y="270.423053" style="fill: #262626; stroke: #262626; stroke-width: 1.875"/>
      </g>
     </g>
     <g id="text_7">
      <!-- 300 -->
      <g style="fill: #262626" transform="translate(529.981778 294.733444) scale(0.165 -0.165)">
       <defs>
        <path id="ArialMT-33" d="M 269 1209 
L 831 1284 
Q 928 806 1161 595 
Q 1394 384 1728 384 
Q 2125 384 2398 659 
Q 2672 934 2672 1341 
Q 2672 1728 2419 1979 
Q 2166 2231 1775 2231 
Q 1616 2231 1378 2169 
L 1441 2663 
Q 1497 2656 1531 2656 
Q 1891 2656 2178 2843 
Q 2466 3031 2466 3422 
Q 2466 3731 2256 3934 
Q 2047 4138 1716 4138 
Q 1388 4138 1169 3931 
Q 950 3725 888 3313 
L 325 3413 
Q 428 3978 793 4289 
Q 1159 4600 1703 4600 
Q 2078 4600 2393 4439 
Q 2709 4278 2876 4000 
Q 3044 3722 3044 3409 
Q 3044 3113 2884 2869 
Q 2725 2625 2413 2481 
Q 2819 2388 3044 2092 
Q 3269 1797 3269 1353 
Q 3269 753 2831 336 
Q 2394 -81 1725 -81 
Q 1122 -81 723 278 
Q 325 638 269 1209 
z
" transform="scale(0.015625)"/>
       </defs>
       <use xlink:href="#ArialMT-33"/>
       <use xlink:href="#ArialMT-30" transform="translate(55.615234 0)"/>
       <use xlink:href="#ArialMT-30" transform="translate(111.230469 0)"/>
      </g>
     </g>
    </g>
    <g id="xtick_8">
     <g id="line2d_8">
      <g>
       <use xlink:href="#md623976f73" x="619.626784" y="270.423053" style="fill: #262626; stroke: #262626; stroke-width: 1.875"/>
      </g>
     </g>
     <g id="text_8">
      <!-- 350 -->
      <g style="fill: #262626" transform="translate(605.863464 294.733444) scale(0.165 -0.165)">
       <use xlink:href="#ArialMT-33"/>
       <use xlink:href="#ArialMT-35" transform="translate(55.615234 0)"/>
       <use xlink:href="#ArialMT-30" transform="translate(111.230469 0)"/>
      </g>
     </g>
    </g>
    <g id="xtick_9">
     <g id="line2d_9">
      <g>
       <use xlink:href="#md623976f73" x="695.50847" y="270.423053" style="fill: #262626; stroke: #262626; stroke-width: 1.875"/>
      </g>
     </g>
     <g id="text_9">
      <!-- 400 -->
      <g style="fill: #262626" transform="translate(681.74515 294.733444) scale(0.165 -0.165)">
       <defs>
        <path id="ArialMT-34" d="M 2069 0 
L 2069 1097 
L 81 1097 
L 81 1613 
L 2172 4581 
L 2631 4581 
L 2631 1613 
L 3250 1613 
L 3250 1097 
L 2631 1097 
L 2631 0 
L 2069 0 
z
M 2069 1613 
L 2069 3678 
L 634 1613 
L 2069 1613 
z
" transform="scale(0.015625)"/>
       </defs>
       <use xlink:href="#ArialMT-34"/>
       <use xlink:href="#ArialMT-30" transform="translate(55.615234 0)"/>
       <use xlink:href="#ArialMT-30" transform="translate(111.230469 0)"/>
      </g>
     </g>
    </g>
    <g id="text_10">
     <!-- Time (min) -->
     <g style="fill: #262626" transform="translate(339.271621 315.116256) scale(0.18 -0.18)">
      <defs>
       <path id="ArialMT-54" d="M 1659 0 
L 1659 4041 
L 150 4041 
L 150 4581 
L 3781 4581 
L 3781 4041 
L 2266 4041 
L 2266 0 
L 1659 0 
z
" transform="scale(0.015625)"/>
       <path id="ArialMT-69" d="M 425 3934 
L 425 4581 
L 988 4581 
L 988 3934 
L 425 3934 
z
M 425 0 
L 425 3319 
L 988 3319 
L 988 0 
L 425 0 
z
" transform="scale(0.015625)"/>
       <path id="ArialMT-6d" d="M 422 0 
L 422 3319 
L 925 3319 
L 925 2853 
Q 1081 3097 1340 3245 
Q 1600 3394 1931 3394 
Q 2300 3394 2536 3241 
Q 2772 3088 2869 2813 
Q 3263 3394 3894 3394 
Q 4388 3394 4653 3120 
Q 4919 2847 4919 2278 
L 4919 0 
L 4359 0 
L 4359 2091 
Q 4359 2428 4304 2576 
Q 4250 2725 4106 2815 
Q 3963 2906 3769 2906 
Q 3419 2906 3187 2673 
Q 2956 2441 2956 1928 
L 2956 0 
L 2394 0 
L 2394 2156 
Q 2394 2531 2256 2718 
Q 2119 2906 1806 2906 
Q 1569 2906 1367 2781 
Q 1166 2656 1075 2415 
Q 984 2175 984 1722 
L 984 0 
L 422 0 
z
" transform="scale(0.015625)"/>
       <path id="ArialMT-65" d="M 2694 1069 
L 3275 997 
Q 3138 488 2766 206 
Q 2394 -75 1816 -75 
Q 1088 -75 661 373 
Q 234 822 234 1631 
Q 234 2469 665 2931 
Q 1097 3394 1784 3394 
Q 2450 3394 2872 2941 
Q 3294 2488 3294 1666 
Q 3294 1616 3291 1516 
L 816 1516 
Q 847 969 1125 678 
Q 1403 388 1819 388 
Q 2128 388 2347 550 
Q 2566 713 2694 1069 
z
M 847 1978 
L 2700 1978 
Q 2663 2397 2488 2606 
Q 2219 2931 1791 2931 
Q 1403 2931 1139 2672 
Q 875 2413 847 1978 
z
" transform="scale(0.015625)"/>
       <path id="ArialMT-20" transform="scale(0.015625)"/>
       <path id="ArialMT-28" d="M 1497 -1347 
Q 1031 -759 709 28 
Q 388 816 388 1659 
Q 388 2403 628 3084 
Q 909 3875 1497 4659 
L 1900 4659 
Q 1522 4009 1400 3731 
Q 1209 3300 1100 2831 
Q 966 2247 966 1656 
Q 966 153 1900 -1347 
L 1497 -1347 
z
" transform="scale(0.015625)"/>
       <path id="ArialMT-6e" d="M 422 0 
L 422 3319 
L 928 3319 
L 928 2847 
Q 1294 3394 1984 3394 
Q 2284 3394 2536 3286 
Q 2788 3178 2913 3003 
Q 3038 2828 3088 2588 
Q 3119 2431 3119 2041 
L 3119 0 
L 2556 0 
L 2556 2019 
Q 2556 2363 2490 2533 
Q 2425 2703 2258 2804 
Q 2091 2906 1866 2906 
Q 1506 2906 1245 2678 
Q 984 2450 984 1813 
L 984 0 
L 422 0 
z
" transform="scale(0.015625)"/>
       <path id="ArialMT-29" d="M 791 -1347 
L 388 -1347 
Q 1322 153 1322 1656 
Q 1322 2244 1188 2822 
Q 1081 3291 891 3722 
Q 769 4003 388 4659 
L 791 4659 
Q 1378 3875 1659 3084 
Q 1900 2403 1900 1659 
Q 1900 816 1576 28 
Q 1253 -759 791 -1347 
z
" transform="scale(0.015625)"/>
      </defs>
      <use xlink:href="#ArialMT-54"/>
      <use xlink:href="#ArialMT-69" transform="translate(57.333984 0)"/>
      <use xlink:href="#ArialMT-6d" transform="translate(79.550781 0)"/>
      <use xlink:href="#ArialMT-65" transform="translate(162.851562 0)"/>
      <use xlink:href="#ArialMT-20" transform="translate(218.466797 0)"/>
      <use xlink:href="#ArialMT-28" transform="translate(246.25 0)"/>
      <use xlink:href="#ArialMT-6d" transform="translate(279.550781 0)"/>
      <use xlink:href="#ArialMT-69" transform="translate(362.851562 0)"/>
      <use xlink:href="#ArialMT-6e" transform="translate(385.068359 0)"/>
      <use xlink:href="#ArialMT-29" transform="translate(440.683594 0)"/>
     </g>
    </g>
   </g>
   <g id="matplotlib.axis_2">
    <g id="ytick_1">
     <g id="line2d_10">
      <defs>
       <path id="m2dc9f4b187" d="M 0 0 
L -9 0 
" style="stroke: #262626; stroke-width: 1.875"/>
      </defs>
      <g>
       <use xlink:href="#m2dc9f4b187" x="59.10774" y="249.332037" style="fill: #262626; stroke: #262626; stroke-width: 1.875"/>
      </g>
     </g>
     <g id="text_11">
      <!-- 0.0 -->
      <g style="fill: #262626" transform="translate(23.67274 255.237232) scale(0.165 -0.165)">
       <defs>
        <path id="ArialMT-2e" d="M 581 0 
L 581 641 
L 1222 641 
L 1222 0 
L 581 0 
z
" transform="scale(0.015625)"/>
       </defs>
       <use xlink:href="#ArialMT-30"/>
       <use xlink:href="#ArialMT-2e" transform="translate(55.615234 0)"/>
       <use xlink:href="#ArialMT-30" transform="translate(83.398438 0)"/>
      </g>
     </g>
    </g>
    <g id="ytick_2">
     <g id="line2d_11">
      <g>
       <use xlink:href="#m2dc9f4b187" x="59.10774" y="206.101933" style="fill: #262626; stroke: #262626; stroke-width: 1.875"/>
      </g>
     </g>
     <g id="text_12">
      <!-- 0.2 -->
      <g style="fill: #262626" transform="translate(23.67274 212.007129) scale(0.165 -0.165)">
       <use xlink:href="#ArialMT-30"/>
       <use xlink:href="#ArialMT-2e" transform="translate(55.615234 0)"/>
       <use xlink:href="#ArialMT-32" transform="translate(83.398438 0)"/>
      </g>
     </g>
    </g>
    <g id="ytick_3">
     <g id="line2d_12">
      <g>
       <use xlink:href="#m2dc9f4b187" x="59.10774" y="162.87183" style="fill: #262626; stroke: #262626; stroke-width: 1.875"/>
      </g>
     </g>
     <g id="text_13">
      <!-- 0.4 -->
      <g style="fill: #262626" transform="translate(23.67274 168.777025) scale(0.165 -0.165)">
       <use xlink:href="#ArialMT-30"/>
       <use xlink:href="#ArialMT-2e" transform="translate(55.615234 0)"/>
       <use xlink:href="#ArialMT-34" transform="translate(83.398438 0)"/>
      </g>
     </g>
    </g>
    <g id="ytick_4">
     <g id="line2d_13">
      <g>
       <use xlink:href="#m2dc9f4b187" x="59.10774" y="119.641726" style="fill: #262626; stroke: #262626; stroke-width: 1.875"/>
      </g>
     </g>
     <g id="text_14">
      <!-- 0.6 -->
      <g style="fill: #262626" transform="translate(23.67274 125.546921) scale(0.165 -0.165)">
       <defs>
        <path id="ArialMT-36" d="M 3184 3459 
L 2625 3416 
Q 2550 3747 2413 3897 
Q 2184 4138 1850 4138 
Q 1581 4138 1378 3988 
Q 1113 3794 959 3422 
Q 806 3050 800 2363 
Q 1003 2672 1297 2822 
Q 1591 2972 1913 2972 
Q 2475 2972 2870 2558 
Q 3266 2144 3266 1488 
Q 3266 1056 3080 686 
Q 2894 316 2569 119 
Q 2244 -78 1831 -78 
Q 1128 -78 684 439 
Q 241 956 241 2144 
Q 241 3472 731 4075 
Q 1159 4600 1884 4600 
Q 2425 4600 2770 4297 
Q 3116 3994 3184 3459 
z
M 888 1484 
Q 888 1194 1011 928 
Q 1134 663 1356 523 
Q 1578 384 1822 384 
Q 2178 384 2434 671 
Q 2691 959 2691 1453 
Q 2691 1928 2437 2201 
Q 2184 2475 1800 2475 
Q 1419 2475 1153 2201 
Q 888 1928 888 1484 
z
" transform="scale(0.015625)"/>
       </defs>
       <use xlink:href="#ArialMT-30"/>
       <use xlink:href="#ArialMT-2e" transform="translate(55.615234 0)"/>
       <use xlink:href="#ArialMT-36" transform="translate(83.398438 0)"/>
      </g>
     </g>
    </g>
    <g id="ytick_5">
     <g id="line2d_14">
      <g>
       <use xlink:href="#m2dc9f4b187" x="59.10774" y="76.411622" style="fill: #262626; stroke: #262626; stroke-width: 1.875"/>
      </g>
     </g>
     <g id="text_15">
      <!-- 0.8 -->
      <g style="fill: #262626" transform="translate(23.67274 82.316817) scale(0.165 -0.165)">
       <defs>
        <path id="ArialMT-38" d="M 1131 2484 
Q 781 2613 612 2850 
Q 444 3088 444 3419 
Q 444 3919 803 4259 
Q 1163 4600 1759 4600 
Q 2359 4600 2725 4251 
Q 3091 3903 3091 3403 
Q 3091 3084 2923 2848 
Q 2756 2613 2416 2484 
Q 2838 2347 3058 2040 
Q 3278 1734 3278 1309 
Q 3278 722 2862 322 
Q 2447 -78 1769 -78 
Q 1091 -78 675 323 
Q 259 725 259 1325 
Q 259 1772 486 2073 
Q 713 2375 1131 2484 
z
M 1019 3438 
Q 1019 3113 1228 2906 
Q 1438 2700 1772 2700 
Q 2097 2700 2305 2904 
Q 2513 3109 2513 3406 
Q 2513 3716 2298 3927 
Q 2084 4138 1766 4138 
Q 1444 4138 1231 3931 
Q 1019 3725 1019 3438 
z
M 838 1322 
Q 838 1081 952 856 
Q 1066 631 1291 507 
Q 1516 384 1775 384 
Q 2178 384 2440 643 
Q 2703 903 2703 1303 
Q 2703 1709 2433 1975 
Q 2163 2241 1756 2241 
Q 1359 2241 1098 1978 
Q 838 1716 838 1322 
z
" transform="scale(0.015625)"/>
       </defs>
       <use xlink:href="#ArialMT-30"/>
       <use xlink:href="#ArialMT-2e" transform="translate(55.615234 0)"/>
       <use xlink:href="#ArialMT-38" transform="translate(83.398438 0)"/>
      </g>
     </g>
    </g>
    <g id="ytick_6">
     <g id="line2d_15">
      <g>
       <use xlink:href="#m2dc9f4b187" x="59.10774" y="33.181518" style="fill: #262626; stroke: #262626; stroke-width: 1.875"/>
      </g>
     </g>
     <g id="text_16">
      <!-- 1.0 -->
      <g style="fill: #262626" transform="translate(23.67274 39.086714) scale(0.165 -0.165)">
       <use xlink:href="#ArialMT-31"/>
       <use xlink:href="#ArialMT-2e" transform="translate(55.615234 0)"/>
       <use xlink:href="#ArialMT-30" transform="translate(83.398438 0)"/>
      </g>
     </g>
    </g>
    <g id="text_17">
     <!-- y value -->
     <g style="fill: #262626" transform="translate(15.884303 174.668209) rotate(-90) scale(0.18 -0.18)">
      <defs>
       <path id="ArialMT-79" d="M 397 -1278 
L 334 -750 
Q 519 -800 656 -800 
Q 844 -800 956 -737 
Q 1069 -675 1141 -563 
Q 1194 -478 1313 -144 
Q 1328 -97 1363 -6 
L 103 3319 
L 709 3319 
L 1400 1397 
Q 1534 1031 1641 628 
Q 1738 1016 1872 1384 
L 2581 3319 
L 3144 3319 
L 1881 -56 
Q 1678 -603 1566 -809 
Q 1416 -1088 1222 -1217 
Q 1028 -1347 759 -1347 
Q 597 -1347 397 -1278 
z
" transform="scale(0.015625)"/>
       <path id="ArialMT-76" d="M 1344 0 
L 81 3319 
L 675 3319 
L 1388 1331 
Q 1503 1009 1600 663 
Q 1675 925 1809 1294 
L 2547 3319 
L 3125 3319 
L 1869 0 
L 1344 0 
z
" transform="scale(0.015625)"/>
       <path id="ArialMT-61" d="M 2588 409 
Q 2275 144 1986 34 
Q 1697 -75 1366 -75 
Q 819 -75 525 192 
Q 231 459 231 875 
Q 231 1119 342 1320 
Q 453 1522 633 1644 
Q 813 1766 1038 1828 
Q 1203 1872 1538 1913 
Q 2219 1994 2541 2106 
Q 2544 2222 2544 2253 
Q 2544 2597 2384 2738 
Q 2169 2928 1744 2928 
Q 1347 2928 1158 2789 
Q 969 2650 878 2297 
L 328 2372 
Q 403 2725 575 2942 
Q 747 3159 1072 3276 
Q 1397 3394 1825 3394 
Q 2250 3394 2515 3294 
Q 2781 3194 2906 3042 
Q 3031 2891 3081 2659 
Q 3109 2516 3109 2141 
L 3109 1391 
Q 3109 606 3145 398 
Q 3181 191 3288 0 
L 2700 0 
Q 2613 175 2588 409 
z
M 2541 1666 
Q 2234 1541 1622 1453 
Q 1275 1403 1131 1340 
Q 988 1278 909 1158 
Q 831 1038 831 891 
Q 831 666 1001 516 
Q 1172 366 1500 366 
Q 1825 366 2078 508 
Q 2331 650 2450 897 
Q 2541 1088 2541 1459 
L 2541 1666 
z
" transform="scale(0.015625)"/>
       <path id="ArialMT-6c" d="M 409 0 
L 409 4581 
L 972 4581 
L 972 0 
L 409 0 
z
" transform="scale(0.015625)"/>
       <path id="ArialMT-75" d="M 2597 0 
L 2597 488 
Q 2209 -75 1544 -75 
Q 1250 -75 995 37 
Q 741 150 617 320 
Q 494 491 444 738 
Q 409 903 409 1263 
L 409 3319 
L 972 3319 
L 972 1478 
Q 972 1038 1006 884 
Q 1059 663 1231 536 
Q 1403 409 1656 409 
Q 1909 409 2131 539 
Q 2353 669 2445 892 
Q 2538 1116 2538 1541 
L 2538 3319 
L 3100 3319 
L 3100 0 
L 2597 0 
z
" transform="scale(0.015625)"/>
      </defs>
      <use xlink:href="#ArialMT-79"/>
      <use xlink:href="#ArialMT-20" transform="translate(50 0)"/>
      <use xlink:href="#ArialMT-76" transform="translate(77.783203 0)"/>
      <use xlink:href="#ArialMT-61" transform="translate(127.783203 0)"/>
      <use xlink:href="#ArialMT-6c" transform="translate(183.398438 0)"/>
      <use xlink:href="#ArialMT-75" transform="translate(205.615234 0)"/>
      <use xlink:href="#ArialMT-65" transform="translate(261.230469 0)"/>
     </g>
    </g>
   </g>
   <g id="FillBetweenPolyCollection_1"/>
   <g id="FillBetweenPolyCollection_2"/>
   <g id="FillBetweenPolyCollection_3"/>
   <g id="FillBetweenPolyCollection_4"/>
   <g id="line2d_16">
    <path d="M 88.454982 141.256778 
L 91.110841 95.24057 
L 92.628475 72.367015 
L 93.7667 57.983359 
L 94.904925 46.549706 
L 95.663742 40.770943 
L 96.422559 36.576901 
L 97.181376 34.033724 
L 97.560784 33.39478 
L 97.940193 33.181518 
L 98.319601 33.39478 
L 98.69901 34.033724 
L 99.078418 35.095828 
L 99.837235 38.471098 
L 100.596052 43.467359 
L 101.354869 50.005818 
L 102.493094 62.473304 
L 103.631319 77.731734 
L 105.148953 101.471621 
L 107.804812 148.042879 
L 110.081263 187.272985 
L 111.598896 210.146541 
L 112.737122 224.530196 
L 113.875347 235.963849 
L 114.634164 241.742613 
L 115.392981 245.936654 
L 116.151797 248.479831 
L 116.531206 249.118775 
L 116.910614 249.332037 
L 117.290023 249.118775 
L 117.669431 248.479831 
L 118.04884 247.417727 
L 118.807656 244.042457 
L 119.566473 239.046196 
L 120.32529 232.507737 
L 121.463515 220.040251 
L 122.601741 204.781821 
L 124.119374 181.041934 
L 126.775233 134.470676 
L 129.051684 95.24057 
L 130.569318 72.367015 
L 131.707543 57.983359 
L 132.845768 46.549706 
L 133.604585 40.770943 
L 134.363402 36.576901 
L 135.122219 34.033724 
L 135.501627 33.39478 
L 135.881036 33.181518 
L 136.260444 33.39478 
L 136.639853 34.033724 
L 137.019261 35.095828 
L 137.778078 38.471098 
L 138.536895 43.467359 
L 139.295712 50.005818 
L 140.433937 62.473304 
L 141.572162 77.731734 
L 143.089796 101.471621 
L 145.745655 148.042879 
L 148.022106 187.272985 
L 149.539739 210.146541 
L 150.677965 224.530196 
L 151.81619 235.963849 
L 152.575007 241.742613 
L 153.333824 245.936654 
L 154.09264 248.479831 
L 154.472049 249.118775 
L 154.851457 249.332037 
L 155.230866 249.118775 
L 155.610274 248.479831 
L 155.989683 247.417727 
L 156.748499 244.042457 
L 157.507316 239.046196 
L 158.266133 232.507737 
L 159.404358 220.040251 
L 160.542584 204.781821 
L 162.060217 181.041934 
L 164.716076 134.470676 
L 166.992527 95.24057 
L 168.510161 72.367015 
L 169.648386 57.983359 
L 170.786611 46.549706 
L 171.545428 40.770943 
L 172.304245 36.576901 
L 173.063062 34.033724 
L 173.44247 33.39478 
L 173.821879 33.181518 
L 174.201287 33.39478 
L 174.580696 34.033724 
L 174.960104 35.095828 
L 175.718921 38.471098 
L 176.477738 43.467359 
L 177.236555 50.005818 
L 178.37478 62.473304 
L 179.513005 77.731734 
L 181.030639 101.471621 
L 183.686498 148.042879 
L 185.962949 187.272985 
L 187.480582 210.146541 
L 188.618808 224.530196 
L 189.757033 235.963849 
L 190.51585 241.742613 
L 191.274667 245.936654 
L 192.033483 248.479831 
L 192.412892 249.118775 
L 192.7923 249.332037 
L 193.171709 249.118775 
L 193.551117 248.479831 
L 193.930526 247.417727 
L 194.689342 244.042457 
L 195.448159 239.046196 
L 196.206976 232.507737 
L 197.345201 220.040251 
L 198.483427 204.781821 
L 200.00106 181.041934 
L 202.656919 134.470676 
L 204.93337 95.24057 
L 206.451004 72.367015 
L 207.589229 57.983359 
L 208.727454 46.549706 
L 209.486271 40.770943 
L 210.245088 36.576901 
L 211.003905 34.033724 
L 211.383313 33.39478 
L 211.762722 33.181518 
L 212.14213 33.39478 
L 212.521539 34.033724 
L 212.900947 35.095828 
L 213.659764 38.471098 
L 214.418581 43.467359 
L 215.177398 50.005818 
L 216.315623 62.473304 
L 217.453848 77.731734 
L 218.971482 101.471621 
L 221.627341 148.042879 
L 223.903792 187.272985 
L 225.421425 210.146541 
L 226.559651 224.530196 
L 227.697876 235.963849 
L 228.456693 241.742613 
L 229.21551 245.936654 
L 229.974326 248.479831 
L 230.353735 249.118775 
L 230.733143 249.332037 
L 231.112552 249.118775 
L 231.49196 248.479831 
L 231.871369 247.417727 
L 232.630185 244.042457 
L 233.389002 239.046196 
L 234.147819 232.507737 
L 235.286044 220.040251 
L 236.42427 204.781821 
L 237.941903 181.041934 
L 240.597762 134.470676 
L 242.874213 95.24057 
L 244.391847 72.367015 
L 245.530072 57.983359 
L 246.668297 46.549706 
L 247.427114 40.770943 
L 248.185931 36.576901 
L 248.944748 34.033724 
L 249.324156 33.39478 
L 249.703565 33.181518 
L 250.082973 33.39478 
L 250.462382 34.033724 
L 250.84179 35.095828 
L 251.600607 38.471098 
L 252.359424 43.467359 
L 253.118241 50.005818 
L 254.256466 62.473304 
L 255.394691 77.731734 
L 256.912325 101.471621 
L 259.568184 148.042879 
L 261.844635 187.272985 
L 263.362268 210.146541 
L 264.500494 224.530196 
L 265.638719 235.963849 
L 266.397536 241.742613 
L 267.156353 245.936654 
L 267.915169 248.479831 
L 268.294578 249.118775 
L 268.673986 249.332037 
L 269.053395 249.118775 
L 269.432803 248.479831 
L 269.812212 247.417727 
L 270.571028 244.042457 
L 271.329845 239.046196 
L 272.088662 232.507737 
L 273.226887 220.040251 
L 274.365113 204.781821 
L 275.882746 181.041934 
L 278.538605 134.470676 
L 280.815056 95.24057 
L 282.33269 72.367015 
L 283.470915 57.983359 
L 284.60914 46.549706 
L 285.367957 40.770943 
L 286.126774 36.576901 
L 286.885591 34.033724 
L 287.264999 33.39478 
L 287.644408 33.181518 
L 288.023816 33.39478 
L 288.403225 34.033724 
L 288.782633 35.095828 
L 289.54145 38.471098 
L 290.300267 43.467359 
L 291.059084 50.005818 
L 292.197309 62.473304 
L 293.335534 77.731734 
L 294.853168 101.471621 
L 297.509027 148.042879 
L 299.785478 187.272985 
L 301.303111 210.146541 
L 302.441337 224.530196 
L 303.579562 235.963849 
L 304.338379 241.742613 
L 305.097196 245.936654 
L 305.856012 248.479831 
L 306.235421 249.118775 
L 306.614829 249.332037 
L 306.994238 249.118775 
L 307.373646 248.479831 
L 307.753055 247.417727 
L 308.511871 244.042457 
L 309.270688 239.046196 
L 310.029505 232.507737 
L 311.16773 220.040251 
L 312.305956 204.781821 
L 313.823589 181.041934 
L 316.479448 134.470676 
L 318.755899 95.24057 
L 320.273533 72.367015 
L 321.411758 57.983359 
L 322.549983 46.549706 
L 323.3088 40.770943 
L 324.067617 36.576901 
L 324.826434 34.033724 
L 325.205842 33.39478 
L 325.585251 33.181518 
L 325.964659 33.39478 
L 326.344068 34.033724 
L 326.723476 35.095828 
L 327.482293 38.471098 
L 328.24111 43.467359 
L 328.999927 50.005818 
L 330.138152 62.473304 
L 331.276377 77.731734 
L 332.794011 101.471621 
L 335.44987 148.042879 
L 337.726321 187.272985 
L 339.243954 210.146541 
L 340.38218 224.530196 
L 341.520405 235.963849 
L 342.279222 241.742613 
L 343.038039 245.936654 
L 343.796855 248.479831 
L 344.176264 249.118775 
L 344.555672 249.332037 
L 344.935081 249.118775 
L 345.314489 248.479831 
L 345.693898 247.417727 
L 346.452714 244.042457 
L 347.211531 239.046196 
L 347.970348 232.507737 
L 349.108573 220.040251 
L 350.246799 204.781821 
L 351.764432 181.041934 
L 354.420291 134.470676 
L 356.696742 95.24057 
L 358.214376 72.367015 
L 359.352601 57.983359 
L 360.490826 46.549706 
L 361.249643 40.770943 
L 362.00846 36.576901 
L 362.767277 34.033724 
L 363.146685 33.39478 
L 363.526094 33.181518 
L 363.905502 33.39478 
L 364.284911 34.033724 
L 364.664319 35.095828 
L 365.423136 38.471098 
L 366.181953 43.467359 
L 366.94077 50.005818 
L 368.078995 62.473304 
L 369.21722 77.731734 
L 370.734854 101.471621 
L 373.390713 148.042879 
L 375.667164 187.272985 
L 377.184797 210.146541 
L 378.323023 224.530196 
L 379.461248 235.963849 
L 380.220065 241.742613 
L 380.978882 245.936654 
L 381.737698 248.479831 
L 382.117107 249.118775 
L 382.496515 249.332037 
L 382.875924 249.118775 
L 383.255332 248.479831 
L 383.634741 247.417727 
L 384.393557 244.042457 
L 385.152374 239.046196 
L 385.911191 232.507737 
L 387.049416 220.040251 
L 388.187642 204.781821 
L 389.705275 181.041934 
L 392.361134 134.470676 
L 394.637585 95.24057 
L 396.155219 72.367015 
L 397.293444 57.983359 
L 398.431669 46.549706 
L 399.190486 40.770943 
L 399.949303 36.576901 
L 400.70812 34.033724 
L 401.087528 33.39478 
L 401.466937 33.181518 
L 401.846345 33.39478 
L 402.225754 34.033724 
L 402.605162 35.095828 
L 403.363979 38.471098 
L 404.122796 43.467359 
L 404.881613 50.005818 
L 406.019838 62.473304 
L 407.158063 77.731734 
L 408.675697 101.471621 
L 411.331556 148.042879 
L 413.608007 187.272985 
L 415.12564 210.146541 
L 416.263866 224.530196 
L 417.402091 235.963849 
L 418.160908 241.742613 
L 418.919725 245.936654 
L 419.678541 248.479831 
L 420.05795 249.118775 
L 420.437358 249.332037 
L 420.816767 249.118775 
L 421.196175 248.479831 
L 421.575584 247.417727 
L 422.3344 244.042457 
L 423.093217 239.046196 
L 423.852034 232.507737 
L 424.990259 220.040251 
L 426.128485 204.781821 
L 427.646118 181.041934 
L 430.301977 134.470676 
L 432.578428 95.24057 
L 434.096062 72.367015 
L 435.234287 57.983359 
L 436.372512 46.549706 
L 437.131329 40.770943 
L 437.890146 36.576901 
L 438.648963 34.033724 
L 439.028371 33.39478 
L 439.40778 33.181518 
L 439.787188 33.39478 
L 440.166597 34.033724 
L 440.546005 35.095828 
L 441.304822 38.471098 
L 442.063639 43.467359 
L 442.822456 50.005818 
L 443.960681 62.473304 
L 445.098906 77.731734 
L 446.61654 101.471621 
L 449.272399 148.042879 
L 451.54885 187.272985 
L 453.066483 210.146541 
L 454.204709 224.530196 
L 455.342934 235.963849 
L 456.101751 241.742613 
L 456.860568 245.936654 
L 457.619384 248.479831 
L 457.998793 249.118775 
L 458.378201 249.332037 
L 458.75761 249.118775 
L 459.137018 248.479831 
L 459.516427 247.417727 
L 460.275243 244.042457 
L 461.03406 239.046196 
L 461.792877 232.507737 
L 462.931102 220.040251 
L 464.069328 204.781821 
L 465.586961 181.041934 
L 468.24282 134.470676 
L 470.519271 95.24057 
L 472.036905 72.367015 
L 473.17513 57.983359 
L 474.313355 46.549706 
L 475.072172 40.770943 
L 475.830989 36.576901 
L 476.589806 34.033724 
L 476.969214 33.39478 
L 477.348623 33.181518 
L 477.728031 33.39478 
L 478.10744 34.033724 
L 478.486848 35.095828 
L 479.245665 38.471098 
L 480.004482 43.467359 
L 480.763299 50.005818 
L 481.901524 62.473304 
L 483.039749 77.731734 
L 484.557383 101.471621 
L 487.213242 148.042879 
L 489.489693 187.272985 
L 491.007326 210.146541 
L 492.145552 224.530196 
L 493.283777 235.963849 
L 494.042594 241.742613 
L 494.801411 245.936654 
L 495.560227 248.479831 
L 495.939636 249.118775 
L 496.319044 249.332037 
L 496.698453 249.118775 
L 497.077861 248.479831 
L 497.45727 247.417727 
L 498.216086 244.042457 
L 498.974903 239.046196 
L 499.73372 232.507737 
L 500.871945 220.040251 
L 502.010171 204.781821 
L 503.527804 181.041934 
L 506.183663 134.470676 
L 508.460114 95.24057 
L 509.977748 72.367015 
L 511.115973 57.983359 
L 512.254198 46.549706 
L 513.013015 40.770943 
L 513.771832 36.576901 
L 514.530649 34.033724 
L 514.910057 33.39478 
L 515.289466 33.181518 
L 515.668874 33.39478 
L 516.048283 34.033724 
L 516.427691 35.095828 
L 517.186508 38.471098 
L 517.945325 43.467359 
L 518.704142 50.005818 
L 519.842367 62.473304 
L 520.980592 77.731734 
L 522.498226 101.471621 
L 525.154085 148.042879 
L 527.430536 187.272985 
L 528.948169 210.146541 
L 530.086395 224.530196 
L 531.22462 235.963849 
L 531.983437 241.742613 
L 532.742254 245.936654 
L 533.50107 248.479831 
L 533.880479 249.118775 
L 534.259887 249.332037 
L 534.639296 249.118775 
L 535.018704 248.479831 
L 535.398113 247.417727 
L 536.156929 244.042457 
L 536.915746 239.046196 
L 537.674563 232.507737 
L 538.812788 220.040251 
L 539.951014 204.781821 
L 541.468647 181.041934 
L 544.124506 134.470676 
L 546.400957 95.24057 
L 547.918591 72.367015 
L 549.056816 57.983359 
L 550.195041 46.549706 
L 550.953858 40.770943 
L 551.712675 36.576901 
L 552.471492 34.033724 
L 552.8509 33.39478 
L 553.230309 33.181518 
L 553.609717 33.39478 
L 553.989126 34.033724 
L 554.368534 35.095828 
L 555.127351 38.471098 
L 555.886168 43.467359 
L 556.644985 50.005818 
L 557.78321 62.473304 
L 558.921435 77.731734 
L 560.439069 101.471621 
L 563.094928 148.042879 
L 565.371379 187.272985 
L 566.889012 210.146541 
L 568.027238 224.530196 
L 569.165463 235.963849 
L 569.92428 241.742613 
L 570.683097 245.936654 
L 571.441913 248.479831 
L 571.821322 249.118775 
L 572.20073 249.332037 
L 572.580139 249.118775 
L 572.959547 248.479831 
L 573.338956 247.417727 
L 574.097772 244.042457 
L 574.856589 239.046196 
L 575.615406 232.507737 
L 576.753631 220.040251 
L 577.891857 204.781821 
L 579.40949 181.041934 
L 582.065349 134.470676 
L 584.3418 95.24057 
L 585.859434 72.367015 
L 586.997659 57.983359 
L 588.135884 46.549706 
L 588.894701 40.770943 
L 589.653518 36.576901 
L 590.412335 34.033724 
L 590.791743 33.39478 
L 591.171152 33.181518 
L 591.55056 33.39478 
L 591.929969 34.033724 
L 592.309377 35.095828 
L 593.068194 38.471098 
L 593.827011 43.467359 
L 594.585828 50.005818 
L 595.724053 62.473304 
L 596.862278 77.731734 
L 598.379912 101.471621 
L 601.035771 148.042879 
L 603.312222 187.272985 
L 604.829855 210.146541 
L 605.968081 224.530196 
L 607.106306 235.963849 
L 607.865123 241.742613 
L 608.62394 245.936654 
L 609.382756 248.479831 
L 609.762165 249.118775 
L 610.141573 249.332037 
L 610.520982 249.118775 
L 610.90039 248.479831 
L 611.279799 247.417727 
L 612.038615 244.042457 
L 612.797432 239.046196 
L 613.556249 232.507737 
L 614.694474 220.040251 
L 615.8327 204.781821 
L 617.350333 181.041934 
L 620.006192 134.470676 
L 622.282643 95.24057 
L 623.800277 72.367015 
L 624.938502 57.983359 
L 626.076727 46.549706 
L 626.835544 40.770943 
L 627.594361 36.576901 
L 628.353178 34.033724 
L 628.732586 33.39478 
L 629.111995 33.181518 
L 629.491403 33.39478 
L 629.870812 34.033724 
L 630.25022 35.095828 
L 631.009037 38.471098 
L 631.767854 43.467359 
L 632.526671 50.005818 
L 633.664896 62.473304 
L 634.803121 77.731734 
L 636.320755 101.471621 
L 638.976614 148.042879 
L 641.253065 187.272985 
L 642.770698 210.146541 
L 643.908924 224.530196 
L 645.047149 235.963849 
L 645.805966 241.742613 
L 646.564783 245.936654 
L 647.323599 248.479831 
L 647.703008 249.118775 
L 648.082416 249.332037 
L 648.461825 249.118775 
L 648.841233 248.479831 
L 649.220642 247.417727 
L 649.979458 244.042457 
L 650.738275 239.046196 
L 651.497092 232.507737 
L 652.635317 220.040251 
L 653.773543 204.781821 
L 655.291176 181.041934 
L 657.947035 134.470676 
L 660.223486 95.24057 
L 661.74112 72.367015 
L 662.879345 57.983359 
L 664.01757 46.549706 
L 664.776387 40.770943 
L 665.535204 36.576901 
L 666.294021 34.033724 
L 666.673429 33.39478 
L 667.052838 33.181518 
L 667.432246 33.39478 
L 667.811655 34.033724 
L 668.191063 35.095828 
L 668.94988 38.471098 
L 669.708697 43.467359 
L 670.467514 50.005818 
L 671.605739 62.473304 
L 672.743964 77.731734 
L 674.261598 101.471621 
L 675.399823 121.005494 
L 675.399823 121.005494 
" clip-path="url(#p721147e5b4)" style="fill: none; stroke: #000000; stroke-width: 2.25; stroke-linecap: round"/>
   </g>
   <g id="line2d_17">
    <path d="M 108.943037 172.146074 
L 115.772389 229.314621 
L 122.601741 192.410698 
L 129.431093 89.589682 
L 136.260444 38.479436 
L 143.089796 90.361698 
L 149.919148 208.260778 
L 156.748499 250.164066 
L 163.577851 158.873944 
L 170.407203 56.918484 
L 177.236555 46.981701 
L 184.065906 146.09153 
L 190.895258 259.125837 
L 197.72461 214.144553 
L 204.553962 114.504469 
L 211.383313 35.435549 
L 218.212665 88.390487 
L 225.042017 221.484366 
L 231.871369 253.354729 
L 238.70072 172.747899 
L 245.530072 62.471073 
L 252.359424 41.745449 
L 259.188776 147.772611 
L 266.018127 240.307681 
L 272.847479 219.349803 
L 279.676831 111.559131 
L 286.506183 34.435834 
L 293.335534 74.379701 
L 300.164886 193.546895 
L 306.994238 243.452905 
L 313.823589 184.506629 
L 320.652941 67.978814 
L 327.482293 39.658013 
L 334.311645 117.874222 
L 341.140996 221.48321 
L 347.970348 235.171436 
L 354.7997 124.239377 
L 361.629052 37.575941 
L 368.458403 61.293695 
L 375.287755 178.322585 
L 382.117107 242.494823 
L 388.946459 182.68327 
L 395.77581 82.178295 
L 402.605162 40.346419 
L 409.434514 116.739671 
L 416.263866 217.487696 
L 423.093217 231.299211 
L 429.922569 154.566961 
L 436.751921 61.153578 
" clip-path="url(#p721147e5b4)" style="fill: none; stroke: #4c72b0; stroke-width: 2.25; stroke-linecap: round"/>
    <defs>
     <path id="m755eaabd68" d="M 0 4.5 
C 1.193414 4.5 2.338109 4.025852 3.181981 3.181981 
C 4.025852 2.338109 4.5 1.193414 4.5 0 
C 4.5 -1.193414 4.025852 -2.338109 3.181981 -3.181981 
C 2.338109 -4.025852 1.193414 -4.5 0 -4.5 
C -1.193414 -4.5 -2.338109 -4.025852 -3.181981 -3.181981 
C -4.025852 -2.338109 -4.5 -1.193414 -4.5 0 
C -4.5 1.193414 -4.025852 2.338109 -3.181981 3.181981 
C -2.338109 4.025852 -1.193414 4.5 0 4.5 
z
" style="stroke: #ffffff; stroke-width: 0.75"/>
    </defs>
    <g clip-path="url(#p721147e5b4)">
     <use xlink:href="#m755eaabd68" x="108.943037" y="172.146074" style="fill: #4c72b0; stroke: #ffffff; stroke-width: 0.75"/>
     <use xlink:href="#m755eaabd68" x="115.772389" y="229.314621" style="fill: #4c72b0; stroke: #ffffff; stroke-width: 0.75"/>
     <use xlink:href="#m755eaabd68" x="122.601741" y="192.410698" style="fill: #4c72b0; stroke: #ffffff; stroke-width: 0.75"/>
     <use xlink:href="#m755eaabd68" x="129.431093" y="89.589682" style="fill: #4c72b0; stroke: #ffffff; stroke-width: 0.75"/>
     <use xlink:href="#m755eaabd68" x="136.260444" y="38.479436" style="fill: #4c72b0; stroke: #ffffff; stroke-width: 0.75"/>
     <use xlink:href="#m755eaabd68" x="143.089796" y="90.361698" style="fill: #4c72b0; stroke: #ffffff; stroke-width: 0.75"/>
     <use xlink:href="#m755eaabd68" x="149.919148" y="208.260778" style="fill: #4c72b0; stroke: #ffffff; stroke-width: 0.75"/>
     <use xlink:href="#m755eaabd68" x="156.748499" y="250.164066" style="fill: #4c72b0; stroke: #ffffff; stroke-width: 0.75"/>
     <use xlink:href="#m755eaabd68" x="163.577851" y="158.873944" style="fill: #4c72b0; stroke: #ffffff; stroke-width: 0.75"/>
     <use xlink:href="#m755eaabd68" x="170.407203" y="56.918484" style="fill: #4c72b0; stroke: #ffffff; stroke-width: 0.75"/>
     <use xlink:href="#m755eaabd68" x="177.236555" y="46.981701" style="fill: #4c72b0; stroke: #ffffff; stroke-width: 0.75"/>
     <use xlink:href="#m755eaabd68" x="184.065906" y="146.09153" style="fill: #4c72b0; stroke: #ffffff; stroke-width: 0.75"/>
     <use xlink:href="#m755eaabd68" x="190.895258" y="259.125837" style="fill: #4c72b0; stroke: #ffffff; stroke-width: 0.75"/>
     <use xlink:href="#m755eaabd68" x="197.72461" y="214.144553" style="fill: #4c72b0; stroke: #ffffff; stroke-width: 0.75"/>
     <use xlink:href="#m755eaabd68" x="204.553962" y="114.504469" style="fill: #4c72b0; stroke: #ffffff; stroke-width: 0.75"/>
     <use xlink:href="#m755eaabd68" x="211.383313" y="35.435549" style="fill: #4c72b0; stroke: #ffffff; stroke-width: 0.75"/>
     <use xlink:href="#m755eaabd68" x="218.212665" y="88.390487" style="fill: #4c72b0; stroke: #ffffff; stroke-width: 0.75"/>
     <use xlink:href="#m755eaabd68" x="225.042017" y="221.484366" style="fill: #4c72b0; stroke: #ffffff; stroke-width: 0.75"/>
     <use xlink:href="#m755eaabd68" x="231.871369" y="253.354729" style="fill: #4c72b0; stroke: #ffffff; stroke-width: 0.75"/>
     <use xlink:href="#m755eaabd68" x="238.70072" y="172.747899" style="fill: #4c72b0; stroke: #ffffff; stroke-width: 0.75"/>
     <use xlink:href="#m755eaabd68" x="245.530072" y="62.471073" style="fill: #4c72b0; stroke: #ffffff; stroke-width: 0.75"/>
     <use xlink:href="#m755eaabd68" x="252.359424" y="41.745449" style="fill: #4c72b0; stroke: #ffffff; stroke-width: 0.75"/>
     <use xlink:href="#m755eaabd68" x="259.188776" y="147.772611" style="fill: #4c72b0; stroke: #ffffff; stroke-width: 0.75"/>
     <use xlink:href="#m755eaabd68" x="266.018127" y="240.307681" style="fill: #4c72b0; stroke: #ffffff; stroke-width: 0.75"/>
     <use xlink:href="#m755eaabd68" x="272.847479" y="219.349803" style="fill: #4c72b0; stroke: #ffffff; stroke-width: 0.75"/>
     <use xlink:href="#m755eaabd68" x="279.676831" y="111.559131" style="fill: #4c72b0; stroke: #ffffff; stroke-width: 0.75"/>
     <use xlink:href="#m755eaabd68" x="286.506183" y="34.435834" style="fill: #4c72b0; stroke: #ffffff; stroke-width: 0.75"/>
     <use xlink:href="#m755eaabd68" x="293.335534" y="74.379701" style="fill: #4c72b0; stroke: #ffffff; stroke-width: 0.75"/>
     <use xlink:href="#m755eaabd68" x="300.164886" y="193.546895" style="fill: #4c72b0; stroke: #ffffff; stroke-width: 0.75"/>
     <use xlink:href="#m755eaabd68" x="306.994238" y="243.452905" style="fill: #4c72b0; stroke: #ffffff; stroke-width: 0.75"/>
     <use xlink:href="#m755eaabd68" x="313.823589" y="184.506629" style="fill: #4c72b0; stroke: #ffffff; stroke-width: 0.75"/>
     <use xlink:href="#m755eaabd68" x="320.652941" y="67.978814" style="fill: #4c72b0; stroke: #ffffff; stroke-width: 0.75"/>
     <use xlink:href="#m755eaabd68" x="327.482293" y="39.658013" style="fill: #4c72b0; stroke: #ffffff; stroke-width: 0.75"/>
     <use xlink:href="#m755eaabd68" x="334.311645" y="117.874222" style="fill: #4c72b0; stroke: #ffffff; stroke-width: 0.75"/>
     <use xlink:href="#m755eaabd68" x="341.140996" y="221.48321" style="fill: #4c72b0; stroke: #ffffff; stroke-width: 0.75"/>
     <use xlink:href="#m755eaabd68" x="347.970348" y="235.171436" style="fill: #4c72b0; stroke: #ffffff; stroke-width: 0.75"/>
     <use xlink:href="#m755eaabd68" x="354.7997" y="124.239377" style="fill: #4c72b0; stroke: #ffffff; stroke-width: 0.75"/>
     <use xlink:href="#m755eaabd68" x="361.629052" y="37.575941" style="fill: #4c72b0; stroke: #ffffff; stroke-width: 0.75"/>
     <use xlink:href="#m755eaabd68" x="368.458403" y="61.293695" style="fill: #4c72b0; stroke: #ffffff; stroke-width: 0.75"/>
     <use xlink:href="#m755eaabd68" x="375.287755" y="178.322585" style="fill: #4c72b0; stroke: #ffffff; stroke-width: 0.75"/>
     <use xlink:href="#m755eaabd68" x="382.117107" y="242.494823" style="fill: #4c72b0; stroke: #ffffff; stroke-width: 0.75"/>
     <use xlink:href="#m755eaabd68" x="388.946459" y="182.68327" style="fill: #4c72b0; stroke: #ffffff; stroke-width: 0.75"/>
     <use xlink:href="#m755eaabd68" x="395.77581" y="82.178295" style="fill: #4c72b0; stroke: #ffffff; stroke-width: 0.75"/>
     <use xlink:href="#m755eaabd68" x="402.605162" y="40.346419" style="fill: #4c72b0; stroke: #ffffff; stroke-width: 0.75"/>
     <use xlink:href="#m755eaabd68" x="409.434514" y="116.739671" style="fill: #4c72b0; stroke: #ffffff; stroke-width: 0.75"/>
     <use xlink:href="#m755eaabd68" x="416.263866" y="217.487696" style="fill: #4c72b0; stroke: #ffffff; stroke-width: 0.75"/>
     <use xlink:href="#m755eaabd68" x="423.093217" y="231.299211" style="fill: #4c72b0; stroke: #ffffff; stroke-width: 0.75"/>
     <use xlink:href="#m755eaabd68" x="429.922569" y="154.566961" style="fill: #4c72b0; stroke: #ffffff; stroke-width: 0.75"/>
     <use xlink:href="#m755eaabd68" x="436.751921" y="61.153578" style="fill: #4c72b0; stroke: #ffffff; stroke-width: 0.75"/>
    </g>
   </g>
   <g id="line2d_18">
    <path d="M 443.581273 36.513253 
L 450.410624 152.538231 
L 457.239976 242.282133 
L 464.069328 194.403191 
L 470.89868 100.204434 
L 477.728031 64.55916 
L 484.557383 124.365278 
L 491.386735 206.021315 
L 498.216086 250.926012 
L 505.045438 169.960496 
L 511.87479 90.391288 
L 518.704142 65.693853 
L 525.533493 175.539611 
L 532.362845 248.96209 
L 539.192197 201.443214 
L 546.021549 91.976954 
L 552.8509 60.043407 
" clip-path="url(#p721147e5b4)" style="fill: none; stroke: #dd8452; stroke-width: 2.25; stroke-linecap: round"/>
    <defs>
     <path id="mf7bc290d6a" d="M -2.25 4.5 
L 0 2.25 
L 2.25 4.5 
L 4.5 2.25 
L 2.25 0 
L 4.5 -2.25 
L 2.25 -4.5 
L 0 -2.25 
L -2.25 -4.5 
L -4.5 -2.25 
L -2.25 0 
L -4.5 2.25 
z
" style="stroke: #ffffff; stroke-width: 0.75; stroke-linejoin: miter"/>
    </defs>
    <g clip-path="url(#p721147e5b4)">
     <use xlink:href="#mf7bc290d6a" x="443.581273" y="36.513253" style="fill: #dd8452; stroke: #ffffff; stroke-width: 0.75; stroke-linejoin: miter"/>
     <use xlink:href="#mf7bc290d6a" x="450.410624" y="152.538231" style="fill: #dd8452; stroke: #ffffff; stroke-width: 0.75; stroke-linejoin: miter"/>
     <use xlink:href="#mf7bc290d6a" x="457.239976" y="242.282133" style="fill: #dd8452; stroke: #ffffff; stroke-width: 0.75; stroke-linejoin: miter"/>
     <use xlink:href="#mf7bc290d6a" x="464.069328" y="194.403191" style="fill: #dd8452; stroke: #ffffff; stroke-width: 0.75; stroke-linejoin: miter"/>
     <use xlink:href="#mf7bc290d6a" x="470.89868" y="100.204434" style="fill: #dd8452; stroke: #ffffff; stroke-width: 0.75; stroke-linejoin: miter"/>
     <use xlink:href="#mf7bc290d6a" x="477.728031" y="64.55916" style="fill: #dd8452; stroke: #ffffff; stroke-width: 0.75; stroke-linejoin: miter"/>
     <use xlink:href="#mf7bc290d6a" x="484.557383" y="124.365278" style="fill: #dd8452; stroke: #ffffff; stroke-width: 0.75; stroke-linejoin: miter"/>
     <use xlink:href="#mf7bc290d6a" x="491.386735" y="206.021315" style="fill: #dd8452; stroke: #ffffff; stroke-width: 0.75; stroke-linejoin: miter"/>
     <use xlink:href="#mf7bc290d6a" x="498.216086" y="250.926012" style="fill: #dd8452; stroke: #ffffff; stroke-width: 0.75; stroke-linejoin: miter"/>
     <use xlink:href="#mf7bc290d6a" x="505.045438" y="169.960496" style="fill: #dd8452; stroke: #ffffff; stroke-width: 0.75; stroke-linejoin: miter"/>
     <use xlink:href="#mf7bc290d6a" x="511.87479" y="90.391288" style="fill: #dd8452; stroke: #ffffff; stroke-width: 0.75; stroke-linejoin: miter"/>
     <use xlink:href="#mf7bc290d6a" x="518.704142" y="65.693853" style="fill: #dd8452; stroke: #ffffff; stroke-width: 0.75; stroke-linejoin: miter"/>
     <use xlink:href="#mf7bc290d6a" x="525.533493" y="175.539611" style="fill: #dd8452; stroke: #ffffff; stroke-width: 0.75; stroke-linejoin: miter"/>
     <use xlink:href="#mf7bc290d6a" x="532.362845" y="248.96209" style="fill: #dd8452; stroke: #ffffff; stroke-width: 0.75; stroke-linejoin: miter"/>
     <use xlink:href="#mf7bc290d6a" x="539.192197" y="201.443214" style="fill: #dd8452; stroke: #ffffff; stroke-width: 0.75; stroke-linejoin: miter"/>
     <use xlink:href="#mf7bc290d6a" x="546.021549" y="91.976954" style="fill: #dd8452; stroke: #ffffff; stroke-width: 0.75; stroke-linejoin: miter"/>
     <use xlink:href="#mf7bc290d6a" x="552.8509" y="60.043407" style="fill: #dd8452; stroke: #ffffff; stroke-width: 0.75; stroke-linejoin: miter"/>
    </g>
   </g>
   <g id="line2d_19">
    <path d="M 559.680252 125.991521 
L 566.509604 202.93612 
L 573.338956 223.539077 
L 580.168307 162.288762 
L 586.997659 118.460903 
L 593.827011 78.903586 
L 600.656363 156.803243 
L 607.485714 249.284035 
L 614.315066 200.319137 
L 621.144418 145.826263 
L 627.97377 99.878642 
L 634.803121 98.895899 
L 641.632473 224.85799 
L 648.461825 213.490573 
L 655.291176 165.777387 
L 662.120528 106.535886 
L 668.94988 124.127756 
" clip-path="url(#p721147e5b4)" style="fill: none; stroke: #55a868; stroke-width: 2.25; stroke-linecap: round"/>
    <defs>
     <path id="maca1df0a47" d="M -3.181981 -3.181981 
L -3.181981 3.181981 
L 3.181981 3.181981 
L 3.181981 -3.181981 
z
" style="stroke: #ffffff; stroke-width: 0.75; stroke-linejoin: miter"/>
    </defs>
    <g clip-path="url(#p721147e5b4)">
     <use xlink:href="#maca1df0a47" x="559.680252" y="125.991521" style="fill: #55a868; stroke: #ffffff; stroke-width: 0.75; stroke-linejoin: miter"/>
     <use xlink:href="#maca1df0a47" x="566.509604" y="202.93612" style="fill: #55a868; stroke: #ffffff; stroke-width: 0.75; stroke-linejoin: miter"/>
     <use xlink:href="#maca1df0a47" x="573.338956" y="223.539077" style="fill: #55a868; stroke: #ffffff; stroke-width: 0.75; stroke-linejoin: miter"/>
     <use xlink:href="#maca1df0a47" x="580.168307" y="162.288762" style="fill: #55a868; stroke: #ffffff; stroke-width: 0.75; stroke-linejoin: miter"/>
     <use xlink:href="#maca1df0a47" x="586.997659" y="118.460903" style="fill: #55a868; stroke: #ffffff; stroke-width: 0.75; stroke-linejoin: miter"/>
     <use xlink:href="#maca1df0a47" x="593.827011" y="78.903586" style="fill: #55a868; stroke: #ffffff; stroke-width: 0.75; stroke-linejoin: miter"/>
     <use xlink:href="#maca1df0a47" x="600.656363" y="156.803243" style="fill: #55a868; stroke: #ffffff; stroke-width: 0.75; stroke-linejoin: miter"/>
     <use xlink:href="#maca1df0a47" x="607.485714" y="249.284035" style="fill: #55a868; stroke: #ffffff; stroke-width: 0.75; stroke-linejoin: miter"/>
     <use xlink:href="#maca1df0a47" x="614.315066" y="200.319137" style="fill: #55a868; stroke: #ffffff; stroke-width: 0.75; stroke-linejoin: miter"/>
     <use xlink:href="#maca1df0a47" x="621.144418" y="145.826263" style="fill: #55a868; stroke: #ffffff; stroke-width: 0.75; stroke-linejoin: miter"/>
     <use xlink:href="#maca1df0a47" x="627.97377" y="99.878642" style="fill: #55a868; stroke: #ffffff; stroke-width: 0.75; stroke-linejoin: miter"/>
     <use xlink:href="#maca1df0a47" x="634.803121" y="98.895899" style="fill: #55a868; stroke: #ffffff; stroke-width: 0.75; stroke-linejoin: miter"/>
     <use xlink:href="#maca1df0a47" x="641.632473" y="224.85799" style="fill: #55a868; stroke: #ffffff; stroke-width: 0.75; stroke-linejoin: miter"/>
     <use xlink:href="#maca1df0a47" x="648.461825" y="213.490573" style="fill: #55a868; stroke: #ffffff; stroke-width: 0.75; stroke-linejoin: miter"/>
     <use xlink:href="#maca1df0a47" x="655.291176" y="165.777387" style="fill: #55a868; stroke: #ffffff; stroke-width: 0.75; stroke-linejoin: miter"/>
     <use xlink:href="#maca1df0a47" x="662.120528" y="106.535886" style="fill: #55a868; stroke: #ffffff; stroke-width: 0.75; stroke-linejoin: miter"/>
     <use xlink:href="#maca1df0a47" x="668.94988" y="124.127756" style="fill: #55a868; stroke: #ffffff; stroke-width: 0.75; stroke-linejoin: miter"/>
    </g>
   </g>
   <g id="line2d_20"/>
   <g id="line2d_21"/>
   <g id="line2d_22"/>
   <g id="patch_3">
    <path d="M 59.10774 270.423053 
L 59.10774 21.884302 
" style="fill: none; stroke: #262626; stroke-width: 1.875; stroke-linejoin: miter; stroke-linecap: square"/>
   </g>
   <g id="patch_4">
    <path d="M 59.10774 270.423053 
L 704.747065 270.423053 
" style="fill: none; stroke: #262626; stroke-width: 1.875; stroke-linejoin: miter; stroke-linecap: square"/>
   </g>
   <g id="text_18">
    <!-- mins ahead = 13.5 -->
    <g style="fill: #262626" transform="translate(307.62959 15.884302) scale(0.18 -0.18)">
     <defs>
      <path id="ArialMT-73" d="M 197 991 
L 753 1078 
Q 800 744 1014 566 
Q 1228 388 1613 388 
Q 2000 388 2187 545 
Q 2375 703 2375 916 
Q 2375 1106 2209 1216 
Q 2094 1291 1634 1406 
Q 1016 1563 777 1677 
Q 538 1791 414 1992 
Q 291 2194 291 2438 
Q 291 2659 392 2848 
Q 494 3038 669 3163 
Q 800 3259 1026 3326 
Q 1253 3394 1513 3394 
Q 1903 3394 2198 3281 
Q 2494 3169 2634 2976 
Q 2775 2784 2828 2463 
L 2278 2388 
Q 2241 2644 2061 2787 
Q 1881 2931 1553 2931 
Q 1166 2931 1000 2803 
Q 834 2675 834 2503 
Q 834 2394 903 2306 
Q 972 2216 1119 2156 
Q 1203 2125 1616 2013 
Q 2213 1853 2448 1751 
Q 2684 1650 2818 1456 
Q 2953 1263 2953 975 
Q 2953 694 2789 445 
Q 2625 197 2315 61 
Q 2006 -75 1616 -75 
Q 969 -75 630 194 
Q 291 463 197 991 
z
" transform="scale(0.015625)"/>
      <path id="ArialMT-68" d="M 422 0 
L 422 4581 
L 984 4581 
L 984 2938 
Q 1378 3394 1978 3394 
Q 2347 3394 2619 3248 
Q 2891 3103 3008 2847 
Q 3125 2591 3125 2103 
L 3125 0 
L 2563 0 
L 2563 2103 
Q 2563 2525 2380 2717 
Q 2197 2909 1863 2909 
Q 1613 2909 1392 2779 
Q 1172 2650 1078 2428 
Q 984 2206 984 1816 
L 984 0 
L 422 0 
z
" transform="scale(0.015625)"/>
      <path id="ArialMT-64" d="M 2575 0 
L 2575 419 
Q 2259 -75 1647 -75 
Q 1250 -75 917 144 
Q 584 363 401 755 
Q 219 1147 219 1656 
Q 219 2153 384 2558 
Q 550 2963 881 3178 
Q 1213 3394 1622 3394 
Q 1922 3394 2156 3267 
Q 2391 3141 2538 2938 
L 2538 4581 
L 3097 4581 
L 3097 0 
L 2575 0 
z
M 797 1656 
Q 797 1019 1065 703 
Q 1334 388 1700 388 
Q 2069 388 2326 689 
Q 2584 991 2584 1609 
Q 2584 2291 2321 2609 
Q 2059 2928 1675 2928 
Q 1300 2928 1048 2622 
Q 797 2316 797 1656 
z
" transform="scale(0.015625)"/>
      <path id="ArialMT-3d" d="M 3381 2694 
L 356 2694 
L 356 3219 
L 3381 3219 
L 3381 2694 
z
M 3381 1303 
L 356 1303 
L 356 1828 
L 3381 1828 
L 3381 1303 
z
" transform="scale(0.015625)"/>
     </defs>
     <use xlink:href="#ArialMT-6d"/>
     <use xlink:href="#ArialMT-69" transform="translate(83.300781 0)"/>
     <use xlink:href="#ArialMT-6e" transform="translate(105.517578 0)"/>
     <use xlink:href="#ArialMT-73" transform="translate(161.132812 0)"/>
     <use xlink:href="#ArialMT-20" transform="translate(211.132812 0)"/>
     <use xlink:href="#ArialMT-61" transform="translate(238.916016 0)"/>
     <use xlink:href="#ArialMT-68" transform="translate(294.53125 0)"/>
     <use xlink:href="#ArialMT-65" transform="translate(350.146484 0)"/>
     <use xlink:href="#ArialMT-61" transform="translate(405.761719 0)"/>
     <use xlink:href="#ArialMT-64" transform="translate(461.376953 0)"/>
     <use xlink:href="#ArialMT-20" transform="translate(516.992188 0)"/>
     <use xlink:href="#ArialMT-3d" transform="translate(544.775391 0)"/>
     <use xlink:href="#ArialMT-20" transform="translate(603.173828 0)"/>
     <use xlink:href="#ArialMT-31" transform="translate(630.957031 0)"/>
     <use xlink:href="#ArialMT-33" transform="translate(686.572266 0)"/>
     <use xlink:href="#ArialMT-2e" transform="translate(742.1875 0)"/>
     <use xlink:href="#ArialMT-35" transform="translate(769.970703 0)"/>
    </g>
   </g>
   <g id="legend_1">
    <g id="patch_5">
     <path d="M 70.65774 195.994108 
L 193.167662 195.994108 
Q 196.467662 195.994108 196.467662 192.694108 
L 196.467662 99.613248 
Q 196.467662 96.313248 193.167662 96.313248 
L 70.65774 96.313248 
Q 67.35774 96.313248 67.35774 99.613248 
L 67.35774 192.694108 
Q 67.35774 195.994108 70.65774 195.994108 
z
" style="fill: #ffffff; opacity: 0.8; stroke: #cccccc; stroke-width: 1.5; stroke-linejoin: miter"/>
    </g>
    <g id="text_19">
     <!-- dataset -->
     <g style="fill: #262626" transform="translate(102.392701 115.797311) scale(0.18 -0.18)">
      <defs>
       <path id="ArialMT-74" d="M 1650 503 
L 1731 6 
Q 1494 -44 1306 -44 
Q 1000 -44 831 53 
Q 663 150 594 308 
Q 525 466 525 972 
L 525 2881 
L 113 2881 
L 113 3319 
L 525 3319 
L 525 4141 
L 1084 4478 
L 1084 3319 
L 1650 3319 
L 1650 2881 
L 1084 2881 
L 1084 941 
Q 1084 700 1114 631 
Q 1144 563 1211 522 
Q 1278 481 1403 481 
Q 1497 481 1650 503 
z
" transform="scale(0.015625)"/>
      </defs>
      <use xlink:href="#ArialMT-64"/>
      <use xlink:href="#ArialMT-61" transform="translate(55.615234 0)"/>
      <use xlink:href="#ArialMT-74" transform="translate(111.230469 0)"/>
      <use xlink:href="#ArialMT-61" transform="translate(139.013672 0)"/>
      <use xlink:href="#ArialMT-73" transform="translate(194.628906 0)"/>
      <use xlink:href="#ArialMT-65" transform="translate(244.628906 0)"/>
      <use xlink:href="#ArialMT-74" transform="translate(300.244141 0)"/>
     </g>
    </g>
    <g id="line2d_23">
     <path d="M 73.95774 133.660201 
L 90.45774 133.660201 
L 106.95774 133.660201 
" style="fill: none; stroke: #4c72b0; stroke-width: 2.25; stroke-linecap: round"/>
     <g>
      <use xlink:href="#m755eaabd68" x="90.45774" y="133.660201" style="fill: #4c72b0; stroke: #ffffff; stroke-width: 0.75"/>
     </g>
    </g>
    <g id="text_20">
     <!-- train -->
     <g style="fill: #262626" transform="translate(120.15774 139.435201) scale(0.165 -0.165)">
      <defs>
       <path id="ArialMT-72" d="M 416 0 
L 416 3319 
L 922 3319 
L 922 2816 
Q 1116 3169 1280 3281 
Q 1444 3394 1641 3394 
Q 1925 3394 2219 3213 
L 2025 2691 
Q 1819 2813 1613 2813 
Q 1428 2813 1281 2702 
Q 1134 2591 1072 2394 
Q 978 2094 978 1738 
L 978 0 
L 416 0 
z
" transform="scale(0.015625)"/>
      </defs>
      <use xlink:href="#ArialMT-74"/>
      <use xlink:href="#ArialMT-72" transform="translate(27.783203 0)"/>
      <use xlink:href="#ArialMT-61" transform="translate(61.083984 0)"/>
      <use xlink:href="#ArialMT-69" transform="translate(116.699219 0)"/>
      <use xlink:href="#ArialMT-6e" transform="translate(138.916016 0)"/>
     </g>
    </g>
    <g id="line2d_24">
     <path d="M 73.95774 156.999967 
L 90.45774 156.999967 
L 106.95774 156.999967 
" style="fill: none; stroke: #dd8452; stroke-width: 2.25; stroke-linecap: round"/>
     <g>
      <use xlink:href="#mf7bc290d6a" x="90.45774" y="156.999967" style="fill: #dd8452; stroke: #ffffff; stroke-width: 0.75; stroke-linejoin: miter"/>
     </g>
    </g>
    <g id="text_21">
     <!-- validation -->
     <g style="fill: #262626" transform="translate(120.15774 162.774967) scale(0.165 -0.165)">
      <defs>
       <path id="ArialMT-6f" d="M 213 1659 
Q 213 2581 725 3025 
Q 1153 3394 1769 3394 
Q 2453 3394 2887 2945 
Q 3322 2497 3322 1706 
Q 3322 1066 3130 698 
Q 2938 331 2570 128 
Q 2203 -75 1769 -75 
Q 1072 -75 642 372 
Q 213 819 213 1659 
z
M 791 1659 
Q 791 1022 1069 705 
Q 1347 388 1769 388 
Q 2188 388 2466 706 
Q 2744 1025 2744 1678 
Q 2744 2294 2464 2611 
Q 2184 2928 1769 2928 
Q 1347 2928 1069 2612 
Q 791 2297 791 1659 
z
" transform="scale(0.015625)"/>
      </defs>
      <use xlink:href="#ArialMT-76"/>
      <use xlink:href="#ArialMT-61" transform="translate(50 0)"/>
      <use xlink:href="#ArialMT-6c" transform="translate(105.615234 0)"/>
      <use xlink:href="#ArialMT-69" transform="translate(127.832031 0)"/>
      <use xlink:href="#ArialMT-64" transform="translate(150.048828 0)"/>
      <use xlink:href="#ArialMT-61" transform="translate(205.664062 0)"/>
      <use xlink:href="#ArialMT-74" transform="translate(261.279297 0)"/>
      <use xlink:href="#ArialMT-69" transform="translate(289.0625 0)"/>
      <use xlink:href="#ArialMT-6f" transform="translate(311.279297 0)"/>
      <use xlink:href="#ArialMT-6e" transform="translate(366.894531 0)"/>
     </g>
    </g>
    <g id="line2d_25">
     <path d="M 73.95774 180.339733 
L 90.45774 180.339733 
L 106.95774 180.339733 
" style="fill: none; stroke: #55a868; stroke-width: 2.25; stroke-linecap: round"/>
     <g>
      <use xlink:href="#maca1df0a47" x="90.45774" y="180.339733" style="fill: #55a868; stroke: #ffffff; stroke-width: 0.75; stroke-linejoin: miter"/>
     </g>
    </g>
    <g id="text_22">
     <!-- test -->
     <g style="fill: #262626" transform="translate(120.15774 186.114733) scale(0.165 -0.165)">
      <use xlink:href="#ArialMT-74"/>
      <use xlink:href="#ArialMT-65" transform="translate(27.783203 0)"/>
      <use xlink:href="#ArialMT-73" transform="translate(83.398438 0)"/>
      <use xlink:href="#ArialMT-74" transform="translate(133.398438 0)"/>
     </g>
    </g>
   </g>
  </g>
  <g id="axes_2">
   <g id="patch_6">
    <path d="M 59.10774 380.518119 
L 704.747065 380.518119 
L 704.747065 330.810369 
L 59.10774 330.810369 
z
" style="fill: #ffffff"/>
   </g>
   <g id="matplotlib.axis_3">
    <g id="xtick_10">
     <g id="line2d_26">
      <g>
       <use xlink:href="#md623976f73" x="66.98139" y="380.518119" style="fill: #262626; stroke: #262626; stroke-width: 1.875"/>
      </g>
     </g>
     <g id="text_23">
      <!-- 0 -->
      <g style="fill: #262626" transform="translate(62.393617 404.82851) scale(0.165 -0.165)">
       <use xlink:href="#ArialMT-30"/>
      </g>
     </g>
    </g>
    <g id="xtick_11">
     <g id="line2d_27">
      <g>
       <use xlink:href="#md623976f73" x="146.513212" y="380.518119" style="fill: #262626; stroke: #262626; stroke-width: 1.875"/>
      </g>
     </g>
     <g id="text_24">
      <!-- 50 -->
      <g style="fill: #262626" transform="translate(137.337665 404.82851) scale(0.165 -0.165)">
       <use xlink:href="#ArialMT-35"/>
       <use xlink:href="#ArialMT-30" transform="translate(55.615234 0)"/>
      </g>
     </g>
    </g>
    <g id="xtick_12">
     <g id="line2d_28">
      <g>
       <use xlink:href="#md623976f73" x="226.045033" y="380.518119" style="fill: #262626; stroke: #262626; stroke-width: 1.875"/>
      </g>
     </g>
     <g id="text_25">
      <!-- 100 -->
      <g style="fill: #262626" transform="translate(212.281713 404.82851) scale(0.165 -0.165)">
       <use xlink:href="#ArialMT-31"/>
       <use xlink:href="#ArialMT-30" transform="translate(55.615234 0)"/>
       <use xlink:href="#ArialMT-30" transform="translate(111.230469 0)"/>
      </g>
     </g>
    </g>
    <g id="xtick_13">
     <g id="line2d_29">
      <g>
       <use xlink:href="#md623976f73" x="305.576854" y="380.518119" style="fill: #262626; stroke: #262626; stroke-width: 1.875"/>
      </g>
     </g>
     <g id="text_26">
      <!-- 150 -->
      <g style="fill: #262626" transform="translate(291.813534 404.82851) scale(0.165 -0.165)">
       <use xlink:href="#ArialMT-31"/>
       <use xlink:href="#ArialMT-35" transform="translate(55.615234 0)"/>
       <use xlink:href="#ArialMT-30" transform="translate(111.230469 0)"/>
      </g>
     </g>
    </g>
    <g id="xtick_14">
     <g id="line2d_30">
      <g>
       <use xlink:href="#md623976f73" x="385.108676" y="380.518119" style="fill: #262626; stroke: #262626; stroke-width: 1.875"/>
      </g>
     </g>
     <g id="text_27">
      <!-- 200 -->
      <g style="fill: #262626" transform="translate(371.345355 404.82851) scale(0.165 -0.165)">
       <use xlink:href="#ArialMT-32"/>
       <use xlink:href="#ArialMT-30" transform="translate(55.615234 0)"/>
       <use xlink:href="#ArialMT-30" transform="translate(111.230469 0)"/>
      </g>
     </g>
    </g>
    <g id="xtick_15">
     <g id="line2d_31">
      <g>
       <use xlink:href="#md623976f73" x="464.640497" y="380.518119" style="fill: #262626; stroke: #262626; stroke-width: 1.875"/>
      </g>
     </g>
     <g id="text_28">
      <!-- 250 -->
      <g style="fill: #262626" transform="translate(450.877177 404.82851) scale(0.165 -0.165)">
       <use xlink:href="#ArialMT-32"/>
       <use xlink:href="#ArialMT-35" transform="translate(55.615234 0)"/>
       <use xlink:href="#ArialMT-30" transform="translate(111.230469 0)"/>
      </g>
     </g>
    </g>
    <g id="xtick_16">
     <g id="line2d_32">
      <g>
       <use xlink:href="#md623976f73" x="544.172318" y="380.518119" style="fill: #262626; stroke: #262626; stroke-width: 1.875"/>
      </g>
     </g>
     <g id="text_29">
      <!-- 300 -->
      <g style="fill: #262626" transform="translate(530.408998 404.82851) scale(0.165 -0.165)">
       <use xlink:href="#ArialMT-33"/>
       <use xlink:href="#ArialMT-30" transform="translate(55.615234 0)"/>
       <use xlink:href="#ArialMT-30" transform="translate(111.230469 0)"/>
      </g>
     </g>
    </g>
    <g id="xtick_17">
     <g id="line2d_33">
      <g>
       <use xlink:href="#md623976f73" x="623.704139" y="380.518119" style="fill: #262626; stroke: #262626; stroke-width: 1.875"/>
      </g>
     </g>
     <g id="text_30">
      <!-- 350 -->
      <g style="fill: #262626" transform="translate(609.940819 404.82851) scale(0.165 -0.165)">
       <use xlink:href="#ArialMT-33"/>
       <use xlink:href="#ArialMT-35" transform="translate(55.615234 0)"/>
       <use xlink:href="#ArialMT-30" transform="translate(111.230469 0)"/>
      </g>
     </g>
    </g>
    <g id="xtick_18">
     <g id="line2d_34">
      <g>
       <use xlink:href="#md623976f73" x="703.235961" y="380.518119" style="fill: #262626; stroke: #262626; stroke-width: 1.875"/>
      </g>
     </g>
     <g id="text_31">
      <!-- 400 -->
      <g style="fill: #262626" transform="translate(689.47264 404.82851) scale(0.165 -0.165)">
       <use xlink:href="#ArialMT-34"/>
       <use xlink:href="#ArialMT-30" transform="translate(55.615234 0)"/>
       <use xlink:href="#ArialMT-30" transform="translate(111.230469 0)"/>
      </g>
     </g>
    </g>
    <g id="text_32">
     <!-- predict time (min) -->
     <g style="fill: #262626" transform="translate(312.419278 425.211322) scale(0.18 -0.18)">
      <defs>
       <path id="ArialMT-70" d="M 422 -1272 
L 422 3319 
L 934 3319 
L 934 2888 
Q 1116 3141 1344 3267 
Q 1572 3394 1897 3394 
Q 2322 3394 2647 3175 
Q 2972 2956 3137 2557 
Q 3303 2159 3303 1684 
Q 3303 1175 3120 767 
Q 2938 359 2589 142 
Q 2241 -75 1856 -75 
Q 1575 -75 1351 44 
Q 1128 163 984 344 
L 984 -1272 
L 422 -1272 
z
M 931 1641 
Q 931 1000 1190 694 
Q 1450 388 1819 388 
Q 2194 388 2461 705 
Q 2728 1022 2728 1688 
Q 2728 2322 2467 2637 
Q 2206 2953 1844 2953 
Q 1484 2953 1207 2617 
Q 931 2281 931 1641 
z
" transform="scale(0.015625)"/>
       <path id="ArialMT-63" d="M 2588 1216 
L 3141 1144 
Q 3050 572 2676 248 
Q 2303 -75 1759 -75 
Q 1078 -75 664 370 
Q 250 816 250 1647 
Q 250 2184 428 2587 
Q 606 2991 970 3192 
Q 1334 3394 1763 3394 
Q 2303 3394 2647 3120 
Q 2991 2847 3088 2344 
L 2541 2259 
Q 2463 2594 2264 2762 
Q 2066 2931 1784 2931 
Q 1359 2931 1093 2626 
Q 828 2322 828 1663 
Q 828 994 1084 691 
Q 1341 388 1753 388 
Q 2084 388 2306 591 
Q 2528 794 2588 1216 
z
" transform="scale(0.015625)"/>
      </defs>
      <use xlink:href="#ArialMT-70"/>
      <use xlink:href="#ArialMT-72" transform="translate(55.615234 0)"/>
      <use xlink:href="#ArialMT-65" transform="translate(88.916016 0)"/>
      <use xlink:href="#ArialMT-64" transform="translate(144.53125 0)"/>
      <use xlink:href="#ArialMT-69" transform="translate(200.146484 0)"/>
      <use xlink:href="#ArialMT-63" transform="translate(222.363281 0)"/>
      <use xlink:href="#ArialMT-74" transform="translate(272.363281 0)"/>
      <use xlink:href="#ArialMT-20" transform="translate(300.146484 0)"/>
      <use xlink:href="#ArialMT-74" transform="translate(327.929688 0)"/>
      <use xlink:href="#ArialMT-69" transform="translate(355.712891 0)"/>
      <use xlink:href="#ArialMT-6d" transform="translate(377.929688 0)"/>
      <use xlink:href="#ArialMT-65" transform="translate(461.230469 0)"/>
      <use xlink:href="#ArialMT-20" transform="translate(516.845703 0)"/>
      <use xlink:href="#ArialMT-28" transform="translate(544.628906 0)"/>
      <use xlink:href="#ArialMT-6d" transform="translate(577.929688 0)"/>
      <use xlink:href="#ArialMT-69" transform="translate(661.230469 0)"/>
      <use xlink:href="#ArialMT-6e" transform="translate(683.447266 0)"/>
      <use xlink:href="#ArialMT-29" transform="translate(739.0625 0)"/>
     </g>
    </g>
   </g>
   <g id="matplotlib.axis_4">
    <g id="ytick_7">
     <g id="line2d_35">
      <g>
       <use xlink:href="#m2dc9f4b187" x="59.10774" y="380.518119" style="fill: #262626; stroke: #262626; stroke-width: 1.875"/>
      </g>
     </g>
     <g id="text_33">
      <!-- 0 -->
      <g style="fill: #262626" transform="translate(37.432193 386.423315) scale(0.165 -0.165)">
       <use xlink:href="#ArialMT-30"/>
      </g>
     </g>
    </g>
    <g id="ytick_8">
     <g id="line2d_36">
      <g>
       <use xlink:href="#m2dc9f4b187" x="59.10774" y="330.810369" style="fill: #262626; stroke: #262626; stroke-width: 1.875"/>
      </g>
     </g>
     <g id="text_34">
      <!-- 1 -->
      <g style="fill: #262626" transform="translate(37.432193 336.715565) scale(0.165 -0.165)">
       <use xlink:href="#ArialMT-31"/>
      </g>
     </g>
    </g>
    <g id="text_35">
     <!-- Error -->
     <g style="fill: #262626" transform="translate(29.854693 375.662526) rotate(-90) scale(0.18 -0.18)">
      <defs>
       <path id="ArialMT-45" d="M 506 0 
L 506 4581 
L 3819 4581 
L 3819 4041 
L 1113 4041 
L 1113 2638 
L 3647 2638 
L 3647 2100 
L 1113 2100 
L 1113 541 
L 3925 541 
L 3925 0 
L 506 0 
z
" transform="scale(0.015625)"/>
      </defs>
      <use xlink:href="#ArialMT-45"/>
      <use xlink:href="#ArialMT-72" transform="translate(66.699219 0)"/>
      <use xlink:href="#ArialMT-72" transform="translate(100 0)"/>
      <use xlink:href="#ArialMT-6f" transform="translate(133.300781 0)"/>
      <use xlink:href="#ArialMT-72" transform="translate(188.916016 0)"/>
     </g>
    </g>
   </g>
   <g id="FillBetweenPolyCollection_5"/>
   <g id="FillBetweenPolyCollection_6"/>
   <g id="FillBetweenPolyCollection_7"/>
   <g id="line2d_37">
    <path d="M 59.10774 355.664244 
L 704.747065 355.664244 
" clip-path="url(#p11bec46a55)" style="fill: none; stroke-dasharray: 3.7,1.6; stroke-dashoffset: 0; stroke: #808080"/>
   </g>
   <g id="line2d_38">
    <path d="M 88.454982 379.59547 
L 95.612846 376.35498 
L 102.77071 377.673154 
L 109.928574 380.426464 
L 117.086438 379.34881 
L 124.244302 377.96319 
L 131.402166 378.913262 
L 138.560029 379.110344 
L 145.717893 379.581748 
L 152.875757 378.928426 
L 160.033621 379.822669 
L 167.191485 378.514942 
L 174.349349 377.049421 
L 181.507213 380.266343 
L 188.665077 377.520978 
L 195.822941 380.048808 
L 202.980805 380.333998 
L 210.138669 376.677065 
L 217.296533 379.152798 
L 224.454396 379.45707 
L 231.61226 379.486088 
L 238.770124 380.122135 
L 245.927988 379.019685 
L 253.085852 380.228018 
L 260.243716 379.326794 
L 267.40158 379.869512 
L 274.559444 380.366342 
L 281.717308 379.747258 
L 288.875172 380.4665 
L 296.033036 379.215149 
L 303.1909 379.72135 
L 310.348763 380.356074 
L 317.506627 380.245167 
L 324.664491 378.255891 
L 331.822355 377.982828 
L 338.980219 379.905553 
L 346.138083 379.719674 
L 353.295947 380.312262 
L 360.453811 379.1428 
L 367.611675 379.892755 
L 374.769539 378.994821 
L 381.927403 378.07145 
L 389.085267 379.495552 
L 396.243131 379.31065 
L 403.400994 379.975367 
L 410.558858 378.898568 
L 417.716722 378.736559 
L 424.874586 377.4572 
L 432.03245 376.450851 
" clip-path="url(#p11bec46a55)" style="fill: none; stroke: #4c72b0; stroke-width: 2.25; stroke-linecap: round"/>
   </g>
   <g id="line2d_39">
    <path d="M 439.190314 375.580677 
L 446.348178 376.931588 
L 453.506042 379.337096 
L 460.663906 378.131364 
L 467.82177 377.985408 
L 474.979634 373.351302 
L 482.137498 375.253306 
L 489.295361 378.398256 
L 496.453225 378.935121 
L 503.611089 377.032193 
L 510.768953 371.230745 
L 517.926817 376.91037 
L 525.084681 375.749174 
L 532.242545 379.38676 
L 539.400409 377.345439 
L 546.558273 378.334648 
L 553.716137 374.389782 
" clip-path="url(#p11bec46a55)" style="fill: none; stroke: #dd8452; stroke-width: 2.25; stroke-linecap: round"/>
   </g>
   <g id="line2d_40">
    <path d="M 560.874001 372.055198 
L 568.031865 380.093667 
L 575.189728 375.026789 
L 582.347592 379.1739 
L 589.505456 366.610206 
L 596.66332 372.368913 
L 603.821184 376.942927 
L 610.979048 378.163742 
L 618.136912 374.950345 
L 625.294776 373.286376 
L 632.45264 365.620131 
L 639.610504 375.651034 
L 646.768368 373.265943 
L 653.926232 372.324765 
L 661.084095 377.007759 
L 668.241959 371.489173 
L 675.399823 360.81981 
" clip-path="url(#p11bec46a55)" style="fill: none; stroke: #55a868; stroke-width: 2.25; stroke-linecap: round"/>
   </g>
   <g id="patch_7">
    <path d="M 59.10774 380.518119 
L 59.10774 330.810369 
" style="fill: none; stroke: #262626; stroke-width: 1.875; stroke-linejoin: miter; stroke-linecap: square"/>
   </g>
   <g id="patch_8">
    <path d="M 59.10774 380.518119 
L 704.747065 380.518119 
" style="fill: none; stroke: #262626; stroke-width: 1.875; stroke-linejoin: miter; stroke-linecap: square"/>
   </g>
  </g>
 </g>
 <defs>
  <clipPath id="p721147e5b4">
   <rect x="59.10774" y="21.884302" width="645.639325" height="248.538751"/>
  </clipPath>
  <clipPath id="p11bec46a55">
   <rect x="59.10774" y="330.810369" width="645.639325" height="49.70775"/>
  </clipPath>
 </defs>
</svg>
