<?xml version="1.0" encoding="utf-8" standalone="no"?>
<!DOCTYPE svg PUBLIC "-//W3C//DTD SVG 1.1//EN"
  "http://www.w3.org/Graphics/SVG/1.1/DTD/svg11.dtd">
<svg xmlns:xlink="http://www.w3.org/1999/xlink" width="720pt" height="432pt" viewBox="0 0 720 432" xmlns="http://www.w3.org/2000/svg" version="1.1">
 <metadata>
  <rdf:RDF xmlns:dc="http://purl.org/dc/elements/1.1/" xmlns:cc="http://creativecommons.org/ns#" xmlns:rdf="http://www.w3.org/1999/02/22-rdf-syntax-ns#">
   <cc:Work>
    <dc:type rdf:resource="http://purl.org/dc/dcmitype/StillImage"/>
    <dc:date>2025-05-28T17:46:05.939333</dc:date>
    <dc:format>image/svg+xml</dc:format>
    <dc:creator>
     <cc:Agent>
      <dc:title>Matplotlib v3.10.0, https://matplotlib.org/</dc:title>
     </cc:Agent>
    </dc:creator>
   </cc:Work>
  </rdf:RDF>
 </metadata>
 <defs>
  <style type="text/css">*{stroke-linejoin: round; stroke-linecap: butt}</style>
 </defs>
 <g id="figure_1">
  <g id="patch_1">
   <path d="M 0 432 
L 720 432 
L 720 0 
L 0 0 
z
" style="fill: #ffffff"/>
  </g>
  <g id="axes_1">
   <g id="patch_2">
    <path d="M 68.283287 270.423053 
L 705.056922 270.423053 
L 705.056922 21.884302 
L 68.283287 21.884302 
z
" style="fill: #ffffff"/>
   </g>
   <g id="matplotlib.axis_1">
    <g id="xtick_1">
     <g id="line2d_1">
      <defs>
       <path id="m296616f9f7" d="M 0 0 
L 0 9 
" style="stroke: #262626; stroke-width: 1.875"/>
      </defs>
      <g>
       <use xlink:href="#m296616f9f7" x="97.227543" y="270.423053" style="fill: #262626; stroke: #262626; stroke-width: 1.875"/>
      </g>
     </g>
     <g id="text_1">
      <!-- 0 -->
      <g style="fill: #262626" transform="translate(92.63977 294.733444) scale(0.165 -0.165)">
       <defs>
        <path id="ArialMT-30" d="M 266 2259 
Q 266 3072 433 3567 
Q 600 4063 929 4331 
Q 1259 4600 1759 4600 
Q 2128 4600 2406 4451 
Q 2684 4303 2865 4023 
Q 3047 3744 3150 3342 
Q 3253 2941 3253 2259 
Q 3253 1453 3087 958 
Q 2922 463 2592 192 
Q 2263 -78 1759 -78 
Q 1097 -78 719 397 
Q 266 969 266 2259 
z
M 844 2259 
Q 844 1131 1108 757 
Q 1372 384 1759 384 
Q 2147 384 2411 759 
Q 2675 1134 2675 2259 
Q 2675 3391 2411 3762 
Q 2147 4134 1753 4134 
Q 1366 4134 1134 3806 
Q 844 3388 844 2259 
z
" transform="scale(0.015625)"/>
       </defs>
       <use xlink:href="#ArialMT-30"/>
      </g>
     </g>
    </g>
    <g id="xtick_2">
     <g id="line2d_2">
      <g>
       <use xlink:href="#m296616f9f7" x="172.067249" y="270.423053" style="fill: #262626; stroke: #262626; stroke-width: 1.875"/>
      </g>
     </g>
     <g id="text_2">
      <!-- 50 -->
      <g style="fill: #262626" transform="translate(162.891702 294.733444) scale(0.165 -0.165)">
       <defs>
        <path id="ArialMT-35" d="M 266 1200 
L 856 1250 
Q 922 819 1161 601 
Q 1400 384 1738 384 
Q 2144 384 2425 690 
Q 2706 997 2706 1503 
Q 2706 1984 2436 2262 
Q 2166 2541 1728 2541 
Q 1456 2541 1237 2417 
Q 1019 2294 894 2097 
L 366 2166 
L 809 4519 
L 3088 4519 
L 3088 3981 
L 1259 3981 
L 1013 2750 
Q 1425 3038 1878 3038 
Q 2478 3038 2890 2622 
Q 3303 2206 3303 1553 
Q 3303 931 2941 478 
Q 2500 -78 1738 -78 
Q 1113 -78 717 272 
Q 322 622 266 1200 
z
" transform="scale(0.015625)"/>
       </defs>
       <use xlink:href="#ArialMT-35"/>
       <use xlink:href="#ArialMT-30" transform="translate(55.615234 0)"/>
      </g>
     </g>
    </g>
    <g id="xtick_3">
     <g id="line2d_3">
      <g>
       <use xlink:href="#m296616f9f7" x="246.906954" y="270.423053" style="fill: #262626; stroke: #262626; stroke-width: 1.875"/>
      </g>
     </g>
     <g id="text_3">
      <!-- 100 -->
      <g style="fill: #262626" transform="translate(233.143634 294.733444) scale(0.165 -0.165)">
       <defs>
        <path id="ArialMT-31" d="M 2384 0 
L 1822 0 
L 1822 3584 
Q 1619 3391 1289 3197 
Q 959 3003 697 2906 
L 697 3450 
Q 1169 3672 1522 3987 
Q 1875 4303 2022 4600 
L 2384 4600 
L 2384 0 
z
" transform="scale(0.015625)"/>
       </defs>
       <use xlink:href="#ArialMT-31"/>
       <use xlink:href="#ArialMT-30" transform="translate(55.615234 0)"/>
       <use xlink:href="#ArialMT-30" transform="translate(111.230469 0)"/>
      </g>
     </g>
    </g>
    <g id="xtick_4">
     <g id="line2d_4">
      <g>
       <use xlink:href="#m296616f9f7" x="321.74666" y="270.423053" style="fill: #262626; stroke: #262626; stroke-width: 1.875"/>
      </g>
     </g>
     <g id="text_4">
      <!-- 150 -->
      <g style="fill: #262626" transform="translate(307.983339 294.733444) scale(0.165 -0.165)">
       <use xlink:href="#ArialMT-31"/>
       <use xlink:href="#ArialMT-35" transform="translate(55.615234 0)"/>
       <use xlink:href="#ArialMT-30" transform="translate(111.230469 0)"/>
      </g>
     </g>
    </g>
    <g id="xtick_5">
     <g id="line2d_5">
      <g>
       <use xlink:href="#m296616f9f7" x="396.586365" y="270.423053" style="fill: #262626; stroke: #262626; stroke-width: 1.875"/>
      </g>
     </g>
     <g id="text_5">
      <!-- 200 -->
      <g style="fill: #262626" transform="translate(382.823045 294.733444) scale(0.165 -0.165)">
       <defs>
        <path id="ArialMT-32" d="M 3222 541 
L 3222 0 
L 194 0 
Q 188 203 259 391 
Q 375 700 629 1000 
Q 884 1300 1366 1694 
Q 2113 2306 2375 2664 
Q 2638 3022 2638 3341 
Q 2638 3675 2398 3904 
Q 2159 4134 1775 4134 
Q 1369 4134 1125 3890 
Q 881 3647 878 3216 
L 300 3275 
Q 359 3922 746 4261 
Q 1134 4600 1788 4600 
Q 2447 4600 2831 4234 
Q 3216 3869 3216 3328 
Q 3216 3053 3103 2787 
Q 2991 2522 2730 2228 
Q 2469 1934 1863 1422 
Q 1356 997 1212 845 
Q 1069 694 975 541 
L 3222 541 
z
" transform="scale(0.015625)"/>
       </defs>
       <use xlink:href="#ArialMT-32"/>
       <use xlink:href="#ArialMT-30" transform="translate(55.615234 0)"/>
       <use xlink:href="#ArialMT-30" transform="translate(111.230469 0)"/>
      </g>
     </g>
    </g>
    <g id="xtick_6">
     <g id="line2d_6">
      <g>
       <use xlink:href="#m296616f9f7" x="471.426071" y="270.423053" style="fill: #262626; stroke: #262626; stroke-width: 1.875"/>
      </g>
     </g>
     <g id="text_6">
      <!-- 250 -->
      <g style="fill: #262626" transform="translate(457.662751 294.733444) scale(0.165 -0.165)">
       <use xlink:href="#ArialMT-32"/>
       <use xlink:href="#ArialMT-35" transform="translate(55.615234 0)"/>
       <use xlink:href="#ArialMT-30" transform="translate(111.230469 0)"/>
      </g>
     </g>
    </g>
    <g id="xtick_7">
     <g id="line2d_7">
      <g>
       <use xlink:href="#m296616f9f7" x="546.265776" y="270.423053" style="fill: #262626; stroke: #262626; stroke-width: 1.875"/>
      </g>
     </g>
     <g id="text_7">
      <!-- 300 -->
      <g style="fill: #262626" transform="translate(532.502456 294.733444) scale(0.165 -0.165)">
       <defs>
        <path id="ArialMT-33" d="M 269 1209 
L 831 1284 
Q 928 806 1161 595 
Q 1394 384 1728 384 
Q 2125 384 2398 659 
Q 2672 934 2672 1341 
Q 2672 1728 2419 1979 
Q 2166 2231 1775 2231 
Q 1616 2231 1378 2169 
L 1441 2663 
Q 1497 2656 1531 2656 
Q 1891 2656 2178 2843 
Q 2466 3031 2466 3422 
Q 2466 3731 2256 3934 
Q 2047 4138 1716 4138 
Q 1388 4138 1169 3931 
Q 950 3725 888 3313 
L 325 3413 
Q 428 3978 793 4289 
Q 1159 4600 1703 4600 
Q 2078 4600 2393 4439 
Q 2709 4278 2876 4000 
Q 3044 3722 3044 3409 
Q 3044 3113 2884 2869 
Q 2725 2625 2413 2481 
Q 2819 2388 3044 2092 
Q 3269 1797 3269 1353 
Q 3269 753 2831 336 
Q 2394 -81 1725 -81 
Q 1122 -81 723 278 
Q 325 638 269 1209 
z
" transform="scale(0.015625)"/>
       </defs>
       <use xlink:href="#ArialMT-33"/>
       <use xlink:href="#ArialMT-30" transform="translate(55.615234 0)"/>
       <use xlink:href="#ArialMT-30" transform="translate(111.230469 0)"/>
      </g>
     </g>
    </g>
    <g id="xtick_8">
     <g id="line2d_8">
      <g>
       <use xlink:href="#m296616f9f7" x="621.105482" y="270.423053" style="fill: #262626; stroke: #262626; stroke-width: 1.875"/>
      </g>
     </g>
     <g id="text_8">
      <!-- 350 -->
      <g style="fill: #262626" transform="translate(607.342162 294.733444) scale(0.165 -0.165)">
       <use xlink:href="#ArialMT-33"/>
       <use xlink:href="#ArialMT-35" transform="translate(55.615234 0)"/>
       <use xlink:href="#ArialMT-30" transform="translate(111.230469 0)"/>
      </g>
     </g>
    </g>
    <g id="xtick_9">
     <g id="line2d_9">
      <g>
       <use xlink:href="#m296616f9f7" x="695.945188" y="270.423053" style="fill: #262626; stroke: #262626; stroke-width: 1.875"/>
      </g>
     </g>
     <g id="text_9">
      <!-- 400 -->
      <g style="fill: #262626" transform="translate(682.181867 294.733444) scale(0.165 -0.165)">
       <defs>
        <path id="ArialMT-34" d="M 2069 0 
L 2069 1097 
L 81 1097 
L 81 1613 
L 2172 4581 
L 2631 4581 
L 2631 1613 
L 3250 1613 
L 3250 1097 
L 2631 1097 
L 2631 0 
L 2069 0 
z
M 2069 1613 
L 2069 3678 
L 634 1613 
L 2069 1613 
z
" transform="scale(0.015625)"/>
       </defs>
       <use xlink:href="#ArialMT-34"/>
       <use xlink:href="#ArialMT-30" transform="translate(55.615234 0)"/>
       <use xlink:href="#ArialMT-30" transform="translate(111.230469 0)"/>
      </g>
     </g>
    </g>
    <g id="text_10">
     <!-- Time (min) -->
     <g style="fill: #262626" transform="translate(344.014323 315.116256) scale(0.18 -0.18)">
      <defs>
       <path id="ArialMT-54" d="M 1659 0 
L 1659 4041 
L 150 4041 
L 150 4581 
L 3781 4581 
L 3781 4041 
L 2266 4041 
L 2266 0 
L 1659 0 
z
" transform="scale(0.015625)"/>
       <path id="ArialMT-69" d="M 425 3934 
L 425 4581 
L 988 4581 
L 988 3934 
L 425 3934 
z
M 425 0 
L 425 3319 
L 988 3319 
L 988 0 
L 425 0 
z
" transform="scale(0.015625)"/>
       <path id="ArialMT-6d" d="M 422 0 
L 422 3319 
L 925 3319 
L 925 2853 
Q 1081 3097 1340 3245 
Q 1600 3394 1931 3394 
Q 2300 3394 2536 3241 
Q 2772 3088 2869 2813 
Q 3263 3394 3894 3394 
Q 4388 3394 4653 3120 
Q 4919 2847 4919 2278 
L 4919 0 
L 4359 0 
L 4359 2091 
Q 4359 2428 4304 2576 
Q 4250 2725 4106 2815 
Q 3963 2906 3769 2906 
Q 3419 2906 3187 2673 
Q 2956 2441 2956 1928 
L 2956 0 
L 2394 0 
L 2394 2156 
Q 2394 2531 2256 2718 
Q 2119 2906 1806 2906 
Q 1569 2906 1367 2781 
Q 1166 2656 1075 2415 
Q 984 2175 984 1722 
L 984 0 
L 422 0 
z
" transform="scale(0.015625)"/>
       <path id="ArialMT-65" d="M 2694 1069 
L 3275 997 
Q 3138 488 2766 206 
Q 2394 -75 1816 -75 
Q 1088 -75 661 373 
Q 234 822 234 1631 
Q 234 2469 665 2931 
Q 1097 3394 1784 3394 
Q 2450 3394 2872 2941 
Q 3294 2488 3294 1666 
Q 3294 1616 3291 1516 
L 816 1516 
Q 847 969 1125 678 
Q 1403 388 1819 388 
Q 2128 388 2347 550 
Q 2566 713 2694 1069 
z
M 847 1978 
L 2700 1978 
Q 2663 2397 2488 2606 
Q 2219 2931 1791 2931 
Q 1403 2931 1139 2672 
Q 875 2413 847 1978 
z
" transform="scale(0.015625)"/>
       <path id="ArialMT-20" transform="scale(0.015625)"/>
       <path id="ArialMT-28" d="M 1497 -1347 
Q 1031 -759 709 28 
Q 388 816 388 1659 
Q 388 2403 628 3084 
Q 909 3875 1497 4659 
L 1900 4659 
Q 1522 4009 1400 3731 
Q 1209 3300 1100 2831 
Q 966 2247 966 1656 
Q 966 153 1900 -1347 
L 1497 -1347 
z
" transform="scale(0.015625)"/>
       <path id="ArialMT-6e" d="M 422 0 
L 422 3319 
L 928 3319 
L 928 2847 
Q 1294 3394 1984 3394 
Q 2284 3394 2536 3286 
Q 2788 3178 2913 3003 
Q 3038 2828 3088 2588 
Q 3119 2431 3119 2041 
L 3119 0 
L 2556 0 
L 2556 2019 
Q 2556 2363 2490 2533 
Q 2425 2703 2258 2804 
Q 2091 2906 1866 2906 
Q 1506 2906 1245 2678 
Q 984 2450 984 1813 
L 984 0 
L 422 0 
z
" transform="scale(0.015625)"/>
       <path id="ArialMT-29" d="M 791 -1347 
L 388 -1347 
Q 1322 153 1322 1656 
Q 1322 2244 1188 2822 
Q 1081 3291 891 3722 
Q 769 4003 388 4659 
L 791 4659 
Q 1378 3875 1659 3084 
Q 1900 2403 1900 1659 
Q 1900 816 1576 28 
Q 1253 -759 791 -1347 
z
" transform="scale(0.015625)"/>
      </defs>
      <use xlink:href="#ArialMT-54"/>
      <use xlink:href="#ArialMT-69" transform="translate(57.333984 0)"/>
      <use xlink:href="#ArialMT-6d" transform="translate(79.550781 0)"/>
      <use xlink:href="#ArialMT-65" transform="translate(162.851562 0)"/>
      <use xlink:href="#ArialMT-20" transform="translate(218.466797 0)"/>
      <use xlink:href="#ArialMT-28" transform="translate(246.25 0)"/>
      <use xlink:href="#ArialMT-6d" transform="translate(279.550781 0)"/>
      <use xlink:href="#ArialMT-69" transform="translate(362.851562 0)"/>
      <use xlink:href="#ArialMT-6e" transform="translate(385.068359 0)"/>
      <use xlink:href="#ArialMT-29" transform="translate(440.683594 0)"/>
     </g>
    </g>
   </g>
   <g id="matplotlib.axis_2">
    <g id="ytick_1">
     <g id="line2d_10">
      <defs>
       <path id="mbb900905f1" d="M 0 0 
L -9 0 
" style="stroke: #262626; stroke-width: 1.875"/>
      </defs>
      <g>
       <use xlink:href="#mbb900905f1" x="68.283287" y="235.826878" style="fill: #262626; stroke: #262626; stroke-width: 1.875"/>
      </g>
     </g>
     <g id="text_11">
      <!-- 0.00 -->
      <g style="fill: #262626" transform="translate(23.67274 241.732073) scale(0.165 -0.165)">
       <defs>
        <path id="ArialMT-2e" d="M 581 0 
L 581 641 
L 1222 641 
L 1222 0 
L 581 0 
z
" transform="scale(0.015625)"/>
       </defs>
       <use xlink:href="#ArialMT-30"/>
       <use xlink:href="#ArialMT-2e" transform="translate(55.615234 0)"/>
       <use xlink:href="#ArialMT-30" transform="translate(83.398438 0)"/>
       <use xlink:href="#ArialMT-30" transform="translate(139.013672 0)"/>
      </g>
     </g>
    </g>
    <g id="ytick_2">
     <g id="line2d_11">
      <g>
       <use xlink:href="#mbb900905f1" x="68.283287" y="195.660438" style="fill: #262626; stroke: #262626; stroke-width: 1.875"/>
      </g>
     </g>
     <g id="text_12">
      <!-- 0.25 -->
      <g style="fill: #262626" transform="translate(23.67274 201.565633) scale(0.165 -0.165)">
       <use xlink:href="#ArialMT-30"/>
       <use xlink:href="#ArialMT-2e" transform="translate(55.615234 0)"/>
       <use xlink:href="#ArialMT-32" transform="translate(83.398438 0)"/>
       <use xlink:href="#ArialMT-35" transform="translate(139.013672 0)"/>
      </g>
     </g>
    </g>
    <g id="ytick_3">
     <g id="line2d_12">
      <g>
       <use xlink:href="#mbb900905f1" x="68.283287" y="155.493998" style="fill: #262626; stroke: #262626; stroke-width: 1.875"/>
      </g>
     </g>
     <g id="text_13">
      <!-- 0.50 -->
      <g style="fill: #262626" transform="translate(23.67274 161.399193) scale(0.165 -0.165)">
       <use xlink:href="#ArialMT-30"/>
       <use xlink:href="#ArialMT-2e" transform="translate(55.615234 0)"/>
       <use xlink:href="#ArialMT-35" transform="translate(83.398438 0)"/>
       <use xlink:href="#ArialMT-30" transform="translate(139.013672 0)"/>
      </g>
     </g>
    </g>
    <g id="ytick_4">
     <g id="line2d_13">
      <g>
       <use xlink:href="#mbb900905f1" x="68.283287" y="115.327558" style="fill: #262626; stroke: #262626; stroke-width: 1.875"/>
      </g>
     </g>
     <g id="text_14">
      <!-- 0.75 -->
      <g style="fill: #262626" transform="translate(23.67274 121.232754) scale(0.165 -0.165)">
       <defs>
        <path id="ArialMT-37" d="M 303 3981 
L 303 4522 
L 3269 4522 
L 3269 4084 
Q 2831 3619 2401 2847 
Q 1972 2075 1738 1259 
Q 1569 684 1522 0 
L 944 0 
Q 953 541 1156 1306 
Q 1359 2072 1739 2783 
Q 2119 3494 2547 3981 
L 303 3981 
z
" transform="scale(0.015625)"/>
       </defs>
       <use xlink:href="#ArialMT-30"/>
       <use xlink:href="#ArialMT-2e" transform="translate(55.615234 0)"/>
       <use xlink:href="#ArialMT-37" transform="translate(83.398438 0)"/>
       <use xlink:href="#ArialMT-35" transform="translate(139.013672 0)"/>
      </g>
     </g>
    </g>
    <g id="ytick_5">
     <g id="line2d_14">
      <g>
       <use xlink:href="#mbb900905f1" x="68.283287" y="75.161119" style="fill: #262626; stroke: #262626; stroke-width: 1.875"/>
      </g>
     </g>
     <g id="text_15">
      <!-- 1.00 -->
      <g style="fill: #262626" transform="translate(23.67274 81.066314) scale(0.165 -0.165)">
       <use xlink:href="#ArialMT-31"/>
       <use xlink:href="#ArialMT-2e" transform="translate(55.615234 0)"/>
       <use xlink:href="#ArialMT-30" transform="translate(83.398438 0)"/>
       <use xlink:href="#ArialMT-30" transform="translate(139.013672 0)"/>
      </g>
     </g>
    </g>
    <g id="ytick_6">
     <g id="line2d_15">
      <g>
       <use xlink:href="#mbb900905f1" x="68.283287" y="34.994679" style="fill: #262626; stroke: #262626; stroke-width: 1.875"/>
      </g>
     </g>
     <g id="text_16">
      <!-- 1.25 -->
      <g style="fill: #262626" transform="translate(23.67274 40.899874) scale(0.165 -0.165)">
       <use xlink:href="#ArialMT-31"/>
       <use xlink:href="#ArialMT-2e" transform="translate(55.615234 0)"/>
       <use xlink:href="#ArialMT-32" transform="translate(83.398438 0)"/>
       <use xlink:href="#ArialMT-35" transform="translate(139.013672 0)"/>
      </g>
     </g>
    </g>
    <g id="text_17">
     <!-- y value -->
     <g style="fill: #262626" transform="translate(15.884302 174.668209) rotate(-90) scale(0.18 -0.18)">
      <defs>
       <path id="ArialMT-79" d="M 397 -1278 
L 334 -750 
Q 519 -800 656 -800 
Q 844 -800 956 -737 
Q 1069 -675 1141 -563 
Q 1194 -478 1313 -144 
Q 1328 -97 1363 -6 
L 103 3319 
L 709 3319 
L 1400 1397 
Q 1534 1031 1641 628 
Q 1738 1016 1872 1384 
L 2581 3319 
L 3144 3319 
L 1881 -56 
Q 1678 -603 1566 -809 
Q 1416 -1088 1222 -1217 
Q 1028 -1347 759 -1347 
Q 597 -1347 397 -1278 
z
" transform="scale(0.015625)"/>
       <path id="ArialMT-76" d="M 1344 0 
L 81 3319 
L 675 3319 
L 1388 1331 
Q 1503 1009 1600 663 
Q 1675 925 1809 1294 
L 2547 3319 
L 3125 3319 
L 1869 0 
L 1344 0 
z
" transform="scale(0.015625)"/>
       <path id="ArialMT-61" d="M 2588 409 
Q 2275 144 1986 34 
Q 1697 -75 1366 -75 
Q 819 -75 525 192 
Q 231 459 231 875 
Q 231 1119 342 1320 
Q 453 1522 633 1644 
Q 813 1766 1038 1828 
Q 1203 1872 1538 1913 
Q 2219 1994 2541 2106 
Q 2544 2222 2544 2253 
Q 2544 2597 2384 2738 
Q 2169 2928 1744 2928 
Q 1347 2928 1158 2789 
Q 969 2650 878 2297 
L 328 2372 
Q 403 2725 575 2942 
Q 747 3159 1072 3276 
Q 1397 3394 1825 3394 
Q 2250 3394 2515 3294 
Q 2781 3194 2906 3042 
Q 3031 2891 3081 2659 
Q 3109 2516 3109 2141 
L 3109 1391 
Q 3109 606 3145 398 
Q 3181 191 3288 0 
L 2700 0 
Q 2613 175 2588 409 
z
M 2541 1666 
Q 2234 1541 1622 1453 
Q 1275 1403 1131 1340 
Q 988 1278 909 1158 
Q 831 1038 831 891 
Q 831 666 1001 516 
Q 1172 366 1500 366 
Q 1825 366 2078 508 
Q 2331 650 2450 897 
Q 2541 1088 2541 1459 
L 2541 1666 
z
" transform="scale(0.015625)"/>
       <path id="ArialMT-6c" d="M 409 0 
L 409 4581 
L 972 4581 
L 972 0 
L 409 0 
z
" transform="scale(0.015625)"/>
       <path id="ArialMT-75" d="M 2597 0 
L 2597 488 
Q 2209 -75 1544 -75 
Q 1250 -75 995 37 
Q 741 150 617 320 
Q 494 491 444 738 
Q 409 903 409 1263 
L 409 3319 
L 972 3319 
L 972 1478 
Q 972 1038 1006 884 
Q 1059 663 1231 536 
Q 1403 409 1656 409 
Q 1909 409 2131 539 
Q 2353 669 2445 892 
Q 2538 1116 2538 1541 
L 2538 3319 
L 3100 3319 
L 3100 0 
L 2597 0 
z
" transform="scale(0.015625)"/>
      </defs>
      <use xlink:href="#ArialMT-79"/>
      <use xlink:href="#ArialMT-20" transform="translate(50 0)"/>
      <use xlink:href="#ArialMT-76" transform="translate(77.783203 0)"/>
      <use xlink:href="#ArialMT-61" transform="translate(127.783203 0)"/>
      <use xlink:href="#ArialMT-6c" transform="translate(183.398438 0)"/>
      <use xlink:href="#ArialMT-75" transform="translate(205.615234 0)"/>
      <use xlink:href="#ArialMT-65" transform="translate(261.230469 0)"/>
     </g>
    </g>
   </g>
   <g id="FillBetweenPolyCollection_1"/>
   <g id="FillBetweenPolyCollection_2"/>
   <g id="FillBetweenPolyCollection_3"/>
   <g id="FillBetweenPolyCollection_4"/>
   <g id="line2d_16">
    <path d="M 97.227543 155.493998 
L 99.846933 121.289922 
L 101.343727 104.287894 
L 102.466322 93.596451 
L 103.588918 85.097759 
L 104.337315 80.802376 
L 105.085712 77.684924 
L 105.834109 75.794567 
L 106.208308 75.319637 
L 106.582506 75.161119 
L 106.956705 75.319637 
L 107.330903 75.794567 
L 107.705102 76.584035 
L 108.453499 79.09289 
L 109.201896 82.806636 
L 109.950293 87.666705 
L 111.072889 96.933849 
L 112.195484 108.275516 
L 113.692278 125.921493 
L 116.311668 160.538141 
L 118.556859 189.698075 
L 120.053653 206.700103 
L 121.176249 217.391546 
L 122.298844 225.890237 
L 123.047241 230.18562 
L 123.795638 233.303072 
L 124.544036 235.193429 
L 124.918234 235.668359 
L 125.292433 235.826878 
L 125.666631 235.668359 
L 126.04083 235.193429 
L 126.415028 234.403961 
L 127.163425 231.895107 
L 127.911822 228.181361 
L 128.660219 223.321292 
L 129.782815 214.054147 
L 130.905411 202.71248 
L 132.402205 185.066503 
L 135.021594 150.449855 
L 137.266785 121.289922 
L 138.76358 104.287894 
L 139.886175 93.596451 
L 141.008771 85.097759 
L 141.757168 80.802376 
L 142.505565 77.684924 
L 143.253962 75.794567 
L 143.62816 75.319637 
L 144.002359 75.161119 
L 144.376558 75.319637 
L 144.750756 75.794567 
L 145.124955 76.584035 
L 145.873352 79.09289 
L 146.621749 82.806636 
L 147.370146 87.666705 
L 148.492741 96.933849 
L 149.615337 108.275516 
L 151.112131 125.921493 
L 153.731521 160.538141 
L 155.976712 189.698075 
L 157.473506 206.700103 
L 158.596102 217.391546 
L 159.718697 225.890237 
L 160.467094 230.18562 
L 161.215491 233.303072 
L 161.963888 235.193429 
L 162.338087 235.668359 
L 162.712285 235.826878 
L 163.086484 235.668359 
L 163.460682 235.193429 
L 163.834881 234.403961 
L 164.583278 231.895107 
L 165.331675 228.181361 
L 166.080072 223.321292 
L 167.202668 214.054147 
L 168.325263 202.71248 
L 169.822057 185.066503 
L 172.441447 150.449855 
L 174.686638 121.289922 
L 176.183432 104.287894 
L 177.306028 93.596451 
L 178.428624 85.097759 
L 179.177021 80.802376 
L 179.925418 77.684924 
L 180.673815 75.794567 
L 181.048013 75.319637 
L 181.422212 75.161119 
L 181.79641 75.319637 
L 182.170609 75.794567 
L 182.544807 76.584035 
L 183.293204 79.09289 
L 184.041601 82.806636 
L 184.789999 87.666705 
L 185.912594 96.933849 
L 187.03519 108.275516 
L 188.531984 125.921493 
L 191.151374 160.538141 
L 193.396565 189.698075 
L 194.893359 206.700103 
L 196.015954 217.391546 
L 197.13855 225.890237 
L 197.886947 230.18562 
L 198.635344 233.303072 
L 199.383741 235.193429 
L 199.75794 235.668359 
L 200.132138 235.826878 
L 200.506337 235.668359 
L 200.880535 235.193429 
L 201.254734 234.403961 
L 202.003131 231.895107 
L 202.751528 228.181361 
L 203.499925 223.321292 
L 204.622521 214.054147 
L 205.745116 202.71248 
L 207.24191 185.066503 
L 209.8613 150.449855 
L 212.106491 121.289922 
L 213.603285 104.287894 
L 214.725881 93.596451 
L 215.848476 85.097759 
L 216.596873 80.802376 
L 217.34527 77.684924 
L 218.093668 75.794567 
L 218.467866 75.319637 
L 218.842065 75.161119 
L 219.216263 75.319637 
L 219.590462 75.794567 
L 219.96466 76.584035 
L 220.713057 79.09289 
L 221.461454 82.806636 
L 222.209851 87.666705 
L 223.332447 96.933849 
L 224.455042 108.275516 
L 225.951837 125.921493 
L 228.571226 160.538141 
L 230.816417 189.698075 
L 232.313212 206.700103 
L 233.435807 217.391546 
L 234.558403 225.890237 
L 235.3068 230.18562 
L 236.055197 233.303072 
L 236.803594 235.193429 
L 237.177792 235.668359 
L 237.551991 235.826878 
L 237.926189 235.668359 
L 238.300388 235.193429 
L 238.674587 234.403961 
L 239.422984 231.895107 
L 240.171381 228.181361 
L 240.919778 223.321292 
L 242.042373 214.054147 
L 243.164969 202.71248 
L 244.661763 185.066503 
L 247.281153 150.449855 
L 249.526344 121.289922 
L 251.023138 104.287894 
L 252.145734 93.596451 
L 253.268329 85.097759 
L 254.016726 80.802376 
L 254.765123 77.684924 
L 255.51352 75.794567 
L 255.887719 75.319637 
L 256.261917 75.161119 
L 256.636116 75.319637 
L 257.010314 75.794567 
L 257.384513 76.584035 
L 258.13291 79.09289 
L 258.881307 82.806636 
L 259.629704 87.666705 
L 260.7523 96.933849 
L 261.874895 108.275516 
L 263.371689 125.921493 
L 265.991079 160.538141 
L 268.23627 189.698075 
L 269.733064 206.700103 
L 270.85566 217.391546 
L 271.978256 225.890237 
L 272.726653 230.18562 
L 273.47505 233.303072 
L 274.223447 235.193429 
L 274.597645 235.668359 
L 274.971844 235.826878 
L 275.346042 235.668359 
L 275.720241 235.193429 
L 276.094439 234.403961 
L 276.842836 231.895107 
L 277.591233 228.181361 
L 278.339631 223.321292 
L 279.462226 214.054147 
L 280.584822 202.71248 
L 282.081616 185.066503 
L 284.701005 150.449855 
L 286.946197 121.289922 
L 288.442991 104.287894 
L 289.565586 93.596451 
L 290.688182 85.097759 
L 291.436579 80.802376 
L 292.184976 77.684924 
L 292.933373 75.794567 
L 293.307572 75.319637 
L 293.68177 75.161119 
L 294.055969 75.319637 
L 294.430167 75.794567 
L 294.804366 76.584035 
L 295.552763 79.09289 
L 296.30116 82.806636 
L 297.049557 87.666705 
L 298.172152 96.933849 
L 299.294748 108.275516 
L 300.791542 125.921493 
L 303.410932 160.538141 
L 305.656123 189.698075 
L 307.152917 206.700103 
L 308.275513 217.391546 
L 309.398108 225.890237 
L 310.146505 230.18562 
L 310.894902 233.303072 
L 311.643299 235.193429 
L 312.017498 235.668359 
L 312.391697 235.826878 
L 312.765895 235.668359 
L 313.140094 235.193429 
L 313.514292 234.403961 
L 314.262689 231.895107 
L 315.011086 228.181361 
L 315.759483 223.321292 
L 316.882079 214.054147 
L 318.004674 202.71248 
L 319.501469 185.066503 
L 322.120858 150.449855 
L 324.366049 121.289922 
L 325.862844 104.287894 
L 326.985439 93.596451 
L 328.108035 85.097759 
L 328.856432 80.802376 
L 329.604829 77.684924 
L 330.353226 75.794567 
L 330.727424 75.319637 
L 331.101623 75.161119 
L 331.475821 75.319637 
L 331.85002 75.794567 
L 332.224219 76.584035 
L 332.972616 79.09289 
L 333.721013 82.806636 
L 334.46941 87.666705 
L 335.592005 96.933849 
L 336.714601 108.275516 
L 338.211395 125.921493 
L 340.830785 160.538141 
L 343.075976 189.698075 
L 344.57277 206.700103 
L 345.695366 217.391546 
L 346.817961 225.890237 
L 347.566358 230.18562 
L 348.314755 233.303072 
L 349.063152 235.193429 
L 349.437351 235.668359 
L 349.811549 235.826878 
L 350.185748 235.668359 
L 350.559946 235.193429 
L 350.934145 234.403961 
L 351.682542 231.895107 
L 352.430939 228.181361 
L 353.179336 223.321292 
L 354.301932 214.054147 
L 355.424527 202.71248 
L 356.921321 185.066503 
L 359.540711 150.449855 
L 361.785902 121.289922 
L 363.282696 104.287894 
L 364.405292 93.596451 
L 365.527887 85.097759 
L 366.276285 80.802376 
L 367.024682 77.684924 
L 367.773079 75.794567 
L 368.147277 75.319637 
L 368.521476 75.161119 
L 368.895674 75.319637 
L 369.269873 75.794567 
L 369.644071 76.584035 
L 370.392468 79.09289 
L 371.140865 82.806636 
L 371.889262 87.666705 
L 373.011858 96.933849 
L 374.134454 108.275516 
L 375.631248 125.921493 
L 378.250637 160.538141 
L 380.495829 189.698075 
L 381.992623 206.700103 
L 383.115218 217.391546 
L 384.237814 225.890237 
L 384.986211 230.18562 
L 385.734608 233.303072 
L 386.483005 235.193429 
L 386.857204 235.668359 
L 387.231402 235.826878 
L 387.605601 235.668359 
L 387.979799 235.193429 
L 388.353998 234.403961 
L 389.102395 231.895107 
L 389.850792 228.181361 
L 390.599189 223.321292 
L 391.721784 214.054147 
L 392.84438 202.71248 
L 394.341174 185.066503 
L 396.960564 150.449855 
L 399.205755 121.289922 
L 400.702549 104.287894 
L 401.825145 93.596451 
L 402.94774 85.097759 
L 403.696137 80.802376 
L 404.444534 77.684924 
L 405.192931 75.794567 
L 405.56713 75.319637 
L 405.941329 75.161119 
L 406.315527 75.319637 
L 406.689726 75.794567 
L 407.063924 76.584035 
L 407.812321 79.09289 
L 408.560718 82.806636 
L 409.309115 87.666705 
L 410.431711 96.933849 
L 411.554306 108.275516 
L 413.051101 125.921493 
L 415.67049 160.538141 
L 417.915681 189.698075 
L 419.412476 206.700103 
L 420.535071 217.391546 
L 421.657667 225.890237 
L 422.406064 230.18562 
L 423.154461 233.303072 
L 423.902858 235.193429 
L 424.277056 235.668359 
L 424.651255 235.826878 
L 425.025453 235.668359 
L 425.399652 235.193429 
L 425.77385 234.403961 
L 426.522248 231.895107 
L 427.270645 228.181361 
L 428.019042 223.321292 
L 429.141637 214.054147 
L 430.264233 202.71248 
L 431.761027 185.066503 
L 434.380417 150.449855 
L 436.625608 121.289922 
L 438.122402 104.287894 
L 439.244997 93.596451 
L 440.367593 85.097759 
L 441.11599 80.802376 
L 441.864387 77.684924 
L 442.612784 75.794567 
L 442.986983 75.319637 
L 443.361181 75.161119 
L 443.73538 75.319637 
L 444.109578 75.794567 
L 444.483777 76.584035 
L 445.232174 79.09289 
L 445.980571 82.806636 
L 446.728968 87.666705 
L 447.851564 96.933849 
L 448.974159 108.275516 
L 450.470953 125.921493 
L 453.090343 160.538141 
L 455.335534 189.698075 
L 456.832328 206.700103 
L 457.954924 217.391546 
L 459.077519 225.890237 
L 459.825917 230.18562 
L 460.574314 233.303072 
L 461.322711 235.193429 
L 461.696909 235.668359 
L 462.071108 235.826878 
L 462.445306 235.668359 
L 462.819505 235.193429 
L 463.193703 234.403961 
L 463.9421 231.895107 
L 464.690497 228.181361 
L 465.438894 223.321292 
L 466.56149 214.054147 
L 467.684086 202.71248 
L 469.18088 185.066503 
L 471.800269 150.449855 
L 474.045461 121.289922 
L 475.542255 104.287894 
L 476.66485 93.596451 
L 477.787446 85.097759 
L 478.535843 80.802376 
L 479.28424 77.684924 
L 480.032637 75.794567 
L 480.406836 75.319637 
L 480.781034 75.161119 
L 481.155233 75.319637 
L 481.529431 75.794567 
L 481.90363 76.584035 
L 482.652027 79.09289 
L 483.400424 82.806636 
L 484.148821 87.666705 
L 485.271416 96.933849 
L 486.394012 108.275516 
L 487.890806 125.921493 
L 490.510196 160.538141 
L 492.755387 189.698075 
L 494.252181 206.700103 
L 495.374777 217.391546 
L 496.497372 225.890237 
L 497.245769 230.18562 
L 497.994166 233.303072 
L 498.742563 235.193429 
L 499.116762 235.668359 
L 499.49096 235.826878 
L 499.865159 235.668359 
L 500.239358 235.193429 
L 500.613556 234.403961 
L 501.361953 231.895107 
L 502.11035 228.181361 
L 502.858747 223.321292 
L 503.981343 214.054147 
L 505.103938 202.71248 
L 506.600733 185.066503 
L 509.220122 150.449855 
L 511.465313 121.289922 
L 512.962107 104.287894 
L 514.084703 93.596451 
L 515.207299 85.097759 
L 515.955696 80.802376 
L 516.704093 77.684924 
L 517.45249 75.794567 
L 517.826688 75.319637 
L 518.200887 75.161119 
L 518.575085 75.319637 
L 518.949284 75.794567 
L 519.323482 76.584035 
L 520.07188 79.09289 
L 520.820277 82.806636 
L 521.568674 87.666705 
L 522.691269 96.933849 
L 523.813865 108.275516 
L 525.310659 125.921493 
L 527.930049 160.538141 
L 530.17524 189.698075 
L 531.672034 206.700103 
L 532.794629 217.391546 
L 533.917225 225.890237 
L 534.665622 230.18562 
L 535.414019 233.303072 
L 536.162416 235.193429 
L 536.536615 235.668359 
L 536.910813 235.826878 
L 537.285012 235.668359 
L 537.65921 235.193429 
L 538.033409 234.403961 
L 538.781806 231.895107 
L 539.530203 228.181361 
L 540.2786 223.321292 
L 541.401196 214.054147 
L 542.523791 202.71248 
L 544.020585 185.066503 
L 546.639975 150.449855 
L 548.885166 121.289922 
L 550.38196 104.287894 
L 551.504556 93.596451 
L 552.627151 85.097759 
L 553.375548 80.802376 
L 554.123946 77.684924 
L 554.872343 75.794567 
L 555.246541 75.319637 
L 555.62074 75.161119 
L 555.994938 75.319637 
L 556.369137 75.794567 
L 556.743335 76.584035 
L 557.491732 79.09289 
L 558.240129 82.806636 
L 558.988526 87.666705 
L 560.111122 96.933849 
L 561.233718 108.275516 
L 562.730512 125.921493 
L 565.349901 160.538141 
L 567.595093 189.698075 
L 569.091887 206.700103 
L 570.214482 217.391546 
L 571.337078 225.890237 
L 572.085475 230.18562 
L 572.833872 233.303072 
L 573.582269 235.193429 
L 573.956468 235.668359 
L 574.330666 235.826878 
L 574.704865 235.668359 
L 575.079063 235.193429 
L 575.453262 234.403961 
L 576.201659 231.895107 
L 576.950056 228.181361 
L 577.698453 223.321292 
L 578.821048 214.054147 
L 579.943644 202.71248 
L 581.440438 185.066503 
L 584.059828 150.449855 
L 586.305019 121.289922 
L 587.801813 104.287894 
L 588.924409 93.596451 
L 590.047004 85.097759 
L 590.795401 80.802376 
L 591.543798 77.684924 
L 592.292195 75.794567 
L 592.666394 75.319637 
L 593.040592 75.161119 
L 593.414791 75.319637 
L 593.78899 75.794567 
L 594.163188 76.584035 
L 594.911585 79.09289 
L 595.659982 82.806636 
L 596.408379 87.666705 
L 597.530975 96.933849 
L 598.65357 108.275516 
L 600.150364 125.921493 
L 602.769754 160.538141 
L 605.014945 189.698075 
L 606.511739 206.700103 
L 607.634335 217.391546 
L 608.756931 225.890237 
L 609.505328 230.18562 
L 610.253725 233.303072 
L 611.002122 235.193429 
L 611.37632 235.668359 
L 611.750519 235.826878 
L 612.124717 235.668359 
L 612.498916 235.193429 
L 612.873114 234.403961 
L 613.621511 231.895107 
L 614.369909 228.181361 
L 615.118306 223.321292 
L 616.240901 214.054147 
L 617.363497 202.71248 
L 618.860291 185.066503 
L 621.479681 150.449855 
L 623.724872 121.289922 
L 625.221666 104.287894 
L 626.344261 93.596451 
L 627.466857 85.097759 
L 628.215254 80.802376 
L 628.963651 77.684924 
L 629.712048 75.794567 
L 630.086247 75.319637 
L 630.460445 75.161119 
L 630.834644 75.319637 
L 631.208842 75.794567 
L 631.583041 76.584035 
L 632.331438 79.09289 
L 633.079835 82.806636 
L 633.828232 87.666705 
L 634.950828 96.933849 
L 636.073423 108.275516 
L 637.570217 125.921493 
L 640.189607 160.538141 
L 642.434798 189.698075 
L 643.931592 206.700103 
L 645.054188 217.391546 
L 646.176783 225.890237 
L 646.92518 230.18562 
L 647.673578 233.303072 
L 648.421975 235.193429 
L 648.796173 235.668359 
L 649.170372 235.826878 
L 649.54457 235.668359 
L 649.918769 235.193429 
L 650.292967 234.403961 
L 651.041364 231.895107 
L 651.789761 228.181361 
L 652.538158 223.321292 
L 653.660754 214.054147 
L 654.78335 202.71248 
L 656.280144 185.066503 
L 658.899533 150.449855 
L 661.144725 121.289922 
L 662.641519 104.287894 
L 663.764114 93.596451 
L 664.88671 85.097759 
L 665.635107 80.802376 
L 666.383504 77.684924 
L 667.131901 75.794567 
L 667.506099 75.319637 
L 667.880298 75.161119 
L 668.254497 75.319637 
L 668.628695 75.794567 
L 669.002894 76.584035 
L 669.751291 79.09289 
L 670.499688 82.806636 
L 671.248085 87.666705 
L 672.37068 96.933849 
L 673.493276 108.275516 
L 674.99007 125.921493 
L 676.112666 140.441118 
L 676.112666 140.441118 
" clip-path="url(#pfe85c7cdd4)" style="fill: none; stroke: #000000; stroke-width: 2.25; stroke-linecap: round"/>
   </g>
   <g id="line2d_17">
    <path d="M 110.69869 93.66951 
L 117.434264 180.960171 
L 124.169837 220.944688 
L 130.905411 196.769787 
L 137.640984 118.650797 
L 144.376558 83.684191 
L 151.112131 133.330384 
L 157.847705 204.441091 
L 164.583278 228.680054 
L 171.318852 163.383582 
L 178.054425 89.521196 
L 184.789999 87.035217 
L 191.525572 152.584985 
L 198.261146 231.82964 
L 204.996719 213.714839 
L 211.732293 123.467255 
L 218.467866 77.145331 
L 225.20344 120.284285 
L 231.939013 205.841601 
L 238.674587 234.293803 
L 245.41016 153.955245 
L 252.145734 89.650643 
L 258.881307 92.360665 
L 265.616881 159.180648 
L 272.352454 228.387067 
L 279.088028 217.310569 
L 285.823601 131.505369 
L 292.559175 84.239186 
L 299.294748 111.389987 
L 306.030322 188.75161 
L 312.765895 239.402099 
L 319.501469 171.578955 
L 326.237042 104.417117 
L 332.972616 85.014908 
L 339.708189 145.823454 
L 346.443763 225.809808 
L 353.179336 209.085409 
L 359.91491 140.504654 
L 366.650483 87.899805 
L 373.386057 102.054339 
L 380.12163 189.559244 
L 386.857204 233.301692 
L 393.592777 192.811741 
L 400.328351 108.471932 
L 407.063924 81.471346 
L 413.799498 144.868303 
L 420.535071 217.995298 
L 427.270645 229.192054 
L 434.006218 163.110699 
L 440.741792 85.363654 
" clip-path="url(#pfe85c7cdd4)" style="fill: none; stroke: #4c72b0; stroke-width: 2.25; stroke-linecap: round"/>
    <defs>
     <path id="m48159901c3" d="M 0 4.5 
C 1.193414 4.5 2.338109 4.025852 3.181981 3.181981 
C 4.025852 2.338109 4.5 1.193414 4.5 0 
C 4.5 -1.193414 4.025852 -2.338109 3.181981 -3.181981 
C 2.338109 -4.025852 1.193414 -4.5 0 -4.5 
C -1.193414 -4.5 -2.338109 -4.025852 -3.181981 -3.181981 
C -4.025852 -2.338109 -4.5 -1.193414 -4.5 0 
C -4.5 1.193414 -4.025852 2.338109 -3.181981 3.181981 
C -2.338109 4.025852 -1.193414 4.5 0 4.5 
z
" style="stroke: #ffffff; stroke-width: 0.75"/>
    </defs>
    <g clip-path="url(#pfe85c7cdd4)">
     <use xlink:href="#m48159901c3" x="110.69869" y="93.66951" style="fill: #4c72b0; stroke: #ffffff; stroke-width: 0.75"/>
     <use xlink:href="#m48159901c3" x="117.434264" y="180.960171" style="fill: #4c72b0; stroke: #ffffff; stroke-width: 0.75"/>
     <use xlink:href="#m48159901c3" x="124.169837" y="220.944688" style="fill: #4c72b0; stroke: #ffffff; stroke-width: 0.75"/>
     <use xlink:href="#m48159901c3" x="130.905411" y="196.769787" style="fill: #4c72b0; stroke: #ffffff; stroke-width: 0.75"/>
     <use xlink:href="#m48159901c3" x="137.640984" y="118.650797" style="fill: #4c72b0; stroke: #ffffff; stroke-width: 0.75"/>
     <use xlink:href="#m48159901c3" x="144.376558" y="83.684191" style="fill: #4c72b0; stroke: #ffffff; stroke-width: 0.75"/>
     <use xlink:href="#m48159901c3" x="151.112131" y="133.330384" style="fill: #4c72b0; stroke: #ffffff; stroke-width: 0.75"/>
     <use xlink:href="#m48159901c3" x="157.847705" y="204.441091" style="fill: #4c72b0; stroke: #ffffff; stroke-width: 0.75"/>
     <use xlink:href="#m48159901c3" x="164.583278" y="228.680054" style="fill: #4c72b0; stroke: #ffffff; stroke-width: 0.75"/>
     <use xlink:href="#m48159901c3" x="171.318852" y="163.383582" style="fill: #4c72b0; stroke: #ffffff; stroke-width: 0.75"/>
     <use xlink:href="#m48159901c3" x="178.054425" y="89.521196" style="fill: #4c72b0; stroke: #ffffff; stroke-width: 0.75"/>
     <use xlink:href="#m48159901c3" x="184.789999" y="87.035217" style="fill: #4c72b0; stroke: #ffffff; stroke-width: 0.75"/>
     <use xlink:href="#m48159901c3" x="191.525572" y="152.584985" style="fill: #4c72b0; stroke: #ffffff; stroke-width: 0.75"/>
     <use xlink:href="#m48159901c3" x="198.261146" y="231.82964" style="fill: #4c72b0; stroke: #ffffff; stroke-width: 0.75"/>
     <use xlink:href="#m48159901c3" x="204.996719" y="213.714839" style="fill: #4c72b0; stroke: #ffffff; stroke-width: 0.75"/>
     <use xlink:href="#m48159901c3" x="211.732293" y="123.467255" style="fill: #4c72b0; stroke: #ffffff; stroke-width: 0.75"/>
     <use xlink:href="#m48159901c3" x="218.467866" y="77.145331" style="fill: #4c72b0; stroke: #ffffff; stroke-width: 0.75"/>
     <use xlink:href="#m48159901c3" x="225.20344" y="120.284285" style="fill: #4c72b0; stroke: #ffffff; stroke-width: 0.75"/>
     <use xlink:href="#m48159901c3" x="231.939013" y="205.841601" style="fill: #4c72b0; stroke: #ffffff; stroke-width: 0.75"/>
     <use xlink:href="#m48159901c3" x="238.674587" y="234.293803" style="fill: #4c72b0; stroke: #ffffff; stroke-width: 0.75"/>
     <use xlink:href="#m48159901c3" x="245.41016" y="153.955245" style="fill: #4c72b0; stroke: #ffffff; stroke-width: 0.75"/>
     <use xlink:href="#m48159901c3" x="252.145734" y="89.650643" style="fill: #4c72b0; stroke: #ffffff; stroke-width: 0.75"/>
     <use xlink:href="#m48159901c3" x="258.881307" y="92.360665" style="fill: #4c72b0; stroke: #ffffff; stroke-width: 0.75"/>
     <use xlink:href="#m48159901c3" x="265.616881" y="159.180648" style="fill: #4c72b0; stroke: #ffffff; stroke-width: 0.75"/>
     <use xlink:href="#m48159901c3" x="272.352454" y="228.387067" style="fill: #4c72b0; stroke: #ffffff; stroke-width: 0.75"/>
     <use xlink:href="#m48159901c3" x="279.088028" y="217.310569" style="fill: #4c72b0; stroke: #ffffff; stroke-width: 0.75"/>
     <use xlink:href="#m48159901c3" x="285.823601" y="131.505369" style="fill: #4c72b0; stroke: #ffffff; stroke-width: 0.75"/>
     <use xlink:href="#m48159901c3" x="292.559175" y="84.239186" style="fill: #4c72b0; stroke: #ffffff; stroke-width: 0.75"/>
     <use xlink:href="#m48159901c3" x="299.294748" y="111.389987" style="fill: #4c72b0; stroke: #ffffff; stroke-width: 0.75"/>
     <use xlink:href="#m48159901c3" x="306.030322" y="188.75161" style="fill: #4c72b0; stroke: #ffffff; stroke-width: 0.75"/>
     <use xlink:href="#m48159901c3" x="312.765895" y="239.402099" style="fill: #4c72b0; stroke: #ffffff; stroke-width: 0.75"/>
     <use xlink:href="#m48159901c3" x="319.501469" y="171.578955" style="fill: #4c72b0; stroke: #ffffff; stroke-width: 0.75"/>
     <use xlink:href="#m48159901c3" x="326.237042" y="104.417117" style="fill: #4c72b0; stroke: #ffffff; stroke-width: 0.75"/>
     <use xlink:href="#m48159901c3" x="332.972616" y="85.014908" style="fill: #4c72b0; stroke: #ffffff; stroke-width: 0.75"/>
     <use xlink:href="#m48159901c3" x="339.708189" y="145.823454" style="fill: #4c72b0; stroke: #ffffff; stroke-width: 0.75"/>
     <use xlink:href="#m48159901c3" x="346.443763" y="225.809808" style="fill: #4c72b0; stroke: #ffffff; stroke-width: 0.75"/>
     <use xlink:href="#m48159901c3" x="353.179336" y="209.085409" style="fill: #4c72b0; stroke: #ffffff; stroke-width: 0.75"/>
     <use xlink:href="#m48159901c3" x="359.91491" y="140.504654" style="fill: #4c72b0; stroke: #ffffff; stroke-width: 0.75"/>
     <use xlink:href="#m48159901c3" x="366.650483" y="87.899805" style="fill: #4c72b0; stroke: #ffffff; stroke-width: 0.75"/>
     <use xlink:href="#m48159901c3" x="373.386057" y="102.054339" style="fill: #4c72b0; stroke: #ffffff; stroke-width: 0.75"/>
     <use xlink:href="#m48159901c3" x="380.12163" y="189.559244" style="fill: #4c72b0; stroke: #ffffff; stroke-width: 0.75"/>
     <use xlink:href="#m48159901c3" x="386.857204" y="233.301692" style="fill: #4c72b0; stroke: #ffffff; stroke-width: 0.75"/>
     <use xlink:href="#m48159901c3" x="393.592777" y="192.811741" style="fill: #4c72b0; stroke: #ffffff; stroke-width: 0.75"/>
     <use xlink:href="#m48159901c3" x="400.328351" y="108.471932" style="fill: #4c72b0; stroke: #ffffff; stroke-width: 0.75"/>
     <use xlink:href="#m48159901c3" x="407.063924" y="81.471346" style="fill: #4c72b0; stroke: #ffffff; stroke-width: 0.75"/>
     <use xlink:href="#m48159901c3" x="413.799498" y="144.868303" style="fill: #4c72b0; stroke: #ffffff; stroke-width: 0.75"/>
     <use xlink:href="#m48159901c3" x="420.535071" y="217.995298" style="fill: #4c72b0; stroke: #ffffff; stroke-width: 0.75"/>
     <use xlink:href="#m48159901c3" x="427.270645" y="229.192054" style="fill: #4c72b0; stroke: #ffffff; stroke-width: 0.75"/>
     <use xlink:href="#m48159901c3" x="434.006218" y="163.110699" style="fill: #4c72b0; stroke: #ffffff; stroke-width: 0.75"/>
     <use xlink:href="#m48159901c3" x="440.741792" y="85.363654" style="fill: #4c72b0; stroke: #ffffff; stroke-width: 0.75"/>
    </g>
   </g>
   <g id="line2d_18">
    <path d="M 447.477365 127.037703 
L 454.212939 152.712558 
L 460.948512 239.685884 
L 467.684086 202.57471 
L 474.419659 96.638107 
L 481.155233 94.598173 
L 487.890806 192.108809 
L 494.62638 211.706957 
L 501.361953 210.42316 
L 508.097527 81.867524 
L 514.8331 60.175373 
L 521.568674 86.560343 
L 528.304247 149.03597 
L 535.039821 241.499894 
L 541.775394 171.532669 
L 548.510968 77.822555 
L 555.246541 81.396825 
" clip-path="url(#pfe85c7cdd4)" style="fill: none; stroke: #dd8452; stroke-width: 2.25; stroke-linecap: round"/>
    <defs>
     <path id="m2882c9a345" d="M -2.25 4.5 
L 0 2.25 
L 2.25 4.5 
L 4.5 2.25 
L 2.25 0 
L 4.5 -2.25 
L 2.25 -4.5 
L 0 -2.25 
L -2.25 -4.5 
L -4.5 -2.25 
L -2.25 0 
L -4.5 2.25 
z
" style="stroke: #ffffff; stroke-width: 0.75; stroke-linejoin: miter"/>
    </defs>
    <g clip-path="url(#pfe85c7cdd4)">
     <use xlink:href="#m2882c9a345" x="447.477365" y="127.037703" style="fill: #dd8452; stroke: #ffffff; stroke-width: 0.75; stroke-linejoin: miter"/>
     <use xlink:href="#m2882c9a345" x="454.212939" y="152.712558" style="fill: #dd8452; stroke: #ffffff; stroke-width: 0.75; stroke-linejoin: miter"/>
     <use xlink:href="#m2882c9a345" x="460.948512" y="239.685884" style="fill: #dd8452; stroke: #ffffff; stroke-width: 0.75; stroke-linejoin: miter"/>
     <use xlink:href="#m2882c9a345" x="467.684086" y="202.57471" style="fill: #dd8452; stroke: #ffffff; stroke-width: 0.75; stroke-linejoin: miter"/>
     <use xlink:href="#m2882c9a345" x="474.419659" y="96.638107" style="fill: #dd8452; stroke: #ffffff; stroke-width: 0.75; stroke-linejoin: miter"/>
     <use xlink:href="#m2882c9a345" x="481.155233" y="94.598173" style="fill: #dd8452; stroke: #ffffff; stroke-width: 0.75; stroke-linejoin: miter"/>
     <use xlink:href="#m2882c9a345" x="487.890806" y="192.108809" style="fill: #dd8452; stroke: #ffffff; stroke-width: 0.75; stroke-linejoin: miter"/>
     <use xlink:href="#m2882c9a345" x="494.62638" y="211.706957" style="fill: #dd8452; stroke: #ffffff; stroke-width: 0.75; stroke-linejoin: miter"/>
     <use xlink:href="#m2882c9a345" x="501.361953" y="210.42316" style="fill: #dd8452; stroke: #ffffff; stroke-width: 0.75; stroke-linejoin: miter"/>
     <use xlink:href="#m2882c9a345" x="508.097527" y="81.867524" style="fill: #dd8452; stroke: #ffffff; stroke-width: 0.75; stroke-linejoin: miter"/>
     <use xlink:href="#m2882c9a345" x="514.8331" y="60.175373" style="fill: #dd8452; stroke: #ffffff; stroke-width: 0.75; stroke-linejoin: miter"/>
     <use xlink:href="#m2882c9a345" x="521.568674" y="86.560343" style="fill: #dd8452; stroke: #ffffff; stroke-width: 0.75; stroke-linejoin: miter"/>
     <use xlink:href="#m2882c9a345" x="528.304247" y="149.03597" style="fill: #dd8452; stroke: #ffffff; stroke-width: 0.75; stroke-linejoin: miter"/>
     <use xlink:href="#m2882c9a345" x="535.039821" y="241.499894" style="fill: #dd8452; stroke: #ffffff; stroke-width: 0.75; stroke-linejoin: miter"/>
     <use xlink:href="#m2882c9a345" x="541.775394" y="171.532669" style="fill: #dd8452; stroke: #ffffff; stroke-width: 0.75; stroke-linejoin: miter"/>
     <use xlink:href="#m2882c9a345" x="548.510968" y="77.822555" style="fill: #dd8452; stroke: #ffffff; stroke-width: 0.75; stroke-linejoin: miter"/>
     <use xlink:href="#m2882c9a345" x="555.246541" y="81.396825" style="fill: #dd8452; stroke: #ffffff; stroke-width: 0.75; stroke-linejoin: miter"/>
    </g>
   </g>
   <g id="line2d_19">
    <path d="M 561.982115 135.344512 
L 568.717688 221.094861 
L 575.453262 217.222747 
L 582.188835 124.374365 
L 588.924409 120.509742 
L 595.659982 91.22932 
L 602.395556 211.866582 
L 609.131129 259.125837 
L 615.866703 197.243623 
L 622.602276 62.128132 
L 629.33785 66.248981 
L 636.073423 143.860867 
L 642.808997 239.970046 
L 649.54457 232.98422 
L 656.280144 125.484564 
L 663.015717 33.181518 
L 669.751291 143.329586 
" clip-path="url(#pfe85c7cdd4)" style="fill: none; stroke: #55a868; stroke-width: 2.25; stroke-linecap: round"/>
    <defs>
     <path id="m7a9b252e3c" d="M -3.181981 -3.181981 
L -3.181981 3.181981 
L 3.181981 3.181981 
L 3.181981 -3.181981 
z
" style="stroke: #ffffff; stroke-width: 0.75; stroke-linejoin: miter"/>
    </defs>
    <g clip-path="url(#pfe85c7cdd4)">
     <use xlink:href="#m7a9b252e3c" x="561.982115" y="135.344512" style="fill: #55a868; stroke: #ffffff; stroke-width: 0.75; stroke-linejoin: miter"/>
     <use xlink:href="#m7a9b252e3c" x="568.717688" y="221.094861" style="fill: #55a868; stroke: #ffffff; stroke-width: 0.75; stroke-linejoin: miter"/>
     <use xlink:href="#m7a9b252e3c" x="575.453262" y="217.222747" style="fill: #55a868; stroke: #ffffff; stroke-width: 0.75; stroke-linejoin: miter"/>
     <use xlink:href="#m7a9b252e3c" x="582.188835" y="124.374365" style="fill: #55a868; stroke: #ffffff; stroke-width: 0.75; stroke-linejoin: miter"/>
     <use xlink:href="#m7a9b252e3c" x="588.924409" y="120.509742" style="fill: #55a868; stroke: #ffffff; stroke-width: 0.75; stroke-linejoin: miter"/>
     <use xlink:href="#m7a9b252e3c" x="595.659982" y="91.22932" style="fill: #55a868; stroke: #ffffff; stroke-width: 0.75; stroke-linejoin: miter"/>
     <use xlink:href="#m7a9b252e3c" x="602.395556" y="211.866582" style="fill: #55a868; stroke: #ffffff; stroke-width: 0.75; stroke-linejoin: miter"/>
     <use xlink:href="#m7a9b252e3c" x="609.131129" y="259.125837" style="fill: #55a868; stroke: #ffffff; stroke-width: 0.75; stroke-linejoin: miter"/>
     <use xlink:href="#m7a9b252e3c" x="615.866703" y="197.243623" style="fill: #55a868; stroke: #ffffff; stroke-width: 0.75; stroke-linejoin: miter"/>
     <use xlink:href="#m7a9b252e3c" x="622.602276" y="62.128132" style="fill: #55a868; stroke: #ffffff; stroke-width: 0.75; stroke-linejoin: miter"/>
     <use xlink:href="#m7a9b252e3c" x="629.33785" y="66.248981" style="fill: #55a868; stroke: #ffffff; stroke-width: 0.75; stroke-linejoin: miter"/>
     <use xlink:href="#m7a9b252e3c" x="636.073423" y="143.860867" style="fill: #55a868; stroke: #ffffff; stroke-width: 0.75; stroke-linejoin: miter"/>
     <use xlink:href="#m7a9b252e3c" x="642.808997" y="239.970046" style="fill: #55a868; stroke: #ffffff; stroke-width: 0.75; stroke-linejoin: miter"/>
     <use xlink:href="#m7a9b252e3c" x="649.54457" y="232.98422" style="fill: #55a868; stroke: #ffffff; stroke-width: 0.75; stroke-linejoin: miter"/>
     <use xlink:href="#m7a9b252e3c" x="656.280144" y="125.484564" style="fill: #55a868; stroke: #ffffff; stroke-width: 0.75; stroke-linejoin: miter"/>
     <use xlink:href="#m7a9b252e3c" x="663.015717" y="33.181518" style="fill: #55a868; stroke: #ffffff; stroke-width: 0.75; stroke-linejoin: miter"/>
     <use xlink:href="#m7a9b252e3c" x="669.751291" y="143.329586" style="fill: #55a868; stroke: #ffffff; stroke-width: 0.75; stroke-linejoin: miter"/>
    </g>
   </g>
   <g id="line2d_20"/>
   <g id="line2d_21"/>
   <g id="line2d_22"/>
   <g id="patch_3">
    <path d="M 68.283287 270.423053 
L 68.283287 21.884302 
" style="fill: none; stroke: #262626; stroke-width: 1.875; stroke-linejoin: miter; stroke-linecap: square"/>
   </g>
   <g id="patch_4">
    <path d="M 68.283287 270.423053 
L 705.056922 270.423053 
" style="fill: none; stroke: #262626; stroke-width: 1.875; stroke-linejoin: miter; stroke-linecap: square"/>
   </g>
   <g id="text_18">
    <!-- mins ahead = 9.0 -->
    <g style="fill: #262626" transform="translate(317.377136 15.884302) scale(0.18 -0.18)">
     <defs>
      <path id="ArialMT-73" d="M 197 991 
L 753 1078 
Q 800 744 1014 566 
Q 1228 388 1613 388 
Q 2000 388 2187 545 
Q 2375 703 2375 916 
Q 2375 1106 2209 1216 
Q 2094 1291 1634 1406 
Q 1016 1563 777 1677 
Q 538 1791 414 1992 
Q 291 2194 291 2438 
Q 291 2659 392 2848 
Q 494 3038 669 3163 
Q 800 3259 1026 3326 
Q 1253 3394 1513 3394 
Q 1903 3394 2198 3281 
Q 2494 3169 2634 2976 
Q 2775 2784 2828 2463 
L 2278 2388 
Q 2241 2644 2061 2787 
Q 1881 2931 1553 2931 
Q 1166 2931 1000 2803 
Q 834 2675 834 2503 
Q 834 2394 903 2306 
Q 972 2216 1119 2156 
Q 1203 2125 1616 2013 
Q 2213 1853 2448 1751 
Q 2684 1650 2818 1456 
Q 2953 1263 2953 975 
Q 2953 694 2789 445 
Q 2625 197 2315 61 
Q 2006 -75 1616 -75 
Q 969 -75 630 194 
Q 291 463 197 991 
z
" transform="scale(0.015625)"/>
      <path id="ArialMT-68" d="M 422 0 
L 422 4581 
L 984 4581 
L 984 2938 
Q 1378 3394 1978 3394 
Q 2347 3394 2619 3248 
Q 2891 3103 3008 2847 
Q 3125 2591 3125 2103 
L 3125 0 
L 2563 0 
L 2563 2103 
Q 2563 2525 2380 2717 
Q 2197 2909 1863 2909 
Q 1613 2909 1392 2779 
Q 1172 2650 1078 2428 
Q 984 2206 984 1816 
L 984 0 
L 422 0 
z
" transform="scale(0.015625)"/>
      <path id="ArialMT-64" d="M 2575 0 
L 2575 419 
Q 2259 -75 1647 -75 
Q 1250 -75 917 144 
Q 584 363 401 755 
Q 219 1147 219 1656 
Q 219 2153 384 2558 
Q 550 2963 881 3178 
Q 1213 3394 1622 3394 
Q 1922 3394 2156 3267 
Q 2391 3141 2538 2938 
L 2538 4581 
L 3097 4581 
L 3097 0 
L 2575 0 
z
M 797 1656 
Q 797 1019 1065 703 
Q 1334 388 1700 388 
Q 2069 388 2326 689 
Q 2584 991 2584 1609 
Q 2584 2291 2321 2609 
Q 2059 2928 1675 2928 
Q 1300 2928 1048 2622 
Q 797 2316 797 1656 
z
" transform="scale(0.015625)"/>
      <path id="ArialMT-3d" d="M 3381 2694 
L 356 2694 
L 356 3219 
L 3381 3219 
L 3381 2694 
z
M 3381 1303 
L 356 1303 
L 356 1828 
L 3381 1828 
L 3381 1303 
z
" transform="scale(0.015625)"/>
      <path id="ArialMT-39" d="M 350 1059 
L 891 1109 
Q 959 728 1153 556 
Q 1347 384 1650 384 
Q 1909 384 2104 503 
Q 2300 622 2425 820 
Q 2550 1019 2634 1356 
Q 2719 1694 2719 2044 
Q 2719 2081 2716 2156 
Q 2547 1888 2255 1720 
Q 1963 1553 1622 1553 
Q 1053 1553 659 1965 
Q 266 2378 266 3053 
Q 266 3750 677 4175 
Q 1088 4600 1706 4600 
Q 2153 4600 2523 4359 
Q 2894 4119 3086 3673 
Q 3278 3228 3278 2384 
Q 3278 1506 3087 986 
Q 2897 466 2520 194 
Q 2144 -78 1638 -78 
Q 1100 -78 759 220 
Q 419 519 350 1059 
z
M 2653 3081 
Q 2653 3566 2395 3850 
Q 2138 4134 1775 4134 
Q 1400 4134 1122 3828 
Q 844 3522 844 3034 
Q 844 2597 1108 2323 
Q 1372 2050 1759 2050 
Q 2150 2050 2401 2323 
Q 2653 2597 2653 3081 
z
" transform="scale(0.015625)"/>
     </defs>
     <use xlink:href="#ArialMT-6d"/>
     <use xlink:href="#ArialMT-69" transform="translate(83.300781 0)"/>
     <use xlink:href="#ArialMT-6e" transform="translate(105.517578 0)"/>
     <use xlink:href="#ArialMT-73" transform="translate(161.132812 0)"/>
     <use xlink:href="#ArialMT-20" transform="translate(211.132812 0)"/>
     <use xlink:href="#ArialMT-61" transform="translate(238.916016 0)"/>
     <use xlink:href="#ArialMT-68" transform="translate(294.53125 0)"/>
     <use xlink:href="#ArialMT-65" transform="translate(350.146484 0)"/>
     <use xlink:href="#ArialMT-61" transform="translate(405.761719 0)"/>
     <use xlink:href="#ArialMT-64" transform="translate(461.376953 0)"/>
     <use xlink:href="#ArialMT-20" transform="translate(516.992188 0)"/>
     <use xlink:href="#ArialMT-3d" transform="translate(544.775391 0)"/>
     <use xlink:href="#ArialMT-20" transform="translate(603.173828 0)"/>
     <use xlink:href="#ArialMT-39" transform="translate(630.957031 0)"/>
     <use xlink:href="#ArialMT-2e" transform="translate(686.572266 0)"/>
     <use xlink:href="#ArialMT-30" transform="translate(714.355469 0)"/>
    </g>
   </g>
   <g id="legend_1">
    <g id="patch_5">
     <path d="M 79.833287 129.815162 
L 202.343209 129.815162 
Q 205.643209 129.815162 205.643209 126.515162 
L 205.643209 33.434302 
Q 205.643209 30.134302 202.343209 30.134302 
L 79.833287 30.134302 
Q 76.533287 30.134302 76.533287 33.434302 
L 76.533287 126.515162 
Q 76.533287 129.815162 79.833287 129.815162 
z
" style="fill: #ffffff; opacity: 0.8; stroke: #cccccc; stroke-width: 1.5; stroke-linejoin: miter"/>
    </g>
    <g id="text_19">
     <!-- dataset -->
     <g style="fill: #262626" transform="translate(111.568248 49.618365) scale(0.18 -0.18)">
      <defs>
       <path id="ArialMT-74" d="M 1650 503 
L 1731 6 
Q 1494 -44 1306 -44 
Q 1000 -44 831 53 
Q 663 150 594 308 
Q 525 466 525 972 
L 525 2881 
L 113 2881 
L 113 3319 
L 525 3319 
L 525 4141 
L 1084 4478 
L 1084 3319 
L 1650 3319 
L 1650 2881 
L 1084 2881 
L 1084 941 
Q 1084 700 1114 631 
Q 1144 563 1211 522 
Q 1278 481 1403 481 
Q 1497 481 1650 503 
z
" transform="scale(0.015625)"/>
      </defs>
      <use xlink:href="#ArialMT-64"/>
      <use xlink:href="#ArialMT-61" transform="translate(55.615234 0)"/>
      <use xlink:href="#ArialMT-74" transform="translate(111.230469 0)"/>
      <use xlink:href="#ArialMT-61" transform="translate(139.013672 0)"/>
      <use xlink:href="#ArialMT-73" transform="translate(194.628906 0)"/>
      <use xlink:href="#ArialMT-65" transform="translate(244.628906 0)"/>
      <use xlink:href="#ArialMT-74" transform="translate(300.244141 0)"/>
     </g>
    </g>
    <g id="line2d_23">
     <path d="M 83.133287 67.481256 
L 99.633287 67.481256 
L 116.133287 67.481256 
" style="fill: none; stroke: #4c72b0; stroke-width: 2.25; stroke-linecap: round"/>
     <g>
      <use xlink:href="#m48159901c3" x="99.633287" y="67.481256" style="fill: #4c72b0; stroke: #ffffff; stroke-width: 0.75"/>
     </g>
    </g>
    <g id="text_20">
     <!-- train -->
     <g style="fill: #262626" transform="translate(129.333287 73.256256) scale(0.165 -0.165)">
      <defs>
       <path id="ArialMT-72" d="M 416 0 
L 416 3319 
L 922 3319 
L 922 2816 
Q 1116 3169 1280 3281 
Q 1444 3394 1641 3394 
Q 1925 3394 2219 3213 
L 2025 2691 
Q 1819 2813 1613 2813 
Q 1428 2813 1281 2702 
Q 1134 2591 1072 2394 
Q 978 2094 978 1738 
L 978 0 
L 416 0 
z
" transform="scale(0.015625)"/>
      </defs>
      <use xlink:href="#ArialMT-74"/>
      <use xlink:href="#ArialMT-72" transform="translate(27.783203 0)"/>
      <use xlink:href="#ArialMT-61" transform="translate(61.083984 0)"/>
      <use xlink:href="#ArialMT-69" transform="translate(116.699219 0)"/>
      <use xlink:href="#ArialMT-6e" transform="translate(138.916016 0)"/>
     </g>
    </g>
    <g id="line2d_24">
     <path d="M 83.133287 90.821021 
L 99.633287 90.821021 
L 116.133287 90.821021 
" style="fill: none; stroke: #dd8452; stroke-width: 2.25; stroke-linecap: round"/>
     <g>
      <use xlink:href="#m2882c9a345" x="99.633287" y="90.821021" style="fill: #dd8452; stroke: #ffffff; stroke-width: 0.75; stroke-linejoin: miter"/>
     </g>
    </g>
    <g id="text_21">
     <!-- validation -->
     <g style="fill: #262626" transform="translate(129.333287 96.596021) scale(0.165 -0.165)">
      <defs>
       <path id="ArialMT-6f" d="M 213 1659 
Q 213 2581 725 3025 
Q 1153 3394 1769 3394 
Q 2453 3394 2887 2945 
Q 3322 2497 3322 1706 
Q 3322 1066 3130 698 
Q 2938 331 2570 128 
Q 2203 -75 1769 -75 
Q 1072 -75 642 372 
Q 213 819 213 1659 
z
M 791 1659 
Q 791 1022 1069 705 
Q 1347 388 1769 388 
Q 2188 388 2466 706 
Q 2744 1025 2744 1678 
Q 2744 2294 2464 2611 
Q 2184 2928 1769 2928 
Q 1347 2928 1069 2612 
Q 791 2297 791 1659 
z
" transform="scale(0.015625)"/>
      </defs>
      <use xlink:href="#ArialMT-76"/>
      <use xlink:href="#ArialMT-61" transform="translate(50 0)"/>
      <use xlink:href="#ArialMT-6c" transform="translate(105.615234 0)"/>
      <use xlink:href="#ArialMT-69" transform="translate(127.832031 0)"/>
      <use xlink:href="#ArialMT-64" transform="translate(150.048828 0)"/>
      <use xlink:href="#ArialMT-61" transform="translate(205.664062 0)"/>
      <use xlink:href="#ArialMT-74" transform="translate(261.279297 0)"/>
      <use xlink:href="#ArialMT-69" transform="translate(289.0625 0)"/>
      <use xlink:href="#ArialMT-6f" transform="translate(311.279297 0)"/>
      <use xlink:href="#ArialMT-6e" transform="translate(366.894531 0)"/>
     </g>
    </g>
    <g id="line2d_25">
     <path d="M 83.133287 114.160787 
L 99.633287 114.160787 
L 116.133287 114.160787 
" style="fill: none; stroke: #55a868; stroke-width: 2.25; stroke-linecap: round"/>
     <g>
      <use xlink:href="#m7a9b252e3c" x="99.633287" y="114.160787" style="fill: #55a868; stroke: #ffffff; stroke-width: 0.75; stroke-linejoin: miter"/>
     </g>
    </g>
    <g id="text_22">
     <!-- test -->
     <g style="fill: #262626" transform="translate(129.333287 119.935787) scale(0.165 -0.165)">
      <use xlink:href="#ArialMT-74"/>
      <use xlink:href="#ArialMT-65" transform="translate(27.783203 0)"/>
      <use xlink:href="#ArialMT-73" transform="translate(83.398438 0)"/>
      <use xlink:href="#ArialMT-74" transform="translate(133.398438 0)"/>
     </g>
    </g>
   </g>
  </g>
  <g id="axes_2">
   <g id="patch_6">
    <path d="M 68.283287 380.518119 
L 705.056922 380.518119 
L 705.056922 330.810369 
L 68.283287 330.810369 
z
" style="fill: #ffffff"/>
   </g>
   <g id="matplotlib.axis_3">
    <g id="xtick_10">
     <g id="line2d_26">
      <g>
       <use xlink:href="#m296616f9f7" x="83.278504" y="380.518119" style="fill: #262626; stroke: #262626; stroke-width: 1.875"/>
      </g>
     </g>
     <g id="text_23">
      <!-- 0 -->
      <g style="fill: #262626" transform="translate(78.69073 404.82851) scale(0.165 -0.165)">
       <use xlink:href="#ArialMT-30"/>
      </g>
     </g>
    </g>
    <g id="xtick_11">
     <g id="line2d_27">
      <g>
       <use xlink:href="#m296616f9f7" x="160.773166" y="380.518119" style="fill: #262626; stroke: #262626; stroke-width: 1.875"/>
      </g>
     </g>
     <g id="text_24">
      <!-- 50 -->
      <g style="fill: #262626" transform="translate(151.597619 404.82851) scale(0.165 -0.165)">
       <use xlink:href="#ArialMT-35"/>
       <use xlink:href="#ArialMT-30" transform="translate(55.615234 0)"/>
      </g>
     </g>
    </g>
    <g id="xtick_12">
     <g id="line2d_28">
      <g>
       <use xlink:href="#m296616f9f7" x="238.267827" y="380.518119" style="fill: #262626; stroke: #262626; stroke-width: 1.875"/>
      </g>
     </g>
     <g id="text_25">
      <!-- 100 -->
      <g style="fill: #262626" transform="translate(224.504507 404.82851) scale(0.165 -0.165)">
       <use xlink:href="#ArialMT-31"/>
       <use xlink:href="#ArialMT-30" transform="translate(55.615234 0)"/>
       <use xlink:href="#ArialMT-30" transform="translate(111.230469 0)"/>
      </g>
     </g>
    </g>
    <g id="xtick_13">
     <g id="line2d_29">
      <g>
       <use xlink:href="#m296616f9f7" x="315.762489" y="380.518119" style="fill: #262626; stroke: #262626; stroke-width: 1.875"/>
      </g>
     </g>
     <g id="text_26">
      <!-- 150 -->
      <g style="fill: #262626" transform="translate(301.999169 404.82851) scale(0.165 -0.165)">
       <use xlink:href="#ArialMT-31"/>
       <use xlink:href="#ArialMT-35" transform="translate(55.615234 0)"/>
       <use xlink:href="#ArialMT-30" transform="translate(111.230469 0)"/>
      </g>
     </g>
    </g>
    <g id="xtick_14">
     <g id="line2d_30">
      <g>
       <use xlink:href="#m296616f9f7" x="393.257151" y="380.518119" style="fill: #262626; stroke: #262626; stroke-width: 1.875"/>
      </g>
     </g>
     <g id="text_27">
      <!-- 200 -->
      <g style="fill: #262626" transform="translate(379.49383 404.82851) scale(0.165 -0.165)">
       <use xlink:href="#ArialMT-32"/>
       <use xlink:href="#ArialMT-30" transform="translate(55.615234 0)"/>
       <use xlink:href="#ArialMT-30" transform="translate(111.230469 0)"/>
      </g>
     </g>
    </g>
    <g id="xtick_15">
     <g id="line2d_31">
      <g>
       <use xlink:href="#m296616f9f7" x="470.751812" y="380.518119" style="fill: #262626; stroke: #262626; stroke-width: 1.875"/>
      </g>
     </g>
     <g id="text_28">
      <!-- 250 -->
      <g style="fill: #262626" transform="translate(456.988492 404.82851) scale(0.165 -0.165)">
       <use xlink:href="#ArialMT-32"/>
       <use xlink:href="#ArialMT-35" transform="translate(55.615234 0)"/>
       <use xlink:href="#ArialMT-30" transform="translate(111.230469 0)"/>
      </g>
     </g>
    </g>
    <g id="xtick_16">
     <g id="line2d_32">
      <g>
       <use xlink:href="#m296616f9f7" x="548.246474" y="380.518119" style="fill: #262626; stroke: #262626; stroke-width: 1.875"/>
      </g>
     </g>
     <g id="text_29">
      <!-- 300 -->
      <g style="fill: #262626" transform="translate(534.483154 404.82851) scale(0.165 -0.165)">
       <use xlink:href="#ArialMT-33"/>
       <use xlink:href="#ArialMT-30" transform="translate(55.615234 0)"/>
       <use xlink:href="#ArialMT-30" transform="translate(111.230469 0)"/>
      </g>
     </g>
    </g>
    <g id="xtick_17">
     <g id="line2d_33">
      <g>
       <use xlink:href="#m296616f9f7" x="625.741136" y="380.518119" style="fill: #262626; stroke: #262626; stroke-width: 1.875"/>
      </g>
     </g>
     <g id="text_30">
      <!-- 350 -->
      <g style="fill: #262626" transform="translate(611.977815 404.82851) scale(0.165 -0.165)">
       <use xlink:href="#ArialMT-33"/>
       <use xlink:href="#ArialMT-35" transform="translate(55.615234 0)"/>
       <use xlink:href="#ArialMT-30" transform="translate(111.230469 0)"/>
      </g>
     </g>
    </g>
    <g id="xtick_18">
     <g id="line2d_34">
      <g>
       <use xlink:href="#m296616f9f7" x="703.235797" y="380.518119" style="fill: #262626; stroke: #262626; stroke-width: 1.875"/>
      </g>
     </g>
     <g id="text_31">
      <!-- 400 -->
      <g style="fill: #262626" transform="translate(689.472477 404.82851) scale(0.165 -0.165)">
       <use xlink:href="#ArialMT-34"/>
       <use xlink:href="#ArialMT-30" transform="translate(55.615234 0)"/>
       <use xlink:href="#ArialMT-30" transform="translate(111.230469 0)"/>
      </g>
     </g>
    </g>
    <g id="text_32">
     <!-- predict time (min) -->
     <g style="fill: #262626" transform="translate(317.161979 425.211322) scale(0.18 -0.18)">
      <defs>
       <path id="ArialMT-70" d="M 422 -1272 
L 422 3319 
L 934 3319 
L 934 2888 
Q 1116 3141 1344 3267 
Q 1572 3394 1897 3394 
Q 2322 3394 2647 3175 
Q 2972 2956 3137 2557 
Q 3303 2159 3303 1684 
Q 3303 1175 3120 767 
Q 2938 359 2589 142 
Q 2241 -75 1856 -75 
Q 1575 -75 1351 44 
Q 1128 163 984 344 
L 984 -1272 
L 422 -1272 
z
M 931 1641 
Q 931 1000 1190 694 
Q 1450 388 1819 388 
Q 2194 388 2461 705 
Q 2728 1022 2728 1688 
Q 2728 2322 2467 2637 
Q 2206 2953 1844 2953 
Q 1484 2953 1207 2617 
Q 931 2281 931 1641 
z
" transform="scale(0.015625)"/>
       <path id="ArialMT-63" d="M 2588 1216 
L 3141 1144 
Q 3050 572 2676 248 
Q 2303 -75 1759 -75 
Q 1078 -75 664 370 
Q 250 816 250 1647 
Q 250 2184 428 2587 
Q 606 2991 970 3192 
Q 1334 3394 1763 3394 
Q 2303 3394 2647 3120 
Q 2991 2847 3088 2344 
L 2541 2259 
Q 2463 2594 2264 2762 
Q 2066 2931 1784 2931 
Q 1359 2931 1093 2626 
Q 828 2322 828 1663 
Q 828 994 1084 691 
Q 1341 388 1753 388 
Q 2084 388 2306 591 
Q 2528 794 2588 1216 
z
" transform="scale(0.015625)"/>
      </defs>
      <use xlink:href="#ArialMT-70"/>
      <use xlink:href="#ArialMT-72" transform="translate(55.615234 0)"/>
      <use xlink:href="#ArialMT-65" transform="translate(88.916016 0)"/>
      <use xlink:href="#ArialMT-64" transform="translate(144.53125 0)"/>
      <use xlink:href="#ArialMT-69" transform="translate(200.146484 0)"/>
      <use xlink:href="#ArialMT-63" transform="translate(222.363281 0)"/>
      <use xlink:href="#ArialMT-74" transform="translate(272.363281 0)"/>
      <use xlink:href="#ArialMT-20" transform="translate(300.146484 0)"/>
      <use xlink:href="#ArialMT-74" transform="translate(327.929688 0)"/>
      <use xlink:href="#ArialMT-69" transform="translate(355.712891 0)"/>
      <use xlink:href="#ArialMT-6d" transform="translate(377.929688 0)"/>
      <use xlink:href="#ArialMT-65" transform="translate(461.230469 0)"/>
      <use xlink:href="#ArialMT-20" transform="translate(516.845703 0)"/>
      <use xlink:href="#ArialMT-28" transform="translate(544.628906 0)"/>
      <use xlink:href="#ArialMT-6d" transform="translate(577.929688 0)"/>
      <use xlink:href="#ArialMT-69" transform="translate(661.230469 0)"/>
      <use xlink:href="#ArialMT-6e" transform="translate(683.447266 0)"/>
      <use xlink:href="#ArialMT-29" transform="translate(739.0625 0)"/>
     </g>
    </g>
   </g>
   <g id="matplotlib.axis_4">
    <g id="ytick_7">
     <g id="line2d_35">
      <g>
       <use xlink:href="#mbb900905f1" x="68.283287" y="380.518119" style="fill: #262626; stroke: #262626; stroke-width: 1.875"/>
      </g>
     </g>
     <g id="text_33">
      <!-- 0 -->
      <g style="fill: #262626" transform="translate(46.60774 386.423315) scale(0.165 -0.165)">
       <use xlink:href="#ArialMT-30"/>
      </g>
     </g>
    </g>
    <g id="ytick_8">
     <g id="line2d_36">
      <g>
       <use xlink:href="#mbb900905f1" x="68.283287" y="330.810369" style="fill: #262626; stroke: #262626; stroke-width: 1.875"/>
      </g>
     </g>
     <g id="text_34">
      <!-- 1 -->
      <g style="fill: #262626" transform="translate(46.60774 336.715565) scale(0.165 -0.165)">
       <use xlink:href="#ArialMT-31"/>
      </g>
     </g>
    </g>
    <g id="text_35">
     <!-- Error -->
     <g style="fill: #262626" transform="translate(39.03024 375.662526) rotate(-90) scale(0.18 -0.18)">
      <defs>
       <path id="ArialMT-45" d="M 506 0 
L 506 4581 
L 3819 4581 
L 3819 4041 
L 1113 4041 
L 1113 2638 
L 3647 2638 
L 3647 2100 
L 1113 2100 
L 1113 541 
L 3925 541 
L 3925 0 
L 506 0 
z
" transform="scale(0.015625)"/>
      </defs>
      <use xlink:href="#ArialMT-45"/>
      <use xlink:href="#ArialMT-72" transform="translate(66.699219 0)"/>
      <use xlink:href="#ArialMT-72" transform="translate(100 0)"/>
      <use xlink:href="#ArialMT-6f" transform="translate(133.300781 0)"/>
      <use xlink:href="#ArialMT-72" transform="translate(188.916016 0)"/>
     </g>
    </g>
   </g>
   <g id="FillBetweenPolyCollection_5"/>
   <g id="FillBetweenPolyCollection_6"/>
   <g id="FillBetweenPolyCollection_7"/>
   <g id="line2d_37">
    <path d="M 68.283287 355.664244 
L 705.056922 355.664244 
" clip-path="url(#pa52f3aaf50)" style="fill: none; stroke-dasharray: 3.7,1.6; stroke-dashoffset: 0; stroke: #808080"/>
   </g>
   <g id="line2d_38">
    <path d="M 97.227543 380.495516 
L 104.202063 378.820147 
L 111.176582 376.354007 
L 118.151102 378.679533 
L 125.125621 379.943447 
L 132.100141 377.930243 
L 139.07466 378.225912 
L 146.04918 378.64802 
L 153.023699 379.523427 
L 159.998219 379.84403 
L 166.972739 379.944365 
L 173.947258 380.322746 
L 180.921778 376.503095 
L 187.896297 380.497865 
L 194.870817 379.51905 
L 201.845336 379.758812 
L 208.819856 379.953275 
L 215.794375 379.438069 
L 222.768895 379.550013 
L 229.743414 380.484038 
L 236.717934 373.861143 
L 243.692454 379.297342 
L 250.666973 377.562236 
L 257.641493 379.377521 
L 264.616012 380.454477 
L 271.590532 380.493066 
L 278.565051 379.277279 
L 285.539571 378.149722 
L 292.51409 379.554546 
L 299.48861 378.834116 
L 306.46313 379.362952 
L 313.437649 376.345259 
L 320.412169 379.306948 
L 327.386688 378.685929 
L 334.361208 380.395035 
L 341.335727 379.748207 
L 348.310247 376.113735 
L 355.284766 378.995641 
L 362.259286 377.793382 
L 369.233805 380.037958 
L 376.208325 379.128128 
L 383.182845 379.785906 
L 390.157364 380.090264 
L 397.131884 380.457351 
L 404.106403 379.006053 
L 411.080923 377.624654 
L 418.055442 380.331327 
L 425.029962 380.205425 
L 432.004481 378.161618 
L 438.979001 379.727013 
" clip-path="url(#pa52f3aaf50)" style="fill: none; stroke: #4c72b0; stroke-width: 2.25; stroke-linecap: round"/>
   </g>
   <g id="line2d_39">
    <path d="M 445.95352 370.171861 
L 452.92804 373.476673 
L 459.90256 378.883966 
L 466.877079 380.475495 
L 473.851599 374.282371 
L 480.826118 374.553609 
L 487.800638 360.040685 
L 494.775157 380.14026 
L 501.749677 373.874998 
L 508.724196 354.624096 
L 515.698716 372.012684 
L 522.673236 380.175826 
L 529.647755 375.405079 
L 536.622275 377.546532 
L 543.596794 368.466613 
L 550.571314 365.636977 
L 557.545833 378.637922 
" clip-path="url(#pa52f3aaf50)" style="fill: none; stroke: #dd8452; stroke-width: 2.25; stroke-linecap: round"/>
   </g>
   <g id="line2d_40">
    <path d="M 564.520353 374.778644 
L 571.494872 374.830866 
L 578.469392 375.202491 
L 585.443911 364.709231 
L 592.418431 372.191522 
L 599.392951 377.912258 
L 606.36747 363.077226 
L 613.34199 370.944329 
L 620.316509 374.284632 
L 627.291029 357.812927 
L 634.265548 377.320598 
L 641.240068 369.508507 
L 648.214587 366.355851 
L 655.189107 379.687684 
L 662.163627 362.084296 
L 669.138146 359.689988 
L 676.112666 360.644179 
" clip-path="url(#pa52f3aaf50)" style="fill: none; stroke: #55a868; stroke-width: 2.25; stroke-linecap: round"/>
   </g>
   <g id="patch_7">
    <path d="M 68.283287 380.518119 
L 68.283287 330.810369 
" style="fill: none; stroke: #262626; stroke-width: 1.875; stroke-linejoin: miter; stroke-linecap: square"/>
   </g>
   <g id="patch_8">
    <path d="M 68.283287 380.518119 
L 705.056922 380.518119 
" style="fill: none; stroke: #262626; stroke-width: 1.875; stroke-linejoin: miter; stroke-linecap: square"/>
   </g>
  </g>
 </g>
 <defs>
  <clipPath id="pfe85c7cdd4">
   <rect x="68.283287" y="21.884302" width="636.773635" height="248.538751"/>
  </clipPath>
  <clipPath id="pa52f3aaf50">
   <rect x="68.283287" y="330.810369" width="636.773635" height="49.70775"/>
  </clipPath>
 </defs>
</svg>
