<?xml version="1.0" encoding="utf-8" standalone="no"?>
<!DOCTYPE svg PUBLIC "-//W3C//DTD SVG 1.1//EN"
  "http://www.w3.org/Graphics/SVG/1.1/DTD/svg11.dtd">
<svg xmlns:xlink="http://www.w3.org/1999/xlink" width="720pt" height="432pt" viewBox="0 0 720 432" xmlns="http://www.w3.org/2000/svg" version="1.1">
 <metadata>
  <rdf:RDF xmlns:dc="http://purl.org/dc/elements/1.1/" xmlns:cc="http://creativecommons.org/ns#" xmlns:rdf="http://www.w3.org/1999/02/22-rdf-syntax-ns#">
   <cc:Work>
    <dc:type rdf:resource="http://purl.org/dc/dcmitype/StillImage"/>
    <dc:date>2025-05-28T17:46:06.867845</dc:date>
    <dc:format>image/svg+xml</dc:format>
    <dc:creator>
     <cc:Agent>
      <dc:title>Matplotlib v3.10.0, https://matplotlib.org/</dc:title>
     </cc:Agent>
    </dc:creator>
   </cc:Work>
  </rdf:RDF>
 </metadata>
 <defs>
  <style type="text/css">*{stroke-linejoin: round; stroke-linecap: butt}</style>
 </defs>
 <g id="figure_1">
  <g id="patch_1">
   <path d="M 0 432 
L 720 432 
L 720 0 
L 0 0 
z
" style="fill: #ffffff"/>
  </g>
  <g id="axes_1">
   <g id="patch_2">
    <path d="M 59.10774 270.423053 
L 704.402981 270.423053 
L 704.402981 21.884302 
L 59.10774 21.884302 
z
" style="fill: #ffffff"/>
   </g>
   <g id="matplotlib.axis_1">
    <g id="xtick_1">
     <g id="line2d_1">
      <defs>
       <path id="md29b7c0543" d="M 0 0 
L 0 9 
" style="stroke: #262626; stroke-width: 1.875"/>
      </defs>
      <g>
       <use xlink:href="#md29b7c0543" x="88.439342" y="270.423053" style="fill: #262626; stroke: #262626; stroke-width: 1.875"/>
      </g>
     </g>
     <g id="text_1">
      <!-- 0 -->
      <g style="fill: #262626" transform="translate(83.851568 294.733444) scale(0.165 -0.165)">
       <defs>
        <path id="ArialMT-30" d="M 266 2259 
Q 266 3072 433 3567 
Q 600 4063 929 4331 
Q 1259 4600 1759 4600 
Q 2128 4600 2406 4451 
Q 2684 4303 2865 4023 
Q 3047 3744 3150 3342 
Q 3253 2941 3253 2259 
Q 3253 1453 3087 958 
Q 2922 463 2592 192 
Q 2263 -78 1759 -78 
Q 1097 -78 719 397 
Q 266 969 266 2259 
z
M 844 2259 
Q 844 1131 1108 757 
Q 1372 384 1759 384 
Q 2147 384 2411 759 
Q 2675 1134 2675 2259 
Q 2675 3391 2411 3762 
Q 2147 4134 1753 4134 
Q 1366 4134 1134 3806 
Q 844 3388 844 2259 
z
" transform="scale(0.015625)"/>
       </defs>
       <use xlink:href="#ArialMT-30"/>
      </g>
     </g>
    </g>
    <g id="xtick_2">
     <g id="line2d_2">
      <g>
       <use xlink:href="#md29b7c0543" x="164.280588" y="270.423053" style="fill: #262626; stroke: #262626; stroke-width: 1.875"/>
      </g>
     </g>
     <g id="text_2">
      <!-- 50 -->
      <g style="fill: #262626" transform="translate(155.105041 294.733444) scale(0.165 -0.165)">
       <defs>
        <path id="ArialMT-35" d="M 266 1200 
L 856 1250 
Q 922 819 1161 601 
Q 1400 384 1738 384 
Q 2144 384 2425 690 
Q 2706 997 2706 1503 
Q 2706 1984 2436 2262 
Q 2166 2541 1728 2541 
Q 1456 2541 1237 2417 
Q 1019 2294 894 2097 
L 366 2166 
L 809 4519 
L 3088 4519 
L 3088 3981 
L 1259 3981 
L 1013 2750 
Q 1425 3038 1878 3038 
Q 2478 3038 2890 2622 
Q 3303 2206 3303 1553 
Q 3303 931 2941 478 
Q 2500 -78 1738 -78 
Q 1113 -78 717 272 
Q 322 622 266 1200 
z
" transform="scale(0.015625)"/>
       </defs>
       <use xlink:href="#ArialMT-35"/>
       <use xlink:href="#ArialMT-30" transform="translate(55.615234 0)"/>
      </g>
     </g>
    </g>
    <g id="xtick_3">
     <g id="line2d_3">
      <g>
       <use xlink:href="#md29b7c0543" x="240.121834" y="270.423053" style="fill: #262626; stroke: #262626; stroke-width: 1.875"/>
      </g>
     </g>
     <g id="text_3">
      <!-- 100 -->
      <g style="fill: #262626" transform="translate(226.358513 294.733444) scale(0.165 -0.165)">
       <defs>
        <path id="ArialMT-31" d="M 2384 0 
L 1822 0 
L 1822 3584 
Q 1619 3391 1289 3197 
Q 959 3003 697 2906 
L 697 3450 
Q 1169 3672 1522 3987 
Q 1875 4303 2022 4600 
L 2384 4600 
L 2384 0 
z
" transform="scale(0.015625)"/>
       </defs>
       <use xlink:href="#ArialMT-31"/>
       <use xlink:href="#ArialMT-30" transform="translate(55.615234 0)"/>
       <use xlink:href="#ArialMT-30" transform="translate(111.230469 0)"/>
      </g>
     </g>
    </g>
    <g id="xtick_4">
     <g id="line2d_4">
      <g>
       <use xlink:href="#md29b7c0543" x="315.96308" y="270.423053" style="fill: #262626; stroke: #262626; stroke-width: 1.875"/>
      </g>
     </g>
     <g id="text_4">
      <!-- 150 -->
      <g style="fill: #262626" transform="translate(302.199759 294.733444) scale(0.165 -0.165)">
       <use xlink:href="#ArialMT-31"/>
       <use xlink:href="#ArialMT-35" transform="translate(55.615234 0)"/>
       <use xlink:href="#ArialMT-30" transform="translate(111.230469 0)"/>
      </g>
     </g>
    </g>
    <g id="xtick_5">
     <g id="line2d_5">
      <g>
       <use xlink:href="#md29b7c0543" x="391.804326" y="270.423053" style="fill: #262626; stroke: #262626; stroke-width: 1.875"/>
      </g>
     </g>
     <g id="text_5">
      <!-- 200 -->
      <g style="fill: #262626" transform="translate(378.041005 294.733444) scale(0.165 -0.165)">
       <defs>
        <path id="ArialMT-32" d="M 3222 541 
L 3222 0 
L 194 0 
Q 188 203 259 391 
Q 375 700 629 1000 
Q 884 1300 1366 1694 
Q 2113 2306 2375 2664 
Q 2638 3022 2638 3341 
Q 2638 3675 2398 3904 
Q 2159 4134 1775 4134 
Q 1369 4134 1125 3890 
Q 881 3647 878 3216 
L 300 3275 
Q 359 3922 746 4261 
Q 1134 4600 1788 4600 
Q 2447 4600 2831 4234 
Q 3216 3869 3216 3328 
Q 3216 3053 3103 2787 
Q 2991 2522 2730 2228 
Q 2469 1934 1863 1422 
Q 1356 997 1212 845 
Q 1069 694 975 541 
L 3222 541 
z
" transform="scale(0.015625)"/>
       </defs>
       <use xlink:href="#ArialMT-32"/>
       <use xlink:href="#ArialMT-30" transform="translate(55.615234 0)"/>
       <use xlink:href="#ArialMT-30" transform="translate(111.230469 0)"/>
      </g>
     </g>
    </g>
    <g id="xtick_6">
     <g id="line2d_6">
      <g>
       <use xlink:href="#md29b7c0543" x="467.645572" y="270.423053" style="fill: #262626; stroke: #262626; stroke-width: 1.875"/>
      </g>
     </g>
     <g id="text_6">
      <!-- 250 -->
      <g style="fill: #262626" transform="translate(453.882251 294.733444) scale(0.165 -0.165)">
       <use xlink:href="#ArialMT-32"/>
       <use xlink:href="#ArialMT-35" transform="translate(55.615234 0)"/>
       <use xlink:href="#ArialMT-30" transform="translate(111.230469 0)"/>
      </g>
     </g>
    </g>
    <g id="xtick_7">
     <g id="line2d_7">
      <g>
       <use xlink:href="#md29b7c0543" x="543.486818" y="270.423053" style="fill: #262626; stroke: #262626; stroke-width: 1.875"/>
      </g>
     </g>
     <g id="text_7">
      <!-- 300 -->
      <g style="fill: #262626" transform="translate(529.723497 294.733444) scale(0.165 -0.165)">
       <defs>
        <path id="ArialMT-33" d="M 269 1209 
L 831 1284 
Q 928 806 1161 595 
Q 1394 384 1728 384 
Q 2125 384 2398 659 
Q 2672 934 2672 1341 
Q 2672 1728 2419 1979 
Q 2166 2231 1775 2231 
Q 1616 2231 1378 2169 
L 1441 2663 
Q 1497 2656 1531 2656 
Q 1891 2656 2178 2843 
Q 2466 3031 2466 3422 
Q 2466 3731 2256 3934 
Q 2047 4138 1716 4138 
Q 1388 4138 1169 3931 
Q 950 3725 888 3313 
L 325 3413 
Q 428 3978 793 4289 
Q 1159 4600 1703 4600 
Q 2078 4600 2393 4439 
Q 2709 4278 2876 4000 
Q 3044 3722 3044 3409 
Q 3044 3113 2884 2869 
Q 2725 2625 2413 2481 
Q 2819 2388 3044 2092 
Q 3269 1797 3269 1353 
Q 3269 753 2831 336 
Q 2394 -81 1725 -81 
Q 1122 -81 723 278 
Q 325 638 269 1209 
z
" transform="scale(0.015625)"/>
       </defs>
       <use xlink:href="#ArialMT-33"/>
       <use xlink:href="#ArialMT-30" transform="translate(55.615234 0)"/>
       <use xlink:href="#ArialMT-30" transform="translate(111.230469 0)"/>
      </g>
     </g>
    </g>
    <g id="xtick_8">
     <g id="line2d_8">
      <g>
       <use xlink:href="#md29b7c0543" x="619.328064" y="270.423053" style="fill: #262626; stroke: #262626; stroke-width: 1.875"/>
      </g>
     </g>
     <g id="text_8">
      <!-- 350 -->
      <g style="fill: #262626" transform="translate(605.564743 294.733444) scale(0.165 -0.165)">
       <use xlink:href="#ArialMT-33"/>
       <use xlink:href="#ArialMT-35" transform="translate(55.615234 0)"/>
       <use xlink:href="#ArialMT-30" transform="translate(111.230469 0)"/>
      </g>
     </g>
    </g>
    <g id="xtick_9">
     <g id="line2d_9">
      <g>
       <use xlink:href="#md29b7c0543" x="695.169309" y="270.423053" style="fill: #262626; stroke: #262626; stroke-width: 1.875"/>
      </g>
     </g>
     <g id="text_9">
      <!-- 400 -->
      <g style="fill: #262626" transform="translate(681.405989 294.733444) scale(0.165 -0.165)">
       <defs>
        <path id="ArialMT-34" d="M 2069 0 
L 2069 1097 
L 81 1097 
L 81 1613 
L 2172 4581 
L 2631 4581 
L 2631 1613 
L 3250 1613 
L 3250 1097 
L 2631 1097 
L 2631 0 
L 2069 0 
z
M 2069 1613 
L 2069 3678 
L 634 1613 
L 2069 1613 
z
" transform="scale(0.015625)"/>
       </defs>
       <use xlink:href="#ArialMT-34"/>
       <use xlink:href="#ArialMT-30" transform="translate(55.615234 0)"/>
       <use xlink:href="#ArialMT-30" transform="translate(111.230469 0)"/>
      </g>
     </g>
    </g>
    <g id="text_10">
     <!-- Time (min) -->
     <g style="fill: #262626" transform="translate(339.099579 315.116256) scale(0.18 -0.18)">
      <defs>
       <path id="ArialMT-54" d="M 1659 0 
L 1659 4041 
L 150 4041 
L 150 4581 
L 3781 4581 
L 3781 4041 
L 2266 4041 
L 2266 0 
L 1659 0 
z
" transform="scale(0.015625)"/>
       <path id="ArialMT-69" d="M 425 3934 
L 425 4581 
L 988 4581 
L 988 3934 
L 425 3934 
z
M 425 0 
L 425 3319 
L 988 3319 
L 988 0 
L 425 0 
z
" transform="scale(0.015625)"/>
       <path id="ArialMT-6d" d="M 422 0 
L 422 3319 
L 925 3319 
L 925 2853 
Q 1081 3097 1340 3245 
Q 1600 3394 1931 3394 
Q 2300 3394 2536 3241 
Q 2772 3088 2869 2813 
Q 3263 3394 3894 3394 
Q 4388 3394 4653 3120 
Q 4919 2847 4919 2278 
L 4919 0 
L 4359 0 
L 4359 2091 
Q 4359 2428 4304 2576 
Q 4250 2725 4106 2815 
Q 3963 2906 3769 2906 
Q 3419 2906 3187 2673 
Q 2956 2441 2956 1928 
L 2956 0 
L 2394 0 
L 2394 2156 
Q 2394 2531 2256 2718 
Q 2119 2906 1806 2906 
Q 1569 2906 1367 2781 
Q 1166 2656 1075 2415 
Q 984 2175 984 1722 
L 984 0 
L 422 0 
z
" transform="scale(0.015625)"/>
       <path id="ArialMT-65" d="M 2694 1069 
L 3275 997 
Q 3138 488 2766 206 
Q 2394 -75 1816 -75 
Q 1088 -75 661 373 
Q 234 822 234 1631 
Q 234 2469 665 2931 
Q 1097 3394 1784 3394 
Q 2450 3394 2872 2941 
Q 3294 2488 3294 1666 
Q 3294 1616 3291 1516 
L 816 1516 
Q 847 969 1125 678 
Q 1403 388 1819 388 
Q 2128 388 2347 550 
Q 2566 713 2694 1069 
z
M 847 1978 
L 2700 1978 
Q 2663 2397 2488 2606 
Q 2219 2931 1791 2931 
Q 1403 2931 1139 2672 
Q 875 2413 847 1978 
z
" transform="scale(0.015625)"/>
       <path id="ArialMT-20" transform="scale(0.015625)"/>
       <path id="ArialMT-28" d="M 1497 -1347 
Q 1031 -759 709 28 
Q 388 816 388 1659 
Q 388 2403 628 3084 
Q 909 3875 1497 4659 
L 1900 4659 
Q 1522 4009 1400 3731 
Q 1209 3300 1100 2831 
Q 966 2247 966 1656 
Q 966 153 1900 -1347 
L 1497 -1347 
z
" transform="scale(0.015625)"/>
       <path id="ArialMT-6e" d="M 422 0 
L 422 3319 
L 928 3319 
L 928 2847 
Q 1294 3394 1984 3394 
Q 2284 3394 2536 3286 
Q 2788 3178 2913 3003 
Q 3038 2828 3088 2588 
Q 3119 2431 3119 2041 
L 3119 0 
L 2556 0 
L 2556 2019 
Q 2556 2363 2490 2533 
Q 2425 2703 2258 2804 
Q 2091 2906 1866 2906 
Q 1506 2906 1245 2678 
Q 984 2450 984 1813 
L 984 0 
L 422 0 
z
" transform="scale(0.015625)"/>
       <path id="ArialMT-29" d="M 791 -1347 
L 388 -1347 
Q 1322 153 1322 1656 
Q 1322 2244 1188 2822 
Q 1081 3291 891 3722 
Q 769 4003 388 4659 
L 791 4659 
Q 1378 3875 1659 3084 
Q 1900 2403 1900 1659 
Q 1900 816 1576 28 
Q 1253 -759 791 -1347 
z
" transform="scale(0.015625)"/>
      </defs>
      <use xlink:href="#ArialMT-54"/>
      <use xlink:href="#ArialMT-69" transform="translate(57.333984 0)"/>
      <use xlink:href="#ArialMT-6d" transform="translate(79.550781 0)"/>
      <use xlink:href="#ArialMT-65" transform="translate(162.851562 0)"/>
      <use xlink:href="#ArialMT-20" transform="translate(218.466797 0)"/>
      <use xlink:href="#ArialMT-28" transform="translate(246.25 0)"/>
      <use xlink:href="#ArialMT-6d" transform="translate(279.550781 0)"/>
      <use xlink:href="#ArialMT-69" transform="translate(362.851562 0)"/>
      <use xlink:href="#ArialMT-6e" transform="translate(385.068359 0)"/>
      <use xlink:href="#ArialMT-29" transform="translate(440.683594 0)"/>
     </g>
    </g>
   </g>
   <g id="matplotlib.axis_2">
    <g id="ytick_1">
     <g id="line2d_10">
      <defs>
       <path id="m5baf9885e2" d="M 0 0 
L -9 0 
" style="stroke: #262626; stroke-width: 1.875"/>
      </defs>
      <g>
       <use xlink:href="#m5baf9885e2" x="59.10774" y="244.917509" style="fill: #262626; stroke: #262626; stroke-width: 1.875"/>
      </g>
     </g>
     <g id="text_11">
      <!-- 0.0 -->
      <g style="fill: #262626" transform="translate(23.67274 250.822705) scale(0.165 -0.165)">
       <defs>
        <path id="ArialMT-2e" d="M 581 0 
L 581 641 
L 1222 641 
L 1222 0 
L 581 0 
z
" transform="scale(0.015625)"/>
       </defs>
       <use xlink:href="#ArialMT-30"/>
       <use xlink:href="#ArialMT-2e" transform="translate(55.615234 0)"/>
       <use xlink:href="#ArialMT-30" transform="translate(83.398438 0)"/>
      </g>
     </g>
    </g>
    <g id="ytick_2">
     <g id="line2d_11">
      <g>
       <use xlink:href="#m5baf9885e2" x="59.10774" y="202.72982" style="fill: #262626; stroke: #262626; stroke-width: 1.875"/>
      </g>
     </g>
     <g id="text_12">
      <!-- 0.2 -->
      <g style="fill: #262626" transform="translate(23.67274 208.635016) scale(0.165 -0.165)">
       <use xlink:href="#ArialMT-30"/>
       <use xlink:href="#ArialMT-2e" transform="translate(55.615234 0)"/>
       <use xlink:href="#ArialMT-32" transform="translate(83.398438 0)"/>
      </g>
     </g>
    </g>
    <g id="ytick_3">
     <g id="line2d_12">
      <g>
       <use xlink:href="#m5baf9885e2" x="59.10774" y="160.542131" style="fill: #262626; stroke: #262626; stroke-width: 1.875"/>
      </g>
     </g>
     <g id="text_13">
      <!-- 0.4 -->
      <g style="fill: #262626" transform="translate(23.67274 166.447327) scale(0.165 -0.165)">
       <use xlink:href="#ArialMT-30"/>
       <use xlink:href="#ArialMT-2e" transform="translate(55.615234 0)"/>
       <use xlink:href="#ArialMT-34" transform="translate(83.398438 0)"/>
      </g>
     </g>
    </g>
    <g id="ytick_4">
     <g id="line2d_13">
      <g>
       <use xlink:href="#m5baf9885e2" x="59.10774" y="118.354442" style="fill: #262626; stroke: #262626; stroke-width: 1.875"/>
      </g>
     </g>
     <g id="text_14">
      <!-- 0.6 -->
      <g style="fill: #262626" transform="translate(23.67274 124.259638) scale(0.165 -0.165)">
       <defs>
        <path id="ArialMT-36" d="M 3184 3459 
L 2625 3416 
Q 2550 3747 2413 3897 
Q 2184 4138 1850 4138 
Q 1581 4138 1378 3988 
Q 1113 3794 959 3422 
Q 806 3050 800 2363 
Q 1003 2672 1297 2822 
Q 1591 2972 1913 2972 
Q 2475 2972 2870 2558 
Q 3266 2144 3266 1488 
Q 3266 1056 3080 686 
Q 2894 316 2569 119 
Q 2244 -78 1831 -78 
Q 1128 -78 684 439 
Q 241 956 241 2144 
Q 241 3472 731 4075 
Q 1159 4600 1884 4600 
Q 2425 4600 2770 4297 
Q 3116 3994 3184 3459 
z
M 888 1484 
Q 888 1194 1011 928 
Q 1134 663 1356 523 
Q 1578 384 1822 384 
Q 2178 384 2434 671 
Q 2691 959 2691 1453 
Q 2691 1928 2437 2201 
Q 2184 2475 1800 2475 
Q 1419 2475 1153 2201 
Q 888 1928 888 1484 
z
" transform="scale(0.015625)"/>
       </defs>
       <use xlink:href="#ArialMT-30"/>
       <use xlink:href="#ArialMT-2e" transform="translate(55.615234 0)"/>
       <use xlink:href="#ArialMT-36" transform="translate(83.398438 0)"/>
      </g>
     </g>
    </g>
    <g id="ytick_5">
     <g id="line2d_14">
      <g>
       <use xlink:href="#m5baf9885e2" x="59.10774" y="76.166753" style="fill: #262626; stroke: #262626; stroke-width: 1.875"/>
      </g>
     </g>
     <g id="text_15">
      <!-- 0.8 -->
      <g style="fill: #262626" transform="translate(23.67274 82.071949) scale(0.165 -0.165)">
       <defs>
        <path id="ArialMT-38" d="M 1131 2484 
Q 781 2613 612 2850 
Q 444 3088 444 3419 
Q 444 3919 803 4259 
Q 1163 4600 1759 4600 
Q 2359 4600 2725 4251 
Q 3091 3903 3091 3403 
Q 3091 3084 2923 2848 
Q 2756 2613 2416 2484 
Q 2838 2347 3058 2040 
Q 3278 1734 3278 1309 
Q 3278 722 2862 322 
Q 2447 -78 1769 -78 
Q 1091 -78 675 323 
Q 259 725 259 1325 
Q 259 1772 486 2073 
Q 713 2375 1131 2484 
z
M 1019 3438 
Q 1019 3113 1228 2906 
Q 1438 2700 1772 2700 
Q 2097 2700 2305 2904 
Q 2513 3109 2513 3406 
Q 2513 3716 2298 3927 
Q 2084 4138 1766 4138 
Q 1444 4138 1231 3931 
Q 1019 3725 1019 3438 
z
M 838 1322 
Q 838 1081 952 856 
Q 1066 631 1291 507 
Q 1516 384 1775 384 
Q 2178 384 2440 643 
Q 2703 903 2703 1303 
Q 2703 1709 2433 1975 
Q 2163 2241 1756 2241 
Q 1359 2241 1098 1978 
Q 838 1716 838 1322 
z
" transform="scale(0.015625)"/>
       </defs>
       <use xlink:href="#ArialMT-30"/>
       <use xlink:href="#ArialMT-2e" transform="translate(55.615234 0)"/>
       <use xlink:href="#ArialMT-38" transform="translate(83.398438 0)"/>
      </g>
     </g>
    </g>
    <g id="ytick_6">
     <g id="line2d_15">
      <g>
       <use xlink:href="#m5baf9885e2" x="59.10774" y="33.979064" style="fill: #262626; stroke: #262626; stroke-width: 1.875"/>
      </g>
     </g>
     <g id="text_16">
      <!-- 1.0 -->
      <g style="fill: #262626" transform="translate(23.67274 39.884259) scale(0.165 -0.165)">
       <use xlink:href="#ArialMT-31"/>
       <use xlink:href="#ArialMT-2e" transform="translate(55.615234 0)"/>
       <use xlink:href="#ArialMT-30" transform="translate(83.398438 0)"/>
      </g>
     </g>
    </g>
    <g id="text_17">
     <!-- y value -->
     <g style="fill: #262626" transform="translate(15.884303 174.668209) rotate(-90) scale(0.18 -0.18)">
      <defs>
       <path id="ArialMT-79" d="M 397 -1278 
L 334 -750 
Q 519 -800 656 -800 
Q 844 -800 956 -737 
Q 1069 -675 1141 -563 
Q 1194 -478 1313 -144 
Q 1328 -97 1363 -6 
L 103 3319 
L 709 3319 
L 1400 1397 
Q 1534 1031 1641 628 
Q 1738 1016 1872 1384 
L 2581 3319 
L 3144 3319 
L 1881 -56 
Q 1678 -603 1566 -809 
Q 1416 -1088 1222 -1217 
Q 1028 -1347 759 -1347 
Q 597 -1347 397 -1278 
z
" transform="scale(0.015625)"/>
       <path id="ArialMT-76" d="M 1344 0 
L 81 3319 
L 675 3319 
L 1388 1331 
Q 1503 1009 1600 663 
Q 1675 925 1809 1294 
L 2547 3319 
L 3125 3319 
L 1869 0 
L 1344 0 
z
" transform="scale(0.015625)"/>
       <path id="ArialMT-61" d="M 2588 409 
Q 2275 144 1986 34 
Q 1697 -75 1366 -75 
Q 819 -75 525 192 
Q 231 459 231 875 
Q 231 1119 342 1320 
Q 453 1522 633 1644 
Q 813 1766 1038 1828 
Q 1203 1872 1538 1913 
Q 2219 1994 2541 2106 
Q 2544 2222 2544 2253 
Q 2544 2597 2384 2738 
Q 2169 2928 1744 2928 
Q 1347 2928 1158 2789 
Q 969 2650 878 2297 
L 328 2372 
Q 403 2725 575 2942 
Q 747 3159 1072 3276 
Q 1397 3394 1825 3394 
Q 2250 3394 2515 3294 
Q 2781 3194 2906 3042 
Q 3031 2891 3081 2659 
Q 3109 2516 3109 2141 
L 3109 1391 
Q 3109 606 3145 398 
Q 3181 191 3288 0 
L 2700 0 
Q 2613 175 2588 409 
z
M 2541 1666 
Q 2234 1541 1622 1453 
Q 1275 1403 1131 1340 
Q 988 1278 909 1158 
Q 831 1038 831 891 
Q 831 666 1001 516 
Q 1172 366 1500 366 
Q 1825 366 2078 508 
Q 2331 650 2450 897 
Q 2541 1088 2541 1459 
L 2541 1666 
z
" transform="scale(0.015625)"/>
       <path id="ArialMT-6c" d="M 409 0 
L 409 4581 
L 972 4581 
L 972 0 
L 409 0 
z
" transform="scale(0.015625)"/>
       <path id="ArialMT-75" d="M 2597 0 
L 2597 488 
Q 2209 -75 1544 -75 
Q 1250 -75 995 37 
Q 741 150 617 320 
Q 494 491 444 738 
Q 409 903 409 1263 
L 409 3319 
L 972 3319 
L 972 1478 
Q 972 1038 1006 884 
Q 1059 663 1231 536 
Q 1403 409 1656 409 
Q 1909 409 2131 539 
Q 2353 669 2445 892 
Q 2538 1116 2538 1541 
L 2538 3319 
L 3100 3319 
L 3100 0 
L 2597 0 
z
" transform="scale(0.015625)"/>
      </defs>
      <use xlink:href="#ArialMT-79"/>
      <use xlink:href="#ArialMT-20" transform="translate(50 0)"/>
      <use xlink:href="#ArialMT-76" transform="translate(77.783203 0)"/>
      <use xlink:href="#ArialMT-61" transform="translate(127.783203 0)"/>
      <use xlink:href="#ArialMT-6c" transform="translate(183.398438 0)"/>
      <use xlink:href="#ArialMT-75" transform="translate(205.615234 0)"/>
      <use xlink:href="#ArialMT-65" transform="translate(261.230469 0)"/>
     </g>
    </g>
   </g>
   <g id="FillBetweenPolyCollection_1"/>
   <g id="FillBetweenPolyCollection_2"/>
   <g id="FillBetweenPolyCollection_3"/>
   <g id="FillBetweenPolyCollection_4"/>
   <g id="line2d_16">
    <path d="M 88.439342 139.448287 
L 91.093785 94.541676 
L 92.61061 72.219674 
L 93.748229 58.182854 
L 94.885848 47.024902 
L 95.64426 41.385484 
L 96.402673 37.292574 
L 97.161085 34.81072 
L 97.540291 34.187184 
L 97.919498 33.979064 
L 98.298704 34.187184 
L 98.67791 34.81072 
L 99.057116 35.847214 
L 99.815529 39.141095 
L 100.573941 44.016881 
L 101.332354 50.397677 
L 102.469972 62.564532 
L 103.607591 77.455033 
L 105.124416 100.622476 
L 107.77886 146.070754 
L 110.054097 184.354898 
L 111.570922 206.676899 
L 112.708541 220.71372 
L 113.846159 231.871671 
L 114.604572 237.51109 
L 115.362984 241.604 
L 116.121397 244.085853 
L 116.500603 244.70939 
L 116.879809 244.917509 
L 117.259015 244.70939 
L 117.638222 244.085853 
L 118.017428 243.04936 
L 118.77584 239.755478 
L 119.534253 234.879693 
L 120.292665 228.498897 
L 121.430284 216.332041 
L 122.567903 201.44154 
L 124.084727 178.274097 
L 126.739171 132.82582 
L 129.014408 94.541676 
L 130.531233 72.219674 
L 131.668852 58.182854 
L 132.806471 47.024902 
L 133.564883 41.385484 
L 134.323296 37.292574 
L 135.081708 34.81072 
L 135.460914 34.187184 
L 135.840121 33.979064 
L 136.219327 34.187184 
L 136.598533 34.81072 
L 136.977739 35.847214 
L 137.736152 39.141095 
L 138.494564 44.016881 
L 139.252977 50.397677 
L 140.390595 62.564532 
L 141.528214 77.455033 
L 143.045039 100.622476 
L 145.699483 146.070754 
L 147.97472 184.354898 
L 149.491545 206.676899 
L 150.629164 220.71372 
L 151.766782 231.871671 
L 152.525195 237.51109 
L 153.283607 241.604 
L 154.04202 244.085853 
L 154.421226 244.70939 
L 154.800432 244.917509 
L 155.179638 244.70939 
L 155.558845 244.085853 
L 155.938051 243.04936 
L 156.696463 239.755478 
L 157.454876 234.879693 
L 158.213288 228.498897 
L 159.350907 216.332041 
L 160.488526 201.44154 
L 162.00535 178.274097 
L 164.659794 132.82582 
L 166.935031 94.541676 
L 168.451856 72.219674 
L 169.589475 58.182854 
L 170.727094 47.024902 
L 171.485506 41.385484 
L 172.243919 37.292574 
L 173.002331 34.81072 
L 173.381537 34.187184 
L 173.760744 33.979064 
L 174.13995 34.187184 
L 174.519156 34.81072 
L 174.898362 35.847214 
L 175.656775 39.141095 
L 176.415187 44.016881 
L 177.1736 50.397677 
L 178.311218 62.564532 
L 179.448837 77.455033 
L 180.965662 100.622476 
L 183.620106 146.070754 
L 185.895343 184.354898 
L 187.412168 206.676899 
L 188.549787 220.71372 
L 189.687405 231.871671 
L 190.445818 237.51109 
L 191.20423 241.604 
L 191.962643 244.085853 
L 192.341849 244.70939 
L 192.721055 244.917509 
L 193.100261 244.70939 
L 193.479468 244.085853 
L 193.858674 243.04936 
L 194.617086 239.755478 
L 195.375499 234.879693 
L 196.133911 228.498897 
L 197.27153 216.332041 
L 198.409149 201.44154 
L 199.925973 178.274097 
L 202.580417 132.82582 
L 204.855654 94.541676 
L 206.372479 72.219674 
L 207.510098 58.182854 
L 208.647717 47.024902 
L 209.406129 41.385484 
L 210.164542 37.292574 
L 210.922954 34.81072 
L 211.30216 34.187184 
L 211.681367 33.979064 
L 212.060573 34.187184 
L 212.439779 34.81072 
L 212.818985 35.847214 
L 213.577398 39.141095 
L 214.33581 44.016881 
L 215.094223 50.397677 
L 216.231841 62.564532 
L 217.36946 77.455033 
L 218.886285 100.622476 
L 221.540729 146.070754 
L 223.815966 184.354898 
L 225.332791 206.676899 
L 226.47041 220.71372 
L 227.608028 231.871671 
L 228.366441 237.51109 
L 229.124853 241.604 
L 229.883266 244.085853 
L 230.262472 244.70939 
L 230.641678 244.917509 
L 231.020884 244.70939 
L 231.40009 244.085853 
L 231.779297 243.04936 
L 232.537709 239.755478 
L 233.296122 234.879693 
L 234.054534 228.498897 
L 235.192153 216.332041 
L 236.329771 201.44154 
L 237.846596 178.274097 
L 240.50104 132.82582 
L 242.776277 94.541676 
L 244.293102 72.219674 
L 245.430721 58.182854 
L 246.56834 47.024902 
L 247.326752 41.385484 
L 248.085165 37.292574 
L 248.843577 34.81072 
L 249.222783 34.187184 
L 249.60199 33.979064 
L 249.981196 34.187184 
L 250.360402 34.81072 
L 250.739608 35.847214 
L 251.498021 39.141095 
L 252.256433 44.016881 
L 253.014846 50.397677 
L 254.152464 62.564532 
L 255.290083 77.455033 
L 256.806908 100.622476 
L 259.461351 146.070754 
L 261.736589 184.354898 
L 263.253414 206.676899 
L 264.391032 220.71372 
L 265.528651 231.871671 
L 266.287064 237.51109 
L 267.045476 241.604 
L 267.803889 244.085853 
L 268.183095 244.70939 
L 268.562301 244.917509 
L 268.941507 244.70939 
L 269.320713 244.085853 
L 269.69992 243.04936 
L 270.458332 239.755478 
L 271.216745 234.879693 
L 271.975157 228.498897 
L 273.112776 216.332041 
L 274.250394 201.44154 
L 275.767219 178.274097 
L 278.421663 132.82582 
L 280.6969 94.541676 
L 282.213725 72.219674 
L 283.351344 58.182854 
L 284.488963 47.024902 
L 285.247375 41.385484 
L 286.005788 37.292574 
L 286.7642 34.81072 
L 287.143406 34.187184 
L 287.522612 33.979064 
L 287.901819 34.187184 
L 288.281025 34.81072 
L 288.660231 35.847214 
L 289.418644 39.141095 
L 290.177056 44.016881 
L 290.935469 50.397677 
L 292.073087 62.564532 
L 293.210706 77.455033 
L 294.727531 100.622476 
L 297.381974 146.070754 
L 299.657212 184.354898 
L 301.174037 206.676899 
L 302.311655 220.71372 
L 303.449274 231.871671 
L 304.207687 237.51109 
L 304.966099 241.604 
L 305.724512 244.085853 
L 306.103718 244.70939 
L 306.482924 244.917509 
L 306.86213 244.70939 
L 307.241336 244.085853 
L 307.620543 243.04936 
L 308.378955 239.755478 
L 309.137368 234.879693 
L 309.89578 228.498897 
L 311.033399 216.332041 
L 312.171017 201.44154 
L 313.687842 178.274097 
L 316.342286 132.82582 
L 318.617523 94.541676 
L 320.134348 72.219674 
L 321.271967 58.182854 
L 322.409586 47.024902 
L 323.167998 41.385484 
L 323.926411 37.292574 
L 324.684823 34.81072 
L 325.064029 34.187184 
L 325.443235 33.979064 
L 325.822442 34.187184 
L 326.201648 34.81072 
L 326.580854 35.847214 
L 327.339267 39.141095 
L 328.097679 44.016881 
L 328.856092 50.397677 
L 329.99371 62.564532 
L 331.131329 77.455033 
L 332.648154 100.622476 
L 335.302597 146.070754 
L 337.577835 184.354898 
L 339.09466 206.676899 
L 340.232278 220.71372 
L 341.369897 231.871671 
L 342.12831 237.51109 
L 342.886722 241.604 
L 343.645135 244.085853 
L 344.024341 244.70939 
L 344.403547 244.917509 
L 344.782753 244.70939 
L 345.161959 244.085853 
L 345.541166 243.04936 
L 346.299578 239.755478 
L 347.057991 234.879693 
L 347.816403 228.498897 
L 348.954022 216.332041 
L 350.09164 201.44154 
L 351.608465 178.274097 
L 354.262909 132.82582 
L 356.538146 94.541676 
L 358.054971 72.219674 
L 359.19259 58.182854 
L 360.330209 47.024902 
L 361.088621 41.385484 
L 361.847034 37.292574 
L 362.605446 34.81072 
L 362.984652 34.187184 
L 363.363858 33.979064 
L 363.743065 34.187184 
L 364.122271 34.81072 
L 364.501477 35.847214 
L 365.25989 39.141095 
L 366.018302 44.016881 
L 366.776715 50.397677 
L 367.914333 62.564532 
L 369.051952 77.455033 
L 370.568777 100.622476 
L 373.22322 146.070754 
L 375.498458 184.354898 
L 377.015283 206.676899 
L 378.152901 220.71372 
L 379.29052 231.871671 
L 380.048933 237.51109 
L 380.807345 241.604 
L 381.565757 244.085853 
L 381.944964 244.70939 
L 382.32417 244.917509 
L 382.703376 244.70939 
L 383.082582 244.085853 
L 383.461789 243.04936 
L 384.220201 239.755478 
L 384.978614 234.879693 
L 385.737026 228.498897 
L 386.874645 216.332041 
L 388.012263 201.44154 
L 389.529088 178.274097 
L 392.183532 132.82582 
L 394.458769 94.541676 
L 395.975594 72.219674 
L 397.113213 58.182854 
L 398.250832 47.024902 
L 399.009244 41.385484 
L 399.767657 37.292574 
L 400.526069 34.81072 
L 400.905275 34.187184 
L 401.284481 33.979064 
L 401.663688 34.187184 
L 402.042894 34.81072 
L 402.4221 35.847214 
L 403.180513 39.141095 
L 403.938925 44.016881 
L 404.697337 50.397677 
L 405.834956 62.564532 
L 406.972575 77.455033 
L 408.4894 100.622476 
L 411.143843 146.070754 
L 413.419081 184.354898 
L 414.935906 206.676899 
L 416.073524 220.71372 
L 417.211143 231.871671 
L 417.969556 237.51109 
L 418.727968 241.604 
L 419.48638 244.085853 
L 419.865587 244.70939 
L 420.244793 244.917509 
L 420.623999 244.70939 
L 421.003205 244.085853 
L 421.382412 243.04936 
L 422.140824 239.755478 
L 422.899237 234.879693 
L 423.657649 228.498897 
L 424.795268 216.332041 
L 425.932886 201.44154 
L 427.449711 178.274097 
L 430.104155 132.82582 
L 432.379392 94.541676 
L 433.896217 72.219674 
L 435.033836 58.182854 
L 436.171455 47.024902 
L 436.929867 41.385484 
L 437.688279 37.292574 
L 438.446692 34.81072 
L 438.825898 34.187184 
L 439.205104 33.979064 
L 439.584311 34.187184 
L 439.963517 34.81072 
L 440.342723 35.847214 
L 441.101136 39.141095 
L 441.859548 44.016881 
L 442.61796 50.397677 
L 443.755579 62.564532 
L 444.893198 77.455033 
L 446.410023 100.622476 
L 449.064466 146.070754 
L 451.339704 184.354898 
L 452.856529 206.676899 
L 453.994147 220.71372 
L 455.131766 231.871671 
L 455.890179 237.51109 
L 456.648591 241.604 
L 457.407003 244.085853 
L 457.78621 244.70939 
L 458.165416 244.917509 
L 458.544622 244.70939 
L 458.923828 244.085853 
L 459.303035 243.04936 
L 460.061447 239.755478 
L 460.81986 234.879693 
L 461.578272 228.498897 
L 462.715891 216.332041 
L 463.853509 201.44154 
L 465.370334 178.274097 
L 468.024778 132.82582 
L 470.300015 94.541676 
L 471.81684 72.219674 
L 472.954459 58.182854 
L 474.092078 47.024902 
L 474.85049 41.385484 
L 475.608902 37.292574 
L 476.367315 34.81072 
L 476.746521 34.187184 
L 477.125727 33.979064 
L 477.504934 34.187184 
L 477.88414 34.81072 
L 478.263346 35.847214 
L 479.021759 39.141095 
L 479.780171 44.016881 
L 480.538583 50.397677 
L 481.676202 62.564532 
L 482.813821 77.455033 
L 484.330646 100.622476 
L 486.985089 146.070754 
L 489.260327 184.354898 
L 490.777152 206.676899 
L 491.91477 220.71372 
L 493.052389 231.871671 
L 493.810801 237.51109 
L 494.569214 241.604 
L 495.327626 244.085853 
L 495.706833 244.70939 
L 496.086039 244.917509 
L 496.465245 244.70939 
L 496.844451 244.085853 
L 497.223658 243.04936 
L 497.98207 239.755478 
L 498.740482 234.879693 
L 499.498895 228.498897 
L 500.636514 216.332041 
L 501.774132 201.44154 
L 503.290957 178.274097 
L 505.945401 132.82582 
L 508.220638 94.541676 
L 509.737463 72.219674 
L 510.875082 58.182854 
L 512.012701 47.024902 
L 512.771113 41.385484 
L 513.529525 37.292574 
L 514.287938 34.81072 
L 514.667144 34.187184 
L 515.04635 33.979064 
L 515.425557 34.187184 
L 515.804763 34.81072 
L 516.183969 35.847214 
L 516.942382 39.141095 
L 517.700794 44.016881 
L 518.459206 50.397677 
L 519.596825 62.564532 
L 520.734444 77.455033 
L 522.251269 100.622476 
L 524.905712 146.070754 
L 527.18095 184.354898 
L 528.697775 206.676899 
L 529.835393 220.71372 
L 530.973012 231.871671 
L 531.731424 237.51109 
L 532.489837 241.604 
L 533.248249 244.085853 
L 533.627456 244.70939 
L 534.006662 244.917509 
L 534.385868 244.70939 
L 534.765074 244.085853 
L 535.144281 243.04936 
L 535.902693 239.755478 
L 536.661105 234.879693 
L 537.419518 228.498897 
L 538.557137 216.332041 
L 539.694755 201.44154 
L 541.21158 178.274097 
L 543.866024 132.82582 
L 546.141261 94.541676 
L 547.658086 72.219674 
L 548.795705 58.182854 
L 549.933323 47.024902 
L 550.691736 41.385484 
L 551.450148 37.292574 
L 552.208561 34.81072 
L 552.587767 34.187184 
L 552.966973 33.979064 
L 553.34618 34.187184 
L 553.725386 34.81072 
L 554.104592 35.847214 
L 554.863004 39.141095 
L 555.621417 44.016881 
L 556.379829 50.397677 
L 557.517448 62.564532 
L 558.655067 77.455033 
L 560.171892 100.622476 
L 562.826335 146.070754 
L 565.101573 184.354898 
L 566.618398 206.676899 
L 567.756016 220.71372 
L 568.893635 231.871671 
L 569.652047 237.51109 
L 570.41046 241.604 
L 571.168872 244.085853 
L 571.548079 244.70939 
L 571.927285 244.917509 
L 572.306491 244.70939 
L 572.685697 244.085853 
L 573.064904 243.04936 
L 573.823316 239.755478 
L 574.581728 234.879693 
L 575.340141 228.498897 
L 576.47776 216.332041 
L 577.615378 201.44154 
L 579.132203 178.274097 
L 581.786647 132.82582 
L 584.061884 94.541676 
L 585.578709 72.219674 
L 586.716328 58.182854 
L 587.853946 47.024902 
L 588.612359 41.385484 
L 589.370771 37.292574 
L 590.129184 34.81072 
L 590.50839 34.187184 
L 590.887596 33.979064 
L 591.266803 34.187184 
L 591.646009 34.81072 
L 592.025215 35.847214 
L 592.783627 39.141095 
L 593.54204 44.016881 
L 594.300452 50.397677 
L 595.438071 62.564532 
L 596.57569 77.455033 
L 598.092515 100.622476 
L 600.746958 146.070754 
L 603.022196 184.354898 
L 604.539021 206.676899 
L 605.676639 220.71372 
L 606.814258 231.871671 
L 607.57267 237.51109 
L 608.331083 241.604 
L 609.089495 244.085853 
L 609.468702 244.70939 
L 609.847908 244.917509 
L 610.227114 244.70939 
L 610.60632 244.085853 
L 610.985526 243.04936 
L 611.743939 239.755478 
L 612.502351 234.879693 
L 613.260764 228.498897 
L 614.398383 216.332041 
L 615.536001 201.44154 
L 617.052826 178.274097 
L 619.70727 132.82582 
L 621.982507 94.541676 
L 623.499332 72.219674 
L 624.636951 58.182854 
L 625.774569 47.024902 
L 626.532982 41.385484 
L 627.291394 37.292574 
L 628.049807 34.81072 
L 628.429013 34.187184 
L 628.808219 33.979064 
L 629.187426 34.187184 
L 629.566632 34.81072 
L 629.945838 35.847214 
L 630.70425 39.141095 
L 631.462663 44.016881 
L 632.221075 50.397677 
L 633.358694 62.564532 
L 634.496313 77.455033 
L 636.013138 100.622476 
L 638.667581 146.070754 
L 640.942819 184.354898 
L 642.459644 206.676899 
L 643.597262 220.71372 
L 644.734881 231.871671 
L 645.493293 237.51109 
L 646.251706 241.604 
L 647.010118 244.085853 
L 647.389325 244.70939 
L 647.768531 244.917509 
L 648.147737 244.70939 
L 648.526943 244.085853 
L 648.906149 243.04936 
L 649.664562 239.755478 
L 650.422974 234.879693 
L 651.181387 228.498897 
L 652.319006 216.332041 
L 653.456624 201.44154 
L 654.973449 178.274097 
L 657.627893 132.82582 
L 659.90313 94.541676 
L 661.419955 72.219674 
L 662.557574 58.182854 
L 663.695192 47.024902 
L 664.453605 41.385484 
L 665.212017 37.292574 
L 665.97043 34.81072 
L 666.349636 34.187184 
L 666.728842 33.979064 
L 667.108048 34.187184 
L 667.487255 34.81072 
L 667.866461 35.847214 
L 668.624873 39.141095 
L 669.383286 44.016881 
L 670.141698 50.397677 
L 671.279317 62.564532 
L 672.416936 77.455033 
L 673.933761 100.622476 
L 675.071379 119.685325 
L 675.071379 119.685325 
" clip-path="url(#pd7db6f336b)" style="fill: none; stroke: #000000; stroke-width: 2.25; stroke-linecap: round"/>
   </g>
   <g id="line2d_17">
    <path d="M 115.74219 246.240087 
L 122.567903 179.28317 
L 129.393615 96.041582 
L 136.219327 42.623134 
L 143.045039 102.740487 
L 149.870751 190.876444 
L 156.696463 223.975296 
L 163.522175 165.6187 
L 170.347888 58.378248 
L 177.1736 59.222683 
L 183.999312 147.373188 
L 190.825024 233.481591 
L 197.650736 240.469725 
L 204.476448 99.877131 
L 211.30216 40.191377 
L 218.127872 94.067107 
L 224.953585 197.755218 
L 231.779297 253.470347 
L 238.605009 166.792298 
L 245.430721 61.486093 
L 252.256433 75.226075 
L 259.082145 143.107623 
L 265.907857 228.255335 
L 272.73357 216.744762 
L 279.559282 107.949219 
L 286.384994 33.181518 
L 293.210706 81.561326 
L 300.036418 177.110781 
L 306.86213 241.285474 
L 313.687842 181.193583 
L 320.513554 65.486612 
L 327.339267 56.945464 
L 334.164979 121.488707 
L 340.990691 212.754875 
L 347.816403 218.711609 
L 354.642115 125.884686 
L 361.467827 54.044987 
L 368.293539 73.43784 
L 375.119252 161.563179 
L 381.944964 239.888505 
L 388.770676 179.061018 
L 395.596388 71.862048 
L 402.4221 41.749222 
L 409.247812 116.839066 
L 416.073524 216.337252 
L 422.899237 216.931828 
L 429.724949 132.360931 
L 436.550661 53.581208 
L 443.376373 62.228285 
" clip-path="url(#pd7db6f336b)" style="fill: none; stroke: #4c72b0; stroke-width: 2.25; stroke-linecap: round"/>
    <defs>
     <path id="ma61a561ac0" d="M 0 4.5 
C 1.193414 4.5 2.338109 4.025852 3.181981 3.181981 
C 4.025852 2.338109 4.5 1.193414 4.5 0 
C 4.5 -1.193414 4.025852 -2.338109 3.181981 -3.181981 
C 2.338109 -4.025852 1.193414 -4.5 0 -4.5 
C -1.193414 -4.5 -2.338109 -4.025852 -3.181981 -3.181981 
C -4.025852 -2.338109 -4.5 -1.193414 -4.5 0 
C -4.5 1.193414 -4.025852 2.338109 -3.181981 3.181981 
C -2.338109 4.025852 -1.193414 4.5 0 4.5 
z
" style="stroke: #ffffff; stroke-width: 0.75"/>
    </defs>
    <g clip-path="url(#pd7db6f336b)">
     <use xlink:href="#ma61a561ac0" x="115.74219" y="246.240087" style="fill: #4c72b0; stroke: #ffffff; stroke-width: 0.75"/>
     <use xlink:href="#ma61a561ac0" x="122.567903" y="179.28317" style="fill: #4c72b0; stroke: #ffffff; stroke-width: 0.75"/>
     <use xlink:href="#ma61a561ac0" x="129.393615" y="96.041582" style="fill: #4c72b0; stroke: #ffffff; stroke-width: 0.75"/>
     <use xlink:href="#ma61a561ac0" x="136.219327" y="42.623134" style="fill: #4c72b0; stroke: #ffffff; stroke-width: 0.75"/>
     <use xlink:href="#ma61a561ac0" x="143.045039" y="102.740487" style="fill: #4c72b0; stroke: #ffffff; stroke-width: 0.75"/>
     <use xlink:href="#ma61a561ac0" x="149.870751" y="190.876444" style="fill: #4c72b0; stroke: #ffffff; stroke-width: 0.75"/>
     <use xlink:href="#ma61a561ac0" x="156.696463" y="223.975296" style="fill: #4c72b0; stroke: #ffffff; stroke-width: 0.75"/>
     <use xlink:href="#ma61a561ac0" x="163.522175" y="165.6187" style="fill: #4c72b0; stroke: #ffffff; stroke-width: 0.75"/>
     <use xlink:href="#ma61a561ac0" x="170.347888" y="58.378248" style="fill: #4c72b0; stroke: #ffffff; stroke-width: 0.75"/>
     <use xlink:href="#ma61a561ac0" x="177.1736" y="59.222683" style="fill: #4c72b0; stroke: #ffffff; stroke-width: 0.75"/>
     <use xlink:href="#ma61a561ac0" x="183.999312" y="147.373188" style="fill: #4c72b0; stroke: #ffffff; stroke-width: 0.75"/>
     <use xlink:href="#ma61a561ac0" x="190.825024" y="233.481591" style="fill: #4c72b0; stroke: #ffffff; stroke-width: 0.75"/>
     <use xlink:href="#ma61a561ac0" x="197.650736" y="240.469725" style="fill: #4c72b0; stroke: #ffffff; stroke-width: 0.75"/>
     <use xlink:href="#ma61a561ac0" x="204.476448" y="99.877131" style="fill: #4c72b0; stroke: #ffffff; stroke-width: 0.75"/>
     <use xlink:href="#ma61a561ac0" x="211.30216" y="40.191377" style="fill: #4c72b0; stroke: #ffffff; stroke-width: 0.75"/>
     <use xlink:href="#ma61a561ac0" x="218.127872" y="94.067107" style="fill: #4c72b0; stroke: #ffffff; stroke-width: 0.75"/>
     <use xlink:href="#ma61a561ac0" x="224.953585" y="197.755218" style="fill: #4c72b0; stroke: #ffffff; stroke-width: 0.75"/>
     <use xlink:href="#ma61a561ac0" x="231.779297" y="253.470347" style="fill: #4c72b0; stroke: #ffffff; stroke-width: 0.75"/>
     <use xlink:href="#ma61a561ac0" x="238.605009" y="166.792298" style="fill: #4c72b0; stroke: #ffffff; stroke-width: 0.75"/>
     <use xlink:href="#ma61a561ac0" x="245.430721" y="61.486093" style="fill: #4c72b0; stroke: #ffffff; stroke-width: 0.75"/>
     <use xlink:href="#ma61a561ac0" x="252.256433" y="75.226075" style="fill: #4c72b0; stroke: #ffffff; stroke-width: 0.75"/>
     <use xlink:href="#ma61a561ac0" x="259.082145" y="143.107623" style="fill: #4c72b0; stroke: #ffffff; stroke-width: 0.75"/>
     <use xlink:href="#ma61a561ac0" x="265.907857" y="228.255335" style="fill: #4c72b0; stroke: #ffffff; stroke-width: 0.75"/>
     <use xlink:href="#ma61a561ac0" x="272.73357" y="216.744762" style="fill: #4c72b0; stroke: #ffffff; stroke-width: 0.75"/>
     <use xlink:href="#ma61a561ac0" x="279.559282" y="107.949219" style="fill: #4c72b0; stroke: #ffffff; stroke-width: 0.75"/>
     <use xlink:href="#ma61a561ac0" x="286.384994" y="33.181518" style="fill: #4c72b0; stroke: #ffffff; stroke-width: 0.75"/>
     <use xlink:href="#ma61a561ac0" x="293.210706" y="81.561326" style="fill: #4c72b0; stroke: #ffffff; stroke-width: 0.75"/>
     <use xlink:href="#ma61a561ac0" x="300.036418" y="177.110781" style="fill: #4c72b0; stroke: #ffffff; stroke-width: 0.75"/>
     <use xlink:href="#ma61a561ac0" x="306.86213" y="241.285474" style="fill: #4c72b0; stroke: #ffffff; stroke-width: 0.75"/>
     <use xlink:href="#ma61a561ac0" x="313.687842" y="181.193583" style="fill: #4c72b0; stroke: #ffffff; stroke-width: 0.75"/>
     <use xlink:href="#ma61a561ac0" x="320.513554" y="65.486612" style="fill: #4c72b0; stroke: #ffffff; stroke-width: 0.75"/>
     <use xlink:href="#ma61a561ac0" x="327.339267" y="56.945464" style="fill: #4c72b0; stroke: #ffffff; stroke-width: 0.75"/>
     <use xlink:href="#ma61a561ac0" x="334.164979" y="121.488707" style="fill: #4c72b0; stroke: #ffffff; stroke-width: 0.75"/>
     <use xlink:href="#ma61a561ac0" x="340.990691" y="212.754875" style="fill: #4c72b0; stroke: #ffffff; stroke-width: 0.75"/>
     <use xlink:href="#ma61a561ac0" x="347.816403" y="218.711609" style="fill: #4c72b0; stroke: #ffffff; stroke-width: 0.75"/>
     <use xlink:href="#ma61a561ac0" x="354.642115" y="125.884686" style="fill: #4c72b0; stroke: #ffffff; stroke-width: 0.75"/>
     <use xlink:href="#ma61a561ac0" x="361.467827" y="54.044987" style="fill: #4c72b0; stroke: #ffffff; stroke-width: 0.75"/>
     <use xlink:href="#ma61a561ac0" x="368.293539" y="73.43784" style="fill: #4c72b0; stroke: #ffffff; stroke-width: 0.75"/>
     <use xlink:href="#ma61a561ac0" x="375.119252" y="161.563179" style="fill: #4c72b0; stroke: #ffffff; stroke-width: 0.75"/>
     <use xlink:href="#ma61a561ac0" x="381.944964" y="239.888505" style="fill: #4c72b0; stroke: #ffffff; stroke-width: 0.75"/>
     <use xlink:href="#ma61a561ac0" x="388.770676" y="179.061018" style="fill: #4c72b0; stroke: #ffffff; stroke-width: 0.75"/>
     <use xlink:href="#ma61a561ac0" x="395.596388" y="71.862048" style="fill: #4c72b0; stroke: #ffffff; stroke-width: 0.75"/>
     <use xlink:href="#ma61a561ac0" x="402.4221" y="41.749222" style="fill: #4c72b0; stroke: #ffffff; stroke-width: 0.75"/>
     <use xlink:href="#ma61a561ac0" x="409.247812" y="116.839066" style="fill: #4c72b0; stroke: #ffffff; stroke-width: 0.75"/>
     <use xlink:href="#ma61a561ac0" x="416.073524" y="216.337252" style="fill: #4c72b0; stroke: #ffffff; stroke-width: 0.75"/>
     <use xlink:href="#ma61a561ac0" x="422.899237" y="216.931828" style="fill: #4c72b0; stroke: #ffffff; stroke-width: 0.75"/>
     <use xlink:href="#ma61a561ac0" x="429.724949" y="132.360931" style="fill: #4c72b0; stroke: #ffffff; stroke-width: 0.75"/>
     <use xlink:href="#ma61a561ac0" x="436.550661" y="53.581208" style="fill: #4c72b0; stroke: #ffffff; stroke-width: 0.75"/>
     <use xlink:href="#ma61a561ac0" x="443.376373" y="62.228285" style="fill: #4c72b0; stroke: #ffffff; stroke-width: 0.75"/>
    </g>
   </g>
   <g id="line2d_18">
    <path d="M 450.202085 132.716531 
L 457.027797 187.138987 
L 463.853509 224.438819 
L 470.679221 74.787271 
L 477.504934 42.28694 
L 484.330646 149.197191 
L 491.156358 203.207004 
L 497.98207 143.075584 
L 504.807782 152.256962 
L 511.633494 87.226423 
L 518.459206 190.311357 
L 525.284919 196.452532 
L 532.110631 259.125837 
L 538.936343 232.29714 
L 545.762055 71.604564 
L 552.587767 78.610864 
" clip-path="url(#pd7db6f336b)" style="fill: none; stroke: #dd8452; stroke-width: 2.25; stroke-linecap: round"/>
    <defs>
     <path id="m207dcfe4f3" d="M -2.25 4.5 
L 0 2.25 
L 2.25 4.5 
L 4.5 2.25 
L 2.25 0 
L 4.5 -2.25 
L 2.25 -4.5 
L 0 -2.25 
L -2.25 -4.5 
L -4.5 -2.25 
L -2.25 0 
L -4.5 2.25 
z
" style="stroke: #ffffff; stroke-width: 0.75; stroke-linejoin: miter"/>
    </defs>
    <g clip-path="url(#pd7db6f336b)">
     <use xlink:href="#m207dcfe4f3" x="450.202085" y="132.716531" style="fill: #dd8452; stroke: #ffffff; stroke-width: 0.75; stroke-linejoin: miter"/>
     <use xlink:href="#m207dcfe4f3" x="457.027797" y="187.138987" style="fill: #dd8452; stroke: #ffffff; stroke-width: 0.75; stroke-linejoin: miter"/>
     <use xlink:href="#m207dcfe4f3" x="463.853509" y="224.438819" style="fill: #dd8452; stroke: #ffffff; stroke-width: 0.75; stroke-linejoin: miter"/>
     <use xlink:href="#m207dcfe4f3" x="470.679221" y="74.787271" style="fill: #dd8452; stroke: #ffffff; stroke-width: 0.75; stroke-linejoin: miter"/>
     <use xlink:href="#m207dcfe4f3" x="477.504934" y="42.28694" style="fill: #dd8452; stroke: #ffffff; stroke-width: 0.75; stroke-linejoin: miter"/>
     <use xlink:href="#m207dcfe4f3" x="484.330646" y="149.197191" style="fill: #dd8452; stroke: #ffffff; stroke-width: 0.75; stroke-linejoin: miter"/>
     <use xlink:href="#m207dcfe4f3" x="491.156358" y="203.207004" style="fill: #dd8452; stroke: #ffffff; stroke-width: 0.75; stroke-linejoin: miter"/>
     <use xlink:href="#m207dcfe4f3" x="497.98207" y="143.075584" style="fill: #dd8452; stroke: #ffffff; stroke-width: 0.75; stroke-linejoin: miter"/>
     <use xlink:href="#m207dcfe4f3" x="504.807782" y="152.256962" style="fill: #dd8452; stroke: #ffffff; stroke-width: 0.75; stroke-linejoin: miter"/>
     <use xlink:href="#m207dcfe4f3" x="511.633494" y="87.226423" style="fill: #dd8452; stroke: #ffffff; stroke-width: 0.75; stroke-linejoin: miter"/>
     <use xlink:href="#m207dcfe4f3" x="518.459206" y="190.311357" style="fill: #dd8452; stroke: #ffffff; stroke-width: 0.75; stroke-linejoin: miter"/>
     <use xlink:href="#m207dcfe4f3" x="525.284919" y="196.452532" style="fill: #dd8452; stroke: #ffffff; stroke-width: 0.75; stroke-linejoin: miter"/>
     <use xlink:href="#m207dcfe4f3" x="532.110631" y="259.125837" style="fill: #dd8452; stroke: #ffffff; stroke-width: 0.75; stroke-linejoin: miter"/>
     <use xlink:href="#m207dcfe4f3" x="538.936343" y="232.29714" style="fill: #dd8452; stroke: #ffffff; stroke-width: 0.75; stroke-linejoin: miter"/>
     <use xlink:href="#m207dcfe4f3" x="545.762055" y="71.604564" style="fill: #dd8452; stroke: #ffffff; stroke-width: 0.75; stroke-linejoin: miter"/>
     <use xlink:href="#m207dcfe4f3" x="552.587767" y="78.610864" style="fill: #dd8452; stroke: #ffffff; stroke-width: 0.75; stroke-linejoin: miter"/>
    </g>
   </g>
   <g id="line2d_19">
    <path d="M 559.413479 167.411242 
L 566.239191 220.789559 
L 573.064904 212.958703 
L 579.890616 118.334854 
L 586.716328 69.731426 
L 593.54204 159.244178 
L 600.367752 132.027034 
L 607.193464 234.852595 
L 614.019176 154.444846 
L 620.844888 48.159942 
L 627.670601 82.557253 
L 634.496313 223.803664 
L 641.322025 218.238443 
L 648.147737 219.186772 
L 654.973449 84.936495 
L 661.799161 52.2252 
L 668.624873 151.057114 
" clip-path="url(#pd7db6f336b)" style="fill: none; stroke: #55a868; stroke-width: 2.25; stroke-linecap: round"/>
    <defs>
     <path id="mbef37580df" d="M -3.181981 -3.181981 
L -3.181981 3.181981 
L 3.181981 3.181981 
L 3.181981 -3.181981 
z
" style="stroke: #ffffff; stroke-width: 0.75; stroke-linejoin: miter"/>
    </defs>
    <g clip-path="url(#pd7db6f336b)">
     <use xlink:href="#mbef37580df" x="559.413479" y="167.411242" style="fill: #55a868; stroke: #ffffff; stroke-width: 0.75; stroke-linejoin: miter"/>
     <use xlink:href="#mbef37580df" x="566.239191" y="220.789559" style="fill: #55a868; stroke: #ffffff; stroke-width: 0.75; stroke-linejoin: miter"/>
     <use xlink:href="#mbef37580df" x="573.064904" y="212.958703" style="fill: #55a868; stroke: #ffffff; stroke-width: 0.75; stroke-linejoin: miter"/>
     <use xlink:href="#mbef37580df" x="579.890616" y="118.334854" style="fill: #55a868; stroke: #ffffff; stroke-width: 0.75; stroke-linejoin: miter"/>
     <use xlink:href="#mbef37580df" x="586.716328" y="69.731426" style="fill: #55a868; stroke: #ffffff; stroke-width: 0.75; stroke-linejoin: miter"/>
     <use xlink:href="#mbef37580df" x="593.54204" y="159.244178" style="fill: #55a868; stroke: #ffffff; stroke-width: 0.75; stroke-linejoin: miter"/>
     <use xlink:href="#mbef37580df" x="600.367752" y="132.027034" style="fill: #55a868; stroke: #ffffff; stroke-width: 0.75; stroke-linejoin: miter"/>
     <use xlink:href="#mbef37580df" x="607.193464" y="234.852595" style="fill: #55a868; stroke: #ffffff; stroke-width: 0.75; stroke-linejoin: miter"/>
     <use xlink:href="#mbef37580df" x="614.019176" y="154.444846" style="fill: #55a868; stroke: #ffffff; stroke-width: 0.75; stroke-linejoin: miter"/>
     <use xlink:href="#mbef37580df" x="620.844888" y="48.159942" style="fill: #55a868; stroke: #ffffff; stroke-width: 0.75; stroke-linejoin: miter"/>
     <use xlink:href="#mbef37580df" x="627.670601" y="82.557253" style="fill: #55a868; stroke: #ffffff; stroke-width: 0.75; stroke-linejoin: miter"/>
     <use xlink:href="#mbef37580df" x="634.496313" y="223.803664" style="fill: #55a868; stroke: #ffffff; stroke-width: 0.75; stroke-linejoin: miter"/>
     <use xlink:href="#mbef37580df" x="641.322025" y="218.238443" style="fill: #55a868; stroke: #ffffff; stroke-width: 0.75; stroke-linejoin: miter"/>
     <use xlink:href="#mbef37580df" x="648.147737" y="219.186772" style="fill: #55a868; stroke: #ffffff; stroke-width: 0.75; stroke-linejoin: miter"/>
     <use xlink:href="#mbef37580df" x="654.973449" y="84.936495" style="fill: #55a868; stroke: #ffffff; stroke-width: 0.75; stroke-linejoin: miter"/>
     <use xlink:href="#mbef37580df" x="661.799161" y="52.2252" style="fill: #55a868; stroke: #ffffff; stroke-width: 0.75; stroke-linejoin: miter"/>
     <use xlink:href="#mbef37580df" x="668.624873" y="151.057114" style="fill: #55a868; stroke: #ffffff; stroke-width: 0.75; stroke-linejoin: miter"/>
    </g>
   </g>
   <g id="line2d_20"/>
   <g id="line2d_21"/>
   <g id="line2d_22"/>
   <g id="patch_3">
    <path d="M 59.10774 270.423053 
L 59.10774 21.884302 
" style="fill: none; stroke: #262626; stroke-width: 1.875; stroke-linejoin: miter; stroke-linecap: square"/>
   </g>
   <g id="patch_4">
    <path d="M 59.10774 270.423053 
L 704.402981 270.423053 
" style="fill: none; stroke: #262626; stroke-width: 1.875; stroke-linejoin: miter; stroke-linecap: square"/>
   </g>
   <g id="text_18">
    <!-- mins ahead = 18.0 -->
    <g style="fill: #262626" transform="translate(307.457548 15.884302) scale(0.18 -0.18)">
     <defs>
      <path id="ArialMT-73" d="M 197 991 
L 753 1078 
Q 800 744 1014 566 
Q 1228 388 1613 388 
Q 2000 388 2187 545 
Q 2375 703 2375 916 
Q 2375 1106 2209 1216 
Q 2094 1291 1634 1406 
Q 1016 1563 777 1677 
Q 538 1791 414 1992 
Q 291 2194 291 2438 
Q 291 2659 392 2848 
Q 494 3038 669 3163 
Q 800 3259 1026 3326 
Q 1253 3394 1513 3394 
Q 1903 3394 2198 3281 
Q 2494 3169 2634 2976 
Q 2775 2784 2828 2463 
L 2278 2388 
Q 2241 2644 2061 2787 
Q 1881 2931 1553 2931 
Q 1166 2931 1000 2803 
Q 834 2675 834 2503 
Q 834 2394 903 2306 
Q 972 2216 1119 2156 
Q 1203 2125 1616 2013 
Q 2213 1853 2448 1751 
Q 2684 1650 2818 1456 
Q 2953 1263 2953 975 
Q 2953 694 2789 445 
Q 2625 197 2315 61 
Q 2006 -75 1616 -75 
Q 969 -75 630 194 
Q 291 463 197 991 
z
" transform="scale(0.015625)"/>
      <path id="ArialMT-68" d="M 422 0 
L 422 4581 
L 984 4581 
L 984 2938 
Q 1378 3394 1978 3394 
Q 2347 3394 2619 3248 
Q 2891 3103 3008 2847 
Q 3125 2591 3125 2103 
L 3125 0 
L 2563 0 
L 2563 2103 
Q 2563 2525 2380 2717 
Q 2197 2909 1863 2909 
Q 1613 2909 1392 2779 
Q 1172 2650 1078 2428 
Q 984 2206 984 1816 
L 984 0 
L 422 0 
z
" transform="scale(0.015625)"/>
      <path id="ArialMT-64" d="M 2575 0 
L 2575 419 
Q 2259 -75 1647 -75 
Q 1250 -75 917 144 
Q 584 363 401 755 
Q 219 1147 219 1656 
Q 219 2153 384 2558 
Q 550 2963 881 3178 
Q 1213 3394 1622 3394 
Q 1922 3394 2156 3267 
Q 2391 3141 2538 2938 
L 2538 4581 
L 3097 4581 
L 3097 0 
L 2575 0 
z
M 797 1656 
Q 797 1019 1065 703 
Q 1334 388 1700 388 
Q 2069 388 2326 689 
Q 2584 991 2584 1609 
Q 2584 2291 2321 2609 
Q 2059 2928 1675 2928 
Q 1300 2928 1048 2622 
Q 797 2316 797 1656 
z
" transform="scale(0.015625)"/>
      <path id="ArialMT-3d" d="M 3381 2694 
L 356 2694 
L 356 3219 
L 3381 3219 
L 3381 2694 
z
M 3381 1303 
L 356 1303 
L 356 1828 
L 3381 1828 
L 3381 1303 
z
" transform="scale(0.015625)"/>
     </defs>
     <use xlink:href="#ArialMT-6d"/>
     <use xlink:href="#ArialMT-69" transform="translate(83.300781 0)"/>
     <use xlink:href="#ArialMT-6e" transform="translate(105.517578 0)"/>
     <use xlink:href="#ArialMT-73" transform="translate(161.132812 0)"/>
     <use xlink:href="#ArialMT-20" transform="translate(211.132812 0)"/>
     <use xlink:href="#ArialMT-61" transform="translate(238.916016 0)"/>
     <use xlink:href="#ArialMT-68" transform="translate(294.53125 0)"/>
     <use xlink:href="#ArialMT-65" transform="translate(350.146484 0)"/>
     <use xlink:href="#ArialMT-61" transform="translate(405.761719 0)"/>
     <use xlink:href="#ArialMT-64" transform="translate(461.376953 0)"/>
     <use xlink:href="#ArialMT-20" transform="translate(516.992188 0)"/>
     <use xlink:href="#ArialMT-3d" transform="translate(544.775391 0)"/>
     <use xlink:href="#ArialMT-20" transform="translate(603.173828 0)"/>
     <use xlink:href="#ArialMT-31" transform="translate(630.957031 0)"/>
     <use xlink:href="#ArialMT-38" transform="translate(686.572266 0)"/>
     <use xlink:href="#ArialMT-2e" transform="translate(742.1875 0)"/>
     <use xlink:href="#ArialMT-30" transform="translate(769.970703 0)"/>
    </g>
   </g>
   <g id="legend_1">
    <g id="patch_5">
     <path d="M 570.343059 195.994108 
L 692.852981 195.994108 
Q 696.152981 195.994108 696.152981 192.694108 
L 696.152981 99.613248 
Q 696.152981 96.313248 692.852981 96.313248 
L 570.343059 96.313248 
Q 567.043059 96.313248 567.043059 99.613248 
L 567.043059 192.694108 
Q 567.043059 195.994108 570.343059 195.994108 
z
" style="fill: #ffffff; opacity: 0.8; stroke: #cccccc; stroke-width: 1.5; stroke-linejoin: miter"/>
    </g>
    <g id="text_19">
     <!-- dataset -->
     <g style="fill: #262626" transform="translate(602.07802 115.797311) scale(0.18 -0.18)">
      <defs>
       <path id="ArialMT-74" d="M 1650 503 
L 1731 6 
Q 1494 -44 1306 -44 
Q 1000 -44 831 53 
Q 663 150 594 308 
Q 525 466 525 972 
L 525 2881 
L 113 2881 
L 113 3319 
L 525 3319 
L 525 4141 
L 1084 4478 
L 1084 3319 
L 1650 3319 
L 1650 2881 
L 1084 2881 
L 1084 941 
Q 1084 700 1114 631 
Q 1144 563 1211 522 
Q 1278 481 1403 481 
Q 1497 481 1650 503 
z
" transform="scale(0.015625)"/>
      </defs>
      <use xlink:href="#ArialMT-64"/>
      <use xlink:href="#ArialMT-61" transform="translate(55.615234 0)"/>
      <use xlink:href="#ArialMT-74" transform="translate(111.230469 0)"/>
      <use xlink:href="#ArialMT-61" transform="translate(139.013672 0)"/>
      <use xlink:href="#ArialMT-73" transform="translate(194.628906 0)"/>
      <use xlink:href="#ArialMT-65" transform="translate(244.628906 0)"/>
      <use xlink:href="#ArialMT-74" transform="translate(300.244141 0)"/>
     </g>
    </g>
    <g id="line2d_23">
     <path d="M 573.643059 133.660201 
L 590.143059 133.660201 
L 606.643059 133.660201 
" style="fill: none; stroke: #4c72b0; stroke-width: 2.25; stroke-linecap: round"/>
     <g>
      <use xlink:href="#ma61a561ac0" x="590.143059" y="133.660201" style="fill: #4c72b0; stroke: #ffffff; stroke-width: 0.75"/>
     </g>
    </g>
    <g id="text_20">
     <!-- train -->
     <g style="fill: #262626" transform="translate(619.843059 139.435201) scale(0.165 -0.165)">
      <defs>
       <path id="ArialMT-72" d="M 416 0 
L 416 3319 
L 922 3319 
L 922 2816 
Q 1116 3169 1280 3281 
Q 1444 3394 1641 3394 
Q 1925 3394 2219 3213 
L 2025 2691 
Q 1819 2813 1613 2813 
Q 1428 2813 1281 2702 
Q 1134 2591 1072 2394 
Q 978 2094 978 1738 
L 978 0 
L 416 0 
z
" transform="scale(0.015625)"/>
      </defs>
      <use xlink:href="#ArialMT-74"/>
      <use xlink:href="#ArialMT-72" transform="translate(27.783203 0)"/>
      <use xlink:href="#ArialMT-61" transform="translate(61.083984 0)"/>
      <use xlink:href="#ArialMT-69" transform="translate(116.699219 0)"/>
      <use xlink:href="#ArialMT-6e" transform="translate(138.916016 0)"/>
     </g>
    </g>
    <g id="line2d_24">
     <path d="M 573.643059 156.999967 
L 590.143059 156.999967 
L 606.643059 156.999967 
" style="fill: none; stroke: #dd8452; stroke-width: 2.25; stroke-linecap: round"/>
     <g>
      <use xlink:href="#m207dcfe4f3" x="590.143059" y="156.999967" style="fill: #dd8452; stroke: #ffffff; stroke-width: 0.75; stroke-linejoin: miter"/>
     </g>
    </g>
    <g id="text_21">
     <!-- validation -->
     <g style="fill: #262626" transform="translate(619.843059 162.774967) scale(0.165 -0.165)">
      <defs>
       <path id="ArialMT-6f" d="M 213 1659 
Q 213 2581 725 3025 
Q 1153 3394 1769 3394 
Q 2453 3394 2887 2945 
Q 3322 2497 3322 1706 
Q 3322 1066 3130 698 
Q 2938 331 2570 128 
Q 2203 -75 1769 -75 
Q 1072 -75 642 372 
Q 213 819 213 1659 
z
M 791 1659 
Q 791 1022 1069 705 
Q 1347 388 1769 388 
Q 2188 388 2466 706 
Q 2744 1025 2744 1678 
Q 2744 2294 2464 2611 
Q 2184 2928 1769 2928 
Q 1347 2928 1069 2612 
Q 791 2297 791 1659 
z
" transform="scale(0.015625)"/>
      </defs>
      <use xlink:href="#ArialMT-76"/>
      <use xlink:href="#ArialMT-61" transform="translate(50 0)"/>
      <use xlink:href="#ArialMT-6c" transform="translate(105.615234 0)"/>
      <use xlink:href="#ArialMT-69" transform="translate(127.832031 0)"/>
      <use xlink:href="#ArialMT-64" transform="translate(150.048828 0)"/>
      <use xlink:href="#ArialMT-61" transform="translate(205.664062 0)"/>
      <use xlink:href="#ArialMT-74" transform="translate(261.279297 0)"/>
      <use xlink:href="#ArialMT-69" transform="translate(289.0625 0)"/>
      <use xlink:href="#ArialMT-6f" transform="translate(311.279297 0)"/>
      <use xlink:href="#ArialMT-6e" transform="translate(366.894531 0)"/>
     </g>
    </g>
    <g id="line2d_25">
     <path d="M 573.643059 180.339733 
L 590.143059 180.339733 
L 606.643059 180.339733 
" style="fill: none; stroke: #55a868; stroke-width: 2.25; stroke-linecap: round"/>
     <g>
      <use xlink:href="#mbef37580df" x="590.143059" y="180.339733" style="fill: #55a868; stroke: #ffffff; stroke-width: 0.75; stroke-linejoin: miter"/>
     </g>
    </g>
    <g id="text_22">
     <!-- test -->
     <g style="fill: #262626" transform="translate(619.843059 186.114733) scale(0.165 -0.165)">
      <use xlink:href="#ArialMT-74"/>
      <use xlink:href="#ArialMT-65" transform="translate(27.783203 0)"/>
      <use xlink:href="#ArialMT-73" transform="translate(83.398438 0)"/>
      <use xlink:href="#ArialMT-74" transform="translate(133.398438 0)"/>
     </g>
    </g>
   </g>
  </g>
  <g id="axes_2">
   <g id="patch_6">
    <path d="M 59.10774 380.518119 
L 704.402981 380.518119 
L 704.402981 330.810369 
L 59.10774 330.810369 
z
" style="fill: #ffffff"/>
   </g>
   <g id="matplotlib.axis_3">
    <g id="xtick_10">
     <g id="line2d_26">
      <g>
       <use xlink:href="#md29b7c0543" x="59.469859" y="380.518119" style="fill: #262626; stroke: #262626; stroke-width: 1.875"/>
      </g>
     </g>
     <g id="text_23">
      <!-- 0 -->
      <g style="fill: #262626" transform="translate(54.882085 404.82851) scale(0.165 -0.165)">
       <use xlink:href="#ArialMT-30"/>
      </g>
     </g>
    </g>
    <g id="xtick_11">
     <g id="line2d_27">
      <g>
       <use xlink:href="#md29b7c0543" x="139.940646" y="380.518119" style="fill: #262626; stroke: #262626; stroke-width: 1.875"/>
      </g>
     </g>
     <g id="text_24">
      <!-- 50 -->
      <g style="fill: #262626" transform="translate(130.765099 404.82851) scale(0.165 -0.165)">
       <use xlink:href="#ArialMT-35"/>
       <use xlink:href="#ArialMT-30" transform="translate(55.615234 0)"/>
      </g>
     </g>
    </g>
    <g id="xtick_12">
     <g id="line2d_28">
      <g>
       <use xlink:href="#md29b7c0543" x="220.411433" y="380.518119" style="fill: #262626; stroke: #262626; stroke-width: 1.875"/>
      </g>
     </g>
     <g id="text_25">
      <!-- 100 -->
      <g style="fill: #262626" transform="translate(206.648112 404.82851) scale(0.165 -0.165)">
       <use xlink:href="#ArialMT-31"/>
       <use xlink:href="#ArialMT-30" transform="translate(55.615234 0)"/>
       <use xlink:href="#ArialMT-30" transform="translate(111.230469 0)"/>
      </g>
     </g>
    </g>
    <g id="xtick_13">
     <g id="line2d_29">
      <g>
       <use xlink:href="#md29b7c0543" x="300.88222" y="380.518119" style="fill: #262626; stroke: #262626; stroke-width: 1.875"/>
      </g>
     </g>
     <g id="text_26">
      <!-- 150 -->
      <g style="fill: #262626" transform="translate(287.118899 404.82851) scale(0.165 -0.165)">
       <use xlink:href="#ArialMT-31"/>
       <use xlink:href="#ArialMT-35" transform="translate(55.615234 0)"/>
       <use xlink:href="#ArialMT-30" transform="translate(111.230469 0)"/>
      </g>
     </g>
    </g>
    <g id="xtick_14">
     <g id="line2d_30">
      <g>
       <use xlink:href="#md29b7c0543" x="381.353007" y="380.518119" style="fill: #262626; stroke: #262626; stroke-width: 1.875"/>
      </g>
     </g>
     <g id="text_27">
      <!-- 200 -->
      <g style="fill: #262626" transform="translate(367.589686 404.82851) scale(0.165 -0.165)">
       <use xlink:href="#ArialMT-32"/>
       <use xlink:href="#ArialMT-30" transform="translate(55.615234 0)"/>
       <use xlink:href="#ArialMT-30" transform="translate(111.230469 0)"/>
      </g>
     </g>
    </g>
    <g id="xtick_15">
     <g id="line2d_31">
      <g>
       <use xlink:href="#md29b7c0543" x="461.823794" y="380.518119" style="fill: #262626; stroke: #262626; stroke-width: 1.875"/>
      </g>
     </g>
     <g id="text_28">
      <!-- 250 -->
      <g style="fill: #262626" transform="translate(448.060473 404.82851) scale(0.165 -0.165)">
       <use xlink:href="#ArialMT-32"/>
       <use xlink:href="#ArialMT-35" transform="translate(55.615234 0)"/>
       <use xlink:href="#ArialMT-30" transform="translate(111.230469 0)"/>
      </g>
     </g>
    </g>
    <g id="xtick_16">
     <g id="line2d_32">
      <g>
       <use xlink:href="#md29b7c0543" x="542.294581" y="380.518119" style="fill: #262626; stroke: #262626; stroke-width: 1.875"/>
      </g>
     </g>
     <g id="text_29">
      <!-- 300 -->
      <g style="fill: #262626" transform="translate(528.53126 404.82851) scale(0.165 -0.165)">
       <use xlink:href="#ArialMT-33"/>
       <use xlink:href="#ArialMT-30" transform="translate(55.615234 0)"/>
       <use xlink:href="#ArialMT-30" transform="translate(111.230469 0)"/>
      </g>
     </g>
    </g>
    <g id="xtick_17">
     <g id="line2d_33">
      <g>
       <use xlink:href="#md29b7c0543" x="622.765368" y="380.518119" style="fill: #262626; stroke: #262626; stroke-width: 1.875"/>
      </g>
     </g>
     <g id="text_30">
      <!-- 350 -->
      <g style="fill: #262626" transform="translate(609.002047 404.82851) scale(0.165 -0.165)">
       <use xlink:href="#ArialMT-33"/>
       <use xlink:href="#ArialMT-35" transform="translate(55.615234 0)"/>
       <use xlink:href="#ArialMT-30" transform="translate(111.230469 0)"/>
      </g>
     </g>
    </g>
    <g id="xtick_18">
     <g id="line2d_34">
      <g>
       <use xlink:href="#md29b7c0543" x="703.236155" y="380.518119" style="fill: #262626; stroke: #262626; stroke-width: 1.875"/>
      </g>
     </g>
     <g id="text_31">
      <!-- 400 -->
      <g style="fill: #262626" transform="translate(689.472834 404.82851) scale(0.165 -0.165)">
       <use xlink:href="#ArialMT-34"/>
       <use xlink:href="#ArialMT-30" transform="translate(55.615234 0)"/>
       <use xlink:href="#ArialMT-30" transform="translate(111.230469 0)"/>
      </g>
     </g>
    </g>
    <g id="text_32">
     <!-- predict time (min) -->
     <g style="fill: #262626" transform="translate(312.247236 425.211322) scale(0.18 -0.18)">
      <defs>
       <path id="ArialMT-70" d="M 422 -1272 
L 422 3319 
L 934 3319 
L 934 2888 
Q 1116 3141 1344 3267 
Q 1572 3394 1897 3394 
Q 2322 3394 2647 3175 
Q 2972 2956 3137 2557 
Q 3303 2159 3303 1684 
Q 3303 1175 3120 767 
Q 2938 359 2589 142 
Q 2241 -75 1856 -75 
Q 1575 -75 1351 44 
Q 1128 163 984 344 
L 984 -1272 
L 422 -1272 
z
M 931 1641 
Q 931 1000 1190 694 
Q 1450 388 1819 388 
Q 2194 388 2461 705 
Q 2728 1022 2728 1688 
Q 2728 2322 2467 2637 
Q 2206 2953 1844 2953 
Q 1484 2953 1207 2617 
Q 931 2281 931 1641 
z
" transform="scale(0.015625)"/>
       <path id="ArialMT-63" d="M 2588 1216 
L 3141 1144 
Q 3050 572 2676 248 
Q 2303 -75 1759 -75 
Q 1078 -75 664 370 
Q 250 816 250 1647 
Q 250 2184 428 2587 
Q 606 2991 970 3192 
Q 1334 3394 1763 3394 
Q 2303 3394 2647 3120 
Q 2991 2847 3088 2344 
L 2541 2259 
Q 2463 2594 2264 2762 
Q 2066 2931 1784 2931 
Q 1359 2931 1093 2626 
Q 828 2322 828 1663 
Q 828 994 1084 691 
Q 1341 388 1753 388 
Q 2084 388 2306 591 
Q 2528 794 2588 1216 
z
" transform="scale(0.015625)"/>
      </defs>
      <use xlink:href="#ArialMT-70"/>
      <use xlink:href="#ArialMT-72" transform="translate(55.615234 0)"/>
      <use xlink:href="#ArialMT-65" transform="translate(88.916016 0)"/>
      <use xlink:href="#ArialMT-64" transform="translate(144.53125 0)"/>
      <use xlink:href="#ArialMT-69" transform="translate(200.146484 0)"/>
      <use xlink:href="#ArialMT-63" transform="translate(222.363281 0)"/>
      <use xlink:href="#ArialMT-74" transform="translate(272.363281 0)"/>
      <use xlink:href="#ArialMT-20" transform="translate(300.146484 0)"/>
      <use xlink:href="#ArialMT-74" transform="translate(327.929688 0)"/>
      <use xlink:href="#ArialMT-69" transform="translate(355.712891 0)"/>
      <use xlink:href="#ArialMT-6d" transform="translate(377.929688 0)"/>
      <use xlink:href="#ArialMT-65" transform="translate(461.230469 0)"/>
      <use xlink:href="#ArialMT-20" transform="translate(516.845703 0)"/>
      <use xlink:href="#ArialMT-28" transform="translate(544.628906 0)"/>
      <use xlink:href="#ArialMT-6d" transform="translate(577.929688 0)"/>
      <use xlink:href="#ArialMT-69" transform="translate(661.230469 0)"/>
      <use xlink:href="#ArialMT-6e" transform="translate(683.447266 0)"/>
      <use xlink:href="#ArialMT-29" transform="translate(739.0625 0)"/>
     </g>
    </g>
   </g>
   <g id="matplotlib.axis_4">
    <g id="ytick_7">
     <g id="line2d_35">
      <g>
       <use xlink:href="#m5baf9885e2" x="59.10774" y="380.518119" style="fill: #262626; stroke: #262626; stroke-width: 1.875"/>
      </g>
     </g>
     <g id="text_33">
      <!-- 0 -->
      <g style="fill: #262626" transform="translate(37.432193 386.423315) scale(0.165 -0.165)">
       <use xlink:href="#ArialMT-30"/>
      </g>
     </g>
    </g>
    <g id="ytick_8">
     <g id="line2d_36">
      <g>
       <use xlink:href="#m5baf9885e2" x="59.10774" y="330.810369" style="fill: #262626; stroke: #262626; stroke-width: 1.875"/>
      </g>
     </g>
     <g id="text_34">
      <!-- 1 -->
      <g style="fill: #262626" transform="translate(37.432193 336.715565) scale(0.165 -0.165)">
       <use xlink:href="#ArialMT-31"/>
      </g>
     </g>
    </g>
    <g id="text_35">
     <!-- Error -->
     <g style="fill: #262626" transform="translate(29.854693 375.662526) rotate(-90) scale(0.18 -0.18)">
      <defs>
       <path id="ArialMT-45" d="M 506 0 
L 506 4581 
L 3819 4581 
L 3819 4041 
L 1113 4041 
L 1113 2638 
L 3647 2638 
L 3647 2100 
L 1113 2100 
L 1113 541 
L 3925 541 
L 3925 0 
L 506 0 
z
" transform="scale(0.015625)"/>
      </defs>
      <use xlink:href="#ArialMT-45"/>
      <use xlink:href="#ArialMT-72" transform="translate(66.699219 0)"/>
      <use xlink:href="#ArialMT-72" transform="translate(100 0)"/>
      <use xlink:href="#ArialMT-6f" transform="translate(133.300781 0)"/>
      <use xlink:href="#ArialMT-72" transform="translate(188.916016 0)"/>
     </g>
    </g>
   </g>
   <g id="FillBetweenPolyCollection_5"/>
   <g id="FillBetweenPolyCollection_6"/>
   <g id="FillBetweenPolyCollection_7"/>
   <g id="line2d_37">
    <path d="M 59.10774 355.664244 
L 704.402981 355.664244 
" clip-path="url(#pb16d25782d)" style="fill: none; stroke-dasharray: 3.7,1.6; stroke-dashoffset: 0; stroke: #808080"/>
   </g>
   <g id="line2d_38">
    <path d="M 88.439342 379.766223 
L 95.681713 375.296488 
L 102.924084 378.773485 
L 110.166454 378.530184 
L 117.408825 380.019009 
L 124.651196 375.623542 
L 131.893567 376.799512 
L 139.135938 377.466065 
L 146.378309 378.637494 
L 153.620679 378.438502 
L 160.86305 379.27061 
L 168.105421 379.039675 
L 175.347792 373.726015 
L 182.590163 380.342478 
L 189.832534 379.103228 
L 197.074904 379.238772 
L 204.317275 379.649436 
L 211.559646 378.062408 
L 218.802017 380.255397 
L 226.044388 379.73971 
L 233.286759 373.163657 
L 240.529129 379.655795 
L 247.7715 378.957086 
L 255.013871 379.582833 
L 262.256242 379.276256 
L 269.498613 379.889947 
L 276.740984 379.550469 
L 283.983354 377.419859 
L 291.225725 379.711272 
L 298.468096 379.830141 
L 305.710467 380.102662 
L 312.952838 376.322511 
L 320.195209 379.400952 
L 327.437579 376.808033 
L 334.67995 378.21174 
L 341.922321 380.436867 
L 349.164692 377.00601 
L 356.407063 379.059866 
L 363.649434 376.580183 
L 370.891804 379.382075 
L 378.134175 377.879434 
L 385.376546 379.20013 
L 392.618917 379.127308 
L 399.861288 379.665086 
L 407.103659 379.486803 
L 414.346029 376.288696 
L 421.5884 378.84798 
L 428.830771 378.264281 
L 436.073142 379.564811 
" clip-path="url(#pb16d25782d)" style="fill: none; stroke: #4c72b0; stroke-width: 2.25; stroke-linecap: round"/>
   </g>
   <g id="line2d_39">
    <path d="M 443.315513 372.75087 
L 450.557884 367.342812 
L 457.800254 375.098799 
L 465.042625 377.254164 
L 472.284996 378.609408 
L 479.527367 369.071464 
L 486.769738 378.529245 
L 494.012109 357.735454 
L 501.254479 380.421474 
L 508.49685 371.839407 
L 515.739221 347.547391 
L 522.981592 370.200057 
L 530.223963 375.953485 
L 537.466333 375.651889 
L 544.708704 373.680034 
L 551.951075 370.049657 
" clip-path="url(#pb16d25782d)" style="fill: none; stroke: #dd8452; stroke-width: 2.25; stroke-linecap: round"/>
   </g>
   <g id="line2d_40">
    <path d="M 559.193446 361.955189 
L 566.435817 375.958749 
L 573.678188 373.427241 
L 580.920558 369.361821 
L 588.162929 377.796693 
L 595.4053 353.364749 
L 602.647671 378.769298 
L 609.890042 380.511734 
L 617.132413 364.901826 
L 624.374783 365.186883 
L 631.617154 369.510875 
L 638.859525 346.030991 
L 646.101896 373.924625 
L 653.344267 374.503702 
L 660.586638 358.523067 
L 667.829008 376.977604 
L 675.071379 354.145054 
" clip-path="url(#pb16d25782d)" style="fill: none; stroke: #55a868; stroke-width: 2.25; stroke-linecap: round"/>
   </g>
   <g id="patch_7">
    <path d="M 59.10774 380.518119 
L 59.10774 330.810369 
" style="fill: none; stroke: #262626; stroke-width: 1.875; stroke-linejoin: miter; stroke-linecap: square"/>
   </g>
   <g id="patch_8">
    <path d="M 59.10774 380.518119 
L 704.402981 380.518119 
" style="fill: none; stroke: #262626; stroke-width: 1.875; stroke-linejoin: miter; stroke-linecap: square"/>
   </g>
  </g>
 </g>
 <defs>
  <clipPath id="pd7db6f336b">
   <rect x="59.10774" y="21.884302" width="645.295241" height="248.538751"/>
  </clipPath>
  <clipPath id="pb16d25782d">
   <rect x="59.10774" y="330.810369" width="645.295241" height="49.70775"/>
  </clipPath>
 </defs>
</svg>
