<?xml version="1.0" encoding="utf-8" standalone="no"?>
<!DOCTYPE svg PUBLIC "-//W3C//DTD SVG 1.1//EN"
  "http://www.w3.org/Graphics/SVG/1.1/DTD/svg11.dtd">
<svg xmlns:xlink="http://www.w3.org/1999/xlink" width="720pt" height="432pt" viewBox="0 0 720 432" xmlns="http://www.w3.org/2000/svg" version="1.1">
 <metadata>
  <rdf:RDF xmlns:dc="http://purl.org/dc/elements/1.1/" xmlns:cc="http://creativecommons.org/ns#" xmlns:rdf="http://www.w3.org/1999/02/22-rdf-syntax-ns#">
   <cc:Work>
    <dc:type rdf:resource="http://purl.org/dc/dcmitype/StillImage"/>
    <dc:date>2025-05-28T17:46:07.331930</dc:date>
    <dc:format>image/svg+xml</dc:format>
    <dc:creator>
     <cc:Agent>
      <dc:title>Matplotlib v3.10.0, https://matplotlib.org/</dc:title>
     </cc:Agent>
    </dc:creator>
   </cc:Work>
  </rdf:RDF>
 </metadata>
 <defs>
  <style type="text/css">*{stroke-linejoin: round; stroke-linecap: butt}</style>
 </defs>
 <g id="figure_1">
  <g id="patch_1">
   <path d="M 0 432 
L 720 432 
L 720 0 
L 0 0 
z
" style="fill: #ffffff"/>
  </g>
  <g id="axes_1">
   <g id="patch_2">
    <path d="M 59.10774 270.423053 
L 704.050623 270.423053 
L 704.050623 21.884302 
L 59.10774 21.884302 
z
" style="fill: #ffffff"/>
   </g>
   <g id="matplotlib.axis_1">
    <g id="xtick_1">
     <g id="line2d_1">
      <defs>
       <path id="md11b204d41" d="M 0 0 
L 0 9 
" style="stroke: #262626; stroke-width: 1.875"/>
      </defs>
      <g>
       <use xlink:href="#md11b204d41" x="88.423326" y="270.423053" style="fill: #262626; stroke: #262626; stroke-width: 1.875"/>
      </g>
     </g>
     <g id="text_1">
      <!-- 0 -->
      <g style="fill: #262626" transform="translate(83.835552 294.733444) scale(0.165 -0.165)">
       <defs>
        <path id="ArialMT-30" d="M 266 2259 
Q 266 3072 433 3567 
Q 600 4063 929 4331 
Q 1259 4600 1759 4600 
Q 2128 4600 2406 4451 
Q 2684 4303 2865 4023 
Q 3047 3744 3150 3342 
Q 3253 2941 3253 2259 
Q 3253 1453 3087 958 
Q 2922 463 2592 192 
Q 2263 -78 1759 -78 
Q 1097 -78 719 397 
Q 266 969 266 2259 
z
M 844 2259 
Q 844 1131 1108 757 
Q 1372 384 1759 384 
Q 2147 384 2411 759 
Q 2675 1134 2675 2259 
Q 2675 3391 2411 3762 
Q 2147 4134 1753 4134 
Q 1366 4134 1134 3806 
Q 844 3388 844 2259 
z
" transform="scale(0.015625)"/>
       </defs>
       <use xlink:href="#ArialMT-30"/>
      </g>
     </g>
    </g>
    <g id="xtick_2">
     <g id="line2d_2">
      <g>
       <use xlink:href="#md11b204d41" x="164.223159" y="270.423053" style="fill: #262626; stroke: #262626; stroke-width: 1.875"/>
      </g>
     </g>
     <g id="text_2">
      <!-- 50 -->
      <g style="fill: #262626" transform="translate(155.047612 294.733444) scale(0.165 -0.165)">
       <defs>
        <path id="ArialMT-35" d="M 266 1200 
L 856 1250 
Q 922 819 1161 601 
Q 1400 384 1738 384 
Q 2144 384 2425 690 
Q 2706 997 2706 1503 
Q 2706 1984 2436 2262 
Q 2166 2541 1728 2541 
Q 1456 2541 1237 2417 
Q 1019 2294 894 2097 
L 366 2166 
L 809 4519 
L 3088 4519 
L 3088 3981 
L 1259 3981 
L 1013 2750 
Q 1425 3038 1878 3038 
Q 2478 3038 2890 2622 
Q 3303 2206 3303 1553 
Q 3303 931 2941 478 
Q 2500 -78 1738 -78 
Q 1113 -78 717 272 
Q 322 622 266 1200 
z
" transform="scale(0.015625)"/>
       </defs>
       <use xlink:href="#ArialMT-35"/>
       <use xlink:href="#ArialMT-30" transform="translate(55.615234 0)"/>
      </g>
     </g>
    </g>
    <g id="xtick_3">
     <g id="line2d_3">
      <g>
       <use xlink:href="#md11b204d41" x="240.022993" y="270.423053" style="fill: #262626; stroke: #262626; stroke-width: 1.875"/>
      </g>
     </g>
     <g id="text_3">
      <!-- 100 -->
      <g style="fill: #262626" transform="translate(226.259672 294.733444) scale(0.165 -0.165)">
       <defs>
        <path id="ArialMT-31" d="M 2384 0 
L 1822 0 
L 1822 3584 
Q 1619 3391 1289 3197 
Q 959 3003 697 2906 
L 697 3450 
Q 1169 3672 1522 3987 
Q 1875 4303 2022 4600 
L 2384 4600 
L 2384 0 
z
" transform="scale(0.015625)"/>
       </defs>
       <use xlink:href="#ArialMT-31"/>
       <use xlink:href="#ArialMT-30" transform="translate(55.615234 0)"/>
       <use xlink:href="#ArialMT-30" transform="translate(111.230469 0)"/>
      </g>
     </g>
    </g>
    <g id="xtick_4">
     <g id="line2d_4">
      <g>
       <use xlink:href="#md11b204d41" x="315.822826" y="270.423053" style="fill: #262626; stroke: #262626; stroke-width: 1.875"/>
      </g>
     </g>
     <g id="text_4">
      <!-- 150 -->
      <g style="fill: #262626" transform="translate(302.059506 294.733444) scale(0.165 -0.165)">
       <use xlink:href="#ArialMT-31"/>
       <use xlink:href="#ArialMT-35" transform="translate(55.615234 0)"/>
       <use xlink:href="#ArialMT-30" transform="translate(111.230469 0)"/>
      </g>
     </g>
    </g>
    <g id="xtick_5">
     <g id="line2d_5">
      <g>
       <use xlink:href="#md11b204d41" x="391.622659" y="270.423053" style="fill: #262626; stroke: #262626; stroke-width: 1.875"/>
      </g>
     </g>
     <g id="text_5">
      <!-- 200 -->
      <g style="fill: #262626" transform="translate(377.859339 294.733444) scale(0.165 -0.165)">
       <defs>
        <path id="ArialMT-32" d="M 3222 541 
L 3222 0 
L 194 0 
Q 188 203 259 391 
Q 375 700 629 1000 
Q 884 1300 1366 1694 
Q 2113 2306 2375 2664 
Q 2638 3022 2638 3341 
Q 2638 3675 2398 3904 
Q 2159 4134 1775 4134 
Q 1369 4134 1125 3890 
Q 881 3647 878 3216 
L 300 3275 
Q 359 3922 746 4261 
Q 1134 4600 1788 4600 
Q 2447 4600 2831 4234 
Q 3216 3869 3216 3328 
Q 3216 3053 3103 2787 
Q 2991 2522 2730 2228 
Q 2469 1934 1863 1422 
Q 1356 997 1212 845 
Q 1069 694 975 541 
L 3222 541 
z
" transform="scale(0.015625)"/>
       </defs>
       <use xlink:href="#ArialMT-32"/>
       <use xlink:href="#ArialMT-30" transform="translate(55.615234 0)"/>
       <use xlink:href="#ArialMT-30" transform="translate(111.230469 0)"/>
      </g>
     </g>
    </g>
    <g id="xtick_6">
     <g id="line2d_6">
      <g>
       <use xlink:href="#md11b204d41" x="467.422493" y="270.423053" style="fill: #262626; stroke: #262626; stroke-width: 1.875"/>
      </g>
     </g>
     <g id="text_6">
      <!-- 250 -->
      <g style="fill: #262626" transform="translate(453.659173 294.733444) scale(0.165 -0.165)">
       <use xlink:href="#ArialMT-32"/>
       <use xlink:href="#ArialMT-35" transform="translate(55.615234 0)"/>
       <use xlink:href="#ArialMT-30" transform="translate(111.230469 0)"/>
      </g>
     </g>
    </g>
    <g id="xtick_7">
     <g id="line2d_7">
      <g>
       <use xlink:href="#md11b204d41" x="543.222326" y="270.423053" style="fill: #262626; stroke: #262626; stroke-width: 1.875"/>
      </g>
     </g>
     <g id="text_7">
      <!-- 300 -->
      <g style="fill: #262626" transform="translate(529.459006 294.733444) scale(0.165 -0.165)">
       <defs>
        <path id="ArialMT-33" d="M 269 1209 
L 831 1284 
Q 928 806 1161 595 
Q 1394 384 1728 384 
Q 2125 384 2398 659 
Q 2672 934 2672 1341 
Q 2672 1728 2419 1979 
Q 2166 2231 1775 2231 
Q 1616 2231 1378 2169 
L 1441 2663 
Q 1497 2656 1531 2656 
Q 1891 2656 2178 2843 
Q 2466 3031 2466 3422 
Q 2466 3731 2256 3934 
Q 2047 4138 1716 4138 
Q 1388 4138 1169 3931 
Q 950 3725 888 3313 
L 325 3413 
Q 428 3978 793 4289 
Q 1159 4600 1703 4600 
Q 2078 4600 2393 4439 
Q 2709 4278 2876 4000 
Q 3044 3722 3044 3409 
Q 3044 3113 2884 2869 
Q 2725 2625 2413 2481 
Q 2819 2388 3044 2092 
Q 3269 1797 3269 1353 
Q 3269 753 2831 336 
Q 2394 -81 1725 -81 
Q 1122 -81 723 278 
Q 325 638 269 1209 
z
" transform="scale(0.015625)"/>
       </defs>
       <use xlink:href="#ArialMT-33"/>
       <use xlink:href="#ArialMT-30" transform="translate(55.615234 0)"/>
       <use xlink:href="#ArialMT-30" transform="translate(111.230469 0)"/>
      </g>
     </g>
    </g>
    <g id="xtick_8">
     <g id="line2d_8">
      <g>
       <use xlink:href="#md11b204d41" x="619.02216" y="270.423053" style="fill: #262626; stroke: #262626; stroke-width: 1.875"/>
      </g>
     </g>
     <g id="text_8">
      <!-- 350 -->
      <g style="fill: #262626" transform="translate(605.25884 294.733444) scale(0.165 -0.165)">
       <use xlink:href="#ArialMT-33"/>
       <use xlink:href="#ArialMT-35" transform="translate(55.615234 0)"/>
       <use xlink:href="#ArialMT-30" transform="translate(111.230469 0)"/>
      </g>
     </g>
    </g>
    <g id="xtick_9">
     <g id="line2d_9">
      <g>
       <use xlink:href="#md11b204d41" x="694.821993" y="270.423053" style="fill: #262626; stroke: #262626; stroke-width: 1.875"/>
      </g>
     </g>
     <g id="text_9">
      <!-- 400 -->
      <g style="fill: #262626" transform="translate(681.058673 294.733444) scale(0.165 -0.165)">
       <defs>
        <path id="ArialMT-34" d="M 2069 0 
L 2069 1097 
L 81 1097 
L 81 1613 
L 2172 4581 
L 2631 4581 
L 2631 1613 
L 3250 1613 
L 3250 1097 
L 2631 1097 
L 2631 0 
L 2069 0 
z
M 2069 1613 
L 2069 3678 
L 634 1613 
L 2069 1613 
z
" transform="scale(0.015625)"/>
       </defs>
       <use xlink:href="#ArialMT-34"/>
       <use xlink:href="#ArialMT-30" transform="translate(55.615234 0)"/>
       <use xlink:href="#ArialMT-30" transform="translate(111.230469 0)"/>
      </g>
     </g>
    </g>
    <g id="text_10">
     <!-- Time (min) -->
     <g style="fill: #262626" transform="translate(338.9234 315.116256) scale(0.18 -0.18)">
      <defs>
       <path id="ArialMT-54" d="M 1659 0 
L 1659 4041 
L 150 4041 
L 150 4581 
L 3781 4581 
L 3781 4041 
L 2266 4041 
L 2266 0 
L 1659 0 
z
" transform="scale(0.015625)"/>
       <path id="ArialMT-69" d="M 425 3934 
L 425 4581 
L 988 4581 
L 988 3934 
L 425 3934 
z
M 425 0 
L 425 3319 
L 988 3319 
L 988 0 
L 425 0 
z
" transform="scale(0.015625)"/>
       <path id="ArialMT-6d" d="M 422 0 
L 422 3319 
L 925 3319 
L 925 2853 
Q 1081 3097 1340 3245 
Q 1600 3394 1931 3394 
Q 2300 3394 2536 3241 
Q 2772 3088 2869 2813 
Q 3263 3394 3894 3394 
Q 4388 3394 4653 3120 
Q 4919 2847 4919 2278 
L 4919 0 
L 4359 0 
L 4359 2091 
Q 4359 2428 4304 2576 
Q 4250 2725 4106 2815 
Q 3963 2906 3769 2906 
Q 3419 2906 3187 2673 
Q 2956 2441 2956 1928 
L 2956 0 
L 2394 0 
L 2394 2156 
Q 2394 2531 2256 2718 
Q 2119 2906 1806 2906 
Q 1569 2906 1367 2781 
Q 1166 2656 1075 2415 
Q 984 2175 984 1722 
L 984 0 
L 422 0 
z
" transform="scale(0.015625)"/>
       <path id="ArialMT-65" d="M 2694 1069 
L 3275 997 
Q 3138 488 2766 206 
Q 2394 -75 1816 -75 
Q 1088 -75 661 373 
Q 234 822 234 1631 
Q 234 2469 665 2931 
Q 1097 3394 1784 3394 
Q 2450 3394 2872 2941 
Q 3294 2488 3294 1666 
Q 3294 1616 3291 1516 
L 816 1516 
Q 847 969 1125 678 
Q 1403 388 1819 388 
Q 2128 388 2347 550 
Q 2566 713 2694 1069 
z
M 847 1978 
L 2700 1978 
Q 2663 2397 2488 2606 
Q 2219 2931 1791 2931 
Q 1403 2931 1139 2672 
Q 875 2413 847 1978 
z
" transform="scale(0.015625)"/>
       <path id="ArialMT-20" transform="scale(0.015625)"/>
       <path id="ArialMT-28" d="M 1497 -1347 
Q 1031 -759 709 28 
Q 388 816 388 1659 
Q 388 2403 628 3084 
Q 909 3875 1497 4659 
L 1900 4659 
Q 1522 4009 1400 3731 
Q 1209 3300 1100 2831 
Q 966 2247 966 1656 
Q 966 153 1900 -1347 
L 1497 -1347 
z
" transform="scale(0.015625)"/>
       <path id="ArialMT-6e" d="M 422 0 
L 422 3319 
L 928 3319 
L 928 2847 
Q 1294 3394 1984 3394 
Q 2284 3394 2536 3286 
Q 2788 3178 2913 3003 
Q 3038 2828 3088 2588 
Q 3119 2431 3119 2041 
L 3119 0 
L 2556 0 
L 2556 2019 
Q 2556 2363 2490 2533 
Q 2425 2703 2258 2804 
Q 2091 2906 1866 2906 
Q 1506 2906 1245 2678 
Q 984 2450 984 1813 
L 984 0 
L 422 0 
z
" transform="scale(0.015625)"/>
       <path id="ArialMT-29" d="M 791 -1347 
L 388 -1347 
Q 1322 153 1322 1656 
Q 1322 2244 1188 2822 
Q 1081 3291 891 3722 
Q 769 4003 388 4659 
L 791 4659 
Q 1378 3875 1659 3084 
Q 1900 2403 1900 1659 
Q 1900 816 1576 28 
Q 1253 -759 791 -1347 
z
" transform="scale(0.015625)"/>
      </defs>
      <use xlink:href="#ArialMT-54"/>
      <use xlink:href="#ArialMT-69" transform="translate(57.333984 0)"/>
      <use xlink:href="#ArialMT-6d" transform="translate(79.550781 0)"/>
      <use xlink:href="#ArialMT-65" transform="translate(162.851562 0)"/>
      <use xlink:href="#ArialMT-20" transform="translate(218.466797 0)"/>
      <use xlink:href="#ArialMT-28" transform="translate(246.25 0)"/>
      <use xlink:href="#ArialMT-6d" transform="translate(279.550781 0)"/>
      <use xlink:href="#ArialMT-69" transform="translate(362.851562 0)"/>
      <use xlink:href="#ArialMT-6e" transform="translate(385.068359 0)"/>
      <use xlink:href="#ArialMT-29" transform="translate(440.683594 0)"/>
     </g>
    </g>
   </g>
   <g id="matplotlib.axis_2">
    <g id="ytick_1">
     <g id="line2d_10">
      <defs>
       <path id="mfb20968a51" d="M 0 0 
L -9 0 
" style="stroke: #262626; stroke-width: 1.875"/>
      </defs>
      <g>
       <use xlink:href="#mfb20968a51" x="59.10774" y="250.46143" style="fill: #262626; stroke: #262626; stroke-width: 1.875"/>
      </g>
     </g>
     <g id="text_11">
      <!-- 0.0 -->
      <g style="fill: #262626" transform="translate(23.67274 256.366626) scale(0.165 -0.165)">
       <defs>
        <path id="ArialMT-2e" d="M 581 0 
L 581 641 
L 1222 641 
L 1222 0 
L 581 0 
z
" transform="scale(0.015625)"/>
       </defs>
       <use xlink:href="#ArialMT-30"/>
       <use xlink:href="#ArialMT-2e" transform="translate(55.615234 0)"/>
       <use xlink:href="#ArialMT-30" transform="translate(83.398438 0)"/>
      </g>
     </g>
    </g>
    <g id="ytick_2">
     <g id="line2d_11">
      <g>
       <use xlink:href="#mfb20968a51" x="59.10774" y="213.681119" style="fill: #262626; stroke: #262626; stroke-width: 1.875"/>
      </g>
     </g>
     <g id="text_12">
      <!-- 0.2 -->
      <g style="fill: #262626" transform="translate(23.67274 219.586314) scale(0.165 -0.165)">
       <use xlink:href="#ArialMT-30"/>
       <use xlink:href="#ArialMT-2e" transform="translate(55.615234 0)"/>
       <use xlink:href="#ArialMT-32" transform="translate(83.398438 0)"/>
      </g>
     </g>
    </g>
    <g id="ytick_3">
     <g id="line2d_12">
      <g>
       <use xlink:href="#mfb20968a51" x="59.10774" y="176.900807" style="fill: #262626; stroke: #262626; stroke-width: 1.875"/>
      </g>
     </g>
     <g id="text_13">
      <!-- 0.4 -->
      <g style="fill: #262626" transform="translate(23.67274 182.806002) scale(0.165 -0.165)">
       <use xlink:href="#ArialMT-30"/>
       <use xlink:href="#ArialMT-2e" transform="translate(55.615234 0)"/>
       <use xlink:href="#ArialMT-34" transform="translate(83.398438 0)"/>
      </g>
     </g>
    </g>
    <g id="ytick_4">
     <g id="line2d_13">
      <g>
       <use xlink:href="#mfb20968a51" x="59.10774" y="140.120495" style="fill: #262626; stroke: #262626; stroke-width: 1.875"/>
      </g>
     </g>
     <g id="text_14">
      <!-- 0.6 -->
      <g style="fill: #262626" transform="translate(23.67274 146.025691) scale(0.165 -0.165)">
       <defs>
        <path id="ArialMT-36" d="M 3184 3459 
L 2625 3416 
Q 2550 3747 2413 3897 
Q 2184 4138 1850 4138 
Q 1581 4138 1378 3988 
Q 1113 3794 959 3422 
Q 806 3050 800 2363 
Q 1003 2672 1297 2822 
Q 1591 2972 1913 2972 
Q 2475 2972 2870 2558 
Q 3266 2144 3266 1488 
Q 3266 1056 3080 686 
Q 2894 316 2569 119 
Q 2244 -78 1831 -78 
Q 1128 -78 684 439 
Q 241 956 241 2144 
Q 241 3472 731 4075 
Q 1159 4600 1884 4600 
Q 2425 4600 2770 4297 
Q 3116 3994 3184 3459 
z
M 888 1484 
Q 888 1194 1011 928 
Q 1134 663 1356 523 
Q 1578 384 1822 384 
Q 2178 384 2434 671 
Q 2691 959 2691 1453 
Q 2691 1928 2437 2201 
Q 2184 2475 1800 2475 
Q 1419 2475 1153 2201 
Q 888 1928 888 1484 
z
" transform="scale(0.015625)"/>
       </defs>
       <use xlink:href="#ArialMT-30"/>
       <use xlink:href="#ArialMT-2e" transform="translate(55.615234 0)"/>
       <use xlink:href="#ArialMT-36" transform="translate(83.398438 0)"/>
      </g>
     </g>
    </g>
    <g id="ytick_5">
     <g id="line2d_14">
      <g>
       <use xlink:href="#mfb20968a51" x="59.10774" y="103.340184" style="fill: #262626; stroke: #262626; stroke-width: 1.875"/>
      </g>
     </g>
     <g id="text_15">
      <!-- 0.8 -->
      <g style="fill: #262626" transform="translate(23.67274 109.245379) scale(0.165 -0.165)">
       <defs>
        <path id="ArialMT-38" d="M 1131 2484 
Q 781 2613 612 2850 
Q 444 3088 444 3419 
Q 444 3919 803 4259 
Q 1163 4600 1759 4600 
Q 2359 4600 2725 4251 
Q 3091 3903 3091 3403 
Q 3091 3084 2923 2848 
Q 2756 2613 2416 2484 
Q 2838 2347 3058 2040 
Q 3278 1734 3278 1309 
Q 3278 722 2862 322 
Q 2447 -78 1769 -78 
Q 1091 -78 675 323 
Q 259 725 259 1325 
Q 259 1772 486 2073 
Q 713 2375 1131 2484 
z
M 1019 3438 
Q 1019 3113 1228 2906 
Q 1438 2700 1772 2700 
Q 2097 2700 2305 2904 
Q 2513 3109 2513 3406 
Q 2513 3716 2298 3927 
Q 2084 4138 1766 4138 
Q 1444 4138 1231 3931 
Q 1019 3725 1019 3438 
z
M 838 1322 
Q 838 1081 952 856 
Q 1066 631 1291 507 
Q 1516 384 1775 384 
Q 2178 384 2440 643 
Q 2703 903 2703 1303 
Q 2703 1709 2433 1975 
Q 2163 2241 1756 2241 
Q 1359 2241 1098 1978 
Q 838 1716 838 1322 
z
" transform="scale(0.015625)"/>
       </defs>
       <use xlink:href="#ArialMT-30"/>
       <use xlink:href="#ArialMT-2e" transform="translate(55.615234 0)"/>
       <use xlink:href="#ArialMT-38" transform="translate(83.398438 0)"/>
      </g>
     </g>
    </g>
    <g id="ytick_6">
     <g id="line2d_15">
      <g>
       <use xlink:href="#mfb20968a51" x="59.10774" y="66.559872" style="fill: #262626; stroke: #262626; stroke-width: 1.875"/>
      </g>
     </g>
     <g id="text_16">
      <!-- 1.0 -->
      <g style="fill: #262626" transform="translate(23.67274 72.465067) scale(0.165 -0.165)">
       <use xlink:href="#ArialMT-31"/>
       <use xlink:href="#ArialMT-2e" transform="translate(55.615234 0)"/>
       <use xlink:href="#ArialMT-30" transform="translate(83.398438 0)"/>
      </g>
     </g>
    </g>
    <g id="ytick_7">
     <g id="line2d_16">
      <g>
       <use xlink:href="#mfb20968a51" x="59.10774" y="29.77956" style="fill: #262626; stroke: #262626; stroke-width: 1.875"/>
      </g>
     </g>
     <g id="text_17">
      <!-- 1.2 -->
      <g style="fill: #262626" transform="translate(23.67274 35.684756) scale(0.165 -0.165)">
       <use xlink:href="#ArialMT-31"/>
       <use xlink:href="#ArialMT-2e" transform="translate(55.615234 0)"/>
       <use xlink:href="#ArialMT-32" transform="translate(83.398438 0)"/>
      </g>
     </g>
    </g>
    <g id="text_18">
     <!-- y value -->
     <g style="fill: #262626" transform="translate(15.884303 174.668209) rotate(-90) scale(0.18 -0.18)">
      <defs>
       <path id="ArialMT-79" d="M 397 -1278 
L 334 -750 
Q 519 -800 656 -800 
Q 844 -800 956 -737 
Q 1069 -675 1141 -563 
Q 1194 -478 1313 -144 
Q 1328 -97 1363 -6 
L 103 3319 
L 709 3319 
L 1400 1397 
Q 1534 1031 1641 628 
Q 1738 1016 1872 1384 
L 2581 3319 
L 3144 3319 
L 1881 -56 
Q 1678 -603 1566 -809 
Q 1416 -1088 1222 -1217 
Q 1028 -1347 759 -1347 
Q 597 -1347 397 -1278 
z
" transform="scale(0.015625)"/>
       <path id="ArialMT-76" d="M 1344 0 
L 81 3319 
L 675 3319 
L 1388 1331 
Q 1503 1009 1600 663 
Q 1675 925 1809 1294 
L 2547 3319 
L 3125 3319 
L 1869 0 
L 1344 0 
z
" transform="scale(0.015625)"/>
       <path id="ArialMT-61" d="M 2588 409 
Q 2275 144 1986 34 
Q 1697 -75 1366 -75 
Q 819 -75 525 192 
Q 231 459 231 875 
Q 231 1119 342 1320 
Q 453 1522 633 1644 
Q 813 1766 1038 1828 
Q 1203 1872 1538 1913 
Q 2219 1994 2541 2106 
Q 2544 2222 2544 2253 
Q 2544 2597 2384 2738 
Q 2169 2928 1744 2928 
Q 1347 2928 1158 2789 
Q 969 2650 878 2297 
L 328 2372 
Q 403 2725 575 2942 
Q 747 3159 1072 3276 
Q 1397 3394 1825 3394 
Q 2250 3394 2515 3294 
Q 2781 3194 2906 3042 
Q 3031 2891 3081 2659 
Q 3109 2516 3109 2141 
L 3109 1391 
Q 3109 606 3145 398 
Q 3181 191 3288 0 
L 2700 0 
Q 2613 175 2588 409 
z
M 2541 1666 
Q 2234 1541 1622 1453 
Q 1275 1403 1131 1340 
Q 988 1278 909 1158 
Q 831 1038 831 891 
Q 831 666 1001 516 
Q 1172 366 1500 366 
Q 1825 366 2078 508 
Q 2331 650 2450 897 
Q 2541 1088 2541 1459 
L 2541 1666 
z
" transform="scale(0.015625)"/>
       <path id="ArialMT-6c" d="M 409 0 
L 409 4581 
L 972 4581 
L 972 0 
L 409 0 
z
" transform="scale(0.015625)"/>
       <path id="ArialMT-75" d="M 2597 0 
L 2597 488 
Q 2209 -75 1544 -75 
Q 1250 -75 995 37 
Q 741 150 617 320 
Q 494 491 444 738 
Q 409 903 409 1263 
L 409 3319 
L 972 3319 
L 972 1478 
Q 972 1038 1006 884 
Q 1059 663 1231 536 
Q 1403 409 1656 409 
Q 1909 409 2131 539 
Q 2353 669 2445 892 
Q 2538 1116 2538 1541 
L 2538 3319 
L 3100 3319 
L 3100 0 
L 2597 0 
z
" transform="scale(0.015625)"/>
      </defs>
      <use xlink:href="#ArialMT-79"/>
      <use xlink:href="#ArialMT-20" transform="translate(50 0)"/>
      <use xlink:href="#ArialMT-76" transform="translate(77.783203 0)"/>
      <use xlink:href="#ArialMT-61" transform="translate(127.783203 0)"/>
      <use xlink:href="#ArialMT-6c" transform="translate(183.398438 0)"/>
      <use xlink:href="#ArialMT-75" transform="translate(205.615234 0)"/>
      <use xlink:href="#ArialMT-65" transform="translate(261.230469 0)"/>
     </g>
    </g>
   </g>
   <g id="FillBetweenPolyCollection_1"/>
   <g id="FillBetweenPolyCollection_2"/>
   <g id="FillBetweenPolyCollection_3"/>
   <g id="FillBetweenPolyCollection_4"/>
   <g id="line2d_17">
    <path d="M 88.423326 158.510651 
L 91.07632 119.359914 
L 92.592316 99.899019 
L 93.729314 87.661358 
L 94.866311 77.933569 
L 95.62431 73.016979 
L 96.382308 69.448675 
L 97.140306 67.284931 
L 97.519306 66.741316 
L 97.898305 66.559872 
L 98.277304 66.741316 
L 98.656303 67.284931 
L 99.035302 68.188573 
L 99.793301 71.060264 
L 100.551299 75.311099 
L 101.309297 80.874041 
L 102.446295 91.481418 
L 103.583292 104.463339 
L 105.099289 124.661312 
L 107.752283 164.284288 
L 110.026278 197.661389 
L 111.542275 217.122284 
L 112.679272 229.359944 
L 113.81627 239.087733 
L 114.574268 244.004323 
L 115.332266 247.572627 
L 116.090265 249.736371 
L 116.469264 250.279986 
L 116.848263 250.46143 
L 117.227262 250.279986 
L 117.606261 249.736371 
L 117.985261 248.832729 
L 118.743259 245.961039 
L 119.501257 241.710204 
L 120.259256 236.147262 
L 121.396253 225.539884 
L 122.533251 212.557963 
L 124.049247 192.359991 
L 126.702241 152.737014 
L 128.976237 119.359914 
L 130.492233 99.899019 
L 131.629231 87.661358 
L 132.766228 77.933569 
L 133.524227 73.016979 
L 134.282225 69.448675 
L 135.040223 67.284931 
L 135.419222 66.741316 
L 135.798222 66.559872 
L 136.177221 66.741316 
L 136.55622 67.284931 
L 136.935219 68.188573 
L 137.693217 71.060264 
L 138.451216 75.311099 
L 139.209214 80.874041 
L 140.346212 91.481418 
L 141.483209 104.463339 
L 142.999206 124.661312 
L 145.6522 164.284288 
L 147.926195 197.661389 
L 149.442192 217.122284 
L 150.579189 229.359944 
L 151.716187 239.087733 
L 152.474185 244.004323 
L 153.232183 247.572627 
L 153.990182 249.736371 
L 154.369181 250.279986 
L 154.74818 250.46143 
L 155.127179 250.279986 
L 155.506178 249.736371 
L 155.885177 248.832729 
L 156.643176 245.961039 
L 157.401174 241.710204 
L 158.159172 236.147262 
L 159.29617 225.539884 
L 160.433167 212.557963 
L 161.949164 192.359991 
L 164.602158 152.737014 
L 166.876153 119.359914 
L 168.39215 99.899019 
L 169.529147 87.661358 
L 170.666145 77.933569 
L 171.424143 73.016979 
L 172.182142 69.448675 
L 172.94014 67.284931 
L 173.319139 66.741316 
L 173.698138 66.559872 
L 174.077137 66.741316 
L 174.456137 67.284931 
L 174.835136 68.188573 
L 175.593134 71.060264 
L 176.351132 75.311099 
L 177.109131 80.874041 
L 178.246128 91.481418 
L 179.383126 104.463339 
L 180.899122 124.661312 
L 183.552117 164.284288 
L 185.826112 197.661389 
L 187.342108 217.122284 
L 188.479106 229.359944 
L 189.616103 239.087733 
L 190.374102 244.004323 
L 191.1321 247.572627 
L 191.890098 249.736371 
L 192.269097 250.279986 
L 192.648097 250.46143 
L 193.027096 250.279986 
L 193.406095 249.736371 
L 193.785094 248.832729 
L 194.543092 245.961039 
L 195.301091 241.710204 
L 196.059089 236.147262 
L 197.196087 225.539884 
L 198.333084 212.557963 
L 199.849081 192.359991 
L 202.502075 152.737014 
L 204.77607 119.359914 
L 206.292067 99.899019 
L 207.429064 87.661358 
L 208.566062 77.933569 
L 209.32406 73.016979 
L 210.082058 69.448675 
L 210.840057 67.284931 
L 211.219056 66.741316 
L 211.598055 66.559872 
L 211.977054 66.741316 
L 212.356053 67.284931 
L 212.735052 68.188573 
L 213.493051 71.060264 
L 214.251049 75.311099 
L 215.009047 80.874041 
L 216.146045 91.481418 
L 217.283042 104.463339 
L 218.799039 124.661312 
L 221.452033 164.284288 
L 223.726028 197.661389 
L 225.242025 217.122284 
L 226.379023 229.359944 
L 227.51602 239.087733 
L 228.274018 244.004323 
L 229.032017 247.572627 
L 229.790015 249.736371 
L 230.169014 250.279986 
L 230.548013 250.46143 
L 230.927013 250.279986 
L 231.306012 249.736371 
L 231.685011 248.832729 
L 232.443009 245.961039 
L 233.201008 241.710204 
L 233.959006 236.147262 
L 235.096003 225.539884 
L 236.233001 212.557963 
L 237.748998 192.359991 
L 240.401992 152.737014 
L 242.675987 119.359914 
L 244.191983 99.899019 
L 245.328981 87.661358 
L 246.465978 77.933569 
L 247.223977 73.016979 
L 247.981975 69.448675 
L 248.739973 67.284931 
L 249.118973 66.741316 
L 249.497972 66.559872 
L 249.876971 66.741316 
L 250.25597 67.284931 
L 250.634969 68.188573 
L 251.392968 71.060264 
L 252.150966 75.311099 
L 252.908964 80.874041 
L 254.045962 91.481418 
L 255.182959 104.463339 
L 256.698956 124.661312 
L 259.35195 164.284288 
L 261.625945 197.661389 
L 263.141942 217.122284 
L 264.278939 229.359944 
L 265.415937 239.087733 
L 266.173935 244.004323 
L 266.931933 247.572627 
L 267.689932 249.736371 
L 268.068931 250.279986 
L 268.44793 250.46143 
L 268.826929 250.279986 
L 269.205928 249.736371 
L 269.584928 248.832729 
L 270.342926 245.961039 
L 271.100924 241.710204 
L 271.858923 236.147262 
L 272.99592 225.539884 
L 274.132918 212.557963 
L 275.648914 192.359991 
L 278.301908 152.737014 
L 280.575903 119.359914 
L 282.0919 99.899019 
L 283.228898 87.661358 
L 284.365895 77.933569 
L 285.123893 73.016979 
L 285.881892 69.448675 
L 286.63989 67.284931 
L 287.018889 66.741316 
L 287.397888 66.559872 
L 287.776888 66.741316 
L 288.155887 67.284931 
L 288.534886 68.188573 
L 289.292884 71.060264 
L 290.050883 75.311099 
L 290.808881 80.874041 
L 291.945878 91.481418 
L 293.082876 104.463339 
L 294.598873 124.661312 
L 297.251867 164.284288 
L 299.525862 197.661389 
L 301.041858 217.122284 
L 302.178856 229.359944 
L 303.315853 239.087733 
L 304.073852 244.004323 
L 304.83185 247.572627 
L 305.589848 249.736371 
L 305.968848 250.279986 
L 306.347847 250.46143 
L 306.726846 250.279986 
L 307.105845 249.736371 
L 307.484844 248.832729 
L 308.242843 245.961039 
L 309.000841 241.710204 
L 309.758839 236.147262 
L 310.895837 225.539884 
L 312.032834 212.557963 
L 313.548831 192.359991 
L 316.201825 152.737014 
L 318.47582 119.359914 
L 319.991817 99.899019 
L 321.128814 87.661358 
L 322.265812 77.933569 
L 323.02381 73.016979 
L 323.781809 69.448675 
L 324.539807 67.284931 
L 324.918806 66.741316 
L 325.297805 66.559872 
L 325.676804 66.741316 
L 326.055804 67.284931 
L 326.434803 68.188573 
L 327.192801 71.060264 
L 327.950799 75.311099 
L 328.708798 80.874041 
L 329.845795 91.481418 
L 330.982793 104.463339 
L 332.498789 124.661312 
L 335.151784 164.284288 
L 337.425779 197.661389 
L 338.941775 217.122284 
L 340.078773 229.359944 
L 341.21577 239.087733 
L 341.973769 244.004323 
L 342.731767 247.572627 
L 343.489765 249.736371 
L 343.868764 250.279986 
L 344.247764 250.46143 
L 344.626763 250.279986 
L 345.005762 249.736371 
L 345.384761 248.832729 
L 346.142759 245.961039 
L 346.900758 241.710204 
L 347.658756 236.147262 
L 348.795754 225.539884 
L 349.932751 212.557963 
L 351.448748 192.359991 
L 354.101742 152.737014 
L 356.375737 119.359914 
L 357.891734 99.899019 
L 359.028731 87.661358 
L 360.165729 77.933569 
L 360.923727 73.016979 
L 361.681725 69.448675 
L 362.439724 67.284931 
L 362.818723 66.741316 
L 363.197722 66.559872 
L 363.576721 66.741316 
L 363.95572 67.284931 
L 364.334719 68.188573 
L 365.092718 71.060264 
L 365.850716 75.311099 
L 366.608714 80.874041 
L 367.745712 91.481418 
L 368.882709 104.463339 
L 370.398706 124.661312 
L 373.0517 164.284288 
L 375.325695 197.661389 
L 376.841692 217.122284 
L 377.978689 229.359944 
L 379.115687 239.087733 
L 379.873685 244.004323 
L 380.631684 247.572627 
L 381.389682 249.736371 
L 381.768681 250.279986 
L 382.14768 250.46143 
L 382.526679 250.279986 
L 382.905679 249.736371 
L 383.284678 248.832729 
L 384.042676 245.961039 
L 384.800674 241.710204 
L 385.558673 236.147262 
L 386.69567 225.539884 
L 387.832668 212.557963 
L 389.348664 192.359991 
L 392.001659 152.737014 
L 394.275654 119.359914 
L 395.79165 99.899019 
L 396.928648 87.661358 
L 398.065645 77.933569 
L 398.823644 73.016979 
L 399.581642 69.448675 
L 400.33964 67.284931 
L 400.718639 66.741316 
L 401.097639 66.559872 
L 401.476638 66.741316 
L 401.855637 67.284931 
L 402.234636 68.188573 
L 402.992634 71.060264 
L 403.750633 75.311099 
L 404.508631 80.874041 
L 405.645629 91.481418 
L 406.782626 104.463339 
L 408.298623 124.661312 
L 410.951617 164.284288 
L 413.225612 197.661389 
L 414.741609 217.122284 
L 415.878606 229.359944 
L 417.015604 239.087733 
L 417.773602 244.004323 
L 418.5316 247.572627 
L 419.289599 249.736371 
L 419.668598 250.279986 
L 420.047597 250.46143 
L 420.426596 250.279986 
L 420.805595 249.736371 
L 421.184595 248.832729 
L 421.942593 245.961039 
L 422.700591 241.710204 
L 423.45859 236.147262 
L 424.595587 225.539884 
L 425.732585 212.557963 
L 427.248581 192.359991 
L 429.901575 152.737014 
L 432.17557 119.359914 
L 433.691567 99.899019 
L 434.828565 87.661358 
L 435.965562 77.933569 
L 436.72356 73.016979 
L 437.481559 69.448675 
L 438.239557 67.284931 
L 438.618556 66.741316 
L 438.997555 66.559872 
L 439.376555 66.741316 
L 439.755554 67.284931 
L 440.134553 68.188573 
L 440.892551 71.060264 
L 441.65055 75.311099 
L 442.408548 80.874041 
L 443.545545 91.481418 
L 444.682543 104.463339 
L 446.19854 124.661312 
L 448.851534 164.284288 
L 451.125529 197.661389 
L 452.641525 217.122284 
L 453.778523 229.359944 
L 454.91552 239.087733 
L 455.673519 244.004323 
L 456.431517 247.572627 
L 457.189515 249.736371 
L 457.568515 250.279986 
L 457.947514 250.46143 
L 458.326513 250.279986 
L 458.705512 249.736371 
L 459.084511 248.832729 
L 459.84251 245.961039 
L 460.600508 241.710204 
L 461.358506 236.147262 
L 462.495504 225.539884 
L 463.632501 212.557963 
L 465.148498 192.359991 
L 467.801492 152.737014 
L 470.075487 119.359914 
L 471.591484 99.899019 
L 472.728481 87.661358 
L 473.865479 77.933569 
L 474.623477 73.016979 
L 475.381475 69.448675 
L 476.139474 67.284931 
L 476.518473 66.741316 
L 476.897472 66.559872 
L 477.276471 66.741316 
L 477.65547 67.284931 
L 478.03447 68.188573 
L 478.792468 71.060264 
L 479.550466 75.311099 
L 480.308465 80.874041 
L 481.445462 91.481418 
L 482.58246 104.463339 
L 484.098456 124.661312 
L 486.75145 164.284288 
L 489.025445 197.661389 
L 490.541442 217.122284 
L 491.67844 229.359944 
L 492.815437 239.087733 
L 493.573435 244.004323 
L 494.331434 247.572627 
L 495.089432 249.736371 
L 495.468431 250.279986 
L 495.84743 250.46143 
L 496.22643 250.279986 
L 496.605429 249.736371 
L 496.984428 248.832729 
L 497.742426 245.961039 
L 498.500425 241.710204 
L 499.258423 236.147262 
L 500.395421 225.539884 
L 501.532418 212.557963 
L 503.048415 192.359991 
L 505.701409 152.737014 
L 507.975404 119.359914 
L 509.491401 99.899019 
L 510.628398 87.661358 
L 511.765396 77.933569 
L 512.523394 73.016979 
L 513.281392 69.448675 
L 514.039391 67.284931 
L 514.41839 66.741316 
L 514.797389 66.559872 
L 515.176388 66.741316 
L 515.555387 67.284931 
L 515.934386 68.188573 
L 516.692385 71.060264 
L 517.450383 75.311099 
L 518.208381 80.874041 
L 519.345379 91.481418 
L 520.482376 104.463339 
L 521.998373 124.661312 
L 524.651367 164.284288 
L 526.925362 197.661389 
L 528.441359 217.122284 
L 529.578356 229.359944 
L 530.715354 239.087733 
L 531.473352 244.004323 
L 532.231351 247.572627 
L 532.989349 249.736371 
L 533.368348 250.279986 
L 533.747347 250.46143 
L 534.126346 250.279986 
L 534.505346 249.736371 
L 534.884345 248.832729 
L 535.642343 245.961039 
L 536.400341 241.710204 
L 537.15834 236.147262 
L 538.295337 225.539884 
L 539.432335 212.557963 
L 540.948331 192.359991 
L 543.601326 152.737014 
L 545.875321 119.359914 
L 547.391317 99.899019 
L 548.528315 87.661358 
L 549.665312 77.933569 
L 550.423311 73.016979 
L 551.181309 69.448675 
L 551.939307 67.284931 
L 552.318306 66.741316 
L 552.697306 66.559872 
L 553.076305 66.741316 
L 553.455304 67.284931 
L 553.834303 68.188573 
L 554.592301 71.060264 
L 555.3503 75.311099 
L 556.108298 80.874041 
L 557.245296 91.481418 
L 558.382293 104.463339 
L 559.89829 124.661312 
L 562.551284 164.284288 
L 564.825279 197.661389 
L 566.341276 217.122284 
L 567.478273 229.359944 
L 568.615271 239.087733 
L 569.373269 244.004323 
L 570.131267 247.572627 
L 570.889266 249.736371 
L 571.268265 250.279986 
L 571.647264 250.46143 
L 572.026263 250.279986 
L 572.405262 249.736371 
L 572.784261 248.832729 
L 573.54226 245.961039 
L 574.300258 241.710204 
L 575.058256 236.147262 
L 576.195254 225.539884 
L 577.332251 212.557963 
L 578.848248 192.359991 
L 581.501242 152.737014 
L 583.775237 119.359914 
L 585.291234 99.899019 
L 586.428231 87.661358 
L 587.565229 77.933569 
L 588.323227 73.016979 
L 589.081226 69.448675 
L 589.839224 67.284931 
L 590.218223 66.741316 
L 590.597222 66.559872 
L 590.976221 66.741316 
L 591.355221 67.284931 
L 591.73422 68.188573 
L 592.492218 71.060264 
L 593.250217 75.311099 
L 594.008215 80.874041 
L 595.145212 91.481418 
L 596.28221 104.463339 
L 597.798207 124.661312 
L 600.451201 164.284288 
L 602.725196 197.661389 
L 604.241192 217.122284 
L 605.37819 229.359944 
L 606.515187 239.087733 
L 607.273186 244.004323 
L 608.031184 247.572627 
L 608.789182 249.736371 
L 609.168182 250.279986 
L 609.547181 250.46143 
L 609.92618 250.279986 
L 610.305179 249.736371 
L 610.684178 248.832729 
L 611.442177 245.961039 
L 612.200175 241.710204 
L 612.958173 236.147262 
L 614.095171 225.539884 
L 615.232168 212.557963 
L 616.748165 192.359991 
L 619.401159 152.737014 
L 621.675154 119.359914 
L 623.191151 99.899019 
L 624.328148 87.661358 
L 625.465146 77.933569 
L 626.223144 73.016979 
L 626.981142 69.448675 
L 627.739141 67.284931 
L 628.11814 66.741316 
L 628.497139 66.559872 
L 628.876138 66.741316 
L 629.255137 67.284931 
L 629.634137 68.188573 
L 630.392135 71.060264 
L 631.150133 75.311099 
L 631.908132 80.874041 
L 633.045129 91.481418 
L 634.182127 104.463339 
L 635.698123 124.661312 
L 638.351117 164.284288 
L 640.625112 197.661389 
L 642.141109 217.122284 
L 643.278107 229.359944 
L 644.415104 239.087733 
L 645.173102 244.004323 
L 645.931101 247.572627 
L 646.689099 249.736371 
L 647.068098 250.279986 
L 647.447097 250.46143 
L 647.826097 250.279986 
L 648.205096 249.736371 
L 648.584095 248.832729 
L 649.342093 245.961039 
L 650.100092 241.710204 
L 650.85809 236.147262 
L 651.995087 225.539884 
L 653.132085 212.557963 
L 654.648082 192.359991 
L 657.301076 152.737014 
L 659.575071 119.359914 
L 661.091067 99.899019 
L 662.228065 87.661358 
L 663.365062 77.933569 
L 664.123061 73.016979 
L 664.881059 69.448675 
L 665.639057 67.284931 
L 666.018057 66.741316 
L 666.397056 66.559872 
L 666.776055 66.741316 
L 667.155054 67.284931 
L 667.534053 68.188573 
L 668.292052 71.060264 
L 669.05005 75.311099 
L 669.808048 80.874041 
L 670.945046 91.481418 
L 672.082043 104.463339 
L 673.59804 124.661312 
L 674.735037 141.280793 
L 674.735037 141.280793 
" clip-path="url(#p4846ff73b7)" style="fill: none; stroke: #000000; stroke-width: 2.25; stroke-linecap: round"/>
   </g>
   <g id="line2d_18">
    <path d="M 122.533251 211.738832 
L 129.355236 113.048844 
L 136.177221 81.451399 
L 142.999206 129.827856 
L 149.821191 219.318597 
L 156.643176 241.47391 
L 163.465161 162.516744 
L 170.287146 85.297323 
L 177.109131 83.942014 
L 183.931116 170.715261 
L 190.753101 244.309912 
L 197.575086 224.243858 
L 204.397071 135.476482 
L 211.219056 66.97746 
L 218.041041 108.653852 
L 224.863026 214.122722 
L 231.685011 246.612225 
L 238.506996 177.059433 
L 245.328981 83.315589 
L 252.150966 73.48448 
L 258.972951 176.750789 
L 265.794936 246.532254 
L 272.616921 220.043646 
L 279.438906 132.140367 
L 286.260891 68.657469 
L 293.082876 104.809224 
L 299.904861 204.081738 
L 306.726846 242.627617 
L 313.548831 188.260445 
L 320.370816 101.269395 
L 327.192801 66.430596 
L 334.014786 159.453956 
L 340.836771 228.678558 
L 347.658756 233.096435 
L 354.480741 145.458527 
L 361.302726 68.417683 
L 368.124711 106.273048 
L 374.946696 194.585403 
L 381.768681 242.898579 
L 388.590666 201.323452 
L 395.412651 102.190293 
L 402.234636 72.622928 
L 409.056621 135.43321 
L 415.878606 228.524422 
L 422.700591 236.847812 
L 429.522576 152.014257 
L 436.344561 76.596592 
L 443.166546 85.716463 
" clip-path="url(#p4846ff73b7)" style="fill: none; stroke: #4c72b0; stroke-width: 2.25; stroke-linecap: round"/>
    <defs>
     <path id="m3dab631f2c" d="M 0 4.5 
C 1.193414 4.5 2.338109 4.025852 3.181981 3.181981 
C 4.025852 2.338109 4.5 1.193414 4.5 0 
C 4.5 -1.193414 4.025852 -2.338109 3.181981 -3.181981 
C 2.338109 -4.025852 1.193414 -4.5 0 -4.5 
C -1.193414 -4.5 -2.338109 -4.025852 -3.181981 -3.181981 
C -4.025852 -2.338109 -4.5 -1.193414 -4.5 0 
C -4.5 1.193414 -4.025852 2.338109 -3.181981 3.181981 
C -2.338109 4.025852 -1.193414 4.5 0 4.5 
z
" style="stroke: #ffffff; stroke-width: 0.75"/>
    </defs>
    <g clip-path="url(#p4846ff73b7)">
     <use xlink:href="#m3dab631f2c" x="122.533251" y="211.738832" style="fill: #4c72b0; stroke: #ffffff; stroke-width: 0.75"/>
     <use xlink:href="#m3dab631f2c" x="129.355236" y="113.048844" style="fill: #4c72b0; stroke: #ffffff; stroke-width: 0.75"/>
     <use xlink:href="#m3dab631f2c" x="136.177221" y="81.451399" style="fill: #4c72b0; stroke: #ffffff; stroke-width: 0.75"/>
     <use xlink:href="#m3dab631f2c" x="142.999206" y="129.827856" style="fill: #4c72b0; stroke: #ffffff; stroke-width: 0.75"/>
     <use xlink:href="#m3dab631f2c" x="149.821191" y="219.318597" style="fill: #4c72b0; stroke: #ffffff; stroke-width: 0.75"/>
     <use xlink:href="#m3dab631f2c" x="156.643176" y="241.47391" style="fill: #4c72b0; stroke: #ffffff; stroke-width: 0.75"/>
     <use xlink:href="#m3dab631f2c" x="163.465161" y="162.516744" style="fill: #4c72b0; stroke: #ffffff; stroke-width: 0.75"/>
     <use xlink:href="#m3dab631f2c" x="170.287146" y="85.297323" style="fill: #4c72b0; stroke: #ffffff; stroke-width: 0.75"/>
     <use xlink:href="#m3dab631f2c" x="177.109131" y="83.942014" style="fill: #4c72b0; stroke: #ffffff; stroke-width: 0.75"/>
     <use xlink:href="#m3dab631f2c" x="183.931116" y="170.715261" style="fill: #4c72b0; stroke: #ffffff; stroke-width: 0.75"/>
     <use xlink:href="#m3dab631f2c" x="190.753101" y="244.309912" style="fill: #4c72b0; stroke: #ffffff; stroke-width: 0.75"/>
     <use xlink:href="#m3dab631f2c" x="197.575086" y="224.243858" style="fill: #4c72b0; stroke: #ffffff; stroke-width: 0.75"/>
     <use xlink:href="#m3dab631f2c" x="204.397071" y="135.476482" style="fill: #4c72b0; stroke: #ffffff; stroke-width: 0.75"/>
     <use xlink:href="#m3dab631f2c" x="211.219056" y="66.97746" style="fill: #4c72b0; stroke: #ffffff; stroke-width: 0.75"/>
     <use xlink:href="#m3dab631f2c" x="218.041041" y="108.653852" style="fill: #4c72b0; stroke: #ffffff; stroke-width: 0.75"/>
     <use xlink:href="#m3dab631f2c" x="224.863026" y="214.122722" style="fill: #4c72b0; stroke: #ffffff; stroke-width: 0.75"/>
     <use xlink:href="#m3dab631f2c" x="231.685011" y="246.612225" style="fill: #4c72b0; stroke: #ffffff; stroke-width: 0.75"/>
     <use xlink:href="#m3dab631f2c" x="238.506996" y="177.059433" style="fill: #4c72b0; stroke: #ffffff; stroke-width: 0.75"/>
     <use xlink:href="#m3dab631f2c" x="245.328981" y="83.315589" style="fill: #4c72b0; stroke: #ffffff; stroke-width: 0.75"/>
     <use xlink:href="#m3dab631f2c" x="252.150966" y="73.48448" style="fill: #4c72b0; stroke: #ffffff; stroke-width: 0.75"/>
     <use xlink:href="#m3dab631f2c" x="258.972951" y="176.750789" style="fill: #4c72b0; stroke: #ffffff; stroke-width: 0.75"/>
     <use xlink:href="#m3dab631f2c" x="265.794936" y="246.532254" style="fill: #4c72b0; stroke: #ffffff; stroke-width: 0.75"/>
     <use xlink:href="#m3dab631f2c" x="272.616921" y="220.043646" style="fill: #4c72b0; stroke: #ffffff; stroke-width: 0.75"/>
     <use xlink:href="#m3dab631f2c" x="279.438906" y="132.140367" style="fill: #4c72b0; stroke: #ffffff; stroke-width: 0.75"/>
     <use xlink:href="#m3dab631f2c" x="286.260891" y="68.657469" style="fill: #4c72b0; stroke: #ffffff; stroke-width: 0.75"/>
     <use xlink:href="#m3dab631f2c" x="293.082876" y="104.809224" style="fill: #4c72b0; stroke: #ffffff; stroke-width: 0.75"/>
     <use xlink:href="#m3dab631f2c" x="299.904861" y="204.081738" style="fill: #4c72b0; stroke: #ffffff; stroke-width: 0.75"/>
     <use xlink:href="#m3dab631f2c" x="306.726846" y="242.627617" style="fill: #4c72b0; stroke: #ffffff; stroke-width: 0.75"/>
     <use xlink:href="#m3dab631f2c" x="313.548831" y="188.260445" style="fill: #4c72b0; stroke: #ffffff; stroke-width: 0.75"/>
     <use xlink:href="#m3dab631f2c" x="320.370816" y="101.269395" style="fill: #4c72b0; stroke: #ffffff; stroke-width: 0.75"/>
     <use xlink:href="#m3dab631f2c" x="327.192801" y="66.430596" style="fill: #4c72b0; stroke: #ffffff; stroke-width: 0.75"/>
     <use xlink:href="#m3dab631f2c" x="334.014786" y="159.453956" style="fill: #4c72b0; stroke: #ffffff; stroke-width: 0.75"/>
     <use xlink:href="#m3dab631f2c" x="340.836771" y="228.678558" style="fill: #4c72b0; stroke: #ffffff; stroke-width: 0.75"/>
     <use xlink:href="#m3dab631f2c" x="347.658756" y="233.096435" style="fill: #4c72b0; stroke: #ffffff; stroke-width: 0.75"/>
     <use xlink:href="#m3dab631f2c" x="354.480741" y="145.458527" style="fill: #4c72b0; stroke: #ffffff; stroke-width: 0.75"/>
     <use xlink:href="#m3dab631f2c" x="361.302726" y="68.417683" style="fill: #4c72b0; stroke: #ffffff; stroke-width: 0.75"/>
     <use xlink:href="#m3dab631f2c" x="368.124711" y="106.273048" style="fill: #4c72b0; stroke: #ffffff; stroke-width: 0.75"/>
     <use xlink:href="#m3dab631f2c" x="374.946696" y="194.585403" style="fill: #4c72b0; stroke: #ffffff; stroke-width: 0.75"/>
     <use xlink:href="#m3dab631f2c" x="381.768681" y="242.898579" style="fill: #4c72b0; stroke: #ffffff; stroke-width: 0.75"/>
     <use xlink:href="#m3dab631f2c" x="388.590666" y="201.323452" style="fill: #4c72b0; stroke: #ffffff; stroke-width: 0.75"/>
     <use xlink:href="#m3dab631f2c" x="395.412651" y="102.190293" style="fill: #4c72b0; stroke: #ffffff; stroke-width: 0.75"/>
     <use xlink:href="#m3dab631f2c" x="402.234636" y="72.622928" style="fill: #4c72b0; stroke: #ffffff; stroke-width: 0.75"/>
     <use xlink:href="#m3dab631f2c" x="409.056621" y="135.43321" style="fill: #4c72b0; stroke: #ffffff; stroke-width: 0.75"/>
     <use xlink:href="#m3dab631f2c" x="415.878606" y="228.524422" style="fill: #4c72b0; stroke: #ffffff; stroke-width: 0.75"/>
     <use xlink:href="#m3dab631f2c" x="422.700591" y="236.847812" style="fill: #4c72b0; stroke: #ffffff; stroke-width: 0.75"/>
     <use xlink:href="#m3dab631f2c" x="429.522576" y="152.014257" style="fill: #4c72b0; stroke: #ffffff; stroke-width: 0.75"/>
     <use xlink:href="#m3dab631f2c" x="436.344561" y="76.596592" style="fill: #4c72b0; stroke: #ffffff; stroke-width: 0.75"/>
     <use xlink:href="#m3dab631f2c" x="443.166546" y="85.716463" style="fill: #4c72b0; stroke: #ffffff; stroke-width: 0.75"/>
    </g>
   </g>
   <g id="line2d_19">
    <path d="M 449.988531 148.722598 
L 456.810516 235.702999 
L 463.632501 183.526979 
L 470.454486 137.163322 
L 477.276471 58.771919 
L 484.098456 116.013012 
L 490.920441 223.731794 
L 497.742426 215.088155 
L 504.564411 97.723318 
L 511.386396 72.941153 
L 518.208381 99.127929 
L 525.030366 232.019297 
L 531.852351 259.125837 
L 538.674336 218.2143 
L 545.496321 132.642074 
L 552.318306 48.683696 
" clip-path="url(#p4846ff73b7)" style="fill: none; stroke: #dd8452; stroke-width: 2.25; stroke-linecap: round"/>
    <defs>
     <path id="m38794993d3" d="M -2.25 4.5 
L 0 2.25 
L 2.25 4.5 
L 4.5 2.25 
L 2.25 0 
L 4.5 -2.25 
L 2.25 -4.5 
L 0 -2.25 
L -2.25 -4.5 
L -4.5 -2.25 
L -2.25 0 
L -4.5 2.25 
z
" style="stroke: #ffffff; stroke-width: 0.75; stroke-linejoin: miter"/>
    </defs>
    <g clip-path="url(#p4846ff73b7)">
     <use xlink:href="#m38794993d3" x="449.988531" y="148.722598" style="fill: #dd8452; stroke: #ffffff; stroke-width: 0.75; stroke-linejoin: miter"/>
     <use xlink:href="#m38794993d3" x="456.810516" y="235.702999" style="fill: #dd8452; stroke: #ffffff; stroke-width: 0.75; stroke-linejoin: miter"/>
     <use xlink:href="#m38794993d3" x="463.632501" y="183.526979" style="fill: #dd8452; stroke: #ffffff; stroke-width: 0.75; stroke-linejoin: miter"/>
     <use xlink:href="#m38794993d3" x="470.454486" y="137.163322" style="fill: #dd8452; stroke: #ffffff; stroke-width: 0.75; stroke-linejoin: miter"/>
     <use xlink:href="#m38794993d3" x="477.276471" y="58.771919" style="fill: #dd8452; stroke: #ffffff; stroke-width: 0.75; stroke-linejoin: miter"/>
     <use xlink:href="#m38794993d3" x="484.098456" y="116.013012" style="fill: #dd8452; stroke: #ffffff; stroke-width: 0.75; stroke-linejoin: miter"/>
     <use xlink:href="#m38794993d3" x="490.920441" y="223.731794" style="fill: #dd8452; stroke: #ffffff; stroke-width: 0.75; stroke-linejoin: miter"/>
     <use xlink:href="#m38794993d3" x="497.742426" y="215.088155" style="fill: #dd8452; stroke: #ffffff; stroke-width: 0.75; stroke-linejoin: miter"/>
     <use xlink:href="#m38794993d3" x="504.564411" y="97.723318" style="fill: #dd8452; stroke: #ffffff; stroke-width: 0.75; stroke-linejoin: miter"/>
     <use xlink:href="#m38794993d3" x="511.386396" y="72.941153" style="fill: #dd8452; stroke: #ffffff; stroke-width: 0.75; stroke-linejoin: miter"/>
     <use xlink:href="#m38794993d3" x="518.208381" y="99.127929" style="fill: #dd8452; stroke: #ffffff; stroke-width: 0.75; stroke-linejoin: miter"/>
     <use xlink:href="#m38794993d3" x="525.030366" y="232.019297" style="fill: #dd8452; stroke: #ffffff; stroke-width: 0.75; stroke-linejoin: miter"/>
     <use xlink:href="#m38794993d3" x="531.852351" y="259.125837" style="fill: #dd8452; stroke: #ffffff; stroke-width: 0.75; stroke-linejoin: miter"/>
     <use xlink:href="#m38794993d3" x="538.674336" y="218.2143" style="fill: #dd8452; stroke: #ffffff; stroke-width: 0.75; stroke-linejoin: miter"/>
     <use xlink:href="#m38794993d3" x="545.496321" y="132.642074" style="fill: #dd8452; stroke: #ffffff; stroke-width: 0.75; stroke-linejoin: miter"/>
     <use xlink:href="#m38794993d3" x="552.318306" y="48.683696" style="fill: #dd8452; stroke: #ffffff; stroke-width: 0.75; stroke-linejoin: miter"/>
    </g>
   </g>
   <g id="line2d_20">
    <path d="M 559.140291 155.503362 
L 565.962276 247.743616 
L 572.784261 224.474804 
L 579.606246 150.800955 
L 586.428231 66.549753 
L 593.250217 85.988808 
L 600.072202 190.759042 
L 606.894187 203.523428 
L 613.716172 218.185713 
L 620.538157 74.110478 
L 627.360142 33.181518 
L 634.182127 111.796321 
L 641.004112 248.993888 
L 647.826097 241.561612 
L 654.648082 140.844622 
L 661.470067 46.726708 
L 668.292052 72.904106 
" clip-path="url(#p4846ff73b7)" style="fill: none; stroke: #55a868; stroke-width: 2.25; stroke-linecap: round"/>
    <defs>
     <path id="me89ef06627" d="M -3.181981 -3.181981 
L -3.181981 3.181981 
L 3.181981 3.181981 
L 3.181981 -3.181981 
z
" style="stroke: #ffffff; stroke-width: 0.75; stroke-linejoin: miter"/>
    </defs>
    <g clip-path="url(#p4846ff73b7)">
     <use xlink:href="#me89ef06627" x="559.140291" y="155.503362" style="fill: #55a868; stroke: #ffffff; stroke-width: 0.75; stroke-linejoin: miter"/>
     <use xlink:href="#me89ef06627" x="565.962276" y="247.743616" style="fill: #55a868; stroke: #ffffff; stroke-width: 0.75; stroke-linejoin: miter"/>
     <use xlink:href="#me89ef06627" x="572.784261" y="224.474804" style="fill: #55a868; stroke: #ffffff; stroke-width: 0.75; stroke-linejoin: miter"/>
     <use xlink:href="#me89ef06627" x="579.606246" y="150.800955" style="fill: #55a868; stroke: #ffffff; stroke-width: 0.75; stroke-linejoin: miter"/>
     <use xlink:href="#me89ef06627" x="586.428231" y="66.549753" style="fill: #55a868; stroke: #ffffff; stroke-width: 0.75; stroke-linejoin: miter"/>
     <use xlink:href="#me89ef06627" x="593.250217" y="85.988808" style="fill: #55a868; stroke: #ffffff; stroke-width: 0.75; stroke-linejoin: miter"/>
     <use xlink:href="#me89ef06627" x="600.072202" y="190.759042" style="fill: #55a868; stroke: #ffffff; stroke-width: 0.75; stroke-linejoin: miter"/>
     <use xlink:href="#me89ef06627" x="606.894187" y="203.523428" style="fill: #55a868; stroke: #ffffff; stroke-width: 0.75; stroke-linejoin: miter"/>
     <use xlink:href="#me89ef06627" x="613.716172" y="218.185713" style="fill: #55a868; stroke: #ffffff; stroke-width: 0.75; stroke-linejoin: miter"/>
     <use xlink:href="#me89ef06627" x="620.538157" y="74.110478" style="fill: #55a868; stroke: #ffffff; stroke-width: 0.75; stroke-linejoin: miter"/>
     <use xlink:href="#me89ef06627" x="627.360142" y="33.181518" style="fill: #55a868; stroke: #ffffff; stroke-width: 0.75; stroke-linejoin: miter"/>
     <use xlink:href="#me89ef06627" x="634.182127" y="111.796321" style="fill: #55a868; stroke: #ffffff; stroke-width: 0.75; stroke-linejoin: miter"/>
     <use xlink:href="#me89ef06627" x="641.004112" y="248.993888" style="fill: #55a868; stroke: #ffffff; stroke-width: 0.75; stroke-linejoin: miter"/>
     <use xlink:href="#me89ef06627" x="647.826097" y="241.561612" style="fill: #55a868; stroke: #ffffff; stroke-width: 0.75; stroke-linejoin: miter"/>
     <use xlink:href="#me89ef06627" x="654.648082" y="140.844622" style="fill: #55a868; stroke: #ffffff; stroke-width: 0.75; stroke-linejoin: miter"/>
     <use xlink:href="#me89ef06627" x="661.470067" y="46.726708" style="fill: #55a868; stroke: #ffffff; stroke-width: 0.75; stroke-linejoin: miter"/>
     <use xlink:href="#me89ef06627" x="668.292052" y="72.904106" style="fill: #55a868; stroke: #ffffff; stroke-width: 0.75; stroke-linejoin: miter"/>
    </g>
   </g>
   <g id="line2d_21"/>
   <g id="line2d_22"/>
   <g id="line2d_23"/>
   <g id="patch_3">
    <path d="M 59.10774 270.423053 
L 59.10774 21.884302 
" style="fill: none; stroke: #262626; stroke-width: 1.875; stroke-linejoin: miter; stroke-linecap: square"/>
   </g>
   <g id="patch_4">
    <path d="M 59.10774 270.423053 
L 704.050623 270.423053 
" style="fill: none; stroke: #262626; stroke-width: 1.875; stroke-linejoin: miter; stroke-linecap: square"/>
   </g>
   <g id="text_19">
    <!-- mins ahead = 22.5 -->
    <g style="fill: #262626" transform="translate(307.281369 15.884302) scale(0.18 -0.18)">
     <defs>
      <path id="ArialMT-73" d="M 197 991 
L 753 1078 
Q 800 744 1014 566 
Q 1228 388 1613 388 
Q 2000 388 2187 545 
Q 2375 703 2375 916 
Q 2375 1106 2209 1216 
Q 2094 1291 1634 1406 
Q 1016 1563 777 1677 
Q 538 1791 414 1992 
Q 291 2194 291 2438 
Q 291 2659 392 2848 
Q 494 3038 669 3163 
Q 800 3259 1026 3326 
Q 1253 3394 1513 3394 
Q 1903 3394 2198 3281 
Q 2494 3169 2634 2976 
Q 2775 2784 2828 2463 
L 2278 2388 
Q 2241 2644 2061 2787 
Q 1881 2931 1553 2931 
Q 1166 2931 1000 2803 
Q 834 2675 834 2503 
Q 834 2394 903 2306 
Q 972 2216 1119 2156 
Q 1203 2125 1616 2013 
Q 2213 1853 2448 1751 
Q 2684 1650 2818 1456 
Q 2953 1263 2953 975 
Q 2953 694 2789 445 
Q 2625 197 2315 61 
Q 2006 -75 1616 -75 
Q 969 -75 630 194 
Q 291 463 197 991 
z
" transform="scale(0.015625)"/>
      <path id="ArialMT-68" d="M 422 0 
L 422 4581 
L 984 4581 
L 984 2938 
Q 1378 3394 1978 3394 
Q 2347 3394 2619 3248 
Q 2891 3103 3008 2847 
Q 3125 2591 3125 2103 
L 3125 0 
L 2563 0 
L 2563 2103 
Q 2563 2525 2380 2717 
Q 2197 2909 1863 2909 
Q 1613 2909 1392 2779 
Q 1172 2650 1078 2428 
Q 984 2206 984 1816 
L 984 0 
L 422 0 
z
" transform="scale(0.015625)"/>
      <path id="ArialMT-64" d="M 2575 0 
L 2575 419 
Q 2259 -75 1647 -75 
Q 1250 -75 917 144 
Q 584 363 401 755 
Q 219 1147 219 1656 
Q 219 2153 384 2558 
Q 550 2963 881 3178 
Q 1213 3394 1622 3394 
Q 1922 3394 2156 3267 
Q 2391 3141 2538 2938 
L 2538 4581 
L 3097 4581 
L 3097 0 
L 2575 0 
z
M 797 1656 
Q 797 1019 1065 703 
Q 1334 388 1700 388 
Q 2069 388 2326 689 
Q 2584 991 2584 1609 
Q 2584 2291 2321 2609 
Q 2059 2928 1675 2928 
Q 1300 2928 1048 2622 
Q 797 2316 797 1656 
z
" transform="scale(0.015625)"/>
      <path id="ArialMT-3d" d="M 3381 2694 
L 356 2694 
L 356 3219 
L 3381 3219 
L 3381 2694 
z
M 3381 1303 
L 356 1303 
L 356 1828 
L 3381 1828 
L 3381 1303 
z
" transform="scale(0.015625)"/>
     </defs>
     <use xlink:href="#ArialMT-6d"/>
     <use xlink:href="#ArialMT-69" transform="translate(83.300781 0)"/>
     <use xlink:href="#ArialMT-6e" transform="translate(105.517578 0)"/>
     <use xlink:href="#ArialMT-73" transform="translate(161.132812 0)"/>
     <use xlink:href="#ArialMT-20" transform="translate(211.132812 0)"/>
     <use xlink:href="#ArialMT-61" transform="translate(238.916016 0)"/>
     <use xlink:href="#ArialMT-68" transform="translate(294.53125 0)"/>
     <use xlink:href="#ArialMT-65" transform="translate(350.146484 0)"/>
     <use xlink:href="#ArialMT-61" transform="translate(405.761719 0)"/>
     <use xlink:href="#ArialMT-64" transform="translate(461.376953 0)"/>
     <use xlink:href="#ArialMT-20" transform="translate(516.992188 0)"/>
     <use xlink:href="#ArialMT-3d" transform="translate(544.775391 0)"/>
     <use xlink:href="#ArialMT-20" transform="translate(603.173828 0)"/>
     <use xlink:href="#ArialMT-32" transform="translate(630.957031 0)"/>
     <use xlink:href="#ArialMT-32" transform="translate(686.572266 0)"/>
     <use xlink:href="#ArialMT-2e" transform="translate(742.1875 0)"/>
     <use xlink:href="#ArialMT-35" transform="translate(769.970703 0)"/>
    </g>
   </g>
   <g id="legend_1">
    <g id="patch_5">
     <path d="M 569.990701 195.994108 
L 692.500623 195.994108 
Q 695.800623 195.994108 695.800623 192.694108 
L 695.800623 99.613248 
Q 695.800623 96.313248 692.500623 96.313248 
L 569.990701 96.313248 
Q 566.690701 96.313248 566.690701 99.613248 
L 566.690701 192.694108 
Q 566.690701 195.994108 569.990701 195.994108 
z
" style="fill: #ffffff; opacity: 0.8; stroke: #cccccc; stroke-width: 1.5; stroke-linejoin: miter"/>
    </g>
    <g id="text_20">
     <!-- dataset -->
     <g style="fill: #262626" transform="translate(601.725662 115.797311) scale(0.18 -0.18)">
      <defs>
       <path id="ArialMT-74" d="M 1650 503 
L 1731 6 
Q 1494 -44 1306 -44 
Q 1000 -44 831 53 
Q 663 150 594 308 
Q 525 466 525 972 
L 525 2881 
L 113 2881 
L 113 3319 
L 525 3319 
L 525 4141 
L 1084 4478 
L 1084 3319 
L 1650 3319 
L 1650 2881 
L 1084 2881 
L 1084 941 
Q 1084 700 1114 631 
Q 1144 563 1211 522 
Q 1278 481 1403 481 
Q 1497 481 1650 503 
z
" transform="scale(0.015625)"/>
      </defs>
      <use xlink:href="#ArialMT-64"/>
      <use xlink:href="#ArialMT-61" transform="translate(55.615234 0)"/>
      <use xlink:href="#ArialMT-74" transform="translate(111.230469 0)"/>
      <use xlink:href="#ArialMT-61" transform="translate(139.013672 0)"/>
      <use xlink:href="#ArialMT-73" transform="translate(194.628906 0)"/>
      <use xlink:href="#ArialMT-65" transform="translate(244.628906 0)"/>
      <use xlink:href="#ArialMT-74" transform="translate(300.244141 0)"/>
     </g>
    </g>
    <g id="line2d_24">
     <path d="M 573.290701 133.660201 
L 589.790701 133.660201 
L 606.290701 133.660201 
" style="fill: none; stroke: #4c72b0; stroke-width: 2.25; stroke-linecap: round"/>
     <g>
      <use xlink:href="#m3dab631f2c" x="589.790701" y="133.660201" style="fill: #4c72b0; stroke: #ffffff; stroke-width: 0.75"/>
     </g>
    </g>
    <g id="text_21">
     <!-- train -->
     <g style="fill: #262626" transform="translate(619.490701 139.435201) scale(0.165 -0.165)">
      <defs>
       <path id="ArialMT-72" d="M 416 0 
L 416 3319 
L 922 3319 
L 922 2816 
Q 1116 3169 1280 3281 
Q 1444 3394 1641 3394 
Q 1925 3394 2219 3213 
L 2025 2691 
Q 1819 2813 1613 2813 
Q 1428 2813 1281 2702 
Q 1134 2591 1072 2394 
Q 978 2094 978 1738 
L 978 0 
L 416 0 
z
" transform="scale(0.015625)"/>
      </defs>
      <use xlink:href="#ArialMT-74"/>
      <use xlink:href="#ArialMT-72" transform="translate(27.783203 0)"/>
      <use xlink:href="#ArialMT-61" transform="translate(61.083984 0)"/>
      <use xlink:href="#ArialMT-69" transform="translate(116.699219 0)"/>
      <use xlink:href="#ArialMT-6e" transform="translate(138.916016 0)"/>
     </g>
    </g>
    <g id="line2d_25">
     <path d="M 573.290701 156.999967 
L 589.790701 156.999967 
L 606.290701 156.999967 
" style="fill: none; stroke: #dd8452; stroke-width: 2.25; stroke-linecap: round"/>
     <g>
      <use xlink:href="#m38794993d3" x="589.790701" y="156.999967" style="fill: #dd8452; stroke: #ffffff; stroke-width: 0.75; stroke-linejoin: miter"/>
     </g>
    </g>
    <g id="text_22">
     <!-- validation -->
     <g style="fill: #262626" transform="translate(619.490701 162.774967) scale(0.165 -0.165)">
      <defs>
       <path id="ArialMT-6f" d="M 213 1659 
Q 213 2581 725 3025 
Q 1153 3394 1769 3394 
Q 2453 3394 2887 2945 
Q 3322 2497 3322 1706 
Q 3322 1066 3130 698 
Q 2938 331 2570 128 
Q 2203 -75 1769 -75 
Q 1072 -75 642 372 
Q 213 819 213 1659 
z
M 791 1659 
Q 791 1022 1069 705 
Q 1347 388 1769 388 
Q 2188 388 2466 706 
Q 2744 1025 2744 1678 
Q 2744 2294 2464 2611 
Q 2184 2928 1769 2928 
Q 1347 2928 1069 2612 
Q 791 2297 791 1659 
z
" transform="scale(0.015625)"/>
      </defs>
      <use xlink:href="#ArialMT-76"/>
      <use xlink:href="#ArialMT-61" transform="translate(50 0)"/>
      <use xlink:href="#ArialMT-6c" transform="translate(105.615234 0)"/>
      <use xlink:href="#ArialMT-69" transform="translate(127.832031 0)"/>
      <use xlink:href="#ArialMT-64" transform="translate(150.048828 0)"/>
      <use xlink:href="#ArialMT-61" transform="translate(205.664062 0)"/>
      <use xlink:href="#ArialMT-74" transform="translate(261.279297 0)"/>
      <use xlink:href="#ArialMT-69" transform="translate(289.0625 0)"/>
      <use xlink:href="#ArialMT-6f" transform="translate(311.279297 0)"/>
      <use xlink:href="#ArialMT-6e" transform="translate(366.894531 0)"/>
     </g>
    </g>
    <g id="line2d_26">
     <path d="M 573.290701 180.339733 
L 589.790701 180.339733 
L 606.290701 180.339733 
" style="fill: none; stroke: #55a868; stroke-width: 2.25; stroke-linecap: round"/>
     <g>
      <use xlink:href="#me89ef06627" x="589.790701" y="180.339733" style="fill: #55a868; stroke: #ffffff; stroke-width: 0.75; stroke-linejoin: miter"/>
     </g>
    </g>
    <g id="text_23">
     <!-- test -->
     <g style="fill: #262626" transform="translate(619.490701 186.114733) scale(0.165 -0.165)">
      <use xlink:href="#ArialMT-74"/>
      <use xlink:href="#ArialMT-65" transform="translate(27.783203 0)"/>
      <use xlink:href="#ArialMT-73" transform="translate(83.398438 0)"/>
      <use xlink:href="#ArialMT-74" transform="translate(133.398438 0)"/>
     </g>
    </g>
   </g>
  </g>
  <g id="axes_2">
   <g id="patch_6">
    <path d="M 59.10774 380.518119 
L 704.050623 380.518119 
L 704.050623 330.810369 
L 59.10774 330.810369 
z
" style="fill: #ffffff"/>
   </g>
   <g id="matplotlib.axis_3">
    <g id="xtick_10">
     <g id="line2d_27">
      <g>
       <use xlink:href="#md11b204d41" x="133.211026" y="380.518119" style="fill: #262626; stroke: #262626; stroke-width: 1.875"/>
      </g>
     </g>
     <g id="text_24">
      <!-- 50 -->
      <g style="fill: #262626" transform="translate(124.035479 404.82851) scale(0.165 -0.165)">
       <use xlink:href="#ArialMT-35"/>
       <use xlink:href="#ArialMT-30" transform="translate(55.615234 0)"/>
      </g>
     </g>
    </g>
    <g id="xtick_11">
     <g id="line2d_28">
      <g>
       <use xlink:href="#md11b204d41" x="214.643208" y="380.518119" style="fill: #262626; stroke: #262626; stroke-width: 1.875"/>
      </g>
     </g>
     <g id="text_25">
      <!-- 100 -->
      <g style="fill: #262626" transform="translate(200.879888 404.82851) scale(0.165 -0.165)">
       <use xlink:href="#ArialMT-31"/>
       <use xlink:href="#ArialMT-30" transform="translate(55.615234 0)"/>
       <use xlink:href="#ArialMT-30" transform="translate(111.230469 0)"/>
      </g>
     </g>
    </g>
    <g id="xtick_12">
     <g id="line2d_29">
      <g>
       <use xlink:href="#md11b204d41" x="296.07539" y="380.518119" style="fill: #262626; stroke: #262626; stroke-width: 1.875"/>
      </g>
     </g>
     <g id="text_26">
      <!-- 150 -->
      <g style="fill: #262626" transform="translate(282.31207 404.82851) scale(0.165 -0.165)">
       <use xlink:href="#ArialMT-31"/>
       <use xlink:href="#ArialMT-35" transform="translate(55.615234 0)"/>
       <use xlink:href="#ArialMT-30" transform="translate(111.230469 0)"/>
      </g>
     </g>
    </g>
    <g id="xtick_13">
     <g id="line2d_30">
      <g>
       <use xlink:href="#md11b204d41" x="377.507572" y="380.518119" style="fill: #262626; stroke: #262626; stroke-width: 1.875"/>
      </g>
     </g>
     <g id="text_27">
      <!-- 200 -->
      <g style="fill: #262626" transform="translate(363.744252 404.82851) scale(0.165 -0.165)">
       <use xlink:href="#ArialMT-32"/>
       <use xlink:href="#ArialMT-30" transform="translate(55.615234 0)"/>
       <use xlink:href="#ArialMT-30" transform="translate(111.230469 0)"/>
      </g>
     </g>
    </g>
    <g id="xtick_14">
     <g id="line2d_31">
      <g>
       <use xlink:href="#md11b204d41" x="458.939755" y="380.518119" style="fill: #262626; stroke: #262626; stroke-width: 1.875"/>
      </g>
     </g>
     <g id="text_28">
      <!-- 250 -->
      <g style="fill: #262626" transform="translate(445.176434 404.82851) scale(0.165 -0.165)">
       <use xlink:href="#ArialMT-32"/>
       <use xlink:href="#ArialMT-35" transform="translate(55.615234 0)"/>
       <use xlink:href="#ArialMT-30" transform="translate(111.230469 0)"/>
      </g>
     </g>
    </g>
    <g id="xtick_15">
     <g id="line2d_32">
      <g>
       <use xlink:href="#md11b204d41" x="540.371937" y="380.518119" style="fill: #262626; stroke: #262626; stroke-width: 1.875"/>
      </g>
     </g>
     <g id="text_29">
      <!-- 300 -->
      <g style="fill: #262626" transform="translate(526.608617 404.82851) scale(0.165 -0.165)">
       <use xlink:href="#ArialMT-33"/>
       <use xlink:href="#ArialMT-30" transform="translate(55.615234 0)"/>
       <use xlink:href="#ArialMT-30" transform="translate(111.230469 0)"/>
      </g>
     </g>
    </g>
    <g id="xtick_16">
     <g id="line2d_33">
      <g>
       <use xlink:href="#md11b204d41" x="621.804119" y="380.518119" style="fill: #262626; stroke: #262626; stroke-width: 1.875"/>
      </g>
     </g>
     <g id="text_30">
      <!-- 350 -->
      <g style="fill: #262626" transform="translate(608.040799 404.82851) scale(0.165 -0.165)">
       <use xlink:href="#ArialMT-33"/>
       <use xlink:href="#ArialMT-35" transform="translate(55.615234 0)"/>
       <use xlink:href="#ArialMT-30" transform="translate(111.230469 0)"/>
      </g>
     </g>
    </g>
    <g id="xtick_17">
     <g id="line2d_34">
      <g>
       <use xlink:href="#md11b204d41" x="703.236301" y="380.518119" style="fill: #262626; stroke: #262626; stroke-width: 1.875"/>
      </g>
     </g>
     <g id="text_31">
      <!-- 400 -->
      <g style="fill: #262626" transform="translate(689.472981 404.82851) scale(0.165 -0.165)">
       <use xlink:href="#ArialMT-34"/>
       <use xlink:href="#ArialMT-30" transform="translate(55.615234 0)"/>
       <use xlink:href="#ArialMT-30" transform="translate(111.230469 0)"/>
      </g>
     </g>
    </g>
    <g id="text_32">
     <!-- predict time (min) -->
     <g style="fill: #262626" transform="translate(312.071057 425.211322) scale(0.18 -0.18)">
      <defs>
       <path id="ArialMT-70" d="M 422 -1272 
L 422 3319 
L 934 3319 
L 934 2888 
Q 1116 3141 1344 3267 
Q 1572 3394 1897 3394 
Q 2322 3394 2647 3175 
Q 2972 2956 3137 2557 
Q 3303 2159 3303 1684 
Q 3303 1175 3120 767 
Q 2938 359 2589 142 
Q 2241 -75 1856 -75 
Q 1575 -75 1351 44 
Q 1128 163 984 344 
L 984 -1272 
L 422 -1272 
z
M 931 1641 
Q 931 1000 1190 694 
Q 1450 388 1819 388 
Q 2194 388 2461 705 
Q 2728 1022 2728 1688 
Q 2728 2322 2467 2637 
Q 2206 2953 1844 2953 
Q 1484 2953 1207 2617 
Q 931 2281 931 1641 
z
" transform="scale(0.015625)"/>
       <path id="ArialMT-63" d="M 2588 1216 
L 3141 1144 
Q 3050 572 2676 248 
Q 2303 -75 1759 -75 
Q 1078 -75 664 370 
Q 250 816 250 1647 
Q 250 2184 428 2587 
Q 606 2991 970 3192 
Q 1334 3394 1763 3394 
Q 2303 3394 2647 3120 
Q 2991 2847 3088 2344 
L 2541 2259 
Q 2463 2594 2264 2762 
Q 2066 2931 1784 2931 
Q 1359 2931 1093 2626 
Q 828 2322 828 1663 
Q 828 994 1084 691 
Q 1341 388 1753 388 
Q 2084 388 2306 591 
Q 2528 794 2588 1216 
z
" transform="scale(0.015625)"/>
      </defs>
      <use xlink:href="#ArialMT-70"/>
      <use xlink:href="#ArialMT-72" transform="translate(55.615234 0)"/>
      <use xlink:href="#ArialMT-65" transform="translate(88.916016 0)"/>
      <use xlink:href="#ArialMT-64" transform="translate(144.53125 0)"/>
      <use xlink:href="#ArialMT-69" transform="translate(200.146484 0)"/>
      <use xlink:href="#ArialMT-63" transform="translate(222.363281 0)"/>
      <use xlink:href="#ArialMT-74" transform="translate(272.363281 0)"/>
      <use xlink:href="#ArialMT-20" transform="translate(300.146484 0)"/>
      <use xlink:href="#ArialMT-74" transform="translate(327.929688 0)"/>
      <use xlink:href="#ArialMT-69" transform="translate(355.712891 0)"/>
      <use xlink:href="#ArialMT-6d" transform="translate(377.929688 0)"/>
      <use xlink:href="#ArialMT-65" transform="translate(461.230469 0)"/>
      <use xlink:href="#ArialMT-20" transform="translate(516.845703 0)"/>
      <use xlink:href="#ArialMT-28" transform="translate(544.628906 0)"/>
      <use xlink:href="#ArialMT-6d" transform="translate(577.929688 0)"/>
      <use xlink:href="#ArialMT-69" transform="translate(661.230469 0)"/>
      <use xlink:href="#ArialMT-6e" transform="translate(683.447266 0)"/>
      <use xlink:href="#ArialMT-29" transform="translate(739.0625 0)"/>
     </g>
    </g>
   </g>
   <g id="matplotlib.axis_4">
    <g id="ytick_8">
     <g id="line2d_35">
      <g>
       <use xlink:href="#mfb20968a51" x="59.10774" y="380.518119" style="fill: #262626; stroke: #262626; stroke-width: 1.875"/>
      </g>
     </g>
     <g id="text_33">
      <!-- 0 -->
      <g style="fill: #262626" transform="translate(37.432193 386.423315) scale(0.165 -0.165)">
       <use xlink:href="#ArialMT-30"/>
      </g>
     </g>
    </g>
    <g id="ytick_9">
     <g id="line2d_36">
      <g>
       <use xlink:href="#mfb20968a51" x="59.10774" y="330.810369" style="fill: #262626; stroke: #262626; stroke-width: 1.875"/>
      </g>
     </g>
     <g id="text_34">
      <!-- 1 -->
      <g style="fill: #262626" transform="translate(37.432193 336.715565) scale(0.165 -0.165)">
       <use xlink:href="#ArialMT-31"/>
      </g>
     </g>
    </g>
    <g id="text_35">
     <!-- Error -->
     <g style="fill: #262626" transform="translate(29.854693 375.662526) rotate(-90) scale(0.18 -0.18)">
      <defs>
       <path id="ArialMT-45" d="M 506 0 
L 506 4581 
L 3819 4581 
L 3819 4041 
L 1113 4041 
L 1113 2638 
L 3647 2638 
L 3647 2100 
L 1113 2100 
L 1113 541 
L 3925 541 
L 3925 0 
L 506 0 
z
" transform="scale(0.015625)"/>
      </defs>
      <use xlink:href="#ArialMT-45"/>
      <use xlink:href="#ArialMT-72" transform="translate(66.699219 0)"/>
      <use xlink:href="#ArialMT-72" transform="translate(100 0)"/>
      <use xlink:href="#ArialMT-6f" transform="translate(133.300781 0)"/>
      <use xlink:href="#ArialMT-72" transform="translate(188.916016 0)"/>
     </g>
    </g>
   </g>
   <g id="FillBetweenPolyCollection_5"/>
   <g id="FillBetweenPolyCollection_6"/>
   <g id="FillBetweenPolyCollection_7"/>
   <g id="line2d_37">
    <path d="M 59.10774 355.664244 
L 704.050623 355.664244 
" clip-path="url(#p1686ee6e9f)" style="fill: none; stroke-dasharray: 3.7,1.6; stroke-dashoffset: 0; stroke: #808080"/>
   </g>
   <g id="line2d_38">
    <path d="M 88.423326 380.296712 
L 95.752222 380.203447 
L 103.081118 376.542051 
L 110.410015 379.121626 
L 117.738911 379.940581 
L 125.067808 379.305269 
L 132.396704 378.485931 
L 139.7256 379.322526 
L 147.054497 379.68886 
L 154.383393 380.334286 
L 161.71229 380.071827 
L 169.041186 379.764382 
L 176.370082 377.594828 
L 183.698979 380.454291 
L 191.027875 379.0155 
L 198.356772 380.095172 
L 205.685668 379.917927 
L 213.014564 379.350863 
L 220.343461 379.343478 
L 227.672357 380.024393 
L 235.001254 375.587894 
L 242.33015 379.214741 
L 249.659046 377.999966 
L 256.987943 379.57126 
L 264.316839 380.391379 
L 271.645736 380.424628 
L 278.974632 380.173909 
L 286.303528 378.449719 
L 293.632425 379.410031 
L 300.961321 378.976521 
L 308.290218 379.266741 
L 315.619114 377.148132 
L 322.94801 378.499363 
L 330.276907 379.693495 
L 337.605803 380.105206 
L 344.9347 379.803842 
L 352.263596 377.624056 
L 359.592492 379.916601 
L 366.921389 378.522959 
L 374.250285 380.116778 
L 381.579182 379.903725 
L 388.908078 379.319534 
L 396.236974 380.4613 
L 403.565871 380.292282 
L 410.894767 379.203837 
L 418.223664 378.762174 
L 425.55256 380.170656 
L 432.881456 379.992423 
" clip-path="url(#p1686ee6e9f)" style="fill: none; stroke: #4c72b0; stroke-width: 2.25; stroke-linecap: round"/>
   </g>
   <g id="line2d_39">
    <path d="M 440.210353 371.691546 
L 447.539249 376.969213 
L 454.868146 372.671177 
L 462.197042 374.314759 
L 469.525938 378.364028 
L 476.854835 378.180524 
L 484.183731 379.902791 
L 491.512628 372.17332 
L 498.841524 360.972565 
L 506.17042 378.373896 
L 513.499317 375.584177 
L 520.828213 363.764085 
L 528.15711 376.959735 
L 535.486006 379.642094 
L 542.814902 378.360956 
L 550.143799 375.637227 
" clip-path="url(#p1686ee6e9f)" style="fill: none; stroke: #dd8452; stroke-width: 2.25; stroke-linecap: round"/>
   </g>
   <g id="line2d_40">
    <path d="M 557.472695 369.35753 
L 564.801592 371.007598 
L 572.130488 373.934283 
L 579.459384 372.253316 
L 586.788281 374.811749 
L 594.117177 377.631983 
L 601.446073 371.801527 
L 608.77497 370.196409 
L 616.103866 377.497776 
L 623.432763 363.886046 
L 630.761659 371.055873 
L 638.090555 378.536048 
L 645.419452 368.03436 
L 652.748348 378.161583 
L 660.077245 366.593751 
L 667.406141 367.317079 
L 674.735037 380.019737 
" clip-path="url(#p1686ee6e9f)" style="fill: none; stroke: #55a868; stroke-width: 2.25; stroke-linecap: round"/>
   </g>
   <g id="patch_7">
    <path d="M 59.10774 380.518119 
L 59.10774 330.810369 
" style="fill: none; stroke: #262626; stroke-width: 1.875; stroke-linejoin: miter; stroke-linecap: square"/>
   </g>
   <g id="patch_8">
    <path d="M 59.10774 380.518119 
L 704.050623 380.518119 
" style="fill: none; stroke: #262626; stroke-width: 1.875; stroke-linejoin: miter; stroke-linecap: square"/>
   </g>
  </g>
 </g>
 <defs>
  <clipPath id="p4846ff73b7">
   <rect x="59.10774" y="21.884302" width="644.942883" height="248.538751"/>
  </clipPath>
  <clipPath id="p1686ee6e9f">
   <rect x="59.10774" y="330.810369" width="644.942883" height="49.70775"/>
  </clipPath>
 </defs>
</svg>
