<?xml version="1.0" encoding="utf-8" standalone="no"?>
<!DOCTYPE svg PUBLIC "-//W3C//DTD SVG 1.1//EN"
  "http://www.w3.org/Graphics/SVG/1.1/DTD/svg11.dtd">
<svg xmlns:xlink="http://www.w3.org/1999/xlink" width="21.6pt" height="86.4pt" viewBox="0 0 21.6 86.4" xmlns="http://www.w3.org/2000/svg" version="1.1">
 <metadata>
  <rdf:RDF xmlns:dc="http://purl.org/dc/elements/1.1/" xmlns:cc="http://creativecommons.org/ns#" xmlns:rdf="http://www.w3.org/1999/02/22-rdf-syntax-ns#">
   <cc:Work>
    <dc:type rdf:resource="http://purl.org/dc/dcmitype/StillImage"/>
    <dc:date>2025-01-08T13:32:43.211539</dc:date>
    <dc:format>image/svg+xml</dc:format>
    <dc:creator>
     <cc:Agent>
      <dc:title>Matplotlib v3.9.2, https://matplotlib.org/</dc:title>
     </cc:Agent>
    </dc:creator>
   </cc:Work>
  </rdf:RDF>
 </metadata>
 <defs>
  <style type="text/css">*{stroke-linejoin: round; stroke-linecap: butt}</style>
 </defs>
 <g id="figure_1">
  <g id="patch_1">
   <path d="M 0 86.4 
L 21.6 86.4 
L 21.6 0 
L 0 0 
z
" style="fill: #ffffff"/>
  </g>
  <g id="axes_1">
   <g id="line2d_1">
    <path d="M 3.460909 24.173217 
L 3.771484 23.904894 
L 4.082059 23.636571 
L 4.392635 23.368248 
L 4.70321 23.099925 
L 5.013785 22.831602 
L 5.32436 22.56328 
L 5.634935 22.294957 
L 5.94551 22.026634 
L 6.256085 21.758311 
L 6.56666 21.489988 
L 6.877236 21.221665 
L 7.187811 20.953342 
L 7.498386 20.685019 
L 7.808961 20.416696 
L 8.119536 20.148373 
L 8.430111 19.88005 
L 8.740686 19.611727 
L 9.051262 19.343404 
L 9.361837 19.075081 
L 9.672412 18.806758 
L 9.982987 18.538435 
L 10.293562 18.270112 
L 10.604137 18.001789 
L 10.914712 17.733466 
L 11.225288 17.465143 
L 11.535863 17.19682 
L 11.846438 16.928497 
L 12.157013 16.660174 
L 12.467588 16.391851 
L 12.778163 16.123528 
L 13.088738 15.855205 
L 13.399314 15.586882 
L 13.709889 15.318559 
L 14.020464 15.050236 
L 14.331039 14.781913 
L 14.641614 14.51359 
L 14.952189 14.245267 
L 15.262764 13.976944 
L 15.57334 13.708621 
L 15.883915 13.440298 
L 16.19449 13.171975 
L 16.505065 12.903652 
L 16.81564 12.635329 
L 17.126215 12.367006 
L 17.43679 12.098683 
L 17.747365 11.83036 
L 18.057941 11.562037 
L 18.368516 11.293714 
L 18.679091 11.025391 
" clip-path="url(#p9ee50ceda2)" style="fill: none; stroke: #d08770; stroke-linecap: round"/>
   </g>
  </g>
  <g id="axes_2">
   <g id="line2d_2">
    <path d="M 3.460909 41.528348 
L 3.771484 41.51931 
L 4.082059 41.507783 
L 4.392635 41.493087 
L 4.70321 41.47436 
L 5.013785 41.450514 
L 5.32436 41.420177 
L 5.634935 41.381625 
L 5.94551 41.332705 
L 6.256085 41.270742 
L 6.56666 41.192439 
L 6.877236 41.093778 
L 7.187811 40.969923 
L 7.498386 40.815158 
L 7.808961 40.622884 
L 8.119536 40.385715 
L 8.430111 40.095746 
L 8.740686 39.745028 
L 9.051262 39.326333 
L 9.361837 38.8342 
L 9.672412 38.266214 
L 9.982987 37.624332 
L 10.293562 36.915966 
L 10.604137 36.154425 
L 10.914712 35.358415 
L 11.225288 34.550455 
L 11.535863 33.754445 
L 11.846438 32.992904 
L 12.157013 32.284537 
L 12.467588 31.642656 
L 12.778163 31.074669 
L 13.088738 30.582536 
L 13.399314 30.163841 
L 13.709889 29.813123 
L 14.020464 29.523154 
L 14.331039 29.285986 
L 14.641614 29.093711 
L 14.952189 28.938946 
L 15.262764 28.815091 
L 15.57334 28.71643 
L 15.883915 28.638128 
L 16.19449 28.576165 
L 16.505065 28.527245 
L 16.81564 28.488693 
L 17.126215 28.458356 
L 17.43679 28.43451 
L 17.747365 28.415783 
L 18.057941 28.401086 
L 18.368516 28.389559 
L 18.679091 28.380522 
" clip-path="url(#p454e989a5d)" style="fill: none; stroke: #b48ead; stroke-linecap: round"/>
   </g>
  </g>
  <g id="axes_3">
   <g id="line2d_3">
    <path d="M 3.460909 58.883478 
L 3.771484 58.847217 
L 4.082059 58.801038 
L 4.392635 58.74228 
L 4.70321 58.667598 
L 5.013785 58.572813 
L 5.32436 58.452727 
L 5.634935 58.300936 
L 5.94551 58.109629 
L 6.256085 57.869413 
L 6.56666 57.569208 
L 6.877236 57.196283 
L 7.187811 56.736544 
L 7.498386 56.175238 
L 7.808961 55.498268 
L 8.119536 54.694338 
L 8.430111 53.758108 
L 8.740686 52.694358 
L 9.051262 51.522809 
L 9.361837 50.282661 
L 9.672412 49.035251 
L 9.982987 47.862712 
L 10.293562 46.860818 
L 10.604137 46.125562 
L 10.914712 45.735652 
L 11.225288 45.735652 
L 11.535863 46.125562 
L 11.846438 46.860818 
L 12.157013 47.862712 
L 12.467588 49.035251 
L 12.778163 50.282661 
L 13.088738 51.522809 
L 13.399314 52.694358 
L 13.709889 53.758108 
L 14.020464 54.694338 
L 14.331039 55.498268 
L 14.641614 56.175238 
L 14.952189 56.736544 
L 15.262764 57.196283 
L 15.57334 57.569208 
L 15.883915 57.869413 
L 16.19449 58.109629 
L 16.505065 58.300936 
L 16.81564 58.452727 
L 17.126215 58.572813 
L 17.43679 58.667598 
L 17.747365 58.74228 
L 18.057941 58.801038 
L 18.368516 58.847217 
L 18.679091 58.883478 
" clip-path="url(#p02841eeab2)" style="fill: none; stroke: #b48ead; stroke-linecap: round"/>
   </g>
  </g>
  <g id="axes_4"/>
 </g>
 <defs>
  <clipPath id="p9ee50ceda2">
   <rect x="2.7" y="10.368" width="16.74" height="14.462609"/>
  </clipPath>
  <clipPath id="p454e989a5d">
   <rect x="2.7" y="27.72313" width="16.74" height="14.462609"/>
  </clipPath>
  <clipPath id="p02841eeab2">
   <rect x="2.7" y="45.078261" width="16.74" height="14.462609"/>
  </clipPath>
 </defs>
</svg>
