<?xml version="1.0" encoding="utf-8" standalone="no"?>
<!DOCTYPE svg PUBLIC "-//W3C//DTD SVG 1.1//EN"
  "http://www.w3.org/Graphics/SVG/1.1/DTD/svg11.dtd">
<svg xmlns:xlink="http://www.w3.org/1999/xlink" width="864pt" height="432pt" viewBox="0 0 864 432" xmlns="http://www.w3.org/2000/svg" version="1.1">
 <metadata>
  <rdf:RDF xmlns:dc="http://purl.org/dc/elements/1.1/" xmlns:cc="http://creativecommons.org/ns#" xmlns:rdf="http://www.w3.org/1999/02/22-rdf-syntax-ns#">
   <cc:Work>
    <dc:type rdf:resource="http://purl.org/dc/dcmitype/StillImage"/>
    <dc:date>2025-05-28T17:42:17.128960</dc:date>
    <dc:format>image/svg+xml</dc:format>
    <dc:creator>
     <cc:Agent>
      <dc:title>Matplotlib v3.10.0, https://matplotlib.org/</dc:title>
     </cc:Agent>
    </dc:creator>
   </cc:Work>
  </rdf:RDF>
 </metadata>
 <defs>
  <style type="text/css">*{stroke-linejoin: round; stroke-linecap: butt}</style>
 </defs>
 <g id="figure_1">
  <g id="patch_1">
   <path d="M 0 432 
L 864 432 
L 864 0 
L 0 0 
z
" style="fill: #ffffff"/>
  </g>
  <g id="axes_1">
   <g id="patch_2">
    <path d="M 75.45 365.1 
L 840.371454 365.1 
L 840.371454 38.4 
L 75.45 38.4 
z
" style="fill: #ffffff"/>
   </g>
   <g id="line2d_1">
    <path d="M 110.219157 214.583588 
L 113.365687 156.819639 
L 115.163704 128.106562 
L 116.512217 110.05082 
L 117.411226 100.036647 
L 118.310234 91.828948 
L 119.209243 85.557162 
L 120.108251 81.3202 
L 120.557756 79.986945 
L 121.00726 79.184882 
L 121.456764 78.917175 
L 121.906269 79.184882 
L 122.355773 79.986945 
L 122.805277 81.3202 
L 123.254781 83.179385 
L 124.15379 88.444147 
L 125.052799 95.698204 
L 125.951807 104.827154 
L 127.30032 121.713538 
L 128.648833 141.889889 
L 130.44685 172.660361 
L 137.189415 294.326304 
L 138.537927 313.480146 
L 139.88644 329.130528 
L 140.785449 337.338228 
L 141.684457 343.610013 
L 142.583466 347.846975 
L 143.03297 349.18023 
L 143.482475 349.982293 
L 143.931979 350.25 
L 144.381483 349.982293 
L 144.830987 349.18023 
L 145.280492 347.846975 
L 145.729996 345.98779 
L 146.629005 340.723028 
L 147.528013 333.468971 
L 148.427022 324.340021 
L 149.775535 307.453638 
L 151.124048 287.277287 
L 152.922065 256.506815 
L 159.664629 134.840871 
L 161.013142 115.687029 
L 162.361655 100.036647 
L 163.260663 91.828948 
L 164.159672 85.557162 
L 165.058681 81.3202 
L 165.508185 79.986945 
L 165.957689 79.184882 
L 166.407194 78.917175 
L 166.856698 79.184882 
L 167.306202 79.986945 
L 167.755706 81.3202 
L 168.205211 83.179385 
L 169.104219 88.444147 
L 170.003228 95.698204 
L 170.902236 104.827154 
L 172.250749 121.713538 
L 173.599262 141.889889 
L 175.397279 172.660361 
L 182.139844 294.326304 
L 183.488357 313.480146 
L 184.836869 329.130528 
L 185.735878 337.338228 
L 186.634887 343.610013 
L 187.533895 347.846975 
L 187.9834 349.18023 
L 188.432904 349.982293 
L 188.882408 350.25 
L 189.331912 349.982293 
L 189.781417 349.18023 
L 190.230921 347.846975 
L 190.680425 345.98779 
L 191.579434 340.723028 
L 192.478442 333.468971 
L 193.377451 324.340021 
L 194.725964 307.453638 
L 196.074477 287.277287 
L 197.872494 256.506815 
L 204.615058 134.840871 
L 205.963571 115.687029 
L 207.312084 100.036647 
L 208.211093 91.828948 
L 209.110101 85.557162 
L 210.00911 81.3202 
L 210.458614 79.986945 
L 210.908118 79.184882 
L 211.357623 78.917175 
L 211.807127 79.184882 
L 212.256631 79.986945 
L 212.706136 81.3202 
L 213.15564 83.179385 
L 214.054648 88.444147 
L 214.953657 95.698204 
L 215.852666 104.827154 
L 217.201179 121.713538 
L 218.549691 141.889889 
L 220.347709 172.660361 
L 227.090273 294.326304 
L 228.438786 313.480146 
L 229.787299 329.130528 
L 230.686307 337.338228 
L 231.585316 343.610013 
L 232.484324 347.846975 
L 232.933829 349.18023 
L 233.383333 349.982293 
L 233.832837 350.25 
L 234.282342 349.982293 
L 234.731846 349.18023 
L 235.18135 347.846975 
L 235.630854 345.98779 
L 236.529863 340.723028 
L 237.428872 333.468971 
L 238.32788 324.340021 
L 239.676393 307.453638 
L 241.024906 287.277287 
L 242.822923 256.506815 
L 249.565488 134.840871 
L 250.914 115.687029 
L 252.262513 100.036647 
L 253.161522 91.828948 
L 254.06053 85.557162 
L 254.959539 81.3202 
L 255.409043 79.986945 
L 255.858548 79.184882 
L 256.308052 78.917175 
L 256.757556 79.184882 
L 257.207061 79.986945 
L 257.656565 81.3202 
L 258.106069 83.179385 
L 259.005078 88.444147 
L 259.904086 95.698204 
L 260.803095 104.827154 
L 262.151608 121.713538 
L 263.500121 141.889889 
L 265.298138 172.660361 
L 272.040702 294.326304 
L 273.389215 313.480146 
L 274.737728 329.130528 
L 275.636736 337.338228 
L 276.535745 343.610013 
L 277.434754 347.846975 
L 277.884258 349.18023 
L 278.333762 349.982293 
L 278.783267 350.25 
L 279.232771 349.982293 
L 279.682275 349.18023 
L 280.131779 347.846975 
L 280.581284 345.98779 
L 281.480292 340.723028 
L 282.379301 333.468971 
L 283.278309 324.340021 
L 284.626822 307.453638 
L 285.975335 287.277287 
L 287.773352 256.506815 
L 294.515917 134.840871 
L 295.86443 115.687029 
L 297.212942 100.036647 
L 298.111951 91.828948 
L 299.01096 85.557162 
L 299.909968 81.3202 
L 300.359473 79.986945 
L 300.808977 79.184882 
L 301.258481 78.917175 
L 301.707985 79.184882 
L 302.15749 79.986945 
L 302.606994 81.3202 
L 303.056498 83.179385 
L 303.955507 88.444147 
L 304.854515 95.698204 
L 305.753524 104.827154 
L 307.102037 121.713538 
L 308.45055 141.889889 
L 310.248567 172.660361 
L 316.991131 294.326304 
L 318.339644 313.480146 
L 319.688157 329.130528 
L 320.587166 337.338228 
L 321.486174 343.610013 
L 322.385183 347.846975 
L 322.834687 349.18023 
L 323.284191 349.982293 
L 323.733696 350.25 
L 324.1832 349.982293 
L 324.632704 349.18023 
L 325.082209 347.846975 
L 325.531713 345.98779 
L 326.430721 340.723028 
L 327.32973 333.468971 
L 328.228739 324.340021 
L 329.577252 307.453638 
L 330.925764 287.277287 
L 332.723782 256.506815 
L 339.466346 134.840871 
L 340.814859 115.687029 
L 342.163372 100.036647 
L 343.06238 91.828948 
L 343.961389 85.557162 
L 344.860397 81.3202 
L 345.309902 79.986945 
L 345.759406 79.184882 
L 346.20891 78.917175 
L 346.658415 79.184882 
L 347.107919 79.986945 
L 347.557423 81.3202 
L 348.006928 83.179385 
L 348.905936 88.444147 
L 349.804945 95.698204 
L 350.703953 104.827154 
L 352.052466 121.713538 
L 353.400979 141.889889 
L 355.198996 172.660361 
L 361.941561 294.326304 
L 363.290073 313.480146 
L 364.638586 329.130528 
L 365.537595 337.338228 
L 366.436603 343.610013 
L 367.335612 347.846975 
L 367.785116 349.18023 
L 368.234621 349.982293 
L 368.684125 350.25 
L 369.133629 349.982293 
L 369.583134 349.18023 
L 370.032638 347.846975 
L 370.482142 345.98779 
L 371.381151 340.723028 
L 372.280159 333.468971 
L 373.179168 324.340021 
L 374.527681 307.453638 
L 375.876194 287.277287 
L 377.674211 256.506815 
L 384.416775 134.840871 
L 385.765288 115.687029 
L 387.113801 100.036647 
L 388.01281 91.828948 
L 388.911818 85.557162 
L 389.810827 81.3202 
L 390.260331 79.986945 
L 390.709835 79.184882 
L 391.15934 78.917175 
L 391.608844 79.184882 
L 392.058348 79.986945 
L 392.507852 81.3202 
L 392.957357 83.179385 
L 393.856365 88.444147 
L 394.755374 95.698204 
L 395.654382 104.827154 
L 397.002895 121.713538 
L 398.351408 141.889889 
L 400.149425 172.660361 
L 406.89199 294.326304 
L 408.240503 313.480146 
L 409.589016 329.130528 
L 410.488024 337.338228 
L 411.387033 343.610013 
L 412.286041 347.846975 
L 412.735546 349.18023 
L 413.18505 349.982293 
L 413.634554 350.25 
L 414.084058 349.982293 
L 414.533563 349.18023 
L 414.983067 347.846975 
L 415.432571 345.98779 
L 416.33158 340.723028 
L 417.230588 333.468971 
L 418.129597 324.340021 
L 419.47811 307.453638 
L 420.826623 287.277287 
L 422.62464 256.506815 
L 429.367204 134.840871 
L 430.715717 115.687029 
L 432.06423 100.036647 
L 432.963239 91.828948 
L 433.862247 85.557162 
L 434.761256 81.3202 
L 435.21076 79.986945 
L 435.660264 79.184882 
L 436.109769 78.917175 
L 436.559273 79.184882 
L 437.008777 79.986945 
L 437.458282 81.3202 
L 437.907786 83.179385 
L 438.806795 88.444147 
L 439.705803 95.698204 
L 440.604812 104.827154 
L 441.953325 121.713538 
L 443.301837 141.889889 
L 445.099855 172.660361 
L 451.842419 294.326304 
L 453.190932 313.480146 
L 454.539445 329.130528 
L 455.438453 337.338228 
L 456.337462 343.610013 
L 457.23647 347.846975 
L 457.685975 349.18023 
L 458.135479 349.982293 
L 458.584983 350.25 
L 459.034488 349.982293 
L 459.483992 349.18023 
L 459.933496 347.846975 
L 460.383001 345.98779 
L 461.282009 340.723028 
L 462.181018 333.468971 
L 463.080026 324.340021 
L 464.428539 307.453638 
L 465.777052 287.277287 
L 467.575069 256.506815 
L 474.317634 134.840871 
L 475.666146 115.687029 
L 477.014659 100.036647 
L 477.913668 91.828948 
L 478.812677 85.557162 
L 479.711685 81.3202 
L 480.161189 79.986945 
L 480.610694 79.184882 
L 481.060198 78.917175 
L 481.509702 79.184882 
L 481.959207 79.986945 
L 482.408711 81.3202 
L 482.858215 83.179385 
L 483.757224 88.444147 
L 484.656232 95.698204 
L 485.555241 104.827154 
L 486.903754 121.713538 
L 488.252267 141.889889 
L 490.050284 172.660361 
L 496.792848 294.326304 
L 498.141361 313.480146 
L 499.489874 329.130528 
L 500.388883 337.338228 
L 501.287891 343.610013 
L 502.1869 347.846975 
L 502.636404 349.18023 
L 503.085908 349.982293 
L 503.535413 350.25 
L 503.984917 349.982293 
L 504.434421 349.18023 
L 504.883925 347.846975 
L 505.33343 345.98779 
L 506.232438 340.723028 
L 507.131447 333.468971 
L 508.030455 324.340021 
L 509.378968 307.453638 
L 510.727481 287.277287 
L 512.525498 256.506815 
L 519.268063 134.840871 
L 520.616576 115.687029 
L 521.965089 100.036647 
L 522.864097 91.828948 
L 523.763106 85.557162 
L 524.662114 81.3202 
L 525.111619 79.986945 
L 525.561123 79.184882 
L 526.010627 78.917175 
L 526.460131 79.184882 
L 526.909636 79.986945 
L 527.35914 81.3202 
L 527.808644 83.179385 
L 528.707653 88.444147 
L 529.606662 95.698204 
L 530.50567 104.827154 
L 531.854183 121.713538 
L 533.202696 141.889889 
L 535.000713 172.660361 
L 541.743277 294.326304 
L 543.09179 313.480146 
L 544.440303 329.130528 
L 545.339312 337.338228 
L 546.23832 343.610013 
L 547.137329 347.846975 
L 547.586833 349.18023 
L 548.036337 349.982293 
L 548.485842 350.25 
L 548.935346 349.982293 
L 549.38485 349.18023 
L 549.834355 347.846975 
L 550.283859 345.98779 
L 551.182868 340.723028 
L 552.081876 333.468971 
L 552.980885 324.340021 
L 554.329398 307.453638 
L 555.67791 287.277287 
L 557.475928 256.506815 
L 564.218492 134.840871 
L 565.567005 115.687029 
L 566.915518 100.036647 
L 567.814526 91.828948 
L 568.713535 85.557162 
L 569.612544 81.3202 
L 570.062048 79.986945 
L 570.511552 79.184882 
L 570.961056 78.917175 
L 571.410561 79.184882 
L 571.860065 79.986945 
L 572.309569 81.3202 
L 572.759074 83.179385 
L 573.658082 88.444147 
L 574.557091 95.698204 
L 575.456099 104.827154 
L 576.804612 121.713538 
L 578.153125 141.889889 
L 579.951142 172.660361 
L 586.693707 294.326304 
L 588.042219 313.480146 
L 589.390732 329.130528 
L 590.289741 337.338228 
L 591.18875 343.610013 
L 592.087758 347.846975 
L 592.537262 349.18023 
L 592.986767 349.982293 
L 593.436271 350.25 
L 593.885775 349.982293 
L 594.33528 349.18023 
L 594.784784 347.846975 
L 595.234288 345.98779 
L 596.133297 340.723028 
L 597.032305 333.468971 
L 597.931314 324.340021 
L 599.279827 307.453638 
L 600.62834 287.277287 
L 602.426357 256.506815 
L 609.168921 134.840871 
L 610.517434 115.687029 
L 611.865947 100.036647 
L 612.764956 91.828948 
L 613.663964 85.557162 
L 614.562973 81.3202 
L 615.012477 79.986945 
L 615.461981 79.184882 
L 615.911486 78.917175 
L 616.36099 79.184882 
L 616.810494 79.986945 
L 617.259998 81.3202 
L 617.709503 83.179385 
L 618.608511 88.444147 
L 619.50752 95.698204 
L 620.406529 104.827154 
L 621.755041 121.713538 
L 623.103554 141.889889 
L 624.901571 172.660361 
L 631.644136 294.326304 
L 632.992649 313.480146 
L 634.341162 329.130528 
L 635.24017 337.338228 
L 636.139179 343.610013 
L 637.038187 347.846975 
L 637.487692 349.18023 
L 637.937196 349.982293 
L 638.3867 350.25 
L 638.836204 349.982293 
L 639.285709 349.18023 
L 639.735213 347.846975 
L 640.184717 345.98779 
L 641.083726 340.723028 
L 641.982735 333.468971 
L 642.881743 324.340021 
L 644.230256 307.453638 
L 645.578769 287.277287 
L 647.376786 256.506815 
L 654.11935 134.840871 
L 655.467863 115.687029 
L 656.816376 100.036647 
L 657.715385 91.828948 
L 658.614393 85.557162 
L 659.513402 81.3202 
L 659.962906 79.986945 
L 660.412411 79.184882 
L 660.861915 78.917175 
L 661.311419 79.184882 
L 661.760923 79.986945 
L 662.210428 81.3202 
L 662.659932 83.179385 
L 663.558941 88.444147 
L 664.457949 95.698204 
L 665.356958 104.827154 
L 666.705471 121.713538 
L 668.053983 141.889889 
L 669.852001 172.660361 
L 676.594565 294.326304 
L 677.943078 313.480146 
L 679.291591 329.130528 
L 680.190599 337.338228 
L 681.089608 343.610013 
L 681.988617 347.846975 
L 682.438121 349.18023 
L 682.887625 349.982293 
L 683.337129 350.25 
L 683.786634 349.982293 
L 684.236138 349.18023 
L 684.685642 347.846975 
L 685.135147 345.98779 
L 686.034155 340.723028 
L 686.933164 333.468971 
L 687.832172 324.340021 
L 689.180685 307.453638 
L 690.529198 287.277287 
L 692.327215 256.506815 
L 699.06978 134.840871 
L 700.418292 115.687029 
L 701.766805 100.036647 
L 702.665814 91.828948 
L 703.564823 85.557162 
L 704.463831 81.3202 
L 704.913335 79.986945 
L 705.36284 79.184882 
L 705.812344 78.917175 
L 706.261848 79.184882 
L 706.711353 79.986945 
L 707.160857 81.3202 
L 707.610361 83.179385 
L 708.50937 88.444147 
L 709.408378 95.698204 
L 710.307387 104.827154 
L 711.6559 121.713538 
L 713.004413 141.889889 
L 714.80243 172.660361 
L 721.544994 294.326304 
L 722.893507 313.480146 
L 724.24202 329.130528 
L 725.141029 337.338228 
L 726.040037 343.610013 
L 726.939046 347.846975 
L 727.38855 349.18023 
L 727.838054 349.982293 
L 728.287559 350.25 
L 728.737063 349.982293 
L 729.186567 349.18023 
L 729.636071 347.846975 
L 730.085576 345.98779 
L 730.984584 340.723028 
L 731.883593 333.468971 
L 732.782602 324.340021 
L 734.131114 307.453638 
L 735.479627 287.277287 
L 737.277644 256.506815 
L 744.020209 134.840871 
L 745.368722 115.687029 
L 746.717235 100.036647 
L 747.616243 91.828948 
L 748.515252 85.557162 
L 749.41426 81.3202 
L 749.863765 79.986945 
L 750.313269 79.184882 
L 750.762773 78.917175 
L 751.212278 79.184882 
L 751.661782 79.986945 
L 752.111286 81.3202 
L 752.56079 83.179385 
L 753.459799 88.444147 
L 754.358808 95.698204 
L 755.257816 104.827154 
L 756.606329 121.713538 
L 757.954842 141.889889 
L 759.752859 172.660361 
L 766.495423 294.326304 
L 767.843936 313.480146 
L 769.192449 329.130528 
L 770.091458 337.338228 
L 770.990466 343.610013 
L 771.889475 347.846975 
L 772.338979 349.18023 
L 772.788484 349.982293 
L 773.237988 350.25 
L 773.687492 349.982293 
L 774.136996 349.18023 
L 774.586501 347.846975 
L 775.036005 345.98779 
L 775.935014 340.723028 
L 776.834022 333.468971 
L 777.733031 324.340021 
L 779.081544 307.453638 
L 780.430056 287.277287 
L 782.228074 256.506815 
L 788.970638 134.840871 
L 790.319151 115.687029 
L 791.667664 100.036647 
L 792.566672 91.828948 
L 793.465681 85.557162 
L 794.36469 81.3202 
L 794.814194 79.986945 
L 795.263698 79.184882 
L 795.713202 78.917175 
L 796.162707 79.184882 
L 796.612211 79.986945 
L 797.061715 81.3202 
L 797.51122 83.179385 
L 798.410228 88.444147 
L 799.309237 95.698204 
L 800.208245 104.827154 
L 801.556758 121.713538 
L 802.905271 141.889889 
L 804.703288 172.660361 
L 805.602297 189.162237 
L 805.602297 189.162237 
" clip-path="url(#pb614de2437)" style="fill: none; stroke: #000000; stroke-width: 2.25; stroke-linecap: round"/>
   </g>
   <g id="matplotlib.axis_1">
    <g id="xtick_1">
     <g id="line2d_2">
      <defs>
       <path id="m430b6cb72c" d="M 0 0 
L 0 9 
" style="stroke: #262626; stroke-width: 1.875"/>
      </defs>
      <g>
       <use xlink:href="#m430b6cb72c" x="110.219157" y="365.1" style="fill: #262626; stroke: #262626; stroke-width: 1.875"/>
      </g>
     </g>
     <g id="text_1">
      <!-- 0 -->
      <g style="fill: #262626" transform="translate(105.631384 389.410391) scale(0.165 -0.165)">
       <defs>
        <path id="ArialMT-30" d="M 266 2259 
Q 266 3072 433 3567 
Q 600 4063 929 4331 
Q 1259 4600 1759 4600 
Q 2128 4600 2406 4451 
Q 2684 4303 2865 4023 
Q 3047 3744 3150 3342 
Q 3253 2941 3253 2259 
Q 3253 1453 3087 958 
Q 2922 463 2592 192 
Q 2263 -78 1759 -78 
Q 1097 -78 719 397 
Q 266 969 266 2259 
z
M 844 2259 
Q 844 1131 1108 757 
Q 1372 384 1759 384 
Q 2147 384 2411 759 
Q 2675 1134 2675 2259 
Q 2675 3391 2411 3762 
Q 2147 4134 1753 4134 
Q 1366 4134 1134 3806 
Q 844 3388 844 2259 
z
" transform="scale(0.015625)"/>
       </defs>
       <use xlink:href="#ArialMT-30"/>
      </g>
     </g>
    </g>
    <g id="xtick_2">
     <g id="line2d_3">
      <g>
       <use xlink:href="#m430b6cb72c" x="200.120015" y="365.1" style="fill: #262626; stroke: #262626; stroke-width: 1.875"/>
      </g>
     </g>
     <g id="text_2">
      <!-- 50 -->
      <g style="fill: #262626" transform="translate(190.944469 389.410391) scale(0.165 -0.165)">
       <defs>
        <path id="ArialMT-35" d="M 266 1200 
L 856 1250 
Q 922 819 1161 601 
Q 1400 384 1738 384 
Q 2144 384 2425 690 
Q 2706 997 2706 1503 
Q 2706 1984 2436 2262 
Q 2166 2541 1728 2541 
Q 1456 2541 1237 2417 
Q 1019 2294 894 2097 
L 366 2166 
L 809 4519 
L 3088 4519 
L 3088 3981 
L 1259 3981 
L 1013 2750 
Q 1425 3038 1878 3038 
Q 2478 3038 2890 2622 
Q 3303 2206 3303 1553 
Q 3303 931 2941 478 
Q 2500 -78 1738 -78 
Q 1113 -78 717 272 
Q 322 622 266 1200 
z
" transform="scale(0.015625)"/>
       </defs>
       <use xlink:href="#ArialMT-35"/>
       <use xlink:href="#ArialMT-30" transform="translate(55.615234 0)"/>
      </g>
     </g>
    </g>
    <g id="xtick_3">
     <g id="line2d_4">
      <g>
       <use xlink:href="#m430b6cb72c" x="290.020874" y="365.1" style="fill: #262626; stroke: #262626; stroke-width: 1.875"/>
      </g>
     </g>
     <g id="text_3">
      <!-- 100 -->
      <g style="fill: #262626" transform="translate(276.257554 389.410391) scale(0.165 -0.165)">
       <defs>
        <path id="ArialMT-31" d="M 2384 0 
L 1822 0 
L 1822 3584 
Q 1619 3391 1289 3197 
Q 959 3003 697 2906 
L 697 3450 
Q 1169 3672 1522 3987 
Q 1875 4303 2022 4600 
L 2384 4600 
L 2384 0 
z
" transform="scale(0.015625)"/>
       </defs>
       <use xlink:href="#ArialMT-31"/>
       <use xlink:href="#ArialMT-30" transform="translate(55.615234 0)"/>
       <use xlink:href="#ArialMT-30" transform="translate(111.230469 0)"/>
      </g>
     </g>
    </g>
    <g id="xtick_4">
     <g id="line2d_5">
      <g>
       <use xlink:href="#m430b6cb72c" x="379.921732" y="365.1" style="fill: #262626; stroke: #262626; stroke-width: 1.875"/>
      </g>
     </g>
     <g id="text_4">
      <!-- 150 -->
      <g style="fill: #262626" transform="translate(366.158412 389.410391) scale(0.165 -0.165)">
       <use xlink:href="#ArialMT-31"/>
       <use xlink:href="#ArialMT-35" transform="translate(55.615234 0)"/>
       <use xlink:href="#ArialMT-30" transform="translate(111.230469 0)"/>
      </g>
     </g>
    </g>
    <g id="xtick_5">
     <g id="line2d_6">
      <g>
       <use xlink:href="#m430b6cb72c" x="469.822591" y="365.1" style="fill: #262626; stroke: #262626; stroke-width: 1.875"/>
      </g>
     </g>
     <g id="text_5">
      <!-- 200 -->
      <g style="fill: #262626" transform="translate(456.05927 389.410391) scale(0.165 -0.165)">
       <defs>
        <path id="ArialMT-32" d="M 3222 541 
L 3222 0 
L 194 0 
Q 188 203 259 391 
Q 375 700 629 1000 
Q 884 1300 1366 1694 
Q 2113 2306 2375 2664 
Q 2638 3022 2638 3341 
Q 2638 3675 2398 3904 
Q 2159 4134 1775 4134 
Q 1369 4134 1125 3890 
Q 881 3647 878 3216 
L 300 3275 
Q 359 3922 746 4261 
Q 1134 4600 1788 4600 
Q 2447 4600 2831 4234 
Q 3216 3869 3216 3328 
Q 3216 3053 3103 2787 
Q 2991 2522 2730 2228 
Q 2469 1934 1863 1422 
Q 1356 997 1212 845 
Q 1069 694 975 541 
L 3222 541 
z
" transform="scale(0.015625)"/>
       </defs>
       <use xlink:href="#ArialMT-32"/>
       <use xlink:href="#ArialMT-30" transform="translate(55.615234 0)"/>
       <use xlink:href="#ArialMT-30" transform="translate(111.230469 0)"/>
      </g>
     </g>
    </g>
    <g id="xtick_6">
     <g id="line2d_7">
      <g>
       <use xlink:href="#m430b6cb72c" x="559.723449" y="365.1" style="fill: #262626; stroke: #262626; stroke-width: 1.875"/>
      </g>
     </g>
     <g id="text_6">
      <!-- 250 -->
      <g style="fill: #262626" transform="translate(545.960129 389.410391) scale(0.165 -0.165)">
       <use xlink:href="#ArialMT-32"/>
       <use xlink:href="#ArialMT-35" transform="translate(55.615234 0)"/>
       <use xlink:href="#ArialMT-30" transform="translate(111.230469 0)"/>
      </g>
     </g>
    </g>
    <g id="xtick_7">
     <g id="line2d_8">
      <g>
       <use xlink:href="#m430b6cb72c" x="649.624307" y="365.1" style="fill: #262626; stroke: #262626; stroke-width: 1.875"/>
      </g>
     </g>
     <g id="text_7">
      <!-- 300 -->
      <g style="fill: #262626" transform="translate(635.860987 389.410391) scale(0.165 -0.165)">
       <defs>
        <path id="ArialMT-33" d="M 269 1209 
L 831 1284 
Q 928 806 1161 595 
Q 1394 384 1728 384 
Q 2125 384 2398 659 
Q 2672 934 2672 1341 
Q 2672 1728 2419 1979 
Q 2166 2231 1775 2231 
Q 1616 2231 1378 2169 
L 1441 2663 
Q 1497 2656 1531 2656 
Q 1891 2656 2178 2843 
Q 2466 3031 2466 3422 
Q 2466 3731 2256 3934 
Q 2047 4138 1716 4138 
Q 1388 4138 1169 3931 
Q 950 3725 888 3313 
L 325 3413 
Q 428 3978 793 4289 
Q 1159 4600 1703 4600 
Q 2078 4600 2393 4439 
Q 2709 4278 2876 4000 
Q 3044 3722 3044 3409 
Q 3044 3113 2884 2869 
Q 2725 2625 2413 2481 
Q 2819 2388 3044 2092 
Q 3269 1797 3269 1353 
Q 3269 753 2831 336 
Q 2394 -81 1725 -81 
Q 1122 -81 723 278 
Q 325 638 269 1209 
z
" transform="scale(0.015625)"/>
       </defs>
       <use xlink:href="#ArialMT-33"/>
       <use xlink:href="#ArialMT-30" transform="translate(55.615234 0)"/>
       <use xlink:href="#ArialMT-30" transform="translate(111.230469 0)"/>
      </g>
     </g>
    </g>
    <g id="xtick_8">
     <g id="line2d_9">
      <g>
       <use xlink:href="#m430b6cb72c" x="739.525166" y="365.1" style="fill: #262626; stroke: #262626; stroke-width: 1.875"/>
      </g>
     </g>
     <g id="text_8">
      <!-- 350 -->
      <g style="fill: #262626" transform="translate(725.761846 389.410391) scale(0.165 -0.165)">
       <use xlink:href="#ArialMT-33"/>
       <use xlink:href="#ArialMT-35" transform="translate(55.615234 0)"/>
       <use xlink:href="#ArialMT-30" transform="translate(111.230469 0)"/>
      </g>
     </g>
    </g>
    <g id="xtick_9">
     <g id="line2d_10">
      <g>
       <use xlink:href="#m430b6cb72c" x="829.426024" y="365.1" style="fill: #262626; stroke: #262626; stroke-width: 1.875"/>
      </g>
     </g>
     <g id="text_9">
      <!-- 400 -->
      <g style="fill: #262626" transform="translate(815.662704 389.410391) scale(0.165 -0.165)">
       <defs>
        <path id="ArialMT-34" d="M 2069 0 
L 2069 1097 
L 81 1097 
L 81 1613 
L 2172 4581 
L 2631 4581 
L 2631 1613 
L 3250 1613 
L 3250 1097 
L 2631 1097 
L 2631 0 
L 2069 0 
z
M 2069 1613 
L 2069 3678 
L 634 1613 
L 2069 1613 
z
" transform="scale(0.015625)"/>
       </defs>
       <use xlink:href="#ArialMT-34"/>
       <use xlink:href="#ArialMT-30" transform="translate(55.615234 0)"/>
       <use xlink:href="#ArialMT-30" transform="translate(111.230469 0)"/>
      </g>
     </g>
    </g>
    <g id="text_10">
     <!-- Time (min) -->
     <g style="fill: #262626" transform="translate(415.254946 409.793203) scale(0.18 -0.18)">
      <defs>
       <path id="ArialMT-54" d="M 1659 0 
L 1659 4041 
L 150 4041 
L 150 4581 
L 3781 4581 
L 3781 4041 
L 2266 4041 
L 2266 0 
L 1659 0 
z
" transform="scale(0.015625)"/>
       <path id="ArialMT-69" d="M 425 3934 
L 425 4581 
L 988 4581 
L 988 3934 
L 425 3934 
z
M 425 0 
L 425 3319 
L 988 3319 
L 988 0 
L 425 0 
z
" transform="scale(0.015625)"/>
       <path id="ArialMT-6d" d="M 422 0 
L 422 3319 
L 925 3319 
L 925 2853 
Q 1081 3097 1340 3245 
Q 1600 3394 1931 3394 
Q 2300 3394 2536 3241 
Q 2772 3088 2869 2813 
Q 3263 3394 3894 3394 
Q 4388 3394 4653 3120 
Q 4919 2847 4919 2278 
L 4919 0 
L 4359 0 
L 4359 2091 
Q 4359 2428 4304 2576 
Q 4250 2725 4106 2815 
Q 3963 2906 3769 2906 
Q 3419 2906 3187 2673 
Q 2956 2441 2956 1928 
L 2956 0 
L 2394 0 
L 2394 2156 
Q 2394 2531 2256 2718 
Q 2119 2906 1806 2906 
Q 1569 2906 1367 2781 
Q 1166 2656 1075 2415 
Q 984 2175 984 1722 
L 984 0 
L 422 0 
z
" transform="scale(0.015625)"/>
       <path id="ArialMT-65" d="M 2694 1069 
L 3275 997 
Q 3138 488 2766 206 
Q 2394 -75 1816 -75 
Q 1088 -75 661 373 
Q 234 822 234 1631 
Q 234 2469 665 2931 
Q 1097 3394 1784 3394 
Q 2450 3394 2872 2941 
Q 3294 2488 3294 1666 
Q 3294 1616 3291 1516 
L 816 1516 
Q 847 969 1125 678 
Q 1403 388 1819 388 
Q 2128 388 2347 550 
Q 2566 713 2694 1069 
z
M 847 1978 
L 2700 1978 
Q 2663 2397 2488 2606 
Q 2219 2931 1791 2931 
Q 1403 2931 1139 2672 
Q 875 2413 847 1978 
z
" transform="scale(0.015625)"/>
       <path id="ArialMT-20" transform="scale(0.015625)"/>
       <path id="ArialMT-28" d="M 1497 -1347 
Q 1031 -759 709 28 
Q 388 816 388 1659 
Q 388 2403 628 3084 
Q 909 3875 1497 4659 
L 1900 4659 
Q 1522 4009 1400 3731 
Q 1209 3300 1100 2831 
Q 966 2247 966 1656 
Q 966 153 1900 -1347 
L 1497 -1347 
z
" transform="scale(0.015625)"/>
       <path id="ArialMT-6e" d="M 422 0 
L 422 3319 
L 928 3319 
L 928 2847 
Q 1294 3394 1984 3394 
Q 2284 3394 2536 3286 
Q 2788 3178 2913 3003 
Q 3038 2828 3088 2588 
Q 3119 2431 3119 2041 
L 3119 0 
L 2556 0 
L 2556 2019 
Q 2556 2363 2490 2533 
Q 2425 2703 2258 2804 
Q 2091 2906 1866 2906 
Q 1506 2906 1245 2678 
Q 984 2450 984 1813 
L 984 0 
L 422 0 
z
" transform="scale(0.015625)"/>
       <path id="ArialMT-29" d="M 791 -1347 
L 388 -1347 
Q 1322 153 1322 1656 
Q 1322 2244 1188 2822 
Q 1081 3291 891 3722 
Q 769 4003 388 4659 
L 791 4659 
Q 1378 3875 1659 3084 
Q 1900 2403 1900 1659 
Q 1900 816 1576 28 
Q 1253 -759 791 -1347 
z
" transform="scale(0.015625)"/>
      </defs>
      <use xlink:href="#ArialMT-54"/>
      <use xlink:href="#ArialMT-69" transform="translate(57.333984 0)"/>
      <use xlink:href="#ArialMT-6d" transform="translate(79.550781 0)"/>
      <use xlink:href="#ArialMT-65" transform="translate(162.851562 0)"/>
      <use xlink:href="#ArialMT-20" transform="translate(218.466797 0)"/>
      <use xlink:href="#ArialMT-28" transform="translate(246.25 0)"/>
      <use xlink:href="#ArialMT-6d" transform="translate(279.550781 0)"/>
      <use xlink:href="#ArialMT-69" transform="translate(362.851562 0)"/>
      <use xlink:href="#ArialMT-6e" transform="translate(385.068359 0)"/>
      <use xlink:href="#ArialMT-29" transform="translate(440.683594 0)"/>
     </g>
    </g>
   </g>
   <g id="matplotlib.axis_2">
    <g id="ytick_1">
     <g id="line2d_11">
      <defs>
       <path id="m7937c7c83e" d="M 0 0 
L -9 0 
" style="stroke: #262626; stroke-width: 1.875"/>
      </defs>
      <g>
       <use xlink:href="#m7937c7c83e" x="75.45" y="350.25" style="fill: #262626; stroke: #262626; stroke-width: 1.875"/>
      </g>
     </g>
     <g id="text_11">
      <!-- 0.0 -->
      <g style="fill: #262626" transform="translate(40.015 356.155195) scale(0.165 -0.165)">
       <defs>
        <path id="ArialMT-2e" d="M 581 0 
L 581 641 
L 1222 641 
L 1222 0 
L 581 0 
z
" transform="scale(0.015625)"/>
       </defs>
       <use xlink:href="#ArialMT-30"/>
       <use xlink:href="#ArialMT-2e" transform="translate(55.615234 0)"/>
       <use xlink:href="#ArialMT-30" transform="translate(83.398438 0)"/>
      </g>
     </g>
    </g>
    <g id="ytick_2">
     <g id="line2d_12">
      <g>
       <use xlink:href="#m7937c7c83e" x="75.45" y="295.983435" style="fill: #262626; stroke: #262626; stroke-width: 1.875"/>
      </g>
     </g>
     <g id="text_12">
      <!-- 0.2 -->
      <g style="fill: #262626" transform="translate(40.015 301.88863) scale(0.165 -0.165)">
       <use xlink:href="#ArialMT-30"/>
       <use xlink:href="#ArialMT-2e" transform="translate(55.615234 0)"/>
       <use xlink:href="#ArialMT-32" transform="translate(83.398438 0)"/>
      </g>
     </g>
    </g>
    <g id="ytick_3">
     <g id="line2d_13">
      <g>
       <use xlink:href="#m7937c7c83e" x="75.45" y="241.71687" style="fill: #262626; stroke: #262626; stroke-width: 1.875"/>
      </g>
     </g>
     <g id="text_13">
      <!-- 0.4 -->
      <g style="fill: #262626" transform="translate(40.015 247.622065) scale(0.165 -0.165)">
       <use xlink:href="#ArialMT-30"/>
       <use xlink:href="#ArialMT-2e" transform="translate(55.615234 0)"/>
       <use xlink:href="#ArialMT-34" transform="translate(83.398438 0)"/>
      </g>
     </g>
    </g>
    <g id="ytick_4">
     <g id="line2d_14">
      <g>
       <use xlink:href="#m7937c7c83e" x="75.45" y="187.450305" style="fill: #262626; stroke: #262626; stroke-width: 1.875"/>
      </g>
     </g>
     <g id="text_14">
      <!-- 0.6 -->
      <g style="fill: #262626" transform="translate(40.015 193.3555) scale(0.165 -0.165)">
       <defs>
        <path id="ArialMT-36" d="M 3184 3459 
L 2625 3416 
Q 2550 3747 2413 3897 
Q 2184 4138 1850 4138 
Q 1581 4138 1378 3988 
Q 1113 3794 959 3422 
Q 806 3050 800 2363 
Q 1003 2672 1297 2822 
Q 1591 2972 1913 2972 
Q 2475 2972 2870 2558 
Q 3266 2144 3266 1488 
Q 3266 1056 3080 686 
Q 2894 316 2569 119 
Q 2244 -78 1831 -78 
Q 1128 -78 684 439 
Q 241 956 241 2144 
Q 241 3472 731 4075 
Q 1159 4600 1884 4600 
Q 2425 4600 2770 4297 
Q 3116 3994 3184 3459 
z
M 888 1484 
Q 888 1194 1011 928 
Q 1134 663 1356 523 
Q 1578 384 1822 384 
Q 2178 384 2434 671 
Q 2691 959 2691 1453 
Q 2691 1928 2437 2201 
Q 2184 2475 1800 2475 
Q 1419 2475 1153 2201 
Q 888 1928 888 1484 
z
" transform="scale(0.015625)"/>
       </defs>
       <use xlink:href="#ArialMT-30"/>
       <use xlink:href="#ArialMT-2e" transform="translate(55.615234 0)"/>
       <use xlink:href="#ArialMT-36" transform="translate(83.398438 0)"/>
      </g>
     </g>
    </g>
    <g id="ytick_5">
     <g id="line2d_15">
      <g>
       <use xlink:href="#m7937c7c83e" x="75.45" y="133.18374" style="fill: #262626; stroke: #262626; stroke-width: 1.875"/>
      </g>
     </g>
     <g id="text_15">
      <!-- 0.8 -->
      <g style="fill: #262626" transform="translate(40.015 139.088935) scale(0.165 -0.165)">
       <defs>
        <path id="ArialMT-38" d="M 1131 2484 
Q 781 2613 612 2850 
Q 444 3088 444 3419 
Q 444 3919 803 4259 
Q 1163 4600 1759 4600 
Q 2359 4600 2725 4251 
Q 3091 3903 3091 3403 
Q 3091 3084 2923 2848 
Q 2756 2613 2416 2484 
Q 2838 2347 3058 2040 
Q 3278 1734 3278 1309 
Q 3278 722 2862 322 
Q 2447 -78 1769 -78 
Q 1091 -78 675 323 
Q 259 725 259 1325 
Q 259 1772 486 2073 
Q 713 2375 1131 2484 
z
M 1019 3438 
Q 1019 3113 1228 2906 
Q 1438 2700 1772 2700 
Q 2097 2700 2305 2904 
Q 2513 3109 2513 3406 
Q 2513 3716 2298 3927 
Q 2084 4138 1766 4138 
Q 1444 4138 1231 3931 
Q 1019 3725 1019 3438 
z
M 838 1322 
Q 838 1081 952 856 
Q 1066 631 1291 507 
Q 1516 384 1775 384 
Q 2178 384 2440 643 
Q 2703 903 2703 1303 
Q 2703 1709 2433 1975 
Q 2163 2241 1756 2241 
Q 1359 2241 1098 1978 
Q 838 1716 838 1322 
z
" transform="scale(0.015625)"/>
       </defs>
       <use xlink:href="#ArialMT-30"/>
       <use xlink:href="#ArialMT-2e" transform="translate(55.615234 0)"/>
       <use xlink:href="#ArialMT-38" transform="translate(83.398438 0)"/>
      </g>
     </g>
    </g>
    <g id="ytick_6">
     <g id="line2d_16">
      <g>
       <use xlink:href="#m7937c7c83e" x="75.45" y="78.917175" style="fill: #262626; stroke: #262626; stroke-width: 1.875"/>
      </g>
     </g>
     <g id="text_16">
      <!-- 1.0 -->
      <g style="fill: #262626" transform="translate(40.015 84.822371) scale(0.165 -0.165)">
       <use xlink:href="#ArialMT-31"/>
       <use xlink:href="#ArialMT-2e" transform="translate(55.615234 0)"/>
       <use xlink:href="#ArialMT-30" transform="translate(83.398438 0)"/>
      </g>
     </g>
    </g>
    <g id="text_17">
     <!-- Predicted y Value -->
     <g style="fill: #262626" transform="translate(32.226562 271.62375) rotate(-90) scale(0.18 -0.18)">
      <defs>
       <path id="ArialMT-50" d="M 494 0 
L 494 4581 
L 2222 4581 
Q 2678 4581 2919 4538 
Q 3256 4481 3484 4323 
Q 3713 4166 3852 3881 
Q 3991 3597 3991 3256 
Q 3991 2672 3619 2267 
Q 3247 1863 2275 1863 
L 1100 1863 
L 1100 0 
L 494 0 
z
M 1100 2403 
L 2284 2403 
Q 2872 2403 3119 2622 
Q 3366 2841 3366 3238 
Q 3366 3525 3220 3729 
Q 3075 3934 2838 4000 
Q 2684 4041 2272 4041 
L 1100 4041 
L 1100 2403 
z
" transform="scale(0.015625)"/>
       <path id="ArialMT-72" d="M 416 0 
L 416 3319 
L 922 3319 
L 922 2816 
Q 1116 3169 1280 3281 
Q 1444 3394 1641 3394 
Q 1925 3394 2219 3213 
L 2025 2691 
Q 1819 2813 1613 2813 
Q 1428 2813 1281 2702 
Q 1134 2591 1072 2394 
Q 978 2094 978 1738 
L 978 0 
L 416 0 
z
" transform="scale(0.015625)"/>
       <path id="ArialMT-64" d="M 2575 0 
L 2575 419 
Q 2259 -75 1647 -75 
Q 1250 -75 917 144 
Q 584 363 401 755 
Q 219 1147 219 1656 
Q 219 2153 384 2558 
Q 550 2963 881 3178 
Q 1213 3394 1622 3394 
Q 1922 3394 2156 3267 
Q 2391 3141 2538 2938 
L 2538 4581 
L 3097 4581 
L 3097 0 
L 2575 0 
z
M 797 1656 
Q 797 1019 1065 703 
Q 1334 388 1700 388 
Q 2069 388 2326 689 
Q 2584 991 2584 1609 
Q 2584 2291 2321 2609 
Q 2059 2928 1675 2928 
Q 1300 2928 1048 2622 
Q 797 2316 797 1656 
z
" transform="scale(0.015625)"/>
       <path id="ArialMT-63" d="M 2588 1216 
L 3141 1144 
Q 3050 572 2676 248 
Q 2303 -75 1759 -75 
Q 1078 -75 664 370 
Q 250 816 250 1647 
Q 250 2184 428 2587 
Q 606 2991 970 3192 
Q 1334 3394 1763 3394 
Q 2303 3394 2647 3120 
Q 2991 2847 3088 2344 
L 2541 2259 
Q 2463 2594 2264 2762 
Q 2066 2931 1784 2931 
Q 1359 2931 1093 2626 
Q 828 2322 828 1663 
Q 828 994 1084 691 
Q 1341 388 1753 388 
Q 2084 388 2306 591 
Q 2528 794 2588 1216 
z
" transform="scale(0.015625)"/>
       <path id="ArialMT-74" d="M 1650 503 
L 1731 6 
Q 1494 -44 1306 -44 
Q 1000 -44 831 53 
Q 663 150 594 308 
Q 525 466 525 972 
L 525 2881 
L 113 2881 
L 113 3319 
L 525 3319 
L 525 4141 
L 1084 4478 
L 1084 3319 
L 1650 3319 
L 1650 2881 
L 1084 2881 
L 1084 941 
Q 1084 700 1114 631 
Q 1144 563 1211 522 
Q 1278 481 1403 481 
Q 1497 481 1650 503 
z
" transform="scale(0.015625)"/>
       <path id="ArialMT-79" d="M 397 -1278 
L 334 -750 
Q 519 -800 656 -800 
Q 844 -800 956 -737 
Q 1069 -675 1141 -563 
Q 1194 -478 1313 -144 
Q 1328 -97 1363 -6 
L 103 3319 
L 709 3319 
L 1400 1397 
Q 1534 1031 1641 628 
Q 1738 1016 1872 1384 
L 2581 3319 
L 3144 3319 
L 1881 -56 
Q 1678 -603 1566 -809 
Q 1416 -1088 1222 -1217 
Q 1028 -1347 759 -1347 
Q 597 -1347 397 -1278 
z
" transform="scale(0.015625)"/>
       <path id="ArialMT-56" d="M 1803 0 
L 28 4581 
L 684 4581 
L 1875 1253 
Q 2019 853 2116 503 
Q 2222 878 2363 1253 
L 3600 4581 
L 4219 4581 
L 2425 0 
L 1803 0 
z
" transform="scale(0.015625)"/>
       <path id="ArialMT-61" d="M 2588 409 
Q 2275 144 1986 34 
Q 1697 -75 1366 -75 
Q 819 -75 525 192 
Q 231 459 231 875 
Q 231 1119 342 1320 
Q 453 1522 633 1644 
Q 813 1766 1038 1828 
Q 1203 1872 1538 1913 
Q 2219 1994 2541 2106 
Q 2544 2222 2544 2253 
Q 2544 2597 2384 2738 
Q 2169 2928 1744 2928 
Q 1347 2928 1158 2789 
Q 969 2650 878 2297 
L 328 2372 
Q 403 2725 575 2942 
Q 747 3159 1072 3276 
Q 1397 3394 1825 3394 
Q 2250 3394 2515 3294 
Q 2781 3194 2906 3042 
Q 3031 2891 3081 2659 
Q 3109 2516 3109 2141 
L 3109 1391 
Q 3109 606 3145 398 
Q 3181 191 3288 0 
L 2700 0 
Q 2613 175 2588 409 
z
M 2541 1666 
Q 2234 1541 1622 1453 
Q 1275 1403 1131 1340 
Q 988 1278 909 1158 
Q 831 1038 831 891 
Q 831 666 1001 516 
Q 1172 366 1500 366 
Q 1825 366 2078 508 
Q 2331 650 2450 897 
Q 2541 1088 2541 1459 
L 2541 1666 
z
" transform="scale(0.015625)"/>
       <path id="ArialMT-6c" d="M 409 0 
L 409 4581 
L 972 4581 
L 972 0 
L 409 0 
z
" transform="scale(0.015625)"/>
       <path id="ArialMT-75" d="M 2597 0 
L 2597 488 
Q 2209 -75 1544 -75 
Q 1250 -75 995 37 
Q 741 150 617 320 
Q 494 491 444 738 
Q 409 903 409 1263 
L 409 3319 
L 972 3319 
L 972 1478 
Q 972 1038 1006 884 
Q 1059 663 1231 536 
Q 1403 409 1656 409 
Q 1909 409 2131 539 
Q 2353 669 2445 892 
Q 2538 1116 2538 1541 
L 2538 3319 
L 3100 3319 
L 3100 0 
L 2597 0 
z
" transform="scale(0.015625)"/>
      </defs>
      <use xlink:href="#ArialMT-50"/>
      <use xlink:href="#ArialMT-72" transform="translate(66.699219 0)"/>
      <use xlink:href="#ArialMT-65" transform="translate(100 0)"/>
      <use xlink:href="#ArialMT-64" transform="translate(155.615234 0)"/>
      <use xlink:href="#ArialMT-69" transform="translate(211.230469 0)"/>
      <use xlink:href="#ArialMT-63" transform="translate(233.447266 0)"/>
      <use xlink:href="#ArialMT-74" transform="translate(283.447266 0)"/>
      <use xlink:href="#ArialMT-65" transform="translate(311.230469 0)"/>
      <use xlink:href="#ArialMT-64" transform="translate(366.845703 0)"/>
      <use xlink:href="#ArialMT-20" transform="translate(422.460938 0)"/>
      <use xlink:href="#ArialMT-79" transform="translate(450.244141 0)"/>
      <use xlink:href="#ArialMT-20" transform="translate(500.244141 0)"/>
      <use xlink:href="#ArialMT-56" transform="translate(528.027344 0)"/>
      <use xlink:href="#ArialMT-61" transform="translate(587.351562 0)"/>
      <use xlink:href="#ArialMT-6c" transform="translate(642.966797 0)"/>
      <use xlink:href="#ArialMT-75" transform="translate(665.183594 0)"/>
      <use xlink:href="#ArialMT-65" transform="translate(720.798828 0)"/>
     </g>
    </g>
   </g>
   <g id="line2d_17">
    <path d="M 118.310234 86.980866 
L 126.401312 142.005418 
L 134.492389 245.435886 
L 142.583466 342.362665 
L 150.674543 289.839187 
L 158.765621 175.875786 
L 166.856698 94.977825 
L 174.947775 149.743603 
L 183.038852 299.501326 
L 191.12993 334.684608 
L 199.221007 236.582926 
L 207.312084 107.432047 
L 215.403161 61.829514 
L 223.494239 232.56173 
L 231.585316 330.651787 
L 239.676393 301.111028 
L 247.76747 161.040402 
L 255.858548 67.744322 
L 263.949625 144.757884 
L 272.040702 287.01865 
L 280.131779 308.435232 
L 288.222857 247.942946 
L 296.313934 115.463179 
L 304.405011 94.191369 
L 312.496088 218.320944 
L 320.587166 340.942351 
L 328.678243 316.943825 
L 336.76932 197.298655 
L 344.860397 84.034303 
L 352.951475 140.105996 
L 361.042552 281.644634 
L 369.133629 327.490744 
L 377.224706 270.039674 
L 385.315784 140.231215 
L 393.406861 98.462461 
L 401.497938 199.339157 
L 409.589016 311.817071 
L 417.680093 321.638949 
L 425.77117 216.327325 
L 433.862247 88.74092 
L 441.953325 133.116981 
L 450.044402 273.53 
L 458.135479 337.436949 
L 466.226556 271.144797 
L 474.317634 134.192518 
L 482.408711 107.356332 
L 490.499788 188.833335 
L 498.590865 301.72147 
L 506.681943 323.861571 
L 514.77302 226.34612 
L 522.864097 111.919847 
" clip-path="url(#pb614de2437)" style="fill: none; stroke: #4c72b0; stroke-width: 2.25; stroke-linecap: round"/>
    <defs>
     <path id="m1290a59ac8" d="M 0 4.5 
C 1.193414 4.5 2.338109 4.025852 3.181981 3.181981 
C 4.025852 2.338109 4.5 1.193414 4.5 0 
C 4.5 -1.193414 4.025852 -2.338109 3.181981 -3.181981 
C 2.338109 -4.025852 1.193414 -4.5 0 -4.5 
C -1.193414 -4.5 -2.338109 -4.025852 -3.181981 -3.181981 
C -4.025852 -2.338109 -4.5 -1.193414 -4.5 0 
C -4.5 1.193414 -4.025852 2.338109 -3.181981 3.181981 
C -2.338109 4.025852 -1.193414 4.5 0 4.5 
z
" style="stroke: #ffffff; stroke-width: 0.75"/>
    </defs>
    <g clip-path="url(#pb614de2437)">
     <use xlink:href="#m1290a59ac8" x="118.310234" y="86.980866" style="fill: #4c72b0; stroke: #ffffff; stroke-width: 0.75"/>
     <use xlink:href="#m1290a59ac8" x="126.401312" y="142.005418" style="fill: #4c72b0; stroke: #ffffff; stroke-width: 0.75"/>
     <use xlink:href="#m1290a59ac8" x="134.492389" y="245.435886" style="fill: #4c72b0; stroke: #ffffff; stroke-width: 0.75"/>
     <use xlink:href="#m1290a59ac8" x="142.583466" y="342.362665" style="fill: #4c72b0; stroke: #ffffff; stroke-width: 0.75"/>
     <use xlink:href="#m1290a59ac8" x="150.674543" y="289.839187" style="fill: #4c72b0; stroke: #ffffff; stroke-width: 0.75"/>
     <use xlink:href="#m1290a59ac8" x="158.765621" y="175.875786" style="fill: #4c72b0; stroke: #ffffff; stroke-width: 0.75"/>
     <use xlink:href="#m1290a59ac8" x="166.856698" y="94.977825" style="fill: #4c72b0; stroke: #ffffff; stroke-width: 0.75"/>
     <use xlink:href="#m1290a59ac8" x="174.947775" y="149.743603" style="fill: #4c72b0; stroke: #ffffff; stroke-width: 0.75"/>
     <use xlink:href="#m1290a59ac8" x="183.038852" y="299.501326" style="fill: #4c72b0; stroke: #ffffff; stroke-width: 0.75"/>
     <use xlink:href="#m1290a59ac8" x="191.12993" y="334.684608" style="fill: #4c72b0; stroke: #ffffff; stroke-width: 0.75"/>
     <use xlink:href="#m1290a59ac8" x="199.221007" y="236.582926" style="fill: #4c72b0; stroke: #ffffff; stroke-width: 0.75"/>
     <use xlink:href="#m1290a59ac8" x="207.312084" y="107.432047" style="fill: #4c72b0; stroke: #ffffff; stroke-width: 0.75"/>
     <use xlink:href="#m1290a59ac8" x="215.403161" y="61.829514" style="fill: #4c72b0; stroke: #ffffff; stroke-width: 0.75"/>
     <use xlink:href="#m1290a59ac8" x="223.494239" y="232.56173" style="fill: #4c72b0; stroke: #ffffff; stroke-width: 0.75"/>
     <use xlink:href="#m1290a59ac8" x="231.585316" y="330.651787" style="fill: #4c72b0; stroke: #ffffff; stroke-width: 0.75"/>
     <use xlink:href="#m1290a59ac8" x="239.676393" y="301.111028" style="fill: #4c72b0; stroke: #ffffff; stroke-width: 0.75"/>
     <use xlink:href="#m1290a59ac8" x="247.76747" y="161.040402" style="fill: #4c72b0; stroke: #ffffff; stroke-width: 0.75"/>
     <use xlink:href="#m1290a59ac8" x="255.858548" y="67.744322" style="fill: #4c72b0; stroke: #ffffff; stroke-width: 0.75"/>
     <use xlink:href="#m1290a59ac8" x="263.949625" y="144.757884" style="fill: #4c72b0; stroke: #ffffff; stroke-width: 0.75"/>
     <use xlink:href="#m1290a59ac8" x="272.040702" y="287.01865" style="fill: #4c72b0; stroke: #ffffff; stroke-width: 0.75"/>
     <use xlink:href="#m1290a59ac8" x="280.131779" y="308.435232" style="fill: #4c72b0; stroke: #ffffff; stroke-width: 0.75"/>
     <use xlink:href="#m1290a59ac8" x="288.222857" y="247.942946" style="fill: #4c72b0; stroke: #ffffff; stroke-width: 0.75"/>
     <use xlink:href="#m1290a59ac8" x="296.313934" y="115.463179" style="fill: #4c72b0; stroke: #ffffff; stroke-width: 0.75"/>
     <use xlink:href="#m1290a59ac8" x="304.405011" y="94.191369" style="fill: #4c72b0; stroke: #ffffff; stroke-width: 0.75"/>
     <use xlink:href="#m1290a59ac8" x="312.496088" y="218.320944" style="fill: #4c72b0; stroke: #ffffff; stroke-width: 0.75"/>
     <use xlink:href="#m1290a59ac8" x="320.587166" y="340.942351" style="fill: #4c72b0; stroke: #ffffff; stroke-width: 0.75"/>
     <use xlink:href="#m1290a59ac8" x="328.678243" y="316.943825" style="fill: #4c72b0; stroke: #ffffff; stroke-width: 0.75"/>
     <use xlink:href="#m1290a59ac8" x="336.76932" y="197.298655" style="fill: #4c72b0; stroke: #ffffff; stroke-width: 0.75"/>
     <use xlink:href="#m1290a59ac8" x="344.860397" y="84.034303" style="fill: #4c72b0; stroke: #ffffff; stroke-width: 0.75"/>
     <use xlink:href="#m1290a59ac8" x="352.951475" y="140.105996" style="fill: #4c72b0; stroke: #ffffff; stroke-width: 0.75"/>
     <use xlink:href="#m1290a59ac8" x="361.042552" y="281.644634" style="fill: #4c72b0; stroke: #ffffff; stroke-width: 0.75"/>
     <use xlink:href="#m1290a59ac8" x="369.133629" y="327.490744" style="fill: #4c72b0; stroke: #ffffff; stroke-width: 0.75"/>
     <use xlink:href="#m1290a59ac8" x="377.224706" y="270.039674" style="fill: #4c72b0; stroke: #ffffff; stroke-width: 0.75"/>
     <use xlink:href="#m1290a59ac8" x="385.315784" y="140.231215" style="fill: #4c72b0; stroke: #ffffff; stroke-width: 0.75"/>
     <use xlink:href="#m1290a59ac8" x="393.406861" y="98.462461" style="fill: #4c72b0; stroke: #ffffff; stroke-width: 0.75"/>
     <use xlink:href="#m1290a59ac8" x="401.497938" y="199.339157" style="fill: #4c72b0; stroke: #ffffff; stroke-width: 0.75"/>
     <use xlink:href="#m1290a59ac8" x="409.589016" y="311.817071" style="fill: #4c72b0; stroke: #ffffff; stroke-width: 0.75"/>
     <use xlink:href="#m1290a59ac8" x="417.680093" y="321.638949" style="fill: #4c72b0; stroke: #ffffff; stroke-width: 0.75"/>
     <use xlink:href="#m1290a59ac8" x="425.77117" y="216.327325" style="fill: #4c72b0; stroke: #ffffff; stroke-width: 0.75"/>
     <use xlink:href="#m1290a59ac8" x="433.862247" y="88.74092" style="fill: #4c72b0; stroke: #ffffff; stroke-width: 0.75"/>
     <use xlink:href="#m1290a59ac8" x="441.953325" y="133.116981" style="fill: #4c72b0; stroke: #ffffff; stroke-width: 0.75"/>
     <use xlink:href="#m1290a59ac8" x="450.044402" y="273.53" style="fill: #4c72b0; stroke: #ffffff; stroke-width: 0.75"/>
     <use xlink:href="#m1290a59ac8" x="458.135479" y="337.436949" style="fill: #4c72b0; stroke: #ffffff; stroke-width: 0.75"/>
     <use xlink:href="#m1290a59ac8" x="466.226556" y="271.144797" style="fill: #4c72b0; stroke: #ffffff; stroke-width: 0.75"/>
     <use xlink:href="#m1290a59ac8" x="474.317634" y="134.192518" style="fill: #4c72b0; stroke: #ffffff; stroke-width: 0.75"/>
     <use xlink:href="#m1290a59ac8" x="482.408711" y="107.356332" style="fill: #4c72b0; stroke: #ffffff; stroke-width: 0.75"/>
     <use xlink:href="#m1290a59ac8" x="490.499788" y="188.833335" style="fill: #4c72b0; stroke: #ffffff; stroke-width: 0.75"/>
     <use xlink:href="#m1290a59ac8" x="498.590865" y="301.72147" style="fill: #4c72b0; stroke: #ffffff; stroke-width: 0.75"/>
     <use xlink:href="#m1290a59ac8" x="506.681943" y="323.861571" style="fill: #4c72b0; stroke: #ffffff; stroke-width: 0.75"/>
     <use xlink:href="#m1290a59ac8" x="514.77302" y="226.34612" style="fill: #4c72b0; stroke: #ffffff; stroke-width: 0.75"/>
     <use xlink:href="#m1290a59ac8" x="522.864097" y="111.919847" style="fill: #4c72b0; stroke: #ffffff; stroke-width: 0.75"/>
    </g>
   </g>
   <g id="FillBetweenPolyCollection_1"/>
   <g id="line2d_18">
    <path d="M 530.955174 77.088907 
L 539.046252 259.679366 
L 547.137329 332.325204 
L 555.228406 221.793039 
L 563.319483 150.164695 
L 571.410561 163.79004 
L 579.501638 142.992924 
L 587.592715 249.804442 
L 595.683792 179.64682 
L 603.77487 166.803995 
L 611.865947 61.047414 
L 619.957024 53.25 
L 628.048101 233.326825 
L 636.139179 292.576617 
L 644.230256 213.142356 
L 652.321333 127.947998 
L 660.412411 86.145627 
" clip-path="url(#pb614de2437)" style="fill: none; stroke: #dd8452; stroke-width: 2.25; stroke-linecap: round"/>
    <defs>
     <path id="m29b1ed7310" d="M 0 4.5 
C 1.193414 4.5 2.338109 4.025852 3.181981 3.181981 
C 4.025852 2.338109 4.5 1.193414 4.5 0 
C 4.5 -1.193414 4.025852 -2.338109 3.181981 -3.181981 
C 2.338109 -4.025852 1.193414 -4.5 0 -4.5 
C -1.193414 -4.5 -2.338109 -4.025852 -3.181981 -3.181981 
C -4.025852 -2.338109 -4.5 -1.193414 -4.5 0 
C -4.5 1.193414 -4.025852 2.338109 -3.181981 3.181981 
C -2.338109 4.025852 -1.193414 4.5 0 4.5 
z
" style="stroke: #ffffff; stroke-width: 0.75"/>
    </defs>
    <g clip-path="url(#pb614de2437)">
     <use xlink:href="#m29b1ed7310" x="530.955174" y="77.088907" style="fill: #dd8452; stroke: #ffffff; stroke-width: 0.75"/>
     <use xlink:href="#m29b1ed7310" x="539.046252" y="259.679366" style="fill: #dd8452; stroke: #ffffff; stroke-width: 0.75"/>
     <use xlink:href="#m29b1ed7310" x="547.137329" y="332.325204" style="fill: #dd8452; stroke: #ffffff; stroke-width: 0.75"/>
     <use xlink:href="#m29b1ed7310" x="555.228406" y="221.793039" style="fill: #dd8452; stroke: #ffffff; stroke-width: 0.75"/>
     <use xlink:href="#m29b1ed7310" x="563.319483" y="150.164695" style="fill: #dd8452; stroke: #ffffff; stroke-width: 0.75"/>
     <use xlink:href="#m29b1ed7310" x="571.410561" y="163.79004" style="fill: #dd8452; stroke: #ffffff; stroke-width: 0.75"/>
     <use xlink:href="#m29b1ed7310" x="579.501638" y="142.992924" style="fill: #dd8452; stroke: #ffffff; stroke-width: 0.75"/>
     <use xlink:href="#m29b1ed7310" x="587.592715" y="249.804442" style="fill: #dd8452; stroke: #ffffff; stroke-width: 0.75"/>
     <use xlink:href="#m29b1ed7310" x="595.683792" y="179.64682" style="fill: #dd8452; stroke: #ffffff; stroke-width: 0.75"/>
     <use xlink:href="#m29b1ed7310" x="603.77487" y="166.803995" style="fill: #dd8452; stroke: #ffffff; stroke-width: 0.75"/>
     <use xlink:href="#m29b1ed7310" x="611.865947" y="61.047414" style="fill: #dd8452; stroke: #ffffff; stroke-width: 0.75"/>
     <use xlink:href="#m29b1ed7310" x="619.957024" y="53.25" style="fill: #dd8452; stroke: #ffffff; stroke-width: 0.75"/>
     <use xlink:href="#m29b1ed7310" x="628.048101" y="233.326825" style="fill: #dd8452; stroke: #ffffff; stroke-width: 0.75"/>
     <use xlink:href="#m29b1ed7310" x="636.139179" y="292.576617" style="fill: #dd8452; stroke: #ffffff; stroke-width: 0.75"/>
     <use xlink:href="#m29b1ed7310" x="644.230256" y="213.142356" style="fill: #dd8452; stroke: #ffffff; stroke-width: 0.75"/>
     <use xlink:href="#m29b1ed7310" x="652.321333" y="127.947998" style="fill: #dd8452; stroke: #ffffff; stroke-width: 0.75"/>
     <use xlink:href="#m29b1ed7310" x="660.412411" y="86.145627" style="fill: #dd8452; stroke: #ffffff; stroke-width: 0.75"/>
    </g>
   </g>
   <g id="FillBetweenPolyCollection_2"/>
   <g id="line2d_19">
    <path d="M 668.503488 190.726856 
L 676.594565 264.984183 
L 684.685642 209.2451 
L 692.77672 249.143676 
L 700.867797 100.054258 
L 708.958874 137.773535 
L 717.049951 265.573482 
L 725.141029 255.077192 
L 733.232106 145.345383 
L 741.323183 151.988864 
L 749.41426 63.731964 
L 757.505338 218.502449 
L 765.596415 281.996151 
L 773.687492 230.353763 
L 781.778569 74.733465 
L 789.869647 64.352147 
L 797.960724 97.588952 
" clip-path="url(#pb614de2437)" style="fill: none; stroke: #55a868; stroke-width: 2.25; stroke-linecap: round"/>
    <defs>
     <path id="m21d8b96018" d="M 0 4.5 
C 1.193414 4.5 2.338109 4.025852 3.181981 3.181981 
C 4.025852 2.338109 4.5 1.193414 4.5 0 
C 4.5 -1.193414 4.025852 -2.338109 3.181981 -3.181981 
C 2.338109 -4.025852 1.193414 -4.5 0 -4.5 
C -1.193414 -4.5 -2.338109 -4.025852 -3.181981 -3.181981 
C -4.025852 -2.338109 -4.5 -1.193414 -4.5 0 
C -4.5 1.193414 -4.025852 2.338109 -3.181981 3.181981 
C -2.338109 4.025852 -1.193414 4.5 0 4.5 
z
" style="stroke: #ffffff; stroke-width: 0.75"/>
    </defs>
    <g clip-path="url(#pb614de2437)">
     <use xlink:href="#m21d8b96018" x="668.503488" y="190.726856" style="fill: #55a868; stroke: #ffffff; stroke-width: 0.75"/>
     <use xlink:href="#m21d8b96018" x="676.594565" y="264.984183" style="fill: #55a868; stroke: #ffffff; stroke-width: 0.75"/>
     <use xlink:href="#m21d8b96018" x="684.685642" y="209.2451" style="fill: #55a868; stroke: #ffffff; stroke-width: 0.75"/>
     <use xlink:href="#m21d8b96018" x="692.77672" y="249.143676" style="fill: #55a868; stroke: #ffffff; stroke-width: 0.75"/>
     <use xlink:href="#m21d8b96018" x="700.867797" y="100.054258" style="fill: #55a868; stroke: #ffffff; stroke-width: 0.75"/>
     <use xlink:href="#m21d8b96018" x="708.958874" y="137.773535" style="fill: #55a868; stroke: #ffffff; stroke-width: 0.75"/>
     <use xlink:href="#m21d8b96018" x="717.049951" y="265.573482" style="fill: #55a868; stroke: #ffffff; stroke-width: 0.75"/>
     <use xlink:href="#m21d8b96018" x="725.141029" y="255.077192" style="fill: #55a868; stroke: #ffffff; stroke-width: 0.75"/>
     <use xlink:href="#m21d8b96018" x="733.232106" y="145.345383" style="fill: #55a868; stroke: #ffffff; stroke-width: 0.75"/>
     <use xlink:href="#m21d8b96018" x="741.323183" y="151.988864" style="fill: #55a868; stroke: #ffffff; stroke-width: 0.75"/>
     <use xlink:href="#m21d8b96018" x="749.41426" y="63.731964" style="fill: #55a868; stroke: #ffffff; stroke-width: 0.75"/>
     <use xlink:href="#m21d8b96018" x="757.505338" y="218.502449" style="fill: #55a868; stroke: #ffffff; stroke-width: 0.75"/>
     <use xlink:href="#m21d8b96018" x="765.596415" y="281.996151" style="fill: #55a868; stroke: #ffffff; stroke-width: 0.75"/>
     <use xlink:href="#m21d8b96018" x="773.687492" y="230.353763" style="fill: #55a868; stroke: #ffffff; stroke-width: 0.75"/>
     <use xlink:href="#m21d8b96018" x="781.778569" y="74.733465" style="fill: #55a868; stroke: #ffffff; stroke-width: 0.75"/>
     <use xlink:href="#m21d8b96018" x="789.869647" y="64.352147" style="fill: #55a868; stroke: #ffffff; stroke-width: 0.75"/>
     <use xlink:href="#m21d8b96018" x="797.960724" y="97.588952" style="fill: #55a868; stroke: #ffffff; stroke-width: 0.75"/>
    </g>
   </g>
   <g id="FillBetweenPolyCollection_3"/>
   <g id="line2d_20"/>
   <g id="line2d_21"/>
   <g id="line2d_22"/>
   <g id="FillBetweenPolyCollection_4"/>
   <g id="patch_3">
    <path d="M 75.45 365.1 
L 75.45 38.4 
" style="fill: none; stroke: #262626; stroke-width: 1.875; stroke-linejoin: miter; stroke-linecap: square"/>
   </g>
   <g id="patch_4">
    <path d="M 75.45 365.1 
L 840.371454 365.1 
" style="fill: none; stroke: #262626; stroke-width: 1.875; stroke-linejoin: miter; stroke-linecap: square"/>
   </g>
   <g id="text_18">
    <!-- Dynamic Time Series Prediction -->
    <g style="fill: #262626" transform="translate(330.372289 32.4) scale(0.18 -0.18)">
     <defs>
      <path id="ArialMT-44" d="M 494 0 
L 494 4581 
L 2072 4581 
Q 2606 4581 2888 4516 
Q 3281 4425 3559 4188 
Q 3922 3881 4101 3404 
Q 4281 2928 4281 2316 
Q 4281 1794 4159 1391 
Q 4038 988 3847 723 
Q 3656 459 3429 307 
Q 3203 156 2883 78 
Q 2563 0 2147 0 
L 494 0 
z
M 1100 541 
L 2078 541 
Q 2531 541 2789 625 
Q 3047 709 3200 863 
Q 3416 1078 3536 1442 
Q 3656 1806 3656 2325 
Q 3656 3044 3420 3430 
Q 3184 3816 2847 3947 
Q 2603 4041 2063 4041 
L 1100 4041 
L 1100 541 
z
" transform="scale(0.015625)"/>
      <path id="ArialMT-53" d="M 288 1472 
L 859 1522 
Q 900 1178 1048 958 
Q 1197 738 1509 602 
Q 1822 466 2213 466 
Q 2559 466 2825 569 
Q 3091 672 3220 851 
Q 3350 1031 3350 1244 
Q 3350 1459 3225 1620 
Q 3100 1781 2813 1891 
Q 2628 1963 1997 2114 
Q 1366 2266 1113 2400 
Q 784 2572 623 2826 
Q 463 3081 463 3397 
Q 463 3744 659 4045 
Q 856 4347 1234 4503 
Q 1613 4659 2075 4659 
Q 2584 4659 2973 4495 
Q 3363 4331 3572 4012 
Q 3781 3694 3797 3291 
L 3216 3247 
Q 3169 3681 2898 3903 
Q 2628 4125 2100 4125 
Q 1550 4125 1298 3923 
Q 1047 3722 1047 3438 
Q 1047 3191 1225 3031 
Q 1400 2872 2139 2705 
Q 2878 2538 3153 2413 
Q 3553 2228 3743 1945 
Q 3934 1663 3934 1294 
Q 3934 928 3725 604 
Q 3516 281 3123 101 
Q 2731 -78 2241 -78 
Q 1619 -78 1198 103 
Q 778 284 539 648 
Q 300 1013 288 1472 
z
" transform="scale(0.015625)"/>
      <path id="ArialMT-73" d="M 197 991 
L 753 1078 
Q 800 744 1014 566 
Q 1228 388 1613 388 
Q 2000 388 2187 545 
Q 2375 703 2375 916 
Q 2375 1106 2209 1216 
Q 2094 1291 1634 1406 
Q 1016 1563 777 1677 
Q 538 1791 414 1992 
Q 291 2194 291 2438 
Q 291 2659 392 2848 
Q 494 3038 669 3163 
Q 800 3259 1026 3326 
Q 1253 3394 1513 3394 
Q 1903 3394 2198 3281 
Q 2494 3169 2634 2976 
Q 2775 2784 2828 2463 
L 2278 2388 
Q 2241 2644 2061 2787 
Q 1881 2931 1553 2931 
Q 1166 2931 1000 2803 
Q 834 2675 834 2503 
Q 834 2394 903 2306 
Q 972 2216 1119 2156 
Q 1203 2125 1616 2013 
Q 2213 1853 2448 1751 
Q 2684 1650 2818 1456 
Q 2953 1263 2953 975 
Q 2953 694 2789 445 
Q 2625 197 2315 61 
Q 2006 -75 1616 -75 
Q 969 -75 630 194 
Q 291 463 197 991 
z
" transform="scale(0.015625)"/>
      <path id="ArialMT-6f" d="M 213 1659 
Q 213 2581 725 3025 
Q 1153 3394 1769 3394 
Q 2453 3394 2887 2945 
Q 3322 2497 3322 1706 
Q 3322 1066 3130 698 
Q 2938 331 2570 128 
Q 2203 -75 1769 -75 
Q 1072 -75 642 372 
Q 213 819 213 1659 
z
M 791 1659 
Q 791 1022 1069 705 
Q 1347 388 1769 388 
Q 2188 388 2466 706 
Q 2744 1025 2744 1678 
Q 2744 2294 2464 2611 
Q 2184 2928 1769 2928 
Q 1347 2928 1069 2612 
Q 791 2297 791 1659 
z
" transform="scale(0.015625)"/>
     </defs>
     <use xlink:href="#ArialMT-44"/>
     <use xlink:href="#ArialMT-79" transform="translate(72.216797 0)"/>
     <use xlink:href="#ArialMT-6e" transform="translate(122.216797 0)"/>
     <use xlink:href="#ArialMT-61" transform="translate(177.832031 0)"/>
     <use xlink:href="#ArialMT-6d" transform="translate(233.447266 0)"/>
     <use xlink:href="#ArialMT-69" transform="translate(316.748047 0)"/>
     <use xlink:href="#ArialMT-63" transform="translate(338.964844 0)"/>
     <use xlink:href="#ArialMT-20" transform="translate(388.964844 0)"/>
     <use xlink:href="#ArialMT-54" transform="translate(414.998047 0)"/>
     <use xlink:href="#ArialMT-69" transform="translate(472.332031 0)"/>
     <use xlink:href="#ArialMT-6d" transform="translate(494.548828 0)"/>
     <use xlink:href="#ArialMT-65" transform="translate(577.849609 0)"/>
     <use xlink:href="#ArialMT-20" transform="translate(633.464844 0)"/>
     <use xlink:href="#ArialMT-53" transform="translate(661.248047 0)"/>
     <use xlink:href="#ArialMT-65" transform="translate(727.947266 0)"/>
     <use xlink:href="#ArialMT-72" transform="translate(783.5625 0)"/>
     <use xlink:href="#ArialMT-69" transform="translate(816.863281 0)"/>
     <use xlink:href="#ArialMT-65" transform="translate(839.080078 0)"/>
     <use xlink:href="#ArialMT-73" transform="translate(894.695312 0)"/>
     <use xlink:href="#ArialMT-20" transform="translate(944.695312 0)"/>
     <use xlink:href="#ArialMT-50" transform="translate(972.478516 0)"/>
     <use xlink:href="#ArialMT-72" transform="translate(1039.177734 0)"/>
     <use xlink:href="#ArialMT-65" transform="translate(1072.478516 0)"/>
     <use xlink:href="#ArialMT-64" transform="translate(1128.09375 0)"/>
     <use xlink:href="#ArialMT-69" transform="translate(1183.708984 0)"/>
     <use xlink:href="#ArialMT-63" transform="translate(1205.925781 0)"/>
     <use xlink:href="#ArialMT-74" transform="translate(1255.925781 0)"/>
     <use xlink:href="#ArialMT-69" transform="translate(1283.708984 0)"/>
     <use xlink:href="#ArialMT-6f" transform="translate(1305.925781 0)"/>
     <use xlink:href="#ArialMT-6e" transform="translate(1361.541016 0)"/>
    </g>
   </g>
   <g id="legend_1">
    <g id="patch_5">
     <path d="M 706.311532 239.234648 
L 828.821454 239.234648 
Q 832.121454 239.234648 832.121454 235.934648 
L 832.121454 167.565352 
Q 832.121454 164.265352 828.821454 164.265352 
L 706.311532 164.265352 
Q 703.011532 164.265352 703.011532 167.565352 
L 703.011532 235.934648 
Q 703.011532 239.234648 706.311532 239.234648 
z
" style="fill: #ffffff; opacity: 0.8; stroke: #cccccc; stroke-width: 1.5; stroke-linejoin: miter"/>
    </g>
    <g id="line2d_23">
     <path d="M 709.611532 176.900742 
L 726.111532 176.900742 
L 742.611532 176.900742 
" style="fill: none; stroke: #4c72b0; stroke-width: 2.25; stroke-linecap: round"/>
     <g>
      <use xlink:href="#m1290a59ac8" x="726.111532" y="176.900742" style="fill: #4c72b0; stroke: #ffffff; stroke-width: 0.75"/>
     </g>
    </g>
    <g id="text_19">
     <!-- train -->
     <g style="fill: #262626" transform="translate(755.811532 182.675742) scale(0.165 -0.165)">
      <use xlink:href="#ArialMT-74"/>
      <use xlink:href="#ArialMT-72" transform="translate(27.783203 0)"/>
      <use xlink:href="#ArialMT-61" transform="translate(61.083984 0)"/>
      <use xlink:href="#ArialMT-69" transform="translate(116.699219 0)"/>
      <use xlink:href="#ArialMT-6e" transform="translate(138.916016 0)"/>
     </g>
    </g>
    <g id="line2d_24">
     <path d="M 709.611532 200.240508 
L 726.111532 200.240508 
L 742.611532 200.240508 
" style="fill: none; stroke: #dd8452; stroke-width: 2.25; stroke-linecap: round"/>
     <g>
      <use xlink:href="#m29b1ed7310" x="726.111532" y="200.240508" style="fill: #dd8452; stroke: #ffffff; stroke-width: 0.75"/>
     </g>
    </g>
    <g id="text_20">
     <!-- validation -->
     <g style="fill: #262626" transform="translate(755.811532 206.015508) scale(0.165 -0.165)">
      <defs>
       <path id="ArialMT-76" d="M 1344 0 
L 81 3319 
L 675 3319 
L 1388 1331 
Q 1503 1009 1600 663 
Q 1675 925 1809 1294 
L 2547 3319 
L 3125 3319 
L 1869 0 
L 1344 0 
z
" transform="scale(0.015625)"/>
      </defs>
      <use xlink:href="#ArialMT-76"/>
      <use xlink:href="#ArialMT-61" transform="translate(50 0)"/>
      <use xlink:href="#ArialMT-6c" transform="translate(105.615234 0)"/>
      <use xlink:href="#ArialMT-69" transform="translate(127.832031 0)"/>
      <use xlink:href="#ArialMT-64" transform="translate(150.048828 0)"/>
      <use xlink:href="#ArialMT-61" transform="translate(205.664062 0)"/>
      <use xlink:href="#ArialMT-74" transform="translate(261.279297 0)"/>
      <use xlink:href="#ArialMT-69" transform="translate(289.0625 0)"/>
      <use xlink:href="#ArialMT-6f" transform="translate(311.279297 0)"/>
      <use xlink:href="#ArialMT-6e" transform="translate(366.894531 0)"/>
     </g>
    </g>
    <g id="line2d_25">
     <path d="M 709.611532 223.580273 
L 726.111532 223.580273 
L 742.611532 223.580273 
" style="fill: none; stroke: #55a868; stroke-width: 2.25; stroke-linecap: round"/>
     <g>
      <use xlink:href="#m21d8b96018" x="726.111532" y="223.580273" style="fill: #55a868; stroke: #ffffff; stroke-width: 0.75"/>
     </g>
    </g>
    <g id="text_21">
     <!-- test -->
     <g style="fill: #262626" transform="translate(755.811532 229.355273) scale(0.165 -0.165)">
      <use xlink:href="#ArialMT-74"/>
      <use xlink:href="#ArialMT-65" transform="translate(27.783203 0)"/>
      <use xlink:href="#ArialMT-73" transform="translate(83.398438 0)"/>
      <use xlink:href="#ArialMT-74" transform="translate(133.398438 0)"/>
     </g>
    </g>
   </g>
  </g>
 </g>
 <defs>
  <clipPath id="pb614de2437">
   <rect x="75.45" y="38.4" width="764.921454" height="326.7"/>
  </clipPath>
 </defs>
</svg>
